<svg width="412" height="500" viewBox="0 0 412 500" fill="none" xmlns="http://www.w3.org/2000/svg">
<path d="M263.428 85.521C220.412 46.692 160.155 32.543 104.705 49.373C91.7629 53.301 79.1159 58.893 67.9409 66.773C16.8559 102.795 46.2809 143.154 26.0249 168.288C5.76893 193.422 -34.8851 245.57 -9.34207 290.106C16.2009 334.642 64.0109 331.367 88.2439 367.389C112.477 403.411 166.182 466.939 218.576 451.876C270.971 436.812 291.929 393.587 345.634 377.868C399.339 362.15 432.086 301.895 412.438 232.472C392.79 163.049 351.529 174.837 319.437 140.781C304.644 125.083 284.008 104.098 263.428 85.521Z" fill="#92E3A9"/>
<path opacity="0.7" d="M263.428 85.521C220.412 46.692 160.155 32.543 104.705 49.373C91.7629 53.301 79.1159 58.893 67.9409 66.773C16.8559 102.795 46.2809 143.154 26.0249 168.288C5.76893 193.422 -34.8851 245.57 -9.34207 290.106C16.2009 334.642 64.0109 331.367 88.2439 367.389C112.477 403.411 166.182 466.939 218.576 451.876C270.971 436.812 291.929 393.587 345.634 377.868C399.339 362.15 432.086 301.895 412.438 232.472C392.79 163.049 351.529 174.837 319.437 140.781C304.644 125.083 284.008 104.098 263.428 85.521Z" fill="white"/>
<path d="M387.518 393.929L387.592 392.786C387.735 390.573 387.219 388.346 386 386.493C384.795 384.661 383.083 380.65 381.056 371.935C377.001 354.505 379.281 343.461 364.402 322.035C349.523 300.609 325.737 280.663 318.38 271.355C311.023 262.047 306.13 253.926 296.032 225.088C285.934 196.251 292.614 193.092 280.966 175.042C269.318 156.992 246.736 135.804 222.697 131.519C198.658 127.234 165.804 130.542 145.18 141.862C124.556 153.182 106.434 168.133 93.9346 190.951C81.4356 213.769 83.9016 231.345 88.3416 258.066C92.7816 284.787 102.148 305.685 112.446 323.388C112.446 323.388 127.782 350.801 153.375 368.885C178.968 386.969 234.02 403.753 234.02 403.753C234.02 403.753 260.798 411.178 273.612 417.345C286.426 423.512 305.063 426.412 321.526 423.105C337.989 419.799 355.2 409.264 361.368 404.645C367.537 400.026 379.857 397.761 381.445 397.615C383.031 397.47 387.518 393.929 387.518 393.929Z" fill="#263238" stroke="#263238" stroke-miterlimit="10" stroke-linecap="round" stroke-linejoin="round"/>
<path d="M388.173 390.974C388.173 390.974 379.847 386.967 376.115 379.274C372.383 371.581 375.937 361.308 373.267 348.743C370.598 336.178 359.895 318.465 343.828 301.247C327.761 284.029 308.764 271.297 301.53 250.639C294.296 229.981 286.921 193.104 274.414 172.215C261.907 151.326 233.506 131.504 199.326 132.743C165.146 133.982 128.008 151.486 108.91 173.058C89.8111 194.63 86.0701 227.438 90.8391 255.883C95.6071 284.327 99.3871 302.041 125.263 339.362C151.139 376.683 214.862 395.56 232.592 399.735C250.323 403.91 277.537 420.341 298.427 421.679C319.318 423.017 339.159 416.415 351.722 406.824C364.285 397.233 368.385 388.182 372.101 387.919C375.817 387.656 386.468 392.912 387.516 393.93C388.565 394.947 390.4 400.189 383.925 402.456C377.45 404.723 373.845 400.808 363.609 407.161C353.373 413.515 337.773 427.285 308.218 426.904C278.663 426.523 268.533 419.34 255.011 413.345C241.489 407.35 193.466 394.378 174.933 384.945C156.4 375.513 140.278 366.327 119.897 339.856C95.2321 307.82 90.5941 290.788 84.9131 258.656C84.9131 258.656 80.5191 229.382 85.5261 205.13C90.5331 180.878 106.132 160.185 131.938 144.918C157.744 129.651 189.033 124.072 212.838 126.813C236.643 129.554 266.146 144.65 280.365 169.439C294.584 194.228 297.549 226.419 307.173 247.971C316.797 269.523 337.924 288.384 346.973 297.377C362.855 313.162 375.032 330.225 379.893 348.2C385.221 367.907 382.679 363.396 385.178 371.52C387.677 379.645 389.836 377.93 392.181 382.648C394.525 387.365 391.596 391.852 388.173 390.974Z" fill="#92E3A9" stroke="#263238" stroke-miterlimit="10" stroke-linecap="round" stroke-linejoin="round"/>
<path d="M242.291 312.933L233.846 297.25L228.519 284.142C228.519 284.142 250.197 268.941 251.912 256.313C253.627 243.685 250.04 239.049 244.101 229.101C238.163 219.153 225.586 196.555 225.586 196.555C225.586 196.555 238.573 183.17 240.606 181.968C242.639 180.765 248.335 179.507 248.74 177.156C249.144 174.805 247.427 172.706 247.427 172.706C247.427 172.706 244.802 168.716 241.708 167.59C238.614 166.464 233.671 164.268 233.671 164.268C233.671 164.268 234.61 158.539 236.009 154.122C237.408 149.705 239.441 148.502 236.052 147.234C232.663 145.966 225.961 148.558 225.163 149.083C224.365 149.608 216.701 151.555 212.361 155.284C208.021 159.013 206.764 163.135 201.255 167.028C195.745 170.921 191.755 173.546 188.147 177.264C184.54 180.982 182.78 185.771 182.78 185.771C182.78 185.771 181.612 195.753 184.182 200.99C186.752 206.227 189.059 208.61 189.672 210.359C190.285 212.108 191.696 218.242 191.729 220.439C191.762 222.637 192.178 225.927 192.178 225.927C192.178 225.927 181.66 223.228 173.23 222.989C164.8 222.75 160.842 222.663 160.842 222.663C160.842 222.663 134.59 216.391 120.519 221.073C106.448 225.755 98.0311 236.066 96.2631 254.85C94.4951 273.634 99.0671 285.288 109.009 308.072C118.951 330.856 134.282 346.597 145.217 357.496C156.152 368.395 170.99 375.718 187.73 382.866C204.47 390.014 216.147 391.816 225.878 390.863C235.609 389.91 240.856 388.073 247.241 383.873C253.625 379.674 258.161 369.494 255.502 353.488C252.844 337.482 242.291 312.933 242.291 312.933Z" fill="white" stroke="#263238" stroke-miterlimit="10" stroke-linecap="round" stroke-linejoin="round"/>
<path d="M240.395 323.756C240.395 323.756 230.07 315.297 231.029 320.557C231.987 325.817 242.26 336.651 242.26 336.651C242.26 336.651 240.199 328.242 240.395 323.756Z" fill="#263238" stroke="#263238" stroke-miterlimit="10" stroke-linecap="round" stroke-linejoin="round"/>
<path d="M237.318 318.985C237.318 318.985 224.472 306.405 218.823 304.85" stroke="#263238" stroke-miterlimit="10" stroke-linecap="round" stroke-linejoin="round"/>
<path d="M248.844 353.329C234.919 328.178 242.819 311.763 244.202 308.89C245.585 306.017 250.432 303.296 254.475 301.198C258.517 299.1 267.62 294.889 271.694 294.827C275.767 294.766 277.332 290.464 279.353 289.415C281.374 288.366 286.208 291.45 289.309 294.459C292.41 297.468 296.787 297.3 299.523 296.342C302.259 295.384 311.878 291.674 324.873 295.654C337.868 299.634 348.66 306.091 361.308 327.595C367.152 337.53 369.232 348.783 369.78 358.015C370.744 374.28 364.758 390.34 352.826 401.436C351.169 402.977 349.367 404.456 347.414 405.822C331.792 416.752 316.458 419.733 300.955 418.337C285.453 416.941 267.639 404.071 262.455 398.038C257.271 392.005 253.958 388.389 253.958 388.389C253.958 388.389 250.082 388.04 246.191 386.673C242.3 385.306 242.3 385.306 242.3 385.306" fill="white"/>
<path d="M248.844 353.329C234.919 328.178 242.819 311.763 244.202 308.89C245.585 306.017 250.432 303.296 254.475 301.198C258.517 299.1 267.62 294.889 271.694 294.827C275.767 294.766 277.332 290.464 279.353 289.415C281.374 288.366 286.208 291.45 289.309 294.459C292.41 297.468 296.787 297.3 299.523 296.342C302.259 295.384 311.878 291.674 324.873 295.654C337.868 299.634 348.66 306.091 361.308 327.595C367.152 337.53 369.232 348.783 369.78 358.015C370.744 374.28 364.758 390.34 352.826 401.436C351.169 402.977 349.367 404.456 347.414 405.822C331.792 416.752 316.458 419.733 300.955 418.337C285.453 416.941 267.639 404.071 262.455 398.038C257.271 392.005 253.958 388.389 253.958 388.389C253.958 388.389 250.082 388.04 246.191 386.673C242.3 385.306 242.3 385.306 242.3 385.306" stroke="#263238" stroke-miterlimit="10" stroke-linecap="round" stroke-linejoin="round"/>
<path d="M244.539 355.293C244.081 354.178 243.549 353.085 242.932 352.024" stroke="#263238" stroke-miterlimit="10" stroke-linecap="round" stroke-linejoin="round"/>
<path d="M245.587 382.312C245.587 382.312 248.64 371.012 246.03 359.973" stroke="#263238" stroke-miterlimit="10" stroke-linecap="round" stroke-linejoin="round"/>
<path d="M289.227 356.59C289.227 356.59 295.095 367.501 288.15 373.004C281.205 378.507 271.174 375.195 266.811 369.557C262.448 363.919 260.457 360.181 260.608 356.716C260.759 353.251 264.103 352.08 264.103 352.08" stroke="#263238" stroke-miterlimit="10" stroke-linecap="round" stroke-linejoin="round"/>
<path d="M268.072 365.363C268.072 365.363 275.156 375.849 283.438 371.242C291.72 366.636 282.95 359.129 282.95 359.129" stroke="#263238" stroke-miterlimit="10" stroke-linecap="round" stroke-linejoin="round"/>
<path d="M271.97 361.488C271.763 361.153 271.591 360.797 271.46 360.422C270.289 357.079 271.703 356.242 271.703 356.242C271.703 356.242 276.765 360.953 278.755 357.867C278.755 357.867 280.768 359.428 281.439 361.059" stroke="#263238" stroke-miterlimit="10" stroke-linecap="round" stroke-linejoin="round"/>
<path d="M290.161 303.716C290.161 303.716 285.832 307.131 288.354 312.197" stroke="#263238" stroke-miterlimit="10" stroke-linecap="round" stroke-linejoin="round"/>
<path d="M295.328 301.906C295.328 301.906 300.967 304.367 294.388 313.837" stroke="#263238" stroke-miterlimit="10" stroke-linecap="round" stroke-linejoin="round"/>
<path d="M262.723 298.369C262.723 298.369 261.743 300.406 262.922 302.456" stroke="#263238" stroke-miterlimit="10" stroke-linecap="round" stroke-linejoin="round"/>
<path d="M274.977 300.034C272.401 297.627 276.113 294.278 276.113 294.278C276.113 294.278 276.173 293.257 277.762 291.337" stroke="#263238" stroke-miterlimit="10" stroke-linecap="round" stroke-linejoin="round"/>
<path d="M262.882 254.087C262.882 254.087 259.969 247.451 256.367 245.572C252.764 243.693 244.257 242.942 243.575 244.359C242.893 245.776 242.893 245.776 242.893 245.776C242.893 245.776 240.436 246.047 239.763 248.05C239.09 250.052 239.169 251.399 239.169 251.399L237.595 251.95" fill="white"/>
<path d="M262.882 254.087C262.882 254.087 259.969 247.451 256.367 245.572C252.764 243.693 244.257 242.942 243.575 244.359C242.893 245.776 242.893 245.776 242.893 245.776C242.893 245.776 240.436 246.047 239.763 248.05C239.09 250.052 239.169 251.399 239.169 251.399L237.595 251.95" stroke="#263238" stroke-miterlimit="10" stroke-linecap="round" stroke-linejoin="round"/>
<path d="M239.169 251.398C239.169 251.398 244.922 252.132 247.108 253.329" stroke="#263238" stroke-miterlimit="10" stroke-linecap="round" stroke-linejoin="round"/>
<path d="M242.893 245.775C242.893 245.775 249.617 244.795 254.522 247.592" stroke="#263238" stroke-miterlimit="10" stroke-linecap="round" stroke-linejoin="round"/>
<path d="M243.46 260.729L239.879 259.59" stroke="#263238" stroke-miterlimit="10" stroke-linecap="round" stroke-linejoin="round"/>
<path d="M238.962 264.819C238.962 264.819 240.465 259.581 237.596 251.949C234.727 244.316 222.167 215.736 221.327 210.534C220.487 205.332 220.25 201.292 220.25 201.292L224.289 197.129" fill="white"/>
<path d="M238.962 264.819C238.962 264.819 240.465 259.581 237.596 251.949C234.727 244.316 222.167 215.736 221.327 210.534C220.487 205.332 220.25 201.292 220.25 201.292L224.289 197.129" stroke="#263238" stroke-miterlimit="10" stroke-linecap="round" stroke-linejoin="round"/>
<path d="M203.944 258.406C200.198 256.52 195.489 253.283 193.536 248.336C190.063 239.541 192.187 232.712 192.099 230.779C192.011 228.847 192.343 227.553 192.343 227.553" stroke="#263238" stroke-miterlimit="10" stroke-linecap="round" stroke-linejoin="round"/>
<path d="M209.189 260.522C209.189 260.522 208.428 260.31 207.232 259.855" stroke="#263238" stroke-miterlimit="10" stroke-linecap="round" stroke-linejoin="round"/>
<path d="M166.216 224.805C164.931 224.463 163.796 224.226 162.879 224.13" stroke="#263238" stroke-miterlimit="10" stroke-linecap="round" stroke-linejoin="round"/>
<path d="M191.516 234.714C191.516 234.714 177.63 228.315 168.42 225.446" stroke="#263238" stroke-miterlimit="10" stroke-linecap="round" stroke-linejoin="round"/>
<path d="M142.766 272.732C141.637 272.015 140.525 271.247 139.436 270.422" stroke="#263238" stroke-miterlimit="10" stroke-linecap="round" stroke-linejoin="round"/>
<path d="M180.165 282.464C180.165 282.464 162.839 283.29 146.937 275.117" stroke="#263238" stroke-miterlimit="10" stroke-linecap="round" stroke-linejoin="round"/>
<path d="M260.867 252.974C260.867 252.974 256.782 249.011 251.59 249.585C246.397 250.159 250.547 254.307 250.547 254.307C250.547 254.307 247.6 255.961 247.998 257.689C248.395 259.417 252.932 260.525 257.192 259.655C261.452 258.785 262.318 254.748 260.867 252.974Z" fill="white" stroke="#263238" stroke-miterlimit="10" stroke-linecap="round" stroke-linejoin="round"/>
<path d="M233.094 351.152C233.094 351.152 231.094 341.02 224.821 335.48C218.548 329.939 210.579 322.207 208.221 319.009C205.863 315.811 203.409 312.338 203.409 312.338C203.409 312.338 222.124 303.404 227.986 300.327C233.848 297.25 244.61 293.887 248.276 291.984C251.943 290.081 257.399 289.869 261.695 287.327C265.991 284.785 269.381 279.657 269.713 277.051C270.045 274.445 268.613 273.91 268.613 273.91C268.613 273.91 269.38 271.36 267.891 267.11C266.403 262.86 265.691 260.827 265.691 260.827C265.691 260.827 265.349 258.665 264.258 256.143C263.167 253.621 260.867 252.974 260.867 252.974C260.867 252.974 257.902 255.883 254.908 256.098C251.914 256.313 247.008 257.827 243.461 260.729C239.913 263.631 236.579 268.325 236.579 268.325C236.579 268.325 223.7 272.42 211.088 273.725C198.476 275.03 176.118 282.859 168.182 290.409C160.246 297.959 159.592 307.938 162.633 316.623C165.674 325.308 181.338 345.752 183.048 348.265C184.758 350.778 187.947 361.07 187.947 361.07" fill="white"/>
<path d="M233.094 351.152C233.094 351.152 231.094 341.02 224.821 335.48C218.548 329.939 210.579 322.207 208.221 319.009C205.863 315.811 203.409 312.338 203.409 312.338C203.409 312.338 222.124 303.404 227.986 300.327C233.848 297.25 244.61 293.887 248.276 291.984C251.943 290.081 257.399 289.869 261.695 287.327C265.991 284.785 269.381 279.657 269.713 277.051C270.045 274.445 268.613 273.91 268.613 273.91C268.613 273.91 269.38 271.36 267.891 267.11C266.403 262.86 265.691 260.827 265.691 260.827C265.691 260.827 265.349 258.665 264.258 256.143C263.167 253.621 260.867 252.974 260.867 252.974C260.867 252.974 257.902 255.883 254.908 256.098C251.914 256.313 247.008 257.827 243.461 260.729C239.913 263.631 236.579 268.325 236.579 268.325C236.579 268.325 223.7 272.42 211.088 273.725C198.476 275.03 176.118 282.859 168.182 290.409C160.246 297.959 159.592 307.938 162.633 316.623C165.674 325.308 181.338 345.752 183.048 348.265C184.758 350.778 187.947 361.07 187.947 361.07" stroke="#263238" stroke-miterlimit="10" stroke-linecap="round" stroke-linejoin="round"/>
<path d="M203.409 312.338C203.409 312.338 194.723 317.625 182.978 310.743" stroke="#263238" stroke-miterlimit="10" stroke-linecap="round" stroke-linejoin="round"/>
<path d="M201.085 379.767C201.085 379.767 191.379 373.351 188.955 364.188" stroke="#263238" stroke-miterlimit="10" stroke-linecap="round" stroke-linejoin="round"/>
<path d="M182.781 185.77C182.781 185.77 183.943 183.381 186.496 181.702C189.049 180.023 194.487 179.296 199.034 177.704C203.58 176.112 206.124 173.847 215.295 168.084C224.466 162.321 231.356 164.619 231.356 164.619C231.356 164.619 232.502 166.585 231.743 167.247C230.984 167.909 228.646 169.718 228.646 169.718" stroke="#263238" stroke-miterlimit="10" stroke-linecap="round" stroke-linejoin="round"/>
<path d="M246.118 171.524C246.118 171.524 246.383 173.412 243.56 174.401C240.737 175.39 238.46 177.375 238.46 177.375" stroke="#263238" stroke-miterlimit="10" stroke-linecap="round" stroke-linejoin="round"/>
<path d="M241.709 167.59C241.709 167.59 243.064 169.028 241.132 170.299C239.2 171.57 236.509 173.503 236.509 173.503" stroke="#263238" stroke-miterlimit="10" stroke-linecap="round" stroke-linejoin="round"/>
<path d="M237.586 166.39C237.586 166.39 238.071 167.21 235.963 168.543C233.854 169.876 232.222 171.438 232.222 171.438" stroke="#263238" stroke-miterlimit="10" stroke-linecap="round" stroke-linejoin="round"/>
<path d="M168.893 137.27C168.893 137.27 171.136 145.74 169.469 151.003C167.802 156.266 163.14 167.453 163.332 172.455C163.524 177.457 161.129 188.435 162.076 193.368C163.023 198.301 171.049 205.629 179.361 208.763C187.673 211.897 189.977 211.362 189.977 211.362C189.977 211.362 191.103 215.503 191.73 220.439C191.939 222.086 192.017 222.075 192.017 222.075C192.017 222.075 175.777 221.912 168.541 216.842C161.306 211.771 158.326 207.16 158.326 207.16C158.326 207.16 151.742 202.836 149.847 192.97C147.952 183.104 151.868 176.469 151.868 176.469C151.868 176.469 153.204 164.692 153.975 157.988C154.747 151.283 156.518 149.103 157.195 147.696C157.872 146.289 157.742 140.872 157.742 140.872L168.893 137.27Z" fill="#92E3A9" stroke="#263238" stroke-miterlimit="10" stroke-linecap="round" stroke-linejoin="round"/>
<path d="M162.402 168.686C162.402 168.686 157.235 173.42 155.221 174.905" stroke="#263238" stroke-miterlimit="10" stroke-linecap="round" stroke-linejoin="round"/>
<path d="M161.069 196.06C161.069 196.06 158.577 200.637 159.594 206.326" stroke="#263238" stroke-miterlimit="10" stroke-linecap="round" stroke-linejoin="round"/>
<path d="M268.835 269.772C268.835 269.772 269.626 268.127 272.342 264.169C275.058 260.21 283.363 253.473 281.633 246.969C279.902 240.465 277.234 236.751 277.234 236.751C277.234 236.751 277.451 224.096 269.558 220.297C261.665 216.498 260.447 216.925 257.938 218.35C255.429 219.776 253.237 220.543 253.237 220.543C253.237 220.543 241.178 216.562 236.465 217.939C231.751 219.316 224.748 220.401 224.748 220.401L228.391 229.243C228.391 229.243 236.966 229.522 240.815 230.362C244.664 231.202 249.256 232.602 253.239 231.481C257.222 230.36 258.269 229.446 258.269 229.446L262.106 229.47C262.106 229.47 264.056 234.256 265.774 239.944C267.492 245.632 268.82 247.081 268.82 247.081C268.82 247.081 269.575 248.457 268.638 251.247C267.701 254.036 264.259 256.144 264.259 256.144L265.692 260.828L268.835 269.772Z" fill="#92E3A9" stroke="#263238" stroke-miterlimit="10" stroke-linecap="round" stroke-linejoin="round"/>
<path d="M256.58 227.154C256.58 227.154 254.295 222.3 250.482 220.32" stroke="#263238" stroke-miterlimit="10" stroke-linecap="round" stroke-linejoin="round"/>
<path d="M262.105 229.469C262.105 229.469 261.365 224.113 262.294 220.083" stroke="#263238" stroke-miterlimit="10" stroke-linecap="round" stroke-linejoin="round"/>
<path d="M274.863 241.491C273.498 244.006 271.64 247.106 269.55 249.715" stroke="#263238" stroke-miterlimit="10" stroke-linecap="round" stroke-linejoin="round"/>
<path d="M277.235 236.751C277.235 236.751 276.728 237.896 275.852 239.613" stroke="#263238" stroke-miterlimit="10" stroke-linecap="round" stroke-linejoin="round"/>
<path d="M35.9521 181.616C35.9521 181.616 39.9121 227.714 63.3741 261.97" stroke="#263238" stroke-width="3" stroke-miterlimit="10"/>
<path d="M119.065 120.592C119.065 120.592 81.8963 153.534 68.4333 205.48C54.9703 257.426 81.3863 318.953 95.5343 338.368" stroke="#263238" stroke-width="3" stroke-miterlimit="10"/>
<path d="M49.6699 246.237C49.6699 246.237 58.2799 290.517 98.8939 333.035" stroke="#263238" stroke-width="3" stroke-miterlimit="10"/>
<path d="M109.501 131.776C109.501 131.776 106.052 145.574 110.032 154.065C114.012 162.556 124.095 167.863 134.178 167.332C144.261 166.801 149.037 162.29 150.099 156.718C151.16 151.146 147.711 142.92 147.711 142.92C147.711 142.92 155.141 148.758 164.693 147.696C174.245 146.635 178.226 144.247 183.267 140.532C188.309 136.817 193.35 133.102 193.35 133.102C193.35 133.102 179.817 126.999 170.796 126.734C161.774 126.469 131.259 126.469 125.952 126.469C120.645 126.469 115.869 122.755 109.501 131.776Z" fill="#92E3A9" stroke="#263238" stroke-miterlimit="10"/>
<path d="M109.502 131.776C109.502 131.776 109 133.787 108.6 136.743C110.542 138.146 111.84 139.602 111.84 139.602C111.84 139.602 114.027 137.05 119.494 138.873C124.961 140.695 126.42 140.331 132.252 141.424C137.841 142.472 148.109 146.195 148.956 146.504C148.326 144.393 147.711 142.921 147.711 142.921C147.711 142.921 148.775 143.755 150.611 144.735L151.934 143.247C151.934 143.247 137.354 130.49 136.261 130.49L128.242 126.481L128.129 126.471C127.201 126.471 126.46 126.471 125.953 126.471C120.646 126.469 115.87 122.755 109.502 131.776Z" fill="#263238" stroke="#263238" stroke-miterlimit="10"/>
<path d="M84.5587 133.899C84.5587 133.899 73.6797 138.145 66.7807 139.737C59.8817 141.329 58.5547 141.329 58.5547 141.329C58.5547 141.329 69.6997 153.004 80.5787 156.719C91.4577 160.434 102.868 152.474 107.114 146.636C111.359 140.798 116.136 133.369 116.136 133.369C116.136 133.369 112.156 128.062 103.399 127.797C94.6417 127.531 84.5587 133.899 84.5587 133.899Z" fill="#92E3A9" stroke="#263238" stroke-miterlimit="10"/>
<path d="M71.7441 137.05C71.7441 137.05 75.0241 139.602 82.6791 139.966C90.3341 140.331 101.633 132.676 101.633 132.676C101.633 132.676 89.5481 131.453 87.0531 132.676C84.5581 133.899 71.7441 137.05 71.7441 137.05Z" fill="#263238" stroke="#263238" stroke-miterlimit="10"/>
<path d="M103.398 127.796C100.233 127.7 96.898 128.472 93.925 129.495L93.25 133.041C93.25 133.041 101.633 133.405 105.279 134.863C108.924 136.321 111.84 139.602 111.84 139.602C111.84 139.602 111.976 139.444 112.264 139.234C114.483 135.936 116.135 133.368 116.135 133.368C116.135 133.368 112.154 128.061 103.398 127.796Z" fill="#263238" stroke="#263238" stroke-miterlimit="10"/>
<path d="M101.011 98.8729C101.011 98.8729 93.3156 86.4019 82.7016 82.4219C72.0876 78.4419 59.3506 78.7069 57.2286 79.5029C55.1056 80.2989 57.2286 92.2399 60.4126 98.3429C63.5966 104.446 78.9866 109.753 88.2736 111.61C97.5606 113.467 107.644 115.856 107.379 111.61C107.114 107.364 101.011 98.8729 101.011 98.8729Z" fill="#92E3A9"/>
<path opacity="0.3" d="M101.011 98.8729C101.011 98.8729 93.3156 86.4019 82.7016 82.4219C72.0876 78.4419 59.3506 78.7069 57.2286 79.5029C55.1056 80.2989 57.2286 92.2399 60.4126 98.3429C63.5966 104.446 78.9866 109.753 88.2736 111.61C97.5606 113.467 107.644 115.856 107.379 111.61C107.114 107.364 101.011 98.8729 101.011 98.8729Z" fill="white"/>
<path d="M101.011 98.8729C101.011 98.8729 93.3156 86.4019 82.7016 82.4219C72.0876 78.4419 59.3506 78.7069 57.2286 79.5029C55.1056 80.2989 57.2286 92.2399 60.4126 98.3429C63.5966 104.446 78.9866 109.753 88.2736 111.61C97.5606 113.467 107.644 115.856 107.379 111.61C107.114 107.364 101.011 98.8729 101.011 98.8729Z" stroke="#263238" stroke-miterlimit="10"/>
<path d="M100.48 85.871C100.48 85.871 98.6227 79.237 103.664 72.338C108.705 65.439 114.012 58.009 116.135 59.867C118.258 61.724 130.994 74.196 132.586 81.36C134.178 88.524 134.709 95.423 134.709 95.423C134.709 95.423 132.852 102.853 125.952 105.772C119.053 108.691 110.827 104.976 106.316 99.404C101.807 93.832 100.48 85.871 100.48 85.871Z" fill="#92E3A9"/>
<path opacity="0.3" d="M100.48 85.871C100.48 85.871 98.6227 79.237 103.664 72.338C108.705 65.439 114.012 58.009 116.135 59.867C118.258 61.724 130.994 74.196 132.586 81.36C134.178 88.524 134.709 95.423 134.709 95.423C134.709 95.423 132.852 102.853 125.952 105.772C119.053 108.691 110.827 104.976 106.316 99.404C101.807 93.832 100.48 85.871 100.48 85.871Z" fill="white"/>
<path d="M100.48 85.871C100.48 85.871 98.6227 79.237 103.664 72.338C108.705 65.439 114.012 58.009 116.135 59.867C118.258 61.724 130.994 74.196 132.586 81.36C134.178 88.524 134.709 95.423 134.709 95.423C134.709 95.423 132.852 102.853 125.952 105.772C119.053 108.691 110.827 104.976 106.316 99.404C101.807 93.832 100.48 85.871 100.48 85.871Z" stroke="#263238" stroke-miterlimit="10"/>
<path d="M147.71 126.469C147.71 126.469 164.162 118.509 167.346 111.875C170.53 105.241 183.267 89.8509 185.92 85.3399C188.573 80.8289 189.635 78.7059 186.981 77.9099C184.328 77.1139 169.203 81.3589 162.304 84.0129C155.405 86.6659 153.547 90.3809 153.547 90.3809C153.547 90.3809 153.812 83.4819 153.812 78.4399C153.812 73.3979 148.24 79.7669 139.218 87.1959C130.196 94.6259 124.359 104.709 124.093 105.77C123.828 106.831 136.564 106.831 137.36 112.138C138.156 117.445 134.707 123.017 133.645 125.936C132.584 128.855 132.584 130.447 138.156 130.447C143.73 130.45 147.71 126.469 147.71 126.469Z" fill="#92E3A9"/>
<path opacity="0.3" d="M147.71 126.469C147.71 126.469 164.162 118.509 167.346 111.875C170.53 105.241 183.267 89.8509 185.92 85.3399C188.573 80.8289 189.635 78.7059 186.981 77.9099C184.328 77.1139 169.203 81.3589 162.304 84.0129C155.405 86.6659 153.547 90.3809 153.547 90.3809C153.547 90.3809 153.812 83.4819 153.812 78.4399C153.812 73.3979 148.24 79.7669 139.218 87.1959C130.196 94.6259 124.359 104.709 124.093 105.77C123.828 106.831 136.564 106.831 137.36 112.138C138.156 117.445 134.707 123.017 133.645 125.936C132.584 128.855 132.584 130.447 138.156 130.447C143.73 130.45 147.71 126.469 147.71 126.469Z" fill="white"/>
<path d="M147.71 126.469C147.71 126.469 164.162 118.509 167.346 111.875C170.53 105.241 183.267 89.8509 185.92 85.3399C188.573 80.8289 189.635 78.7059 186.981 77.9099C184.328 77.1139 169.203 81.3589 162.304 84.0129C155.405 86.6659 153.547 90.3809 153.547 90.3809C153.547 90.3809 153.812 83.4819 153.812 78.4399C153.812 73.3979 148.24 79.7669 139.218 87.1959C130.196 94.6259 124.359 104.709 124.093 105.77C123.828 106.831 136.564 106.831 137.36 112.138C138.156 117.445 134.707 123.017 133.645 125.936C132.584 128.855 132.584 130.447 138.156 130.447C143.73 130.45 147.71 126.469 147.71 126.469Z" stroke="#263238" stroke-miterlimit="10"/>
<path d="M153.548 90.382C153.548 90.382 151.425 95.423 150.364 101.527C149.303 107.63 147.71 112.937 146.118 114.529" stroke="#263238" stroke-miterlimit="10"/>
<path d="M25.6515 110.549C25.6515 110.549 22.4675 107.63 32.8155 106.303C43.1645 104.976 52.4515 106.568 59.0845 108.691C65.7185 110.814 67.0445 111.61 75.8015 115.059C84.5585 118.509 96.2335 123.815 97.8255 127.265C99.4175 130.715 97.8255 131.776 97.8255 131.776C97.8255 131.776 89.3345 133.633 81.9045 132.307C74.4755 130.98 30.1625 123.285 25.6515 110.549Z" fill="#92E3A9"/>
<path opacity="0.3" d="M25.6515 110.549C25.6515 110.549 22.4675 107.63 32.8155 106.303C43.1645 104.976 52.4515 106.568 59.0845 108.691C65.7185 110.814 67.0445 111.61 75.8015 115.059C84.5585 118.509 96.2335 123.815 97.8255 127.265C99.4175 130.715 97.8255 131.776 97.8255 131.776C97.8255 131.776 89.3345 133.633 81.9045 132.307C74.4755 130.98 30.1625 123.285 25.6515 110.549Z" fill="white"/>
<path d="M25.6515 110.549C25.6515 110.549 22.4675 107.63 32.8155 106.303C43.1645 104.976 52.4515 106.568 59.0845 108.691C65.7185 110.814 67.0445 111.61 75.8015 115.059C84.5585 118.509 96.2335 123.815 97.8255 127.265C99.4175 130.715 97.8255 131.776 97.8255 131.776C97.8255 131.776 89.3345 133.633 81.9045 132.307C74.4755 130.98 30.1625 123.285 25.6515 110.549Z" stroke="#263238" stroke-miterlimit="10"/>
<path d="M107.644 132.042C107.644 132.042 93.5807 132.042 89.0697 130.45C84.5587 128.858 71.8217 121.693 65.1887 113.733C58.5547 105.773 52.1867 94.3629 55.3707 94.3629C58.5547 94.3629 81.9057 98.0779 91.7237 104.181C101.542 110.284 105.787 111.611 105.787 111.611C105.787 111.611 121.177 124.082 119.32 128.328C117.462 132.572 107.644 132.042 107.644 132.042Z" fill="#92E3A9"/>
<path opacity="0.3" d="M107.644 132.042C107.644 132.042 93.5807 132.042 89.0697 130.45C84.5587 128.858 71.8217 121.693 65.1887 113.733C58.5547 105.773 52.1867 94.3629 55.3707 94.3629C58.5547 94.3629 81.9057 98.0779 91.7237 104.181C101.542 110.284 105.787 111.611 105.787 111.611C105.787 111.611 121.177 124.082 119.32 128.328C117.462 132.572 107.644 132.042 107.644 132.042Z" fill="white"/>
<path d="M107.644 132.042C107.644 132.042 93.5807 132.042 89.0697 130.45C84.5587 128.858 71.8217 121.693 65.1887 113.733C58.5547 105.773 52.1867 94.3629 55.3707 94.3629C58.5547 94.3629 81.9057 98.0779 91.7237 104.181C101.542 110.284 105.787 111.611 105.787 111.611C105.787 111.611 121.177 124.082 119.32 128.328C117.462 132.572 107.644 132.042 107.644 132.042Z" stroke="#263238" stroke-miterlimit="10"/>
<path d="M89.0694 130.45C92.8344 131.779 103.246 131.998 106.589 132.035C106.076 130.784 105.277 129.631 105.277 129.032C105.277 127.574 101.632 119.191 100.538 118.826C99.4454 118.461 98.7164 119.919 91.7904 122.836C84.8654 125.752 77.2104 122.471 77.2104 122.471L76.9404 123.821C81.8754 127.137 86.6534 129.597 89.0694 130.45Z" fill="#263238" stroke="#263238" stroke-miterlimit="10"/>
<path d="M88.5382 127C88.5382 127 72.0872 119.57 60.9422 117.182C49.7972 114.794 38.9182 116.651 32.0192 113.732C25.1202 110.813 24.3242 108.691 24.3242 110.548C24.3242 112.405 38.1222 126.469 46.8782 131.51C55.6342 136.552 65.4522 137.613 76.8622 136.817C88.2722 136.021 97.8242 133.368 97.8242 131.776C97.8252 130.184 88.5382 127 88.5382 127Z" fill="#92E3A9" stroke="#263238" stroke-miterlimit="10"/>
<path d="M122.237 104.711C122.237 104.711 114.277 97.0159 109.235 90.3819C104.193 83.7479 100.479 76.8489 97.0295 78.9719C93.5805 81.0949 87.2115 90.6469 86.9465 100.2C86.6815 109.752 93.0495 114.263 100.479 116.917C107.908 119.57 118.522 115.856 122.237 104.711Z" fill="#92E3A9"/>
<path opacity="0.3" d="M122.237 104.711C122.237 104.711 114.277 97.0159 109.235 90.3819C104.193 83.7479 100.479 76.8489 97.0295 78.9719C93.5805 81.0949 87.2115 90.6469 86.9465 100.2C86.6815 109.752 93.0495 114.263 100.479 116.917C107.908 119.57 118.522 115.856 122.237 104.711Z" fill="white"/>
<path d="M122.237 104.711C122.237 104.711 114.277 97.0159 109.235 90.3819C104.193 83.7479 100.479 76.8489 97.0295 78.9719C93.5805 81.0949 87.2115 90.6469 86.9465 100.2C86.6815 109.752 93.0495 114.263 100.479 116.917C107.908 119.57 118.522 115.856 122.237 104.711Z" stroke="#263238" stroke-miterlimit="10"/>
<path d="M126.748 134.96C126.748 134.96 135.504 139.471 146.118 143.451C156.732 147.431 168.142 142.92 172.653 137.613C177.164 132.306 185.39 120.366 186.186 118.508C186.982 116.651 185.655 113.466 183.002 112.405C180.348 111.344 172.123 114.528 170 116.12C167.877 117.712 156.202 120.896 150.099 122.754C143.996 124.611 137.893 127.53 136.832 127.796C135.77 128.061 126.217 130.715 126.748 134.96Z" fill="#92E3A9" stroke="#263238" stroke-miterlimit="10"/>
<path d="M183.002 112.406C180.348 111.345 172.123 114.529 170 116.121C167.877 117.713 156.202 120.897 150.099 122.755C148.968 123.099 147.837 123.48 146.737 123.874C151.247 123.201 165.524 120.989 173.714 118.775C183.532 116.122 186.185 117.448 186.185 117.448L186.392 117.246C186.372 115.448 185.121 113.254 183.002 112.406Z" fill="#92E3A9"/>
<path opacity="0.3" d="M183.002 112.406C180.348 111.345 172.123 114.529 170 116.121C167.877 117.713 156.202 120.897 150.099 122.755C148.968 123.099 147.837 123.48 146.737 123.874C151.247 123.201 165.524 120.989 173.714 118.775C183.532 116.122 186.185 117.448 186.185 117.448L186.392 117.246C186.372 115.448 185.121 113.254 183.002 112.406Z" fill="white"/>
<path d="M183.002 112.406C180.348 111.345 172.123 114.529 170 116.121C167.877 117.713 156.202 120.897 150.099 122.755C148.968 123.099 147.837 123.48 146.737 123.874C151.247 123.201 165.524 120.989 173.714 118.775C183.532 116.122 186.185 117.448 186.185 117.448L186.392 117.246C186.372 115.448 185.121 113.254 183.002 112.406Z" stroke="#263238" stroke-miterlimit="10"/>
<path d="M121.972 100.465C121.972 100.465 116.134 102.057 108.705 104.18C101.275 106.303 92.7838 111.344 91.7228 118.774C90.6618 126.204 94.3758 128.857 102.071 131.511C109.766 134.165 119.849 137.349 126.748 134.96C133.647 132.572 143.995 124.877 144.526 116.12C145.057 107.363 142.138 104.179 136.035 101.526C129.932 98.8729 121.972 100.465 121.972 100.465Z" fill="#92E3A9" stroke="#263238" stroke-miterlimit="10"/>
<path d="M95.5336 338.368C95.5336 338.368 93.0046 348.483 95.9226 354.708C98.8406 360.933 106.233 364.823 113.625 364.434C121.017 364.045 124.518 360.738 125.296 356.653C126.074 352.568 123.545 346.538 123.545 346.538C123.545 346.538 128.992 350.818 135.995 350.039C142.998 349.261 145.916 347.51 149.612 344.787C153.308 342.064 157.004 339.34 157.004 339.34C157.004 339.34 147.083 334.866 140.469 334.671C133.855 334.477 111.485 334.477 107.594 334.477C103.704 334.478 100.203 331.755 95.5336 338.368Z" fill="#92E3A9" stroke="#263238" stroke-miterlimit="10"/>
<path d="M95.534 338.368C95.534 338.368 95.166 339.842 94.873 342.009C96.297 343.038 97.248 344.105 97.248 344.105C97.248 344.105 98.851 342.234 102.859 343.571C106.867 344.907 107.936 344.64 112.211 345.441C116.308 346.209 123.836 348.939 124.457 349.165C123.995 347.617 123.544 346.538 123.544 346.538C123.544 346.538 124.324 347.149 125.67 347.868L126.64 346.777C126.64 346.777 115.951 337.424 115.15 337.424L109.271 334.485L109.188 334.477C108.508 334.477 107.965 334.477 107.593 334.477C103.704 334.478 100.203 331.755 95.534 338.368Z" fill="#263238" stroke="#263238" stroke-miterlimit="10"/>
<path d="M77.2485 339.925C77.2485 339.925 69.2726 343.037 64.2156 344.205C59.1576 345.372 58.1855 345.372 58.1855 345.372C58.1855 345.372 66.3556 353.931 74.3316 356.655C82.3076 359.378 90.6716 353.543 93.7846 349.263C96.8976 344.983 100.399 339.537 100.399 339.537C100.399 339.537 97.4805 335.647 91.0615 335.452C84.6405 335.256 77.2485 339.925 77.2485 339.925Z" fill="#92E3A9" stroke="#263238" stroke-miterlimit="10"/>
<path d="M67.8545 342.235C67.8545 342.235 70.2595 344.106 75.8705 344.373C81.4825 344.64 89.7655 339.029 89.7655 339.029C89.7655 339.029 80.9055 338.133 79.0765 339.029C77.2485 339.925 67.8545 342.235 67.8545 342.235Z" fill="#263238" stroke="#263238" stroke-miterlimit="10"/>
<path d="M91.0601 335.451C88.7401 335.381 86.2951 335.947 84.1151 336.697L83.6201 339.296C83.6201 339.296 89.7661 339.563 92.4381 340.632C95.1101 341.701 97.2481 344.106 97.2481 344.106C97.2481 344.106 97.3481 343.99 97.5591 343.836C99.1861 341.419 100.397 339.536 100.397 339.536C100.397 339.536 97.4791 335.645 91.0601 335.451Z" fill="#263238" stroke="#263238" stroke-miterlimit="10"/>
<path d="M89.3093 314.247C89.3093 314.247 83.6682 305.104 75.8872 302.186C68.1062 299.268 58.7693 299.463 57.2133 300.046C55.6573 300.629 57.2133 309.383 59.5473 313.857C61.8813 318.331 73.1643 322.222 79.9723 323.583C86.7803 324.944 94.1733 326.695 93.9783 323.583C93.7833 320.472 89.3093 314.247 89.3093 314.247Z" fill="#92E3A9"/>
<path opacity="0.3" d="M89.3093 314.247C89.3093 314.247 83.6682 305.104 75.8872 302.186C68.1062 299.268 58.7693 299.463 57.2133 300.046C55.6573 300.629 57.2133 309.383 59.5473 313.857C61.8813 318.331 73.1643 322.222 79.9723 323.583C86.7803 324.944 94.1733 326.695 93.9783 323.583C93.7833 320.472 89.3093 314.247 89.3093 314.247Z" fill="white"/>
<path d="M89.3093 314.247C89.3093 314.247 83.6682 305.104 75.8872 302.186C68.1062 299.268 58.7693 299.463 57.2133 300.046C55.6573 300.629 57.2133 309.383 59.5473 313.857C61.8813 318.331 73.1643 322.222 79.9723 323.583C86.7803 324.944 94.1733 326.695 93.9783 323.583C93.7833 320.472 89.3093 314.247 89.3093 314.247Z" stroke="#263238" stroke-miterlimit="10"/>
<path d="M88.92 304.715C88.92 304.715 87.558 299.852 91.254 294.794C94.95 289.736 98.841 284.29 100.397 285.651C101.953 287.013 111.29 296.155 112.458 301.408C113.625 306.66 114.014 311.718 114.014 311.718C114.014 311.718 112.652 317.165 107.595 319.304C102.537 321.444 96.507 318.72 93.2 314.635C89.893 310.551 88.92 304.715 88.92 304.715Z" fill="#92E3A9"/>
<path opacity="0.3" d="M88.92 304.715C88.92 304.715 87.558 299.852 91.254 294.794C94.95 289.736 98.841 284.29 100.397 285.651C101.953 287.013 111.29 296.155 112.458 301.408C113.625 306.66 114.014 311.718 114.014 311.718C114.014 311.718 112.652 317.165 107.595 319.304C102.537 321.444 96.507 318.72 93.2 314.635C89.893 310.551 88.92 304.715 88.92 304.715Z" fill="white"/>
<path d="M88.92 304.715C88.92 304.715 87.558 299.852 91.254 294.794C94.95 289.736 98.841 284.29 100.397 285.651C101.953 287.013 111.29 296.155 112.458 301.408C113.625 306.66 114.014 311.718 114.014 311.718C114.014 311.718 112.652 317.165 107.595 319.304C102.537 321.444 96.507 318.72 93.2 314.635C89.893 310.551 88.92 304.715 88.92 304.715Z" stroke="#263238" stroke-miterlimit="10"/>
<path d="M123.545 334.478C123.545 334.478 135.606 328.642 137.94 323.779C140.274 318.916 149.612 307.633 151.557 304.326C153.502 301.019 154.28 299.463 152.335 298.879C150.39 298.295 139.302 301.408 134.244 303.353C129.186 305.298 127.825 308.022 127.825 308.022C127.825 308.022 128.02 302.964 128.02 299.268C128.02 295.572 123.935 300.241 117.321 305.687C110.707 311.134 106.428 318.526 106.233 319.304C106.039 320.082 115.376 320.082 115.959 323.973C116.542 327.864 114.014 331.949 113.236 334.088C112.458 336.228 112.458 337.395 116.543 337.395C120.628 337.395 123.545 334.478 123.545 334.478Z" fill="#92E3A9"/>
<path opacity="0.3" d="M123.545 334.478C123.545 334.478 135.606 328.642 137.94 323.779C140.274 318.916 149.612 307.633 151.557 304.326C153.502 301.019 154.28 299.463 152.335 298.879C150.39 298.295 139.302 301.408 134.244 303.353C129.186 305.298 127.825 308.022 127.825 308.022C127.825 308.022 128.02 302.964 128.02 299.268C128.02 295.572 123.935 300.241 117.321 305.687C110.707 311.134 106.428 318.526 106.233 319.304C106.039 320.082 115.376 320.082 115.959 323.973C116.542 327.864 114.014 331.949 113.236 334.088C112.458 336.228 112.458 337.395 116.543 337.395C120.628 337.395 123.545 334.478 123.545 334.478Z" fill="white"/>
<path d="M123.545 334.478C123.545 334.478 135.606 328.642 137.94 323.779C140.274 318.916 149.612 307.633 151.557 304.326C153.502 301.019 154.28 299.463 152.335 298.879C150.39 298.295 139.302 301.408 134.244 303.353C129.186 305.298 127.825 308.022 127.825 308.022C127.825 308.022 128.02 302.964 128.02 299.268C128.02 295.572 123.935 300.241 117.321 305.687C110.707 311.134 106.428 318.526 106.233 319.304C106.039 320.082 115.376 320.082 115.959 323.973C116.542 327.864 114.014 331.949 113.236 334.088C112.458 336.228 112.458 337.395 116.543 337.395C120.628 337.395 123.545 334.478 123.545 334.478Z" stroke="#263238" stroke-miterlimit="10"/>
<path d="M127.826 308.022C127.826 308.022 126.27 311.718 125.492 316.192C124.714 320.666 123.547 324.557 122.38 325.724" stroke="#263238" stroke-miterlimit="10"/>
<path d="M34.0643 322.806C34.0643 322.806 31.7303 320.666 39.3163 319.694C46.9023 318.721 53.7113 319.888 58.5743 321.445C63.4373 323.001 64.4103 323.585 70.8293 326.114C77.2483 328.643 85.8083 332.533 86.9753 335.062C88.1423 337.591 86.9753 338.369 86.9753 338.369C86.9753 338.369 80.7503 339.731 75.3033 338.758C69.8573 337.785 37.3713 332.144 34.0643 322.806Z" fill="#92E3A9"/>
<path opacity="0.3" d="M34.0643 322.806C34.0643 322.806 31.7303 320.666 39.3163 319.694C46.9023 318.721 53.7113 319.888 58.5743 321.445C63.4373 323.001 64.4103 323.585 70.8293 326.114C77.2483 328.643 85.8083 332.533 86.9753 335.062C88.1423 337.591 86.9753 338.369 86.9753 338.369C86.9753 338.369 80.7503 339.731 75.3033 338.758C69.8573 337.785 37.3713 332.144 34.0643 322.806Z" fill="white"/>
<path d="M34.0643 322.806C34.0643 322.806 31.7303 320.666 39.3163 319.694C46.9023 318.721 53.7113 319.888 58.5743 321.445C63.4373 323.001 64.4103 323.585 70.8293 326.114C77.2483 328.643 85.8083 332.533 86.9753 335.062C88.1423 337.591 86.9753 338.369 86.9753 338.369C86.9753 338.369 80.7503 339.731 75.3033 338.758C69.8573 337.785 37.3713 332.144 34.0643 322.806Z" stroke="#263238" stroke-miterlimit="10"/>
<path d="M94.1724 338.563C94.1724 338.563 83.8624 338.563 80.5554 337.396C77.2484 336.229 67.9114 330.977 63.0484 325.141C58.1854 319.305 53.5164 310.94 55.8514 310.94C58.1854 310.94 75.3044 313.663 82.5014 318.138C89.6984 322.612 92.8114 323.585 92.8114 323.585C92.8114 323.585 104.093 332.728 102.732 335.84C101.369 338.952 94.1724 338.563 94.1724 338.563Z" fill="#92E3A9"/>
<path opacity="0.3" d="M94.1724 338.563C94.1724 338.563 83.8624 338.563 80.5554 337.396C77.2484 336.229 67.9114 330.977 63.0484 325.141C58.1854 319.305 53.5164 310.94 55.8514 310.94C58.1854 310.94 75.3044 313.663 82.5014 318.138C89.6984 322.612 92.8114 323.585 92.8114 323.585C92.8114 323.585 104.093 332.728 102.732 335.84C101.369 338.952 94.1724 338.563 94.1724 338.563Z" fill="white"/>
<path d="M94.1724 338.563C94.1724 338.563 83.8624 338.563 80.5554 337.396C77.2484 336.229 67.9114 330.977 63.0484 325.141C58.1854 319.305 53.5164 310.94 55.8514 310.94C58.1854 310.94 75.3044 313.663 82.5014 318.138C89.6984 322.612 92.8114 323.585 92.8114 323.585C92.8114 323.585 104.093 332.728 102.732 335.84C101.369 338.952 94.1724 338.563 94.1724 338.563Z" stroke="#263238" stroke-miterlimit="10"/>
<path d="M80.5561 337.396C83.3161 338.37 90.9491 338.531 93.4001 338.558C93.0241 337.641 92.4381 336.796 92.4381 336.357C92.4381 335.288 89.7661 329.142 88.9641 328.875C88.1621 328.608 87.6281 329.677 82.5511 331.814C77.4741 333.952 71.8621 331.547 71.8621 331.547L71.6641 332.537C75.2821 334.967 78.7841 336.771 80.5561 337.396Z" fill="#263238" stroke="#263238" stroke-miterlimit="10"/>
<path d="M80.1668 334.867C80.1668 334.867 68.1058 329.42 59.9358 327.669C51.7658 325.918 43.7898 327.28 38.7328 325.14C33.6748 323 33.0918 321.444 33.0918 322.806C33.0918 324.168 43.2068 334.478 49.6268 338.174C56.0458 341.87 63.2438 342.648 71.6078 342.065C79.9728 341.481 86.9758 339.536 86.9758 338.369C86.9748 337.201 80.1668 334.867 80.1668 334.867Z" fill="#92E3A9" stroke="#263238" stroke-miterlimit="10"/>
<path d="M104.871 318.527C104.871 318.527 99.0351 312.886 95.3391 308.023C91.6431 303.16 88.9201 298.102 86.3911 299.658C83.8621 301.214 79.1941 308.217 78.9991 315.22C78.8041 322.223 83.4731 325.53 88.9201 327.475C94.3671 329.42 102.148 326.697 104.871 318.527Z" fill="#92E3A9"/>
<path opacity="0.3" d="M104.871 318.527C104.871 318.527 99.0351 312.886 95.3391 308.023C91.6431 303.16 88.9201 298.102 86.3911 299.658C83.8621 301.214 79.1941 308.217 78.9991 315.22C78.8041 322.223 83.4731 325.53 88.9201 327.475C94.3671 329.42 102.148 326.697 104.871 318.527Z" fill="white"/>
<path d="M104.871 318.527C104.871 318.527 99.0351 312.886 95.3391 308.023C91.6431 303.16 88.9201 298.102 86.3911 299.658C83.8621 301.214 79.1941 308.217 78.9991 315.22C78.8041 322.223 83.4731 325.53 88.9201 327.475C94.3671 329.42 102.148 326.697 104.871 318.527Z" stroke="#263238" stroke-miterlimit="10"/>
<path d="M108.178 340.703C108.178 340.703 114.597 344.01 122.378 346.928C130.159 349.846 138.524 346.539 141.831 342.648C145.138 338.757 151.168 330.004 151.752 328.642C152.336 327.28 151.363 324.946 149.418 324.168C147.473 323.39 141.442 325.724 139.886 326.892C138.33 328.059 129.771 330.393 125.296 331.755C120.822 333.117 116.348 335.256 115.57 335.451C114.792 335.645 107.789 337.59 108.178 340.703Z" fill="#92E3A9" stroke="#263238" stroke-miterlimit="10"/>
<path d="M149.418 324.168C147.473 323.39 141.442 325.724 139.886 326.892C138.33 328.059 129.771 330.393 125.296 331.755C124.467 332.007 123.638 332.287 122.832 332.575C126.138 332.082 136.605 330.46 142.609 328.837C149.806 326.892 151.752 327.864 151.752 327.864L151.904 327.716C151.889 326.398 150.971 324.789 149.418 324.168Z" fill="#92E3A9"/>
<path opacity="0.3" d="M149.418 324.168C147.473 323.39 141.442 325.724 139.886 326.892C138.33 328.059 129.771 330.393 125.296 331.755C124.467 332.007 123.638 332.287 122.832 332.575C126.138 332.082 136.605 330.46 142.609 328.837C149.806 326.892 151.752 327.864 151.752 327.864L151.904 327.716C151.889 326.398 150.971 324.789 149.418 324.168Z" fill="white"/>
<path d="M149.418 324.168C147.473 323.39 141.442 325.724 139.886 326.892C138.33 328.059 129.771 330.393 125.296 331.755C124.467 332.007 123.638 332.287 122.832 332.575C126.138 332.082 136.605 330.46 142.609 328.837C149.806 326.892 151.752 327.864 151.752 327.864L151.904 327.716C151.889 326.398 150.971 324.789 149.418 324.168Z" stroke="#263238" stroke-miterlimit="10"/>
<path d="M104.677 315.414C104.677 315.414 100.398 316.581 94.9506 318.137C89.5036 319.693 83.2786 323.389 82.5006 328.836C81.7226 334.283 84.4456 336.228 90.0876 338.173C95.7286 340.118 103.121 342.453 108.179 340.702C113.237 338.951 120.823 333.31 121.212 326.891C121.601 320.472 119.461 318.137 114.987 316.192C110.513 314.247 104.677 315.414 104.677 315.414Z" fill="#92E3A9" stroke="#263238" stroke-miterlimit="10"/>
<path d="M48.4918 257.427C48.4918 257.427 50.4058 265.083 48.1978 269.794C45.9888 274.505 40.3948 277.45 34.7998 277.156C29.2048 276.862 26.5548 274.359 25.9658 271.267C25.3768 268.175 27.2908 263.611 27.2908 263.611C27.2908 263.611 23.1688 266.85 17.8678 266.261C12.5678 265.672 10.3588 264.347 7.5618 262.286C4.7648 260.225 1.9668 258.163 1.9668 258.163C1.9668 258.163 9.4758 254.777 14.4818 254.63C19.4878 254.483 36.4198 254.483 39.3638 254.483C42.3078 254.482 44.9578 252.421 48.4918 257.427Z" fill="#92E3A9" stroke="#263238" stroke-miterlimit="10"/>
<path d="M48.4923 257.427C48.4923 257.427 48.7703 258.543 48.9923 260.183C47.9153 260.962 47.1943 261.769 47.1943 261.769C47.1943 261.769 45.9803 260.353 42.9473 261.364C39.9133 262.375 39.1043 262.173 35.8683 262.78C32.7673 263.361 27.0693 265.427 26.5993 265.599C26.9493 264.427 27.2903 263.611 27.2903 263.611C27.2903 263.611 26.7003 264.074 25.6813 264.618L24.9473 263.792C24.9473 263.792 33.0373 256.713 33.6443 256.713L38.0943 254.488L38.1573 254.482C38.6723 254.482 39.0833 254.482 39.3653 254.482C42.3083 254.482 44.9583 252.421 48.4923 257.427Z" fill="#263238" stroke="#263238" stroke-miterlimit="10"/>
<path d="M62.3315 258.604C62.3315 258.604 68.3675 260.96 72.1965 261.843C76.0245 262.726 76.7605 262.726 76.7605 262.726C76.7605 262.726 70.5765 269.204 64.5405 271.266C58.5045 273.327 52.1725 268.91 49.8175 265.671C47.4625 262.432 44.8115 258.309 44.8115 258.309C44.8115 258.309 47.0205 255.364 51.8785 255.217C56.7365 255.071 62.3315 258.604 62.3315 258.604Z" fill="#92E3A9" stroke="#263238" stroke-miterlimit="10"/>
<path d="M69.4414 260.353C69.4414 260.353 67.6214 261.769 63.3734 261.971C59.1264 262.173 52.8564 257.926 52.8564 257.926C52.8564 257.926 59.5624 257.248 60.9464 257.926C62.3314 258.604 69.4414 260.353 69.4414 260.353Z" fill="#263238" stroke="#263238" stroke-miterlimit="10"/>
<path d="M51.8775 255.218C53.6335 255.165 55.4845 255.593 57.1335 256.161L57.5085 258.128C57.5085 258.128 52.8565 258.33 50.8345 259.139C48.8125 259.948 47.1945 261.768 47.1945 261.768C47.1945 261.768 47.1185 261.68 46.9595 261.564C45.7285 259.734 44.8115 258.309 44.8115 258.309C44.8115 258.309 47.0195 255.365 51.8775 255.218Z" fill="#263238" stroke="#263238" stroke-miterlimit="10"/>
<path d="M53.2029 239.17C53.2029 239.17 57.4729 232.25 63.3619 230.042C69.2509 227.834 76.3189 227.981 77.4959 228.422C78.6729 228.863 77.4959 235.489 75.7289 238.876C73.9619 242.262 65.4228 245.207 60.2698 246.238C55.1168 247.269 49.5219 248.594 49.6689 246.238C49.8169 243.881 53.2029 239.17 53.2029 239.17Z" fill="#92E3A9"/>
<path opacity="0.3" d="M53.2029 239.17C53.2029 239.17 57.4729 232.25 63.3619 230.042C69.2509 227.834 76.3189 227.981 77.4959 228.422C78.6729 228.863 77.4959 235.489 75.7289 238.876C73.9619 242.262 65.4228 245.207 60.2698 246.238C55.1168 247.269 49.5219 248.594 49.6689 246.238C49.8169 243.881 53.2029 239.17 53.2029 239.17Z" fill="white"/>
<path d="M53.2029 239.17C53.2029 239.17 57.4729 232.25 63.3619 230.042C69.2509 227.834 76.3189 227.981 77.4959 228.422C78.6729 228.863 77.4959 235.489 75.7289 238.876C73.9619 242.262 65.4228 245.207 60.2698 246.238C55.1168 247.269 49.5219 248.594 49.6689 246.238C49.8169 243.881 53.2029 239.17 53.2029 239.17Z" stroke="#263238" stroke-miterlimit="10"/>
<path d="M53.4979 231.955C53.4979 231.955 54.5289 228.274 51.7309 224.446C48.9339 220.618 45.9889 216.495 44.8109 217.526C43.6329 218.557 36.5659 225.477 35.6829 229.452C34.7999 233.427 34.5049 237.255 34.5049 237.255C34.5049 237.255 35.5359 241.377 39.3639 242.997C43.1919 244.617 47.7559 242.555 50.2589 239.463C52.7619 236.372 53.4979 231.955 53.4979 231.955Z" fill="#92E3A9"/>
<path opacity="0.3" d="M53.4979 231.955C53.4979 231.955 54.5289 228.274 51.7309 224.446C48.9339 220.618 45.9889 216.495 44.8109 217.526C43.6329 218.557 36.5659 225.477 35.6829 229.452C34.7999 233.427 34.5049 237.255 34.5049 237.255C34.5049 237.255 35.5359 241.377 39.3639 242.997C43.1919 244.617 47.7559 242.555 50.2589 239.463C52.7619 236.372 53.4979 231.955 53.4979 231.955Z" fill="white"/>
<path d="M53.4979 231.955C53.4979 231.955 54.5289 228.274 51.7309 224.446C48.9339 220.618 45.9889 216.495 44.8109 217.526C43.6329 218.557 36.5659 225.477 35.6829 229.452C34.7999 233.427 34.5049 237.255 34.5049 237.255C34.5049 237.255 35.5359 241.377 39.3639 242.997C43.1919 244.617 47.7559 242.555 50.2589 239.463C52.7619 236.372 53.4979 231.955 53.4979 231.955Z" stroke="#263238" stroke-miterlimit="10"/>
<path d="M27.29 254.482C27.29 254.482 18.162 250.065 16.395 246.384C14.628 242.703 7.56104 234.164 6.08904 231.661C4.61704 229.158 4.02804 227.98 5.50004 227.539C6.97204 227.097 15.365 229.453 19.193 230.925C23.021 232.397 24.052 234.458 24.052 234.458C24.052 234.458 23.905 230.63 23.905 227.833C23.905 225.036 26.997 228.569 32.003 232.692C37.009 236.815 40.248 242.409 40.395 242.998C40.542 243.587 33.475 243.587 33.033 246.532C32.591 249.477 34.505 252.568 35.094 254.188C35.683 255.808 35.683 256.691 32.591 256.691C29.499 256.69 27.29 254.482 27.29 254.482Z" fill="#92E3A9"/>
<path opacity="0.3" d="M27.29 254.482C27.29 254.482 18.162 250.065 16.395 246.384C14.628 242.703 7.56104 234.164 6.08904 231.661C4.61704 229.158 4.02804 227.98 5.50004 227.539C6.97204 227.097 15.365 229.453 19.193 230.925C23.021 232.397 24.052 234.458 24.052 234.458C24.052 234.458 23.905 230.63 23.905 227.833C23.905 225.036 26.997 228.569 32.003 232.692C37.009 236.815 40.248 242.409 40.395 242.998C40.542 243.587 33.475 243.587 33.033 246.532C32.591 249.477 34.505 252.568 35.094 254.188C35.683 255.808 35.683 256.691 32.591 256.691C29.499 256.69 27.29 254.482 27.29 254.482Z" fill="white"/>
<path d="M27.29 254.482C27.29 254.482 18.162 250.065 16.395 246.384C14.628 242.703 7.56104 234.164 6.08904 231.661C4.61704 229.158 4.02804 227.98 5.50004 227.539C6.97204 227.097 15.365 229.453 19.193 230.925C23.021 232.397 24.052 234.458 24.052 234.458C24.052 234.458 23.905 230.63 23.905 227.833C23.905 225.036 26.997 228.569 32.003 232.692C37.009 236.815 40.248 242.409 40.395 242.998C40.542 243.587 33.475 243.587 33.033 246.532C32.591 249.477 34.505 252.568 35.094 254.188C35.683 255.808 35.683 256.691 32.591 256.691C29.499 256.69 27.29 254.482 27.29 254.482Z" stroke="#263238" stroke-miterlimit="10"/>
<path d="M24.0508 234.458C24.0508 234.458 25.2288 237.255 25.8178 240.642C26.4068 244.028 27.2898 246.973 28.1738 247.856" stroke="#263238" stroke-miterlimit="10"/>
<path d="M95.0166 245.648C95.0166 245.648 96.7836 244.028 91.0416 243.292C85.2996 242.556 80.1466 243.439 76.4656 244.617C72.7846 245.795 72.0486 246.236 67.1896 248.15C62.3306 250.064 55.8526 253.009 54.9696 254.923C54.0866 256.837 54.9696 257.426 54.9696 257.426C54.9696 257.426 59.6806 258.457 63.8036 257.72C67.9266 256.985 92.5136 252.715 95.0166 245.648Z" fill="#92E3A9"/>
<path opacity="0.3" d="M95.0166 245.648C95.0166 245.648 96.7836 244.028 91.0416 243.292C85.2996 242.556 80.1466 243.439 76.4656 244.617C72.7846 245.795 72.0486 246.236 67.1896 248.15C62.3306 250.064 55.8526 253.009 54.9696 254.923C54.0866 256.837 54.9696 257.426 54.9696 257.426C54.9696 257.426 59.6806 258.457 63.8036 257.72C67.9266 256.985 92.5136 252.715 95.0166 245.648Z" fill="white"/>
<path d="M95.0166 245.648C95.0166 245.648 96.7836 244.028 91.0416 243.292C85.2996 242.556 80.1466 243.439 76.4656 244.617C72.7846 245.795 72.0486 246.236 67.1896 248.15C62.3306 250.064 55.8526 253.009 54.9696 254.923C54.0866 256.837 54.9696 257.426 54.9696 257.426C54.9696 257.426 59.6806 258.457 63.8036 257.72C67.9266 256.985 92.5136 252.715 95.0166 245.648Z" stroke="#263238" stroke-miterlimit="10"/>
<path d="M49.5222 257.574C49.5222 257.574 57.3252 257.574 59.8282 256.691C62.3312 255.808 69.3982 251.832 73.0792 247.415C76.7602 242.998 80.2932 236.667 78.5272 236.667C76.7612 236.667 63.8042 238.728 58.3562 242.115C52.9082 245.501 50.5532 246.237 50.5532 246.237C50.5532 246.237 42.0142 253.157 43.0442 255.513C44.0752 257.868 49.5222 257.574 49.5222 257.574Z" fill="#92E3A9"/>
<path opacity="0.3" d="M49.5222 257.574C49.5222 257.574 57.3252 257.574 59.8282 256.691C62.3312 255.808 69.3982 251.832 73.0792 247.415C76.7602 242.998 80.2932 236.667 78.5272 236.667C76.7612 236.667 63.8042 238.728 58.3562 242.115C52.9082 245.501 50.5532 246.237 50.5532 246.237C50.5532 246.237 42.0142 253.157 43.0442 255.513C44.0752 257.868 49.5222 257.574 49.5222 257.574Z" fill="white"/>
<path d="M49.5222 257.574C49.5222 257.574 57.3252 257.574 59.8282 256.691C62.3312 255.808 69.3982 251.832 73.0792 247.415C76.7602 242.998 80.2932 236.667 78.5272 236.667C76.7612 236.667 63.8042 238.728 58.3562 242.115C52.9082 245.501 50.5532 246.237 50.5532 246.237C50.5532 246.237 42.0142 253.157 43.0442 255.513C44.0752 257.868 49.5222 257.574 49.5222 257.574Z" stroke="#263238" stroke-miterlimit="10"/>
<path d="M59.8284 256.69C57.7394 257.427 51.9624 257.549 50.1064 257.569C50.3904 256.875 50.8344 256.235 50.8344 255.903C50.8344 255.094 52.8564 250.442 53.4634 250.24C54.0704 250.038 54.4744 250.847 58.3174 252.465C62.1604 254.083 66.4074 252.263 66.4074 252.263L66.5574 253.012C63.8194 254.852 61.1684 256.217 59.8284 256.69Z" fill="#263238" stroke="#263238" stroke-miterlimit="10"/>
<path d="M60.1227 254.776C60.1227 254.776 69.2507 250.654 75.4347 249.328C81.6187 248.003 87.6547 249.034 91.4827 247.414C95.3107 245.794 95.7527 244.617 95.7527 245.647C95.7527 246.678 88.0967 254.481 83.2377 257.278C78.3787 260.075 72.9317 260.664 66.6007 260.223C60.2697 259.781 54.9697 258.309 54.9697 257.426C54.9697 256.543 60.1227 254.776 60.1227 254.776Z" fill="#92E3A9" stroke="#263238" stroke-miterlimit="10"/>
<path d="M41.4248 242.409C41.4248 242.409 45.8418 238.139 48.6388 234.458C51.4358 230.777 53.4978 226.949 55.4118 228.127C57.3258 229.305 60.8598 234.605 61.0068 239.906C61.1538 245.206 57.6208 247.709 53.4978 249.182C49.3748 250.654 43.4858 248.593 41.4248 242.409Z" fill="#92E3A9"/>
<path opacity="0.3" d="M41.4248 242.409C41.4248 242.409 45.8418 238.139 48.6388 234.458C51.4358 230.777 53.4978 226.949 55.4118 228.127C57.3258 229.305 60.8598 234.605 61.0068 239.906C61.1538 245.206 57.6208 247.709 53.4978 249.182C49.3748 250.654 43.4858 248.593 41.4248 242.409Z" fill="white"/>
<path d="M41.4248 242.409C41.4248 242.409 45.8418 238.139 48.6388 234.458C51.4358 230.777 53.4978 226.949 55.4118 228.127C57.3258 229.305 60.8598 234.605 61.0068 239.906C61.1538 245.206 57.6208 247.709 53.4978 249.182C49.3748 250.654 43.4858 248.593 41.4248 242.409Z" stroke="#263238" stroke-miterlimit="10"/>
<path d="M38.9218 259.193C38.9218 259.193 34.0628 261.696 28.1738 263.904C22.2848 266.113 15.9538 263.61 13.4508 260.665C10.9478 257.72 6.38382 251.095 5.94182 250.064C5.49982 249.033 6.23682 247.267 7.70882 246.678C9.18082 246.089 13.7458 247.856 14.9228 248.739C16.1008 249.622 22.5788 251.389 25.9648 252.42C29.3508 253.451 32.7378 255.07 33.3268 255.217C33.9158 255.365 39.2158 256.838 38.9218 259.193Z" fill="#92E3A9" stroke="#263238" stroke-miterlimit="10"/>
<path d="M7.70819 246.679C9.18019 246.09 13.7452 247.857 14.9222 248.74C16.1002 249.623 22.5782 251.39 25.9642 252.421C26.5922 252.612 27.2192 252.823 27.8292 253.042C25.3272 252.669 17.4052 251.441 12.8602 250.213C7.4122 248.741 5.94019 249.477 5.94019 249.477L5.8252 249.365C5.8392 248.366 6.53319 247.149 7.70819 246.679Z" fill="#92E3A9"/>
<path opacity="0.3" d="M7.70819 246.679C9.18019 246.09 13.7452 247.857 14.9222 248.74C16.1002 249.623 22.5782 251.39 25.9642 252.421C26.5922 252.612 27.2192 252.823 27.8292 253.042C25.3272 252.669 17.4052 251.441 12.8602 250.213C7.4122 248.741 5.94019 249.477 5.94019 249.477L5.8252 249.365C5.8392 248.366 6.53319 247.149 7.70819 246.679Z" fill="white"/>
<path d="M7.70819 246.679C9.18019 246.09 13.7452 247.857 14.9222 248.74C16.1002 249.623 22.5782 251.39 25.9642 252.421C26.5922 252.612 27.2192 252.823 27.8292 253.042C25.3272 252.669 17.4052 251.441 12.8602 250.213C7.4122 248.741 5.94019 249.477 5.94019 249.477L5.8252 249.365C5.8392 248.366 6.53319 247.149 7.70819 246.679Z" stroke="#263238" stroke-miterlimit="10"/>
<path d="M41.5714 240.053C41.5714 240.053 44.8104 240.936 48.9334 242.114C53.0554 243.292 57.7674 246.089 58.3564 250.212C58.9454 254.334 56.8844 255.807 52.6144 257.279C48.3444 258.751 42.7494 260.518 38.9214 259.193C35.0934 257.868 29.3514 253.598 29.0564 248.74C28.7624 243.881 30.3814 242.114 33.7674 240.642C37.1544 239.17 41.5714 240.053 41.5714 240.053Z" fill="#92E3A9" stroke="#263238" stroke-miterlimit="10"/>
<path d="M35.952 181.616C35.952 181.616 37.404 187.423 35.729 190.996C34.054 194.569 29.811 196.803 25.568 196.579C21.325 196.356 19.315 194.457 18.868 192.112C18.421 189.767 19.873 186.306 19.873 186.306C19.873 186.306 16.747 188.763 12.727 188.316C8.70697 187.869 7.03197 186.864 4.91097 185.301C2.78897 183.738 0.667969 182.174 0.667969 182.174C0.667969 182.174 6.36297 179.606 10.159 179.494C13.956 179.382 26.797 179.382 29.03 179.382C31.262 179.383 33.272 177.82 35.952 181.616Z" fill="#92E3A9" stroke="#263238" stroke-miterlimit="10"/>
<path d="M35.9517 181.616C35.9517 181.616 36.1627 182.462 36.3307 183.706C35.5137 184.296 34.9677 184.909 34.9677 184.909C34.9677 184.909 34.0477 183.835 31.7467 184.602C29.4457 185.369 28.8327 185.215 26.3777 185.676C24.0257 186.117 19.7047 187.684 19.3477 187.814C19.6127 186.925 19.8717 186.306 19.8717 186.306C19.8717 186.306 19.4237 186.657 18.6517 187.069L18.0947 186.443C18.0947 186.443 24.2297 181.074 24.6907 181.074L28.0647 179.387L28.1127 179.383C28.5027 179.383 28.8147 179.383 29.0287 179.383C31.2617 179.383 33.2717 177.82 35.9517 181.616Z" fill="#263238" stroke="#263238" stroke-miterlimit="10"/>
<path d="M46.4482 182.51C46.4482 182.51 51.0262 184.297 53.9292 184.967C56.8322 185.637 57.3912 185.637 57.3912 185.637C57.3912 185.637 52.7012 190.55 48.1232 192.113C43.5452 193.676 38.7432 190.326 36.9572 187.87C35.1712 185.413 33.1602 182.287 33.1602 182.287C33.1602 182.287 34.8351 180.054 38.5201 179.942C42.2051 179.83 46.4482 182.51 46.4482 182.51Z" fill="#92E3A9" stroke="#263238" stroke-miterlimit="10"/>
<path d="M51.8407 183.836C51.8407 183.836 50.4607 184.91 47.2387 185.063C44.0177 185.216 39.2627 181.995 39.2627 181.995C39.2627 181.995 44.3487 181.481 45.3977 181.995C46.4477 182.51 51.8407 183.836 51.8407 183.836Z" fill="#263238" stroke="#263238" stroke-miterlimit="10"/>
<path d="M38.5202 179.941C39.8522 179.901 41.2552 180.226 42.5062 180.656L42.7902 182.148C42.7902 182.148 39.2622 182.301 37.7282 182.915C36.1942 183.529 34.9672 184.909 34.9672 184.909C34.9672 184.909 34.9102 184.842 34.7882 184.754C33.8542 183.366 33.1592 182.286 33.1592 182.286C33.1592 182.286 34.8352 180.053 38.5202 179.941Z" fill="#263238" stroke="#263238" stroke-miterlimit="10"/>
<path d="M39.5249 167.77C39.5249 167.77 42.7629 162.522 47.2299 160.847C51.6959 159.172 57.0559 159.284 57.9499 159.619C58.8429 159.954 57.9499 164.979 56.6099 167.547C55.2699 170.115 48.7939 172.349 44.8849 173.13C40.9769 173.912 36.7329 174.917 36.8449 173.13C36.9569 171.343 39.5249 167.77 39.5249 167.77Z" fill="#92E3A9"/>
<path opacity="0.3" d="M39.5249 167.77C39.5249 167.77 42.7629 162.522 47.2299 160.847C51.6959 159.172 57.0559 159.284 57.9499 159.619C58.8429 159.954 57.9499 164.979 56.6099 167.547C55.2699 170.115 48.7939 172.349 44.8849 173.13C40.9769 173.912 36.7329 174.917 36.8449 173.13C36.9569 171.343 39.5249 167.77 39.5249 167.77Z" fill="white"/>
<path d="M39.5249 167.77C39.5249 167.77 42.7629 162.522 47.2299 160.847C51.6959 159.172 57.0559 159.284 57.9499 159.619C58.8429 159.954 57.9499 164.979 56.6099 167.547C55.2699 170.115 48.7939 172.349 44.8849 173.13C40.9769 173.912 36.7329 174.917 36.8449 173.13C36.9569 171.343 39.5249 167.77 39.5249 167.77Z" stroke="#263238" stroke-miterlimit="10"/>
<path d="M39.7487 162.299C39.7487 162.299 40.5307 159.507 38.4087 156.604C36.2867 153.701 34.0537 150.574 33.1607 151.356C32.2677 152.138 26.9077 157.386 26.2377 160.401C25.5677 163.416 25.3447 166.319 25.3447 166.319C25.3447 166.319 26.1267 169.446 29.0297 170.674C31.9327 171.902 35.3947 170.339 37.2927 167.994C39.1897 165.648 39.7487 162.299 39.7487 162.299Z" fill="#92E3A9"/>
<path opacity="0.3" d="M39.7487 162.299C39.7487 162.299 40.5307 159.507 38.4087 156.604C36.2867 153.701 34.0537 150.574 33.1607 151.356C32.2677 152.138 26.9077 157.386 26.2377 160.401C25.5677 163.416 25.3447 166.319 25.3447 166.319C25.3447 166.319 26.1267 169.446 29.0297 170.674C31.9327 171.902 35.3947 170.339 37.2927 167.994C39.1897 165.648 39.7487 162.299 39.7487 162.299Z" fill="white"/>
<path d="M39.7487 162.299C39.7487 162.299 40.5307 159.507 38.4087 156.604C36.2867 153.701 34.0537 150.574 33.1607 151.356C32.2677 152.138 26.9077 157.386 26.2377 160.401C25.5677 163.416 25.3447 166.319 25.3447 166.319C25.3447 166.319 26.1267 169.446 29.0297 170.674C31.9327 171.902 35.3947 170.339 37.2927 167.994C39.1897 165.648 39.7487 162.299 39.7487 162.299Z" stroke="#263238" stroke-miterlimit="10"/>
<path d="M19.8717 179.383C19.8717 179.383 12.9487 176.033 11.6087 173.241C10.2687 170.45 4.90873 163.973 3.79273 162.075C2.67573 160.177 2.22973 159.283 3.34573 158.948C4.46273 158.613 10.8267 160.4 13.7307 161.516C16.6337 162.633 17.4157 164.196 17.4157 164.196C17.4157 164.196 17.3037 161.293 17.3037 159.171C17.3037 157.049 19.6487 159.729 23.4457 162.856C27.2427 165.983 29.6987 170.226 29.8107 170.672C29.9227 171.119 24.5627 171.119 24.2277 173.352C23.8927 175.585 25.3447 177.93 25.7907 179.159C26.2377 180.387 26.2377 181.057 23.8927 181.057C21.5467 181.058 19.8717 179.383 19.8717 179.383Z" fill="#92E3A9"/>
<path opacity="0.3" d="M19.8717 179.383C19.8717 179.383 12.9487 176.033 11.6087 173.241C10.2687 170.45 4.90873 163.973 3.79273 162.075C2.67573 160.177 2.22973 159.283 3.34573 158.948C4.46273 158.613 10.8267 160.4 13.7307 161.516C16.6337 162.633 17.4157 164.196 17.4157 164.196C17.4157 164.196 17.3037 161.293 17.3037 159.171C17.3037 157.049 19.6487 159.729 23.4457 162.856C27.2427 165.983 29.6987 170.226 29.8107 170.672C29.9227 171.119 24.5627 171.119 24.2277 173.352C23.8927 175.585 25.3447 177.93 25.7907 179.159C26.2377 180.387 26.2377 181.057 23.8927 181.057C21.5467 181.058 19.8717 179.383 19.8717 179.383Z" fill="white"/>
<path d="M19.8717 179.383C19.8717 179.383 12.9487 176.033 11.6087 173.241C10.2687 170.45 4.90873 163.973 3.79273 162.075C2.67573 160.177 2.22973 159.283 3.34573 158.948C4.46273 158.613 10.8267 160.4 13.7307 161.516C16.6337 162.633 17.4157 164.196 17.4157 164.196C17.4157 164.196 17.3037 161.293 17.3037 159.171C17.3037 157.049 19.6487 159.729 23.4457 162.856C27.2427 165.983 29.6987 170.226 29.8107 170.672C29.9227 171.119 24.5627 171.119 24.2277 173.352C23.8927 175.585 25.3447 177.93 25.7907 179.159C26.2377 180.387 26.2377 181.057 23.8927 181.057C21.5467 181.058 19.8717 179.383 19.8717 179.383Z" stroke="#263238" stroke-miterlimit="10"/>
<path d="M17.416 164.197C17.416 164.197 18.309 166.319 18.756 168.887C19.203 171.455 19.873 173.688 20.543 174.359" stroke="#263238" stroke-miterlimit="10"/>
<path d="M71.2382 172.683C71.2382 172.683 72.5782 171.455 68.2232 170.896C63.8682 170.338 59.9602 171.008 57.1682 171.901C54.3762 172.794 53.8182 173.129 50.1332 174.581C46.4482 176.033 41.5352 178.266 40.8652 179.717C40.1952 181.169 40.8652 181.615 40.8652 181.615C40.8652 181.615 44.4382 182.397 47.5652 181.838C50.6922 181.281 69.3392 178.043 71.2382 172.683Z" fill="#92E3A9"/>
<path opacity="0.3" d="M71.2382 172.683C71.2382 172.683 72.5782 171.455 68.2232 170.896C63.8682 170.338 59.9602 171.008 57.1682 171.901C54.3762 172.794 53.8182 173.129 50.1332 174.581C46.4482 176.033 41.5352 178.266 40.8652 179.717C40.1952 181.169 40.8652 181.615 40.8652 181.615C40.8652 181.615 44.4382 182.397 47.5652 181.838C50.6922 181.281 69.3392 178.043 71.2382 172.683Z" fill="white"/>
<path d="M71.2382 172.683C71.2382 172.683 72.5782 171.455 68.2232 170.896C63.8682 170.338 59.9602 171.008 57.1682 171.901C54.3762 172.794 53.8182 173.129 50.1332 174.581C46.4482 176.033 41.5352 178.266 40.8652 179.717C40.1952 181.169 40.8652 181.615 40.8652 181.615C40.8652 181.615 44.4382 182.397 47.5652 181.838C50.6922 181.281 69.3392 178.043 71.2382 172.683Z" stroke="#263238" stroke-miterlimit="10"/>
<path d="M36.7342 181.728C36.7342 181.728 42.6522 181.728 44.5512 181.058C46.4502 180.388 51.8092 177.373 54.6012 174.023C57.3932 170.673 60.0722 165.871 58.7332 165.871C57.3932 165.871 47.5672 167.434 43.4352 170.003C39.3032 172.571 37.5172 173.13 37.5172 173.13C37.5172 173.13 31.0412 178.378 31.8222 180.165C32.6022 181.951 36.7342 181.728 36.7342 181.728Z" fill="#92E3A9"/>
<path opacity="0.3" d="M36.7342 181.728C36.7342 181.728 42.6522 181.728 44.5512 181.058C46.4502 180.388 51.8092 177.373 54.6012 174.023C57.3932 170.673 60.0722 165.871 58.7332 165.871C57.3932 165.871 47.5672 167.434 43.4352 170.003C39.3032 172.571 37.5172 173.13 37.5172 173.13C37.5172 173.13 31.0412 178.378 31.8222 180.165C32.6022 181.951 36.7342 181.728 36.7342 181.728Z" fill="white"/>
<path d="M36.7342 181.728C36.7342 181.728 42.6522 181.728 44.5512 181.058C46.4502 180.388 51.8092 177.373 54.6012 174.023C57.3932 170.673 60.0722 165.871 58.7332 165.871C57.3932 165.871 47.5672 167.434 43.4352 170.003C39.3032 172.571 37.5172 173.13 37.5172 173.13C37.5172 173.13 31.0412 178.378 31.8222 180.165C32.6022 181.951 36.7342 181.728 36.7342 181.728Z" stroke="#263238" stroke-miterlimit="10"/>
<path d="M44.5498 181.058C42.9658 181.617 38.5838 181.71 37.1768 181.725C37.3928 181.198 37.7288 180.713 37.7288 180.461C37.7288 179.847 39.2628 176.319 39.7228 176.166C40.1828 176.013 40.4898 176.626 43.4038 177.853C46.3178 179.08 49.5398 177.7 49.5398 177.7L49.6538 178.268C47.5768 179.664 45.5668 180.699 44.5498 181.058Z" fill="#263238" stroke="#263238" stroke-miterlimit="10"/>
<path d="M44.7732 179.607C44.7732 179.607 51.6962 176.48 56.3862 175.475C61.0762 174.47 65.6542 175.252 68.5572 174.023C71.4602 172.795 71.7952 171.901 71.7952 172.683C71.7952 173.465 65.9892 179.383 62.3042 181.505C58.6192 183.626 54.4882 184.073 49.6862 183.738C44.8852 183.403 40.8652 182.286 40.8652 181.616C40.8652 180.946 44.7732 179.607 44.7732 179.607Z" fill="#92E3A9" stroke="#263238" stroke-miterlimit="10"/>
<path d="M30.5918 170.227C30.5918 170.227 33.9418 166.989 36.0638 164.197C38.1858 161.405 39.7488 158.502 41.2008 159.395C42.6528 160.288 45.3328 164.308 45.4438 168.328C45.5558 172.348 42.8758 174.246 39.7488 175.363C36.6218 176.48 32.1548 174.917 30.5918 170.227Z" fill="#92E3A9"/>
<path opacity="0.3" d="M30.5918 170.227C30.5918 170.227 33.9418 166.989 36.0638 164.197C38.1858 161.405 39.7488 158.502 41.2008 159.395C42.6528 160.288 45.3328 164.308 45.4438 168.328C45.5558 172.348 42.8758 174.246 39.7488 175.363C36.6218 176.48 32.1548 174.917 30.5918 170.227Z" fill="white"/>
<path d="M30.5918 170.227C30.5918 170.227 33.9418 166.989 36.0638 164.197C38.1858 161.405 39.7488 158.502 41.2008 159.395C42.6528 160.288 45.3328 164.308 45.4438 168.328C45.5558 172.348 42.8758 174.246 39.7488 175.363C36.6218 176.48 32.1548 174.917 30.5918 170.227Z" stroke="#263238" stroke-miterlimit="10"/>
<path d="M28.6935 182.956C28.6935 182.956 25.0085 184.854 20.5425 186.529C16.0765 188.204 11.2745 186.306 9.37654 184.072C7.47854 181.839 4.01654 176.814 3.68154 176.032C3.34654 175.25 3.90454 173.91 5.02154 173.464C6.13854 173.017 9.59955 174.357 10.4935 175.027C11.3865 175.697 16.3005 177.037 18.8685 177.818C21.4365 178.6 24.0045 179.828 24.4515 179.94C24.8965 180.053 28.9165 181.17 28.6935 182.956Z" fill="#92E3A9" stroke="#263238" stroke-miterlimit="10"/>
<path d="M5.02073 173.465C6.13773 173.018 9.59872 174.358 10.4927 175.028C11.3857 175.698 16.2997 177.038 18.8677 177.819C19.3437 177.964 19.8197 178.124 20.2827 178.29C18.3847 178.007 12.3767 177.076 8.92973 176.144C4.79773 175.027 3.68172 175.586 3.68172 175.586L3.59473 175.501C3.60273 174.745 4.12873 173.822 5.02073 173.465Z" fill="#92E3A9"/>
<path opacity="0.3" d="M5.02073 173.465C6.13773 173.018 9.59872 174.358 10.4927 175.028C11.3857 175.698 16.2997 177.038 18.8677 177.819C19.3437 177.964 19.8197 178.124 20.2827 178.29C18.3847 178.007 12.3767 177.076 8.92973 176.144C4.79773 175.027 3.68172 175.586 3.68172 175.586L3.59473 175.501C3.60273 174.745 4.12873 173.822 5.02073 173.465Z" fill="white"/>
<path d="M5.02073 173.465C6.13773 173.018 9.59872 174.358 10.4927 175.028C11.3857 175.698 16.2997 177.038 18.8677 177.819C19.3437 177.964 19.8197 178.124 20.2827 178.29C18.3847 178.007 12.3767 177.076 8.92973 176.144C4.79773 175.027 3.68172 175.586 3.68172 175.586L3.59473 175.501C3.60273 174.745 4.12873 173.822 5.02073 173.465Z" stroke="#263238" stroke-miterlimit="10"/>
<path d="M30.7043 168.44C30.7043 168.44 33.1613 169.11 36.2873 170.003C39.4133 170.896 42.9873 173.018 43.4333 176.144C43.8803 179.271 42.3163 180.387 39.0783 181.504C35.8403 182.621 31.5973 183.961 28.6933 182.956C25.7903 181.951 21.4353 178.713 21.2123 175.028C20.9893 171.343 22.2173 170.003 24.7853 168.886C27.3543 167.77 30.7043 168.44 30.7043 168.44Z" fill="#92E3A9" stroke="#263238" stroke-miterlimit="10"/>
<path d="M324.482 275.137C317.548 251.512 316.096 231.502 316.099 218.876C316.102 205.15 317.733 197.122 317.802 196.787L320.74 197.395C320.675 197.714 316.29 235.314 329.343 279.784L324.482 275.137Z" fill="#263238"/>
<path d="M321.577 212.455C321.577 212.455 323.491 220.111 321.283 224.823C319.075 229.534 313.48 232.479 307.885 232.185C302.29 231.891 299.64 229.388 299.051 226.296C298.462 223.204 300.376 218.64 300.376 218.64C300.376 218.64 296.254 221.879 290.953 221.29C285.653 220.701 283.444 219.376 280.647 217.315C277.85 215.254 275.052 213.193 275.052 213.193C275.052 213.193 282.561 209.807 287.567 209.659C292.573 209.512 309.505 209.512 312.449 209.512C315.393 209.511 318.043 207.449 321.577 212.455Z" fill="#92E3A9" stroke="#263238" stroke-miterlimit="10"/>
<path d="M321.577 212.455C321.577 212.455 321.855 213.571 322.077 215.211C320.999 215.99 320.279 216.797 320.279 216.797C320.279 216.797 319.065 215.381 316.032 216.392C312.998 217.403 312.189 217.201 308.953 217.808C305.852 218.389 300.154 220.455 299.684 220.627C300.034 219.456 300.375 218.639 300.375 218.639C300.375 218.639 299.785 219.102 298.766 219.646L298.032 218.82C298.032 218.82 306.122 211.741 306.729 211.741L311.179 209.516L311.242 209.51C311.757 209.51 312.168 209.51 312.449 209.51C315.393 209.511 318.043 207.449 321.577 212.455Z" fill="#263238" stroke="#263238" stroke-miterlimit="10"/>
<path d="M335.416 213.633C335.416 213.633 341.452 215.989 345.281 216.872C349.109 217.755 349.845 217.755 349.845 217.755C349.845 217.755 343.661 224.233 337.625 226.295C331.589 228.356 325.257 223.939 322.902 220.7C320.546 217.461 317.896 213.338 317.896 213.338C317.896 213.338 320.104 210.393 324.963 210.246C329.821 210.1 335.416 213.633 335.416 213.633Z" fill="#92E3A9" stroke="#263238" stroke-miterlimit="10"/>
<path d="M342.526 215.382C342.526 215.382 340.706 216.798 336.459 217C332.212 217.202 325.942 212.955 325.942 212.955C325.942 212.955 332.648 212.277 334.032 212.955C335.416 213.633 342.526 215.382 342.526 215.382Z" fill="#263238" stroke="#263238" stroke-miterlimit="10"/>
<path d="M324.962 210.247C326.718 210.194 328.569 210.622 330.218 211.19L330.593 213.157C330.593 213.157 325.941 213.359 323.919 214.168C321.897 214.977 320.279 216.797 320.279 216.797C320.279 216.797 320.203 216.709 320.044 216.593C318.812 214.763 317.896 213.338 317.896 213.338C317.896 213.338 320.104 210.394 324.962 210.247Z" fill="#263238" stroke="#263238" stroke-miterlimit="10"/>
<path d="M326.288 194.199C326.288 194.199 330.558 187.279 336.447 185.071C342.336 182.862 349.404 183.01 350.581 183.451C351.759 183.893 350.581 190.518 348.814 193.905C347.047 197.291 338.508 200.236 333.355 201.267C328.202 202.298 322.607 203.623 322.754 201.267C322.902 198.91 326.288 194.199 326.288 194.199Z" fill="#92E3A9"/>
<path opacity="0.3" d="M326.288 194.199C326.288 194.199 330.558 187.279 336.447 185.071C342.336 182.862 349.404 183.01 350.581 183.451C351.759 183.893 350.581 190.518 348.814 193.905C347.047 197.291 338.508 200.236 333.355 201.267C328.202 202.298 322.607 203.623 322.754 201.267C322.902 198.91 326.288 194.199 326.288 194.199Z" fill="white"/>
<path d="M326.288 194.199C326.288 194.199 330.558 187.279 336.447 185.071C342.336 182.862 349.404 183.01 350.581 183.451C351.759 183.893 350.581 190.518 348.814 193.905C347.047 197.291 338.508 200.236 333.355 201.267C328.202 202.298 322.607 203.623 322.754 201.267C322.902 198.91 326.288 194.199 326.288 194.199Z" stroke="#263238" stroke-miterlimit="10"/>
<path d="M326.583 186.984C326.583 186.984 327.614 183.303 324.816 179.475C322.018 175.647 319.074 171.524 317.896 172.555C316.718 173.586 309.651 180.506 308.768 184.481C307.884 188.456 307.59 192.284 307.59 192.284C307.59 192.284 308.621 196.406 312.449 198.026C316.277 199.645 320.841 197.584 323.344 194.492C325.847 191.401 326.583 186.984 326.583 186.984Z" fill="#92E3A9"/>
<path opacity="0.3" d="M326.583 186.984C326.583 186.984 327.614 183.303 324.816 179.475C322.018 175.647 319.074 171.524 317.896 172.555C316.718 173.586 309.651 180.506 308.768 184.481C307.884 188.456 307.59 192.284 307.59 192.284C307.59 192.284 308.621 196.406 312.449 198.026C316.277 199.645 320.841 197.584 323.344 194.492C325.847 191.401 326.583 186.984 326.583 186.984Z" fill="white"/>
<path d="M326.583 186.984C326.583 186.984 327.614 183.303 324.816 179.475C322.018 175.647 319.074 171.524 317.896 172.555C316.718 173.586 309.651 180.506 308.768 184.481C307.884 188.456 307.59 192.284 307.59 192.284C307.59 192.284 308.621 196.406 312.449 198.026C316.277 199.645 320.841 197.584 323.344 194.492C325.847 191.401 326.583 186.984 326.583 186.984Z" stroke="#263238" stroke-miterlimit="10"/>
<path d="M300.375 209.511C300.375 209.511 291.247 205.094 289.48 201.413C287.713 197.732 280.646 189.193 279.174 186.69C277.702 184.187 277.113 183.009 278.585 182.568C280.057 182.126 288.45 184.482 292.278 185.954C296.106 187.426 297.137 189.488 297.137 189.488C297.137 189.488 296.99 185.66 296.99 182.862C296.99 180.065 300.082 183.598 305.088 187.721C310.094 191.843 313.333 197.438 313.48 198.027C313.627 198.616 306.56 198.616 306.118 201.56C305.676 204.505 307.59 207.597 308.179 209.216C308.768 210.836 308.768 211.719 305.676 211.719C302.584 211.719 300.375 209.511 300.375 209.511Z" fill="#92E3A9"/>
<path opacity="0.3" d="M300.375 209.511C300.375 209.511 291.247 205.094 289.48 201.413C287.713 197.732 280.646 189.193 279.174 186.69C277.702 184.187 277.113 183.009 278.585 182.568C280.057 182.126 288.45 184.482 292.278 185.954C296.106 187.426 297.137 189.488 297.137 189.488C297.137 189.488 296.99 185.66 296.99 182.862C296.99 180.065 300.082 183.598 305.088 187.721C310.094 191.843 313.333 197.438 313.48 198.027C313.627 198.616 306.56 198.616 306.118 201.56C305.676 204.505 307.59 207.597 308.179 209.216C308.768 210.836 308.768 211.719 305.676 211.719C302.584 211.719 300.375 209.511 300.375 209.511Z" fill="white"/>
<path d="M300.375 209.511C300.375 209.511 291.247 205.094 289.48 201.413C287.713 197.732 280.646 189.193 279.174 186.69C277.702 184.187 277.113 183.009 278.585 182.568C280.057 182.126 288.45 184.482 292.278 185.954C296.106 187.426 297.137 189.488 297.137 189.488C297.137 189.488 296.99 185.66 296.99 182.862C296.99 180.065 300.082 183.598 305.088 187.721C310.094 191.843 313.333 197.438 313.48 198.027C313.627 198.616 306.56 198.616 306.118 201.56C305.676 204.505 307.59 207.597 308.179 209.216C308.768 210.836 308.768 211.719 305.676 211.719C302.584 211.719 300.375 209.511 300.375 209.511Z" stroke="#263238" stroke-miterlimit="10"/>
<path d="M297.136 189.487C297.136 189.487 298.314 192.284 298.903 195.671C299.492 199.057 300.375 202.002 301.259 202.886" stroke="#263238" stroke-miterlimit="10"/>
<path d="M368.102 200.677C368.102 200.677 369.869 199.057 364.127 198.321C358.385 197.585 353.232 198.468 349.551 199.646C345.87 200.824 345.134 201.266 340.275 203.18C335.416 205.094 328.938 208.039 328.055 209.953C327.172 211.867 328.055 212.456 328.055 212.456C328.055 212.456 332.766 213.487 336.889 212.75C341.012 212.014 365.599 207.744 368.102 200.677Z" fill="#92E3A9"/>
<path opacity="0.3" d="M368.102 200.677C368.102 200.677 369.869 199.057 364.127 198.321C358.385 197.585 353.232 198.468 349.551 199.646C345.87 200.824 345.134 201.266 340.275 203.18C335.416 205.094 328.938 208.039 328.055 209.953C327.172 211.867 328.055 212.456 328.055 212.456C328.055 212.456 332.766 213.487 336.889 212.75C341.012 212.014 365.599 207.744 368.102 200.677Z" fill="white"/>
<path d="M368.102 200.677C368.102 200.677 369.869 199.057 364.127 198.321C358.385 197.585 353.232 198.468 349.551 199.646C345.87 200.824 345.134 201.266 340.275 203.18C335.416 205.094 328.938 208.039 328.055 209.953C327.172 211.867 328.055 212.456 328.055 212.456C328.055 212.456 332.766 213.487 336.889 212.75C341.012 212.014 365.599 207.744 368.102 200.677Z" stroke="#263238" stroke-miterlimit="10"/>
<path d="M322.608 212.603C322.608 212.603 330.411 212.603 332.914 211.72C335.417 210.837 342.484 206.861 346.165 202.444C349.846 198.027 353.379 191.696 351.613 191.696C349.846 191.696 336.89 193.757 331.442 197.144C325.994 200.53 323.639 201.266 323.639 201.266C323.639 201.266 315.1 208.186 316.13 210.542C317.16 212.897 322.608 212.603 322.608 212.603Z" fill="#92E3A9"/>
<path opacity="0.3" d="M322.608 212.603C322.608 212.603 330.411 212.603 332.914 211.72C335.417 210.837 342.484 206.861 346.165 202.444C349.846 198.027 353.379 191.696 351.613 191.696C349.846 191.696 336.89 193.757 331.442 197.144C325.994 200.53 323.639 201.266 323.639 201.266C323.639 201.266 315.1 208.186 316.13 210.542C317.16 212.897 322.608 212.603 322.608 212.603Z" fill="white"/>
<path d="M322.608 212.603C322.608 212.603 330.411 212.603 332.914 211.72C335.417 210.837 342.484 206.861 346.165 202.444C349.846 198.027 353.379 191.696 351.613 191.696C349.846 191.696 336.89 193.757 331.442 197.144C325.994 200.53 323.639 201.266 323.639 201.266C323.639 201.266 315.1 208.186 316.13 210.542C317.16 212.897 322.608 212.603 322.608 212.603Z" stroke="#263238" stroke-miterlimit="10"/>
<path d="M332.913 211.719C330.824 212.456 325.047 212.578 323.191 212.598C323.475 211.904 323.919 211.264 323.919 210.932C323.919 210.123 325.942 205.471 326.548 205.269C327.155 205.067 327.559 205.876 331.402 207.494C335.245 209.112 339.492 207.292 339.492 207.292L339.642 208.041C336.904 209.881 334.253 211.246 332.913 211.719Z" fill="#263238" stroke="#263238" stroke-miterlimit="10"/>
<path d="M333.208 209.805C333.208 209.805 342.336 205.683 348.52 204.357C354.704 203.032 360.74 204.063 364.568 202.443C368.396 200.823 368.838 199.646 368.838 200.676C368.838 201.707 361.182 209.51 356.323 212.307C351.464 215.104 346.017 215.693 339.686 215.252C333.355 214.81 328.055 213.338 328.055 212.455C328.055 211.572 333.208 209.805 333.208 209.805Z" fill="#92E3A9" stroke="#263238" stroke-miterlimit="10"/>
<path d="M314.51 197.438C314.51 197.438 318.927 193.168 321.724 189.487C324.521 185.806 326.583 181.978 328.497 183.156C330.411 184.334 333.945 189.634 334.092 194.935C334.239 200.235 330.706 202.738 326.583 204.211C322.46 205.683 316.571 203.622 314.51 197.438Z" fill="#92E3A9"/>
<path opacity="0.3" d="M314.51 197.438C314.51 197.438 318.927 193.168 321.724 189.487C324.521 185.806 326.583 181.978 328.497 183.156C330.411 184.334 333.945 189.634 334.092 194.935C334.239 200.235 330.706 202.738 326.583 204.211C322.46 205.683 316.571 203.622 314.51 197.438Z" fill="white"/>
<path d="M314.51 197.438C314.51 197.438 318.927 193.168 321.724 189.487C324.521 185.806 326.583 181.978 328.497 183.156C330.411 184.334 333.945 189.634 334.092 194.935C334.239 200.235 330.706 202.738 326.583 204.211C322.46 205.683 316.571 203.622 314.51 197.438Z" stroke="#263238" stroke-miterlimit="10"/>
<path d="M312.007 214.222C312.007 214.222 307.148 216.725 301.259 218.934C295.37 221.142 289.039 218.64 286.536 215.695C284.033 212.75 279.469 206.125 279.027 205.094C278.585 204.063 279.321 202.297 280.794 201.708C282.266 201.119 286.831 202.886 288.009 203.769C289.187 204.652 295.665 206.419 299.051 207.45C302.437 208.481 305.824 210.1 306.413 210.247C307.001 210.394 312.301 211.867 312.007 214.222Z" fill="#92E3A9" stroke="#263238" stroke-miterlimit="10"/>
<path d="M280.793 201.708C282.265 201.119 286.83 202.886 288.008 203.769C289.186 204.652 295.664 206.419 299.05 207.45C299.678 207.641 300.305 207.853 300.915 208.071C298.413 207.698 290.491 206.47 285.946 205.242C280.498 203.77 279.026 204.506 279.026 204.506L278.911 204.394C278.924 203.395 279.618 202.178 280.793 201.708Z" fill="#92E3A9"/>
<path opacity="0.3" d="M280.793 201.708C282.265 201.119 286.83 202.886 288.008 203.769C289.186 204.652 295.664 206.419 299.05 207.45C299.678 207.641 300.305 207.853 300.915 208.071C298.413 207.698 290.491 206.47 285.946 205.242C280.498 203.77 279.026 204.506 279.026 204.506L278.911 204.394C278.924 203.395 279.618 202.178 280.793 201.708Z" fill="white"/>
<path d="M280.793 201.708C282.265 201.119 286.83 202.886 288.008 203.769C289.186 204.652 295.664 206.419 299.05 207.45C299.678 207.641 300.305 207.853 300.915 208.071C298.413 207.698 290.491 206.47 285.946 205.242C280.498 203.77 279.026 204.506 279.026 204.506L278.911 204.394C278.924 203.395 279.618 202.178 280.793 201.708Z" stroke="#263238" stroke-miterlimit="10"/>
<path d="M314.657 195.082C314.657 195.082 317.896 195.965 322.018 197.143C326.14 198.321 330.852 201.118 331.441 205.241C332.03 209.363 329.969 210.836 325.699 212.308C321.429 213.78 315.834 215.547 312.006 214.222C308.178 212.897 302.436 208.627 302.141 203.769C301.846 198.91 303.466 197.143 306.852 195.671C310.24 194.199 314.657 195.082 314.657 195.082Z" fill="#92E3A9" stroke="#263238" stroke-miterlimit="10"/>
</svg>
