<svg width="15" height="18" viewBox="0 0 15 18" fill="none" xmlns="http://www.w3.org/2000/svg">
<path d="M12.4522 17.28C11.5021 18.23 10.4647 18.08 9.46606 17.63C8.40927 17.17 7.43974 17.15 6.32479 17.63C4.92866 18.25 4.19182 18.07 3.35803 17.28C-1.37327 12.25 -0.675213 4.59 4.69598 4.31C6.00484 4.38 6.9162 5.05 7.68213 5.11C8.82617 4.87 9.92174 4.18 11.1433 4.27C12.6073 4.39 13.7126 4.99 14.4397 6.07C11.4148 7.94 12.1323 12.05 14.9051 13.2C14.3525 14.7 13.635 16.19 12.4425 17.29L12.4522 17.28ZM7.58517 4.25C7.43974 2.02 9.19459 0.18 11.2112 0C11.4924 2.58 8.94251 4.5 7.58517 4.25Z" fill="black"/>
</svg>
