<svg width="1183" height="1669" viewBox="0 0 1183 1669" fill="none" xmlns="http://www.w3.org/2000/svg">
<path d="M1009.95 1667.99L369.456 1666.4C368.031 1666 368.886 1663.32 368.658 1663.21V1422.47C417.721 1404.18 464.162 1380.41 508.609 1352.88C549.522 1327.52 611.976 1286.2 647.761 1255.31C658.474 1246.08 668.047 1229.44 647.761 1239.3C611.577 1256.85 551.289 1311.91 511.8 1336.87C358.002 1434.21 278.226 1464.76 181.583 1284.89C134.059 1196.5 102.775 1098.75 77.6455 1001.75C120.611 974.339 174.688 960.376 225.574 960.946L330.308 1126.51C318.969 1138.36 286.773 1194.05 293.554 1208.07C306.205 1218.21 306.717 1189.2 311.162 1179.28C344.896 1103.65 497.611 931.88 564.623 879.389C570.549 874.716 609.583 850.893 610.209 848.215C611.064 844.567 608.272 843.142 606.221 841.033C527.869 880.244 469.461 951.77 414.302 1018.57C432.593 961.288 459.09 906.461 487.867 853.8C570.093 823.936 658.474 788.543 746.969 783.414C763.551 782.445 809.08 779.88 819.736 792.191C831.817 806.154 870.223 902.129 878.885 924.926C969.887 1163.67 987.095 1395.8 1005.22 1647.88C1005.67 1653.86 1006.41 1662.64 1010 1667.88L1009.95 1667.99Z" fill="#EB9595"/>
<path d="M548.554 901.788C597.388 884.178 657.278 971.49 670.897 1009.73C676.652 1025.97 697.337 1127.48 684.515 1133.69C670.498 1140.47 676.538 1098.13 675.74 1089.69C670.384 1033.55 639.385 935.699 578.983 916.15C569.068 912.959 553.397 914.669 548.611 912.959C544.508 911.477 544.508 903.213 548.611 901.788H548.554Z" fill="black"/>
<path d="M652.491 1272.87C678.988 1272.75 612.033 1314.93 608.5 1300.85C607.19 1295.66 649.357 1272.87 652.491 1272.87Z" fill="black"/>
<path d="M1009.95 1668C1006.36 1662.75 1005.56 1653.98 1005.16 1647.99C987.039 1395.91 969.773 1163.78 878.828 925.041C870.109 902.244 831.76 806.211 819.679 792.305C809.023 779.995 763.494 782.559 746.912 783.528C658.417 788.658 570.036 823.993 487.81 853.914C459.033 906.575 432.536 961.402 414.245 1018.68C469.404 951.827 527.812 880.359 606.164 841.148C608.215 843.313 611.007 844.681 610.153 848.329C609.526 851.008 570.492 874.887 564.566 879.504C497.554 931.994 344.839 1103.77 311.105 1179.4C306.661 1189.32 306.148 1218.32 293.498 1208.18C286.774 1194.16 318.969 1138.48 330.252 1126.62L225.517 961.06C174.631 960.49 120.554 974.453 77.5887 1001.87C102.718 1098.87 134.059 1196.61 181.526 1285.01C278.226 1464.87 357.945 1434.33 511.743 1336.98C551.232 1312.02 611.463 1256.97 647.704 1239.41C667.99 1229.55 658.417 1246.19 647.704 1255.43C611.919 1286.32 549.523 1327.64 508.552 1353C464.105 1380.52 417.664 1404.29 368.601 1422.59V1663.32C363.758 1660.64 362.048 1660.87 360.624 1654.54C357.148 1639.38 356.521 1597.1 355.837 1579.37C353.786 1528.42 356.179 1476.73 357.433 1425.83C322.559 1430.74 292.358 1426.18 262.271 1407.43C196.227 1366.22 132.235 1214.28 106.365 1141.1C98.3875 1118.53 48.0714 956.558 50.4077 945.957C50.7496 944.361 58.3854 937.009 58.3854 936.382C58.4993 935.128 45.9631 914.326 44.7664 914.782C38.9541 923.388 30.6916 976.334 22.3721 975.536C21.9732 975.536 16.8447 970.35 16.7877 969.951C14.5084 959.749 40.3217 903.84 39.1821 891.586C39.0681 890.218 27.7855 869.188 26.3609 867.592C14.9073 854.199 -4.06809 855.567 0.775474 827.584C1.80117 821.485 11.8302 812.538 11.9442 811.569C12.2861 809.517 6.87266 794.471 8.75311 785.979C10.9754 776.005 22.9989 772.643 24.7654 769.964C28.6402 764.037 27.0447 749.219 34.3385 741.183C39.6949 735.256 50.2368 735.028 53.5418 731.608C54.9094 730.126 57.5876 718.728 59.9239 715.593C75.7082 694.62 104.599 708.868 119.87 722.774C131.039 706.474 119.072 711.091 110.297 703.568C87.9596 684.589 75.0244 659 74.3406 629.193C73.4859 594.883 79.6401 571.63 115.141 598.018C136.338 613.748 144.316 646.347 143.917 671.595C148.134 666.181 176.853 601.551 172.693 599.614C139.415 609.929 126.138 575.962 146.31 552.424C123.517 550.144 103.915 533.445 115.938 509.223C122.776 495.488 146.937 494.747 147.906 493.209C149.273 491.1 133.546 457.93 158.277 449.21C178.62 442.029 193.036 464.028 195.031 463.629C196.512 463.344 203.578 444.708 214.234 442.827C241.928 437.926 243.011 478.618 246.202 479.587C246.714 479.758 254.008 474.857 255.775 474.8C290.876 473.432 295.15 502.099 272.585 523.586C317.772 541.937 296.062 595.852 250.988 573.967C248.766 586.391 253.097 601.266 243.808 611.582C226.542 630.731 205.174 606.795 203.008 607.592C199.134 609.017 178.221 675.699 170.243 683.564C196.227 676.097 225.688 676.097 249.393 690.745C268.425 702.485 268.824 705.791 252.584 721.122C230.759 741.753 199.077 746.255 170.243 742.722C177.081 766.83 185.743 791.165 187.851 816.299C188.877 828.951 184.66 892.612 186.255 896.26C187.851 899.907 202.268 897.513 208.65 904.239C220.901 917.176 255.832 992.292 269.394 1014.58C290.25 1048.71 313.442 1081.37 335.779 1114.54C339.198 1115.74 379.713 1064.22 382.961 1059.37C401.253 1031.96 414.815 977.93 429.345 944.19C438.462 922.989 475.672 860.24 478.921 845.023C481.713 831.915 476.869 809.631 478.921 795.44C504.962 774.524 527.584 789.171 522.114 745.856C514.136 682.937 372.704 701.459 325.408 646.689C289.452 605.085 318.969 517.601 319.026 469.158C319.026 448.526 303.413 429.263 327.801 410.797C329.739 409.373 338.514 408.005 338.97 407.606C384.613 369.307 369.285 289.346 397.321 240.447C311.39 214.857 348.486 136.549 394.13 90.1005C542.913 -61.2147 838.427 -2.39839 986.754 122.871C996.042 130.736 1037.53 175.931 1041.12 177.242C1046.7 179.237 1066.36 178.268 1074.68 180.434C1115.31 190.92 1135.14 211.722 1112.29 253.213C1206.25 279.601 1202.21 357.908 1118.67 395.58C1183.35 434.506 1203.86 545.756 1109.1 555.558C1121.75 617.623 1099.69 699.977 1022.71 696.33C1058.72 777.601 966.924 794.414 917.975 745.115C894.612 771.617 866.462 788.031 830.791 790.709C967.379 1059.09 1005.1 1365.65 1017.92 1664.06L1009.95 1668.05V1668Z" fill="black"/>
<path d="M729.247 721.064L777.227 770.648C718.648 772.756 660.639 783.072 604.511 799.429C566.104 810.656 528.154 829.464 490.146 838.64C492.881 821.713 482.567 805.356 498.921 796.237C530.604 778.684 699.16 717.36 729.19 721.064H729.247Z" fill="#EB9595"/>
<path d="M172.693 909.823C205.231 907.43 205.687 920.481 215.887 948.236C165.172 951.029 117.477 966.075 72.7452 989.043C71.7765 979.354 58.7843 955.076 63.9698 948.236C72.9161 936.439 156.111 911.077 172.693 909.823Z" fill="#EB9595"/>
<path d="M75.1953 716.277C96.6209 709.837 126.879 741.866 136.794 758.679C138.219 761.13 157.479 814.304 160.784 787.46C161.98 777.772 130.697 736.851 145.569 735.483C160.442 734.115 173.719 792.248 175.144 803.475C176.568 814.703 178.449 894.207 174.346 898.653L70.4087 930.626C61.8042 929.6 45.4501 875.286 39.2389 865.825C29.8937 851.691 6.87254 847.873 12.058 829.065C17.2435 810.257 50.0657 843.826 48.8121 825.873C48.1853 816.242 11.2033 817.154 20.0356 787.46C28.1272 760.161 65.85 803.817 68.8132 804.273C94.7405 808.149 43.9116 763.752 36.0479 766.658C45.2222 710.521 99.2421 775.663 104.029 775.435C128.474 774.352 73.0869 732.235 64.8243 734.628C63.3998 731.095 71.6053 717.303 75.1953 716.22V716.277Z" fill="#FDF9F8"/>
<path d="M91.1505 597.904C131.552 611.753 140.213 663.047 126.309 698.667C90.9796 682.709 77.1327 631.074 91.1505 597.904Z" fill="#59CC57"/>
<path d="M196.683 689.092C212.809 687.895 240.731 693.765 250.247 707.501C224.434 735.37 185.23 738.106 151.097 725.111C151.325 703.91 177.936 690.517 196.683 689.149V689.092Z" fill="#7FD33F"/>
<path d="M196.683 497.141C214.69 496.058 260.276 525.181 233.437 545.128C214.234 559.376 169.958 542.963 175.087 515.549C176.397 508.596 189.56 497.597 196.683 497.141Z" fill="#FBE37A"/>
<path d="M172.693 543.533C174.175 543.647 192.182 559.775 195.886 561.941C191.156 576.987 169.901 596.935 153.49 588.329C134.686 578.526 164.545 542.906 172.693 543.533Z" fill="#FDF9F8"/>
<path d="M225.517 559.491C247.626 560.688 246.031 619.846 217.539 604.287C206.883 598.474 196.569 566.387 206.37 561.087C207.225 560.631 224.605 559.434 225.574 559.491H225.517Z" fill="#FDF9F8"/>
<path d="M139.13 505.12C161.867 501.074 173.32 519.083 163.12 537.093C147.963 543.647 114.4 539.373 125.512 515.493C126.651 513.099 136.68 505.519 139.13 505.12Z" fill="#FDF9F8"/>
<path d="M254.293 530.71C263.012 526.663 289.737 542.45 287.059 557.097C283.241 578.071 244.264 561.828 242.27 553.906C241.928 552.652 253.097 531.28 254.236 530.71H254.293Z" fill="#FDF9F8"/>
<path d="M164.716 458.728C177.879 456.335 198.165 481.81 190.301 489.105C188.193 491.043 172.066 495.66 169.502 503.524C157.422 496.799 145.968 462.148 164.716 458.728Z" fill="#FDF9F8"/>
<path d="M191.897 589.925C198.45 590.836 183.406 628.964 181.526 633.923C168.078 668.859 146.538 700.661 132.748 735.483C132.007 734.344 128.873 732.235 128.759 731.494C128.019 727.277 161.069 664.813 165.513 654.725C168.704 647.544 188.421 589.469 191.897 589.925Z" fill="#7FD33F"/>
<path d="M217.482 453.941C219.02 453.713 220.73 454.055 222.268 453.941C243.295 478.96 236.229 508.938 200.672 485.116C202.609 477.763 208.479 455.08 217.482 453.941Z" fill="#FDF9F8"/>
<path d="M255.889 485.913C293.44 478.675 267.171 524.668 251.102 519.482C250.076 519.14 237.597 503.752 237.483 502.669C237.255 499.535 252.128 486.597 255.889 485.856V485.913Z" fill="#FDF9F8"/>
<path d="M436.582 217.194C434.246 262.902 463.364 328.215 516.529 325.935C519.549 325.821 535.049 318.184 536.53 321.946C538.639 351.981 548.098 385.379 573.284 403.502C570.72 416.383 559.438 488.763 575.678 490.701C583.313 491.613 582.174 480.157 584.453 475.484C603.713 436.387 666.908 381.047 701.212 433.879C737.225 489.447 673.689 574.993 610.836 557.838C605.195 556.299 586.391 538.574 587.644 553.848C588.442 563.366 613.344 569.749 621.207 571.459C587.644 633.866 618.415 677.351 684.401 687.439C706.91 690.859 718.363 677.294 724.404 709.837C658.018 720.21 595.109 743.463 534.08 770.591C540.576 686.641 471.456 693.993 414.131 677.807C319.311 651.021 314.296 628.281 320.565 531.45C321.704 514.239 332.36 476.054 331.733 464.256C331.277 455.764 322.388 447.5 325.351 432.283C328.314 417.066 338.856 422.253 345.352 417.066C407.863 367.255 365.752 259.482 436.525 217.137L436.582 217.194Z" fill="#FDF9F8"/>
<path d="M427.009 311.574C449.631 308.382 488.095 337.676 482.169 363.551L420.57 335.567C410.769 327.93 413.846 313.397 426.952 311.574H427.009Z" fill="black"/>
<path d="M419.031 377.172C444.674 375.918 434.303 436.159 412.649 434.734C390.996 433.309 399.315 378.141 419.031 377.172Z" fill="black"/>
<path d="M657.277 450.749C664.058 449.894 693.69 456.221 682.065 464.371C677.791 467.391 661.095 456.107 642.861 469.956C626.165 482.665 629.527 497.198 622.86 509.167C618.073 517.773 611.577 512.415 611.691 502.784C611.862 484.831 638.758 453.086 657.277 450.806V450.749Z" fill="black"/>
<path d="M393.389 535.497C399.201 535.098 401.253 536.295 400.569 542.678C381.536 559.092 348.543 559.149 328.599 544.274C330.024 530.082 344.896 542.735 353.387 543.476C375.097 545.356 382.676 536.238 393.389 535.497Z" fill="black"/>
</svg>
