<?xml version="1.0" encoding="UTF-8"?>
<svg id="Layer_2" data-name="Layer 2" xmlns="http://www.w3.org/2000/svg" viewBox="0 0 317.03 432.29">
  <defs>
    <style>
      .cls-1 {
        fill: #d9d7df;
      }

      .cls-2 {
        fill: #fcc2b5;
      }

      .cls-3 {
        fill: #5a41fe;
      }

      .cls-4 {
        fill: #fff;
      }

      .cls-5 {
        fill: #5a87fe;
      }
    </style>
  </defs>
  <g id="Layer_1-2" data-name="Layer 1">
    <g>
      <path d="M242.14.13c-11.79.67-24.39,5.46-34.28,11.74-1.79,1.14-8.35,7.4-8.92,7.51-1.42.28-5.49-2.77-7.04-3.29-26.03-8.7-65.62-6.18-88.76,9.39-3.74,2.52-17.38,13.48-7.75,15.73-8.57,6.59-16.63,16.74-20.66,26.77-2.18,5.42-10.32,31.91,2.82,24.42-.47,9.1.34,17.95,2.35,26.77.25,1.1,2.91,6.55,2.82,7.04-.05.26-3.04,2.44-3.76,3.76-6.36,11.57,5.25,28.96,18.55,28.41.28-.01,2.31-1.61,2.82-1.41.56.22,4.61,8.87,5.87,10.57,2.81,3.78,6.9,7.65,10.8,10.33-15.94,6.22-31.3,14.4-43.91,26.07-11.19,10.35-40.77,49.45-45.79,63.17-.89,2.44-.93,7.74-1.41,8.92-.87,2.16-21.16,17-22.07,20.19-1.1,3.86,2.05,6.36,1.88,7.51-.08.52-5.33,6.83-5.64,8.92-.45,3.04,3.1,8.64,5.87,9.63,1.52.54,4.03-.07,4.23,0,.95.31,2.3,2.82,4.7,2.82,2.86,0,9.29-6.22,9.86-6.11.55.12,2.17,6.96,8.92,5.17,5.11-1.36,14.33-25.01,15.97-25.83.94-.47,6.74-.97,8.92-1.88,15.61-6.53,26.24-21.02,38.75-31.7l-4.7,38.04c.17,5.23,3.54,5.41,3.76,8.92.88,14.02-6.05,36.24-5.64,51.66.23,8.49,5.15,7.89,5.64,9.86.19.76-2.31,15.01-3.05,15.26-.85.29-5.72-3.19-9.86,0-4.2,3.23-.61,7.17-.7,8.22-.05.58-8.04,6.2-9.16,7.28-12.23,11.85-17.5,26.53,5.17,28.18,7.44.54,37.11-1.7,42.74-5.64,6.91-4.83,3.59-19.87,4.46-26.07.14-.99,7.37-17.53,7.98-18.32,1.57-2.02,4.33-2.43,7.04-6.58,3.04-4.63,15.24-34.21,16.91-35.22.35-.21,7.82-.82,8.22-.7,2.05.61,14.83,34.77,18.08,38.75,1.41,2.56,5.16,1.87,6.58,3.76.51.68,5.7,15.12,5.64,15.97-.07.97-2.49,5.9-2.82,7.98-2.63,16.51,2.75,19.39,17.61,21.37,12.89,1.71,60.99,7.43,44.38-18.55-3.04-4.76-15.8-12.58-15.97-13.62-.22-1.39,4.85-4.17,1.88-8.92-2.89-4.62-11.14-2.55-12.45,2.58-.78-.17-1.9-14.98-1.64-15.73.3-.9,3.98-2.83,4.7-4.23,1.99-3.9-.05-23-.47-28.65-.42-5.64-4.1-28.5-3.29-31.94.11-.45,2.87-2.47,3.29-4.7l-7.04-73.26c9.23-8.36,20.53-14.67,29.82-23.25,22.02-20.34,33.16-46.37,29.35-76.79C345.44,91.3,315.52-4.03,242.14.13ZM308.83,48.98c5.33,11.82,5.86,25.71,1.88,38.04-1.43-1.84-11.81-12.86-11.98-13.85-.2-1.23,2.08-6.25,2.35-7.98,1.24-7.9-.84-11.94,7.75-16.2ZM265.15,7.18c4.21-.6,17.15,7.38,20.9,10.1.33,1.05-6.81,19.82-7.51,20.66-.9,1.07-12.89,4.84-14.32,4.46-.85-.22-10.97-10.85-12.45-12.45,3.32-5.57,6.09-21.73,13.38-22.78ZM232.04,146.9c-1.61,2.65-14.49,12.09-15.03,6.11-.12-1.3,4.71-13.83,5.4-16.2,6.07,2.98,15.32.74,9.63,10.1ZM237.21,145.49c.43-.9.41-4.05,1.17-4.46,7.49-3.99-1.07,9.63-2.11,11.04-6.57,8.87-17.73,15.21-28.18,18.32,1.46-1.4,6.57-12.31,7.28-12.45.18-.03,2.64,1.45,3.29,1.41,7.56-.5,15.38-7.28,18.55-13.85ZM210.21,97.35c-2.61-2.94-15.31-15.11-15.26-18.08,0-.15,1.29-2.19,1.41-2.58.64-2.18,7.26-18.42,8.22-18.79,3.49,1.41,16.37-2.39,18.08-1.17.73.52,9.58,14.17,9.86,15.03.69,2.09-1.72,11.64-2.82,13.62-1.56,2.81-12.21,8.14-15.5,9.63-1.4.63-2.64,1.62-3.99,2.35ZM213.73,127.64c-1.03.16-6.46-2.56-4.93-3.99,2.43.04,3.53,2.38,4.93,3.99ZM231.11,86.31c-.21-1.78,3.73-13.13,5.4-13.85,1.06-.46,21.39-4.78,22.54-4.7,1.44.1,13.63,11.54,13.85,12.45.29,1.2-6.73,22.53-7.51,23.48-1.38,1.69-18.26,3.81-20.43,3.05-1.16-.41-13.71-19.2-13.85-20.43ZM220.3,10.23c.91-2.11,18.15-5.77,20.9-5.87,1.28-.05,4.68-.25,5.64,0,.63.17,10,7.57,10.1,8.22.18,1.22-6.24,16.12-7.75,17.14-1.37.92-18.74,4.96-19.73,4.7-.76-.2-10.4-10.74-10.57-11.51-.14-.62,1.16-12.09,1.41-12.68ZM198.93,25.49c.66-.28,13.03-2.32,14.09-2.35.91-.02,3.11-.19,3.76,0,.78.23,10.92,11.17,11.04,11.98.15,1.02-5.94,18.94-6.81,19.49-1.73,1.09-15.28,2.4-17.38,1.88-1.31-.33-15.78-15.07-15.73-16.2,2.42-3.11,7.67-13.33,11.04-14.79ZM190.95,80.91c.57,0,1.42-.11,1.88,0,1.18.29,13.7,16.24,16.2,18.08-2.34,5.46-.02,18.87-1.41,23.01-.88,2.61-4.62-1.09-5.87-2.11-9.78-7.98-17.83-23.23-20.43-35.46.2-.71,8.61-3.53,9.63-3.52ZM89.04,151.83c-6.46-4-12.56-20.87-1.88-23.01,9.14-1.83,6.66,5.58,8.22,11.98,1.63,6.68,7.58,19.66-6.34,11.04ZM99.13,138.91c-.95-4.31-4.07-22.51-3.29-25.83,1.89-8.09,28.84-27,35.46-33.58.57,4.7-2.75,16.77,5.64,15.5,5.17-.78,28.93-23.06,35.22-26.77,1.69.08-6.04,19.5.47,21.13,1.94.49,4.46-.99,4.7-.94.57.12,4.53,9.99,4.46,10.57-.1.94-7.23,3.64-3.76,8.92,2.29,3.49,7.7,2.2,10.1,3.05.85.3,9.89,11.17,12.21,13.15,5.36,4.57,11.75,7.7,17.61,11.51-5.32,29.44-20.07,45.65-50.49,48.61-36.42,3.54-60.35-8.97-68.33-45.32ZM175.69,187.76c-4.09,18.14-32.53,17.99-34.52-.7l34.52.7ZM19.06,318.55l-4.46,1.64,9.63-6.81-5.17,5.17ZM31.74,320.43c-5.53,1.03-1.82-14.16-.7-16.67-3.94-3.43-3.82,1.93-5.87,3.99-3.59,3.62-12.57,9.4-17.38,10.8.91-3.02,13.17-12.8,12.92-14.79-.93-7.21-14.61,11.16-15.73,11.04-2.99-.33,5.9-11.44,6.81-12.45,2.17-2.4,11.09-8.46,10.33-10.8-2.73-4.49-12.32,8.2-13.38,8.22-.69,0-1.24-1.2-1.17-1.64.2-1.28,16.5-14.89,18.55-17.14,3.2,9.03,10.48,13.01,18.55,17.14.5,1.6-10.83,21.92-12.92,22.31ZM86.69,391.35c5.32-2.21,4.51,8.12,0,5.17-1.48-.97-1.75-4.44,0-5.17ZM119.09,422.81c-1.71,1.02-22.05,3.52-25.36,3.76-15.19,1.1-38.69,3.85-19.26-17.38,5.31.1,8.85,10.93,12.92,6.34.86-3.15-8-8.3-7.98-8.92,0-.41,2.31-2.13,3.05-2.11,2.54.07,9.34,10.07,11.04,5.4,1.28-3.52-10.67-8.86-5.4-9.63,2.49-.37,6.46,4.02,7.51,4.23,3.43.67,3.21-1.69,3.52-1.88-13.47-10.41,6.46-10.94.94,0,3.5,7.29,15.61,5.1,22.07,3.05.46,2.96-.48,15.6-3.05,17.14ZM109.23,403.56c-6.44-.94-2.68-4.66-5.4-9.16-1.29-2.13-5.98-3.88-6.11-4.23-.36-1.05,2.42-12.62,2.58-14.79,9.46,3.48,19.18,5.98,29.35,6.34-4.66,9.95-6.09,23.93-20.43,21.84ZM194.94,381.72l27.47-6.34c.6.12.8.2,1.17.7-.8,3.16,1.4,9.09.94,11.74-.35,2.04-5.15,5.53-6.58,7.04-.92.98.34,2.69-2.58,3.99-2.01.89-11.28,1.45-13.15.47-1.92-1-6.07-14.78-7.28-17.61ZM232.04,391.11c.08-.45,2.21-2.95,2.58-3.05,9.69-2.66-4.05,10.9-2.58,3.05ZM229.23,395.34c.49.61-5.89,5.63-7.04,5.4.36,9.7,9.56-2.95,11.51-3.29,9.59-1.68-8.49,8.75-2.82,10.8,3.52.69,7.34-7.94,11.27-6.11,4.65,2.17-5.16,5.16-4.46,8.69,3.43,4.76,6.42-3.51,10.1-4.46,3.52,2.35,10.43,13.4,4.7,15.97-2.31,1.04-25.87.67-30.06.47-3.32-.16-22.27-1.48-23.72-3.05-2.47-2.68-1.38-13.69.23-17.14,4.88,2.19,19.46,2.06,22.31-2.82.2-.34-.2-1.76,0-2.11,1.22-2.21,5.57-3.15,7.98-2.35ZM228.76,366.69c-5.75,6.88-33.24,13.27-40.15,10.1-3.19-1.47-14.78-32.65-18.08-37.34.5-1.56,10.65-.14,8.92-4.7-.98-2.58-11.49,1.03-13.85,1.17-3.23.2-19.12-2.97-19.96-1.17-2.28,4.92,8,3.03,8.45,4.7-3.56,4.54-16.09,35.84-19.02,37.34-6.55,3.35-34.62-3.25-40.15-10.1l5.4-54.24c35.28,9.74,80.48,11.68,116,1.88,1.23-.34,6.14-2.8,6.58-2.82.45-.02,1.37-.17,1.64.23,1.5,18.29,4.17,36.54,4.23,54.95ZM249.19,206.31c-7.2,6.39-20.7,13.43-26.3,19.26-1.21,1.25-1.9,2.4-2.58,3.99.96,22.1,6.72,46.21,7.04,68.1.08,5.64.62,6.58-4.46,9.63-18.81,11.27-80.92,10.09-102.85,6.11-4.11-.75-22.33-4.94-23.25-9.16l9.39-74.67c-1.23-3.46-3.65-3.02-4.7.47-2.02,6.69-.92,21.17-3.29,27.24-.77,1.98-27.43,27.06-30.76,29.35-9.7,6.66-17.95,10.83-28.65,3.76-18.31-12.11-3.61-29.64,4.93-42.5,13.07-19.69,28.81-41.15,49.08-53.77,4.4-2.74,25.51-13.43,29.59-13.15,2.31.16,10.63,5.27,14.09,5.17,2.42,22.45,32.53,26.36,42.03,6.34.74-1.56.86-5.94,2.11-6.81.66-.46,8.05-1.98,9.86-2.82,9.48-4.39,16.44-6.87,25.83-10.8,13.53-5.66,25.23-16.49,30.06-30.53,6.52-.44,13.43-1.06,19.73-2.82,2.46-.69,11.99-5.63,12.68-5.64.44,0,.95-.14,1.17.23,2.64,29.81-9.01,53.73-30.76,73.03ZM285.11,123.88c-.71,3.11-19.27,10.68-22.78,11.51-4.54,1.07-22.35,3.06-25.83.94-.45-.28-2.6-4.98-2.58-5.4.1-2.62,9.99-17.97,10.8-22.07,4.42-.75,8.95-.6,13.38-1.17,1.75-.23,7.07-2.36,7.98-2.35.72,0,1.25.21,1.88.47,1,.41,16.24,12.86,16.67,13.85.09.19.52,4.02.47,4.23ZM273.61,78.56c-.95-.24-10.57-10.77-11.98-12.45l3.29-21.13c.32-.62,11.94-4.85,12.92-4.93.52-.04,1.42-.09,1.88,0,1.24.25,20.06,13.59,20.43,14.79.85,2.78-1.67,16-3.99,18.08-1.35,1.21-20.95,6.04-22.54,5.64Z"/>
      <path class="cls-4" d="M202.22,399.33c1.87.98,11.14.42,13.15-.47,2.92-1.3,1.66-3.01,2.58-3.99,1.42-1.52,6.22-5,6.58-7.04.46-2.66-1.74-8.58-.94-11.74-.38-.51-.57-.59-1.17-.7l-27.47,6.34c1.21,2.83,5.36,16.61,7.28,17.61Z"/>
      <path class="cls-5" d="M278.77,133.04c-.69.01-10.22,4.95-12.68,5.64-6.3,1.76-13.2,2.38-19.73,2.82-4.83,14.04-16.53,24.87-30.06,30.53-9.39,3.93-16.35,6.41-25.83,10.8-1.82.84-9.2,2.36-9.86,2.82-1.25.87-1.37,5.25-2.11,6.81-9.51,20.02-39.61,16.11-42.03-6.34-3.46.1-11.78-5.01-14.09-5.17-4.07-.28-25.19,10.41-29.59,13.15-20.27,12.62-36.01,34.08-49.08,53.77-8.54,12.86-23.24,30.39-4.93,42.5,10.69,7.07,18.95,2.9,28.65-3.76,3.33-2.29,29.99-27.37,30.76-29.35,2.37-6.07,1.27-20.55,3.29-27.24,1.05-3.49,3.46-3.93,4.7-.47l-9.39,74.67c.92,4.22,19.13,8.41,23.25,9.16,21.94,3.98,84.05,5.16,102.85-6.11,5.09-3.05,4.55-3.99,4.46-9.63-.32-21.89-6.09-46-7.04-68.1.68-1.59,1.38-2.74,2.58-3.99,5.6-5.82,19.1-12.86,26.3-19.26,21.75-19.3,33.4-43.22,30.76-73.03-.22-.38-.74-.24-1.17-.23Z"/>
      <path class="cls-3" d="M222.89,311.51c-.43.02-5.34,2.48-6.58,2.82-35.52,9.8-80.72,7.87-116-1.88l-5.4,54.24c5.54,6.85,33.6,13.45,40.15,10.1,2.93-1.5,15.46-32.8,19.02-37.34-.45-1.67-10.74.22-8.45-4.7.84-1.8,16.73,1.37,19.96,1.17,2.37-.15,12.88-3.75,13.85-1.17,1.73,4.56-8.43,3.14-8.92,4.7,3.3,4.69,14.89,35.87,18.08,37.34,6.91,3.18,34.41-3.22,40.15-10.1-.06-18.41-2.73-36.65-4.23-54.95-.27-.4-1.2-.25-1.64-.23Z"/>
      <path class="cls-3" d="M221.24,399.8c-2.85,4.88-17.43,5.01-22.31,2.82-1.61,3.45-2.7,14.46-.23,17.14,1.45,1.57,20.4,2.9,23.72,3.05,4.19.2,27.75.57,30.06-.47,5.74-2.57-1.18-13.62-4.7-15.97-3.68.95-6.67,9.23-10.1,4.46-.7-3.53,9.11-6.52,4.46-8.69-3.93-1.83-7.75,6.8-11.27,6.11-5.67-2.05,12.41-12.48,2.82-10.8-1.95.34-11.14,12.98-11.51,3.29,0-.07-.72-.87-.94-.94Z"/>
      <path class="cls-3" d="M100.07,402.62c-.29.04-.81-.08-.94,0-.31.19-.1,2.55-3.52,1.88-1.05-.21-5.02-4.59-7.51-4.23-5.27.77,6.68,6.11,5.4,9.63-1.69,4.67-8.5-5.34-11.04-5.4-.74-.02-3.05,1.71-3.05,2.11-.01.62,8.85,5.77,7.98,8.92-4.07,4.59-7.61-6.25-12.92-6.34-19.44,21.23,4.07,18.48,19.26,17.38,3.31-.24,23.65-2.73,25.36-3.76,2.57-1.54,3.51-14.19,3.05-17.14-6.47,2.05-18.58,4.23-22.07-3.05Z"/>
      <path class="cls-4" d="M26.1,280.98c-2.05,2.25-18.36,15.86-18.55,17.14-.07.44.48,1.65,1.17,1.64,1.07-.01,10.66-12.71,13.38-8.22.76,2.34-8.17,8.4-10.33,10.8-.91,1.01-9.8,12.12-6.81,12.45,1.13.12,14.8-18.25,15.73-11.04.26,1.99-12.01,11.77-12.92,14.79,4.81-1.4,13.78-7.18,17.38-10.8,2.05-2.06,1.93-7.42,5.87-3.99-1.11,2.51-4.82,17.7.7,16.67,2.09-.39,13.41-20.71,12.92-22.31-8.07-4.13-15.35-8.12-18.55-17.14Z"/>
      <path class="cls-4" d="M97.73,390.17c.12.35,4.82,2.1,6.11,4.23,2.72,4.5-1.04,8.22,5.4,9.16,14.34,2.09,15.77-11.89,20.43-21.84-10.17-.36-19.89-2.86-29.35-6.34-.16,2.17-2.95,13.74-2.58,14.79Z"/>
      <path class="cls-4" d="M100.07,402.62c5.52-10.94-14.41-10.41-.94,0,.13-.08.65.04.94,0Z"/>
      <path class="cls-1" d="M221.24,397.69c-.2.36.2,1.78,0,2.11.22.07.94.87.94.94,1.16.23,7.54-4.79,7.04-5.4-2.41-.8-6.77.14-7.98,2.35Z"/>
      <path class="cls-4" d="M86.69,396.51c4.51,2.95,5.32-7.38,0-5.17-1.75.73-1.48,4.2,0,5.17Z"/>
      <path class="cls-4" d="M234.63,388.06c-.37.1-2.5,2.6-2.58,3.05-1.47,7.85,12.28-5.71,2.58-3.05Z"/>
      <polygon class="cls-1" points="19.06 318.55 24.23 313.39 14.6 320.2 19.06 318.55"/>
      <path class="cls-4" d="M175.69,187.76l-34.52-.7c1.99,18.7,30.43,18.84,34.52.7Z"/>
      <path class="cls-4" d="M87.16,128.82c-10.68,2.14-4.58,19.01,1.88,23.01,13.92,8.62,7.97-4.36,6.34-11.04-1.56-6.4.92-13.81-8.22-11.98Z"/>
      <path class="cls-4" d="M222.42,136.8c-.69,2.37-5.52,14.91-5.4,16.2.54,5.99,13.42-3.46,15.03-6.11,5.7-9.36-3.55-7.12-9.63-10.1Z"/>
      <path class="cls-4" d="M244.96,106.74c2.17.76,19.05-1.37,20.43-3.05.78-.95,7.8-22.28,7.51-23.48-.22-.91-12.41-12.34-13.85-12.45-1.15-.08-21.49,4.24-22.54,4.7-1.67.72-5.61,12.08-5.4,13.85.14,1.23,12.69,20.02,13.85,20.43Z"/>
      <path class="cls-1" d="M267.97,105.8c-.63-.26-1.16-.46-1.88-.47-.92-.01-6.24,2.12-7.98,2.35-4.43.57-8.97.43-13.38,1.17-.81,4.11-10.7,19.45-10.8,22.07-.02.42,2.13,5.13,2.58,5.4,3.48,2.12,21.29.13,25.83-.94,3.51-.83,22.06-8.4,22.78-11.51.05-.21-.38-4.03-.47-4.23-.43-.99-15.67-13.44-16.67-13.85Z"/>
      <path class="cls-4" d="M300.14,54.85c-.37-1.21-19.19-14.54-20.43-14.79-.46-.09-1.36-.04-1.88,0-.97.08-12.59,4.31-12.92,4.93l-3.29,21.13c1.41,1.68,11.03,12.2,11.98,12.45,1.59.41,21.19-4.42,22.54-5.64,2.32-2.08,4.84-15.3,3.99-18.08Z"/>
      <path class="cls-4" d="M229.7,85.37c1.1-1.98,3.5-11.53,2.82-13.62-.28-.85-9.13-14.51-9.86-15.03-1.71-1.21-14.59,2.58-18.08,1.17-.96.37-7.58,16.61-8.22,18.79l17.85,18.32c3.29-1.49,13.94-6.82,15.5-9.63Z"/>
      <path class="cls-4" d="M203.63,56.49c2.09.52,15.64-.79,17.38-1.88.87-.55,6.95-18.47,6.81-19.49-.11-.81-10.26-11.74-11.04-11.98-.65-.19-2.84-.02-3.76,0-1.06.02-13.43,2.06-14.09,2.35-3.37,1.46-8.61,11.69-11.04,14.79-.04,1.13,14.42,15.88,15.73,16.2Z"/>
      <path class="cls-4" d="M229.46,34.42c.98.26,18.36-3.77,19.73-4.7,1.51-1.02,7.93-15.92,7.75-17.14-.1-.65-9.47-8.05-10.1-8.22-.96-.25-4.36-.05-5.64,0-2.75.1-19.99,3.76-20.9,5.87-.25.59-1.55,12.06-1.41,12.68.17.76,9.81,11.31,10.57,11.51Z"/>
      <path class="cls-4" d="M264.22,42.4c1.44.38,13.42-3.39,14.32-4.46.71-.84,7.84-19.62,7.51-20.66-3.74-2.72-16.69-10.7-20.9-10.1-7.29,1.05-10.06,17.21-13.38,22.78,1.47,1.6,11.59,12.22,12.45,12.45Z"/>
      <path class="cls-1" d="M201.75,119.89c1.25,1.02,4.99,4.72,5.87,2.11,1.39-4.14-.93-17.56,1.41-23.01-2.51-1.84-15.02-17.79-16.2-18.08-.46-.11-1.3,0-1.88,0-1.02,0-9.43,2.81-9.63,3.52,2.6,12.23,10.65,27.48,20.43,35.46Z"/>
      <path class="cls-4" d="M298.73,73.16c.16,1,10.55,12.02,11.98,13.85,3.98-12.33,3.45-26.22-1.88-38.04-8.59,4.26-6.51,8.31-7.75,16.2-.27,1.74-2.55,6.76-2.35,7.98Z"/>
      <path class="cls-1" d="M196.35,76.68c-.12.39-1.41,2.44-1.41,2.58-.04,2.97,12.66,15.14,15.26,18.08,1.36-.73,2.6-1.71,3.99-2.35l-17.85-18.32Z"/>
      <path class="cls-4" d="M213.73,127.64c-1.4-1.62-2.5-3.95-4.93-3.99-1.53,1.43,3.9,4.16,4.93,3.99Z"/>
      <path class="cls-4" d="M167.47,184.23c30.42-2.96,45.17-19.16,50.49-48.61-5.86-3.81-12.26-6.94-17.61-11.51-2.32-1.98-11.37-12.85-12.21-13.15-2.39-.85-7.81.43-10.1-3.05-3.47-5.28,3.65-7.99,3.76-8.92.06-.58-3.89-10.44-4.46-10.57-.23-.05-2.75,1.43-4.7.94-6.51-1.63,1.22-21.06-.47-21.13-6.29,3.71-30.06,25.99-35.22,26.77-8.39,1.27-5.06-10.8-5.64-15.5-6.62,6.58-33.56,25.49-35.46,33.58-.78,3.32,2.34,21.52,3.29,25.83,7.99,36.35,31.91,48.86,68.33,45.32ZM195.65,135.39c7.01-.59,16.49,2.71,13.38,11.51-2.68,7.58-18.38,8.01-21.6.94-3.16-6.93,1.29-11.86,8.22-12.45ZM182.03,118.95c7.49-1.45,6.96,13.44,1.88,14.56-7.38,1.63-7.35-13.5-1.88-14.56ZM155.73,128.82c4.76-1.57,1.93,4.51,2.58,6.81.09.32,4.72,4.35,1.17,5.4-4.88,1.45-7.33-11.04-3.76-12.21ZM131.3,98.76c9.89-.03,10.37,10.78,0,12.21-17.07,2.36-13.37-12.17,0-12.21ZM128.72,147.37c-3.52,7.57-19.67,7.27-22.07-.94-1.91-6.54,3.67-10.57,9.63-11.04,7.67-.6,16.67,2.9,12.45,11.98ZM130.84,132.57c-3.26-2.33-3.28-13.48,1.88-14.09,8.89-1.04,5.65,19.46-1.88,14.09ZM147.74,162.63c-2.57-1.53-14.64-14.26-8.45-15.03.55-.07,4.9,2.54,6.11,2.82,6.54,1.53,14.94,2.04,21.6.94,5.59-.93,18.92-9.27,8.22,4.93-6.63,8.8-17.64,12.18-27.47,6.34Z"/>
      <path class="cls-2" d="M116.28,135.39c-5.96.47-11.54,4.49-9.63,11.04,2.4,8.21,18.55,8.51,22.07.94,4.22-9.08-4.77-12.58-12.45-11.98Z"/>
      <path class="cls-2" d="M187.43,147.84c3.23,7.07,18.93,6.64,21.6-.94,3.11-8.8-6.37-12.1-13.38-11.51-6.93.59-11.38,5.52-8.22,12.45Z"/>
      <path d="M131.3,110.97c10.37-1.44,9.89-12.24,0-12.21-13.37.04-17.07,14.57,0,12.21Z"/>
      <path d="M132.71,118.48c-5.16.61-5.14,11.76-1.88,14.09,7.53,5.37,10.77-15.13,1.88-14.09Z"/>
      <path d="M183.91,133.51c5.08-1.12,5.61-16.01-1.88-14.56-5.48,1.06-5.5,16.19,1.88,14.56Z"/>
      <path d="M159.48,141.03c3.54-1.05-1.08-5.08-1.17-5.4-.65-2.3,2.17-8.38-2.58-6.81-3.57,1.17-1.12,13.66,3.76,12.21Z"/>
      <path d="M175.22,156.29c10.7-14.21-2.63-5.86-8.22-4.93-6.66,1.1-15.07.59-21.6-.94-1.2-.28-5.56-2.89-6.11-2.82-6.19.76,5.88,13.5,8.45,15.03,9.84,5.84,20.85,2.46,27.47-6.34ZM144.92,154.18l26.54.7c-6.93,9.02-20.67,9.57-26.54-.7Z"/>
      <path class="cls-4" d="M171.46,154.88l-26.54-.7c5.86,10.28,19.61,9.72,26.54.7Z"/>
    </g>
  </g>
</svg>