<?xml version="1.0" encoding="UTF-8"?>
<svg id="Layer_2" data-name="Layer 2" xmlns="http://www.w3.org/2000/svg" viewBox="0 0 363.01 512">
  <defs>
    <style>
      .cls-1 {
        fill: #f6ce61;
      }

      .cls-2 {
        fill: #fff;
      }

      .cls-3 {
        fill: #aa8d43;
      }
    </style>
  </defs>
  <g id="Layer_1-2" data-name="Layer 1">
    <g>
      <path d="M255.92,414.45l14.67,71.88,22.98-.98-6.11-98.53c-16.82,5.21-36.75,7.17-54.28,4.89-1.9-.25-14-3.78-14.42-3.18l5.38,97.79c1.16,1.41,20.02.8,21.03-.49l5.87-63.08,1.96-1.22c-.02-1.77-.38-4.32.49-5.87-13.31-6.92-5.55-7.63,2.44-1.22Z"/>
      <path d="M363,248.2c.09-1.4-1.47-3.7-1.47-3.91.08-3.52,4.07-7.7-3.67-10.02-12.32-3.7-6.56,6.78-13.69,10.76-1.42-.26,3.14-10.73-3.91-9.29-3.73.76-5.73,12.59-8.07,15.4-.4.48-8.71,6.61-10.02,7.58-15.78,11.61-35.82,19.51-54.28,25.92l.24-15.4c.41-1.04,3.04.11,4.16-.24,10.17-3.24,20.25-26.35,15.4-36.43-2.65-5.5-6.55-4.63-9.53-6.6-1.56-1.03-2.78-5.2-5.38-7.33-5.58-4.58-16.48-6-23.47-5.38-2.45.22-7.7,2.43-9.29,2.44-2.98.02-12.47-9.36-15.65-11.74-6.85-5.14-20.93-13.33-25.18-19.8-19.06-29.06-15.2-80.69-57.21-89.24-1.78-.36-4.41.33-6.36-.73,0-.48,5.55-.15,6.36-.24,18.43-2.19,24.67-29.51,32.27-43.27,14.36.53,21.06-22.18,4.65-24.2-3.68-.46-7.34.76-11,.24,22.19-10.98-8.11-32.43-20.29-16.87.03-16.09-19.99-9.8-25.18.24-.85,1.65-1.14,5.79-1.47,6.36-.33.58-3.61-.1-5.87,2.93-3.36,4.51-6.31,29.17-5.38,34.72.62,3.68,5.83,6.62,5.87,7.33.08,1.46-12.44,22.61-13.94,25.67-19.36-.01-38.34,3.58-53.79,15.65C32.97,114.37-2.9,159.72.19,178.77c2.4,14.78,33.34,31.17,44.99,39.12-.94,7.14-6.37,41.61-3.42,45.96.83,1.23,2.38.29,2.93,1.47.74,1.58-1.83,15.99-1.96,19.07-.82,20.14.41,42.3.98,62.59,1.04,36.7.76,82.64,4.89,118.33.13,1.12.71,6.46.98,6.85.78,1.1,3.61.9,3.91,1.47.24.45.55,9.76.49,10.27-.23,1.9-1.61,1.72-1.96,3.42-.98,4.87-7.65,23.03-1.22,24.69h58.19c9.29-11.6-17.56-18.4-25.43-23.47-1.07-.69-8.41-5.61-8.56-6.11-.12-.4.81-7.93.98-8.31.6-1.36,2.92-.39,3.67-.73,1.13-.52,3.72-17.05,4.16-19.8,7.69-48.68,15.71-101.45,20.54-150.11.4-4.07,1.11-33.78,2.69-34.47,1.28-.56,2.03.54,2.2,1.71,1.81,12.5-5.53,35.98-4.4,48.41.77,8.51,7.64,21.47,8.8,31.29,4.16,35.19.96,76,3.42,111.97.09,1.28.74,9.35.98,9.78.68,1.22,3.85.65,4.4,1.96.21.5.17,9.84,0,10.76-.06.3-1.4,1.16-1.47,1.47-1.11,5.1-8.67,23.8-1.71,25.67h59.65c10.13-11.41-17.87-18.49-25.43-22.98-3.26-1.93-5.92-5.08-9.53-6.6,1.28-6.68-1.27-8.75,6.36-10.76,5.47-48.64,11.16-97.35,11-146.45,10.57,7.97,26.97,22.04,40.58,22.98,4.52.31,7.78-1.38,11.98-1.22v38.63l2.44,1.96,4.89,99.26c.86,3.54,3.76,1.77,4.89,3.42,3.77,5.54-4.92,3.86-8.07,4.65-4.39,1.1-21.95,11.76-13.2,17.11h41.56c4.99-6.25-1.33-14.74-.24-23.23,2.63-20.61,7.14-45.37,6.85-67.23l-1.96,1.22-5.87,63.08c-1,1.28-19.86,1.9-21.03.49l-5.38-97.79c.42-.6,12.52,2.93,14.42,3.18,17.53,2.28,37.45.32,54.28-4.89l6.11,98.53-22.98.98-14.67-71.88c-8-6.4-15.76-5.7-2.44,1.22l15.16,72.61c3.32,1.6,5.36,1.3,5.38,5.87-6.01-.14-10.73,1.23-15.89,4.16-4.62,2.62-12.92,8.79-6.36,13.69h42.54c5.3-1.73-2.38-19.85-.73-23.72.14-.33,2.15-.7,2.44-1.47.28-.73.01-5.97,0-7.33-.27-28.82-7.31-63.45-5.87-91.44.14-2.8.26-1.79,2.44-3.42l-.49-60.63c12.03-10.7,25.01-20.64,35.69-32.76,5.14-5.83,15.39-22.88,19.8-26.16,2.83-2.1,12.93-4.92,14.42-8.07,1.72-3.61-1.01-4.18-.98-5.38,0-.2,1.88-2.32,1.96-3.42ZM246.14,505.89v2.93l-40.34.73c-1.5-1.54-.94-3.82.98-4.4,1.8-.54,35.84-.53,37.65,0,.29.08,1.06.68,1.71.73ZM244.92,502.71l-34.47-.24c7.85-7.83,17.16-5.21,27.14-5.13.73,0,5.58-1.07,5.87-.98.82.26,2.36,5.72,1.47,6.36ZM228.78,489.51l14.18-.98c1.01.39,1.58,4.67.98,5.38-.65.77-20.38,3.68-15.16-4.4ZM276.21,489.51c2.37,1.06,13.16-1.32,14.18-.98.85.29,1.64,4.65.98,5.38-4.94.23-18.27,4.47-15.16-4.4ZM285.5,497.33c.74,0,5.59-1.07,5.87-.98.53.18,2.08,5.97,1.47,6.36l-35.45-.24c8.29-7.88,17.92-5.13,28.12-5.13ZM293.57,508.82l-40.83.73c-1.77-1.59-1.17-3,.49-4.4,7.15,1.61,34.81-2.12,39.61,0,1.18.52.62,2.66.73,3.67ZM257.14,235.73c-.13,2.96-1.49,3.59.24,6.6,1.89,3.27,8.04,3.53,8.31,3.91.24.34.62,7.75.98,8.31.23.35,4.74-.52,6.6.24,4.64,1.9,4.41,9.33,0,11.25-2.45,1.06-6.45-.68-7.09.24-2.52,3.65.83,17.33-2.44,22.98-3.3,5.68-14.68,9.03-20.29,5.62-2.34-1.42-2.85-6.18-1.71-8.07.6-.99,20.57-4.84,19.56-10.76-.58-3.36-6.11,3.31-7.58,4.16-12.32,7.09-27.37,2.78-28.6-12.47-.25-3.15,1.01-23.81,1.96-25.92,2.09-4.68,7.64-1.74,10.02-1.71,7.28.1,13.87.21,20.05-4.4ZM165.22,211.28c15.8,14.62,37.42,20.52,57.45,27.14,3.99,16.43-7.72,36.57,11,46.21,1.29.67,8.25.78,5.13,4.16-.52.56-11.42,4.62-13.94,6.11-5.27,3.12-20.63,16.6-24.94,17.6-2.69.62-27.37-3.9-29.83-5.38-2.22-1.34-5.16-8.13-9.05-9.05,1.61-9.72.82-20.46,2.44-30.07.32-1.92-.08-4.38,2.44-4.4,3.13-16.42-.32-35.72-.73-52.32ZM118.52,60.92c-.05-1.22-4.61-3.84-5.38-5.38-5.31-10.58,8.84-16.27,13.94-5.62.18-5.18,3.73-5.62,6.11-9.05,1.73-2.49,2.46-5.57,4.16-8.07,8.43,8.59,20.25,13.83,31.78,16.62,1.18.75.1,4.73-.24,6.11-4.29,17.44-21.23,47.9-42.3,31.05-1.96-1.57-6.79-8.64-7.33-8.8-3.54-1.04.09,4.72.73,5.62,2.47,3.48,13.56,10.1,13.69,11.25,1.24,10.96-15.95,9.95-22.25,5.62-1.77-1.21-7.39-8.1-7.58-10.02-.39-3.97,14.8-26.42,14.67-29.34ZM97.25,89.53c4.46-1.8,5.4,4.87,7.58,7.58,5.9,7.32,14.93,10.89,24.2,8.07,7-2.13,6.36-7.53,6.85-7.82,1.01-.61,4.15-.56,4.16,1.71.06,15.32-39,16.24-43.03-4.89-.14-.72-.74-4.25.24-4.65ZM44.68,284.87c5.71-2.27,9.71-5.11,13.69-9.78,1.02-1.2,4.22-7.44,4.65-7.58,5.08-1.67-2.79,9.51-3.67,10.51-2.45,2.81-12.22,11.08-14.67,6.85ZM65.95,486.08c-12.03,2.7-10.44-2.53-9.29-12.71h16.62c-.15,8.75,1.82,10.66-7.33,12.71ZM108.74,508.82l-57.45.73c-.89-.84-1.95-3.71-.49-4.4h56.72c1.43.99,1.32,2.02,1.22,3.67ZM80.38,489.26c-.14,1.43-10.59,4.43-6.11,7.09,1.01-1.29,12.41-8.09,11.98-3.67-.05.48-7.76,3.4-8.31,4.89l1.22,1.71c.81.17,8.03-4.99,10.27-4.89,2.16.1,12.84,6.55,15.4,8.07l-53.54-.24,3.42-14.18c6.33,4.21,14.27-1.73,19.56-1.96,2.67-.12,4.33,1.39,6.11,3.18ZM44.44,262.14c-2.39-2.34,1.7-37.71,3.42-43.03,5.49,2.43,10.63,5.96,16.14,8.31,2.16.92,4.19-.21,4.89,0,6.56,1.93,10.19,13.64,22.49,12.22,5.84-.67,10.33-6.13,12.71-6.85,3.73-1.12,10.74,3.47,12.96-1.22,1.63-7.04-12.93-8.43-16.38-10.51,1.44.54,4.79-.65,5.13-2.2,1.34-5.95-18.56-12.03-23.23-12.47-2.22-5.09-29.58-26.59-30.07-28.6-.19-.76,1.26-14.89,1.47-15.65.26-.93,9.26-10.22,10.76-12.71.64-1.06,2.99-3.95,1.22-4.65-1.66-.65-21.11,25.92-23.96,26.4-.47.08-8.41-3.27-7.09.24.45,1.2,4.5,1.21,5.62,1.71,14.15,6.34,27.22,23.31,38.87,33.49-1.67,3.27-9.58,18.54-12.96,18.83-1.77.15-27.88-14.48-31.29-16.62C-1.9,185.53-6.07,177.81,18.77,140.63c16.91-25.31,37.28-49.01,70.17-50.61,8.05-.39,4.05,1.34,6.11,6.6,7.72,19.68,42.23,24.76,47.67,1.22,31.95,8.04,33.46,37.77,43.27,63.32,2.05,5.34,9.65,23.7,12.71,27.38,3.24,3.9,17.17,11.95,22.25,15.89,8.15,6.32,15.77,13.35,24.2,19.31-6.83-2.01-13.51-8.99-20.78-6.11-6.38,2.52-10.15,12.08-4.16,16.87-.71,1.4-27.02-8.87-29.58-10.02-5.02-2.26-24.75-13.02-26.16-17.85-.64-2.21-.88-13.53-.98-16.62-.42-13.15,1.7-27.66.49-40.58-.18-1.95-.49-9-3.18-8.07l3.18,119.55c-.63,1.67-13.51,3.8-15.89,4.16-33.21,4.98-70.65,2.32-103.66-2.93ZM114.61,230.6c-3.52,1.34-7.99-1.26-11.49-.24-.57.17-2.19,2.58-2.93,2.93-15.95,7.58-17.1,2.1-29.58-7.58,4.41-5.11,7.26-11.03,10.51-16.87,3.39-.49,21.47,6.19,21.76,8.56.57,4.76-12.41-2.62-12.22.49.33,5.49,24.77,8.18,23.96,12.71ZM50.8,165.81l-.24,9.53c-.72,1.2-4.67-2.59-5.87-2.93l6.11-6.6ZM140.77,268.49c2.01-.66,4.73,6.79,6.11,8.56.92,1.17,3.48,3.73,4.65,4.65,1.72,1.35,7.94,2.67,6.36,4.89-1.62,2.27-11.16-5.97-12.47-7.58-.85-1.05-6.64-9.86-4.65-10.51ZM134.41,486.08c-12.9,2.64-9.28-2.22-9.29-12.71h16.62c.83,9.05,1.88,10.83-7.33,12.71ZM179.15,508.33c-.84,2.85-53.33.36-59.41,1.22-1.01-.41-1.77-3.84-.98-4.4,2.39-1.7,51.66,1.3,58.68,0,1.15.58,2.11,1.83,1.71,3.18ZM151.28,490.73c-.1,1.02-9.21,3.78-5.13,6.11,1.29-.83,10.7-6.78,11-3.18.07.83-7.46,3.25-7.33,4.89l1.22,1.22c1.34.35,8.52-4.85,9.29-4.89,1.59-.09,11.93,6.39,14.42,7.09l-55.01.24,3.42-14.18c6.42,4.11,14.01-1.61,19.56-1.96,3.91-.24,5.87,2.37,8.56,4.65ZM154.46,315.92c-1.94-1.24-7.73-1.54-8.07-4.65-.83-7.51,11.6,1.07,13.45,3.18l.73-1.71c-3.01-1.94-4.73-5.92-8.56-6.6-1.57-.28-8.11,1.02-8.56-.24-1.77-4.96,11.99.38,13.45-.24,5.09-2.17-7.96-2.91-8.07-4.16-.23-.88,4.09-1.66,4.65-1.71,2.81-.25,6.37.44,8.8,1.96.76.47,6.54,7.08,6.6,7.58.09.74-5.58,11.88-6.6,13.45-3.71-.7-5.56-5.39-7.82-6.85ZM280.86,329.37c1.11,4.96,6.4-3.4,8.8-3.42l.49,56.72c-22.04,8.8-50.65,9.95-73.35,1.96l-.49-69.43c-.61-1.02-2.04-.99-2.44,0-1.61,3.95.48,22.52-.49,27.87-16.61,8.25-36.07-8.54-48.41-18.58l7.09-14.42c6.27,1.21,22.19,6.4,27.87,5.38,4.13-.74,20.81-15.04,25.92-18.09,1.94-1.16,10.64-5.88,12.22-5.38.3.09,2.45,3.93,3.91,4.89,5.93,3.89,15.9,1.54,21.03-2.93,1.83-1.59,3.63-5.44,4.89-6.36,3.37-2.45,19.14-6.88,24.45-9.29,13.33-6.06,26.31-13.2,37.65-22.49l9.53,15.89c-15.4,23.15-37.1,40.62-58.68,57.7ZM360.07,255.05c-5.87,5.93-14.78,6.16-19.31,13.94-2.99-2.94-8.18-10.21-7.58-14.42.13-.89,6.69-16.26,7.58-16.38,4.08-.57-4.89,11,4.4,9.29,5.87-1.08,5.41-10.68,6.85-11.25.59-.24,4.32-.2,4.65.73l-3.67,7.09c2.07,1.33,5.33-8.84,7.09-5.13,2.94,6.19-12.28,5.56-7.58,10.51,7.58-7.12,12.08-1.99,2.69,3.18.34,1.28,4.8.11,4.89,2.44Z"/>
      <path class="cls-3" d="M142.72,486.08c-5.55.34-13.14,6.06-19.56,1.96l-3.42,14.18,55.01-.24c-2.49-.7-12.83-7.18-14.42-7.09-.77.04-7.95,5.24-9.29,4.89l-1.22-1.22c-.12-1.64,7.41-4.06,7.33-4.89-.31-3.6-9.71,2.35-11,3.18-4.08-2.34,5.03-5.09,5.13-6.11-2.69-2.28-4.65-4.89-8.56-4.65Z"/>
      <path class="cls-3" d="M54.71,488.04l-3.42,14.18,53.54.24c-2.56-1.52-13.24-7.97-15.4-8.07-2.24-.1-9.46,5.06-10.27,4.89l-1.22-1.71c.55-1.49,8.27-4.41,8.31-4.89.43-4.42-10.97,2.38-11.98,3.67-4.48-2.66,5.97-5.66,6.11-7.09-1.78-1.79-3.44-3.29-6.11-3.18-5.29.23-13.23,6.16-19.56,1.96Z"/>
      <path class="cls-2" d="M118.76,505.15c-.79.56-.03,3.99.98,4.4,6.08-.87,58.57,1.63,59.41-1.22.4-1.35-.56-2.6-1.71-3.18-7.01,1.3-56.28-1.7-58.68,0Z"/>
      <path class="cls-2" d="M51.29,509.56l57.45-.73c.1-1.65.21-2.68-1.22-3.67h-56.72c-1.46.7-.4,3.57.49,4.4Z"/>
      <path class="cls-2" d="M56.66,473.37c-1.15,10.19-2.74,15.41,9.29,12.71,9.16-2.06,7.18-3.96,7.33-12.71h-16.62Z"/>
      <path class="cls-2" d="M134.41,486.08c9.21-1.88,8.16-3.66,7.33-12.71h-16.62c0,10.49-3.61,15.35,9.29,12.71Z"/>
      <path class="cls-2" d="M157.88,286.58c1.58-2.22-4.64-3.54-6.36-4.89-1.17-.92-3.73-3.48-4.65-4.65-1.38-1.77-4.1-9.22-6.11-8.56-1.99.65,3.79,9.46,4.65,10.51,1.3,1.6,10.85,9.85,12.47,7.58Z"/>
      <path class="cls-1" d="M163.99,260.91l-3.18-119.55c2.69-.93,3,6.12,3.18,8.07,1.21,12.92-.91,27.43-.49,40.58.1,3.1.33,14.41.98,16.62,1.41,4.83,21.14,15.59,26.16,17.85,2.56,1.15,28.87,11.43,29.58,10.02-5.99-4.79-2.22-14.35,4.16-16.87,7.27-2.88,13.95,4.1,20.78,6.11-8.44-5.97-16.06-12.99-24.2-19.31-5.07-3.94-19-11.99-22.25-15.89-3.06-3.68-10.66-22.04-12.71-27.38-9.82-25.55-11.33-55.28-43.27-63.32-5.45,23.54-39.95,18.46-47.67-1.22-2.07-5.26,1.94-6.99-6.11-6.6-32.89,1.6-53.26,25.3-70.17,50.61-24.84,37.18-20.67,44.9,16.38,68.21,3.42,2.15,29.53,16.78,31.29,16.62,3.38-.29,11.29-15.55,12.96-18.83-11.65-10.19-24.73-27.16-38.87-33.49-1.13-.51-5.17-.51-5.62-1.71-1.32-3.51,6.62-.16,7.09-.24,2.85-.48,22.3-27.06,23.96-26.4,1.77.7-.59,3.59-1.22,4.65-1.49,2.49-10.5,11.78-10.76,12.71-.21.76-1.65,14.88-1.47,15.65.49,2.02,27.85,23.51,30.07,28.6,4.67.44,24.57,6.52,23.23,12.47-.35,1.55-3.7,2.74-5.13,2.2,3.45,2.08,18.01,3.48,16.38,10.51-2.22,4.7-9.23.1-12.96,1.22-2.39.72-6.87,6.17-12.71,6.85-12.3,1.42-15.93-10.3-22.49-12.22-.7-.21-2.73.92-4.89,0-5.51-2.35-10.65-5.88-16.14-8.31-1.72,5.32-5.81,40.69-3.42,43.03,33.01,5.26,70.45,7.92,103.66,2.93,2.38-.36,15.26-2.49,15.89-4.16Z"/>
      <path class="cls-1" d="M140.03,99.06c0-2.28-3.15-2.32-4.16-1.71-.48.29.16,5.7-6.85,7.82-9.28,2.82-18.3-.75-24.2-8.07-2.18-2.71-3.12-9.38-7.58-7.58-.98.4-.38,3.93-.24,4.65,4.03,21.13,43.09,20.21,43.03,4.89Z"/>
      <path class="cls-2" d="M102.87,217.4c-.28-2.37-18.37-9.05-21.76-8.56-3.25,5.84-6.1,11.76-10.51,16.87,12.49,9.68,13.64,15.16,29.58,7.58.74-.35,2.37-2.77,2.93-2.93,3.5-1.02,7.97,1.59,11.49.24.81-4.54-23.63-7.23-23.96-12.71-.18-3.11,12.8,4.27,12.22-.49Z"/>
      <path class="cls-2" d="M111.43,100.29c6.3,4.32,23.49,5.33,22.25-5.62-.13-1.15-11.22-7.77-13.69-11.25-.64-.9-4.27-6.67-.73-5.62.55.16,5.37,7.23,7.33,8.8,21.07,16.85,38-13.61,42.3-31.05.34-1.38,1.42-5.36.24-6.11-11.53-2.8-23.35-8.03-31.78-16.62-1.69,2.5-2.43,5.58-4.16,8.07-2.38,3.43-5.94,3.87-6.11,9.05-5.09-10.64-19.25-4.96-13.94,5.62.77,1.54,5.32,4.16,5.38,5.38.13,2.92-15.06,25.37-14.67,29.34.19,1.92,5.81,8.81,7.58,10.02ZM158.86,47.97c2.87-.76,10.25,2.07,9.05,6.11-3.1,1.13-4.45-6.15-10.02-3.18l-.73-1.71c.06-.23,1.52-1.17,1.71-1.22ZM159.84,57.26c2.94-.16,1.95,7.16-1.47,7.33-2.49-1.79-.95-5.82,1.47-7.33ZM146.88,68.26c5.15-1.63,1.77-4.01,2.69-8.07,2.9-2.37,5.55,14.84-2.69,8.07ZM141.26,42.59c2.39-.59,10.59.8,10.02,4.16-.49,2.88-4.1-1.41-5.62-1.71-2.15-.42-6.06,1.1-6.36.98-2.25-.88.66-3.1,1.96-3.42ZM141.74,58.72c-2.75-.14-1.6-6.18.49-7.33,4.14-1.15,1.83,7.46-.49,7.33ZM136.86,70.95c1.2,0,1.89,3.91,3.42,4.89,3.61,2.32,6.46-.34,7.33,0,2.24.87-.67,3.13-1.96,3.42-7.7,1.76-12.23-8.29-8.8-8.31Z"/>
      <path d="M145.66,79.26c1.29-.29,4.19-2.55,1.96-3.42-.87-.34-3.73,2.32-7.33,0-1.53-.98-2.22-4.9-3.42-4.89-3.43.02,1.1,10.07,8.8,8.31Z"/>
      <path d="M139.3,46.01c.3.12,4.2-1.4,6.36-.98,1.52.3,5.13,4.59,5.62,1.71.57-3.36-7.63-4.75-10.02-4.16-1.29.32-4.2,2.54-1.96,3.42Z"/>
      <path d="M167.9,54.08c1.2-4.04-6.18-6.87-9.05-6.11-.19.05-1.65,1-1.71,1.22l.73,1.71c5.58-2.97,6.93,4.3,10.02,3.18Z"/>
      <path d="M149.57,60.19c-.92,4.06,2.46,6.44-2.69,8.07,8.24,6.78,5.59-10.44,2.69-8.07Z"/>
      <path d="M142.23,51.39c-2.09,1.16-3.24,7.19-.49,7.33,2.32.12,4.62-8.48.49-7.33Z"/>
      <path d="M158.37,64.59c3.41-.17,4.4-7.49,1.47-7.33-2.42,1.51-3.95,5.54-1.47,7.33Z"/>
      <path class="cls-2" d="M292.84,505.15c-4.8-2.12-32.46,1.61-39.61,0-1.65,1.4-2.26,2.81-.49,4.4l40.83-.73c-.11-1.01.44-3.15-.73-3.67Z"/>
      <path class="cls-2" d="M206.78,505.15c-1.92.58-2.48,2.87-.98,4.4l40.34-.73v-2.93c-.65-.05-1.43-.65-1.71-.73-1.81-.53-35.85-.54-37.65,0Z"/>
      <path class="cls-3" d="M291.37,496.35c-.28-.1-5.13.98-5.87.98-10.2,0-19.83-2.75-28.12,5.13l35.45.24c.61-.39-.93-6.18-1.47-6.36Z"/>
      <path class="cls-3" d="M243.45,496.35c-.28-.09-5.14.98-5.87.98-9.98-.08-19.28-2.7-27.14,5.13l34.47.24c.89-.63-.64-6.09-1.47-6.36Z"/>
      <path class="cls-2" d="M291.37,493.91c.66-.72-.13-5.09-.98-5.38-1.02-.35-11.81,2.04-14.18.98-3.11,8.88,10.22,4.63,15.16,4.4Z"/>
      <path class="cls-2" d="M243.94,493.91c.6-.71.03-4.99-.98-5.38l-14.18.98c-5.22,8.08,14.51,5.17,15.16,4.4Z"/>
      <path class="cls-1" d="M292.35,278.27c-5.31,2.41-21.08,6.84-24.45,9.29-1.26.92-3.06,4.76-4.89,6.36-5.13,4.47-15.09,6.82-21.03,2.93-1.46-.96-3.61-4.8-3.91-4.89-1.59-.5-10.28,4.22-12.22,5.38-5.1,3.05-21.78,17.35-25.92,18.09-5.68,1.02-21.6-4.17-27.87-5.38l-7.09,14.42c12.33,10.04,31.8,26.83,48.41,18.58.97-5.35-1.12-23.92.49-27.87.41-.99,1.84-1.02,2.44,0l.49,69.43c22.7,8,51.3,6.84,73.35-1.96l-.49-56.72c-2.4.02-7.69,8.38-8.8,3.42,21.58-17.08,43.28-34.55,58.68-57.7l-9.53-15.89c-11.34,9.29-24.32,16.43-37.65,22.49ZM264.97,299.3c-8.05,6.36-23.27,8.4-28.6-2.2,2.26-3.17,3.53,1.89,5.62,3.18,5.52,3.4,15.34,1.16,20.54-2.44,1.11-.77,5.91-6.34,6.36-6.36,4.42-.15-3.2,7.26-3.91,7.82Z"/>
      <path d="M268.88,291.47c-.45.02-5.24,5.58-6.36,6.36-5.2,3.6-15.02,5.84-20.54,2.44-2.09-1.29-3.37-6.35-5.62-3.18,5.34,10.6,20.55,8.56,28.6,2.2.71-.56,8.33-7.98,3.91-7.82Z"/>
      <path class="cls-2" d="M352.49,249.42c-4.7-4.95,10.52-4.32,7.58-10.51-1.76-3.7-5.02,6.47-7.09,5.13l3.67-7.09c-.33-.93-4.05-.97-4.65-.73-1.44.57-.98,10.17-6.85,11.25-9.29,1.71-.32-9.86-4.4-9.29-.89.12-7.45,15.49-7.58,16.38-.6,4.21,4.59,11.48,7.58,14.42,4.54-7.77,13.45-8.01,19.31-13.94-.09-2.34-4.55-1.16-4.89-2.44,9.39-5.17,4.9-10.3-2.69-3.18Z"/>
      <path class="cls-2" d="M162.28,301.74c-2.43-1.52-5.99-2.2-8.8-1.96-.56.05-4.87.83-4.65,1.71.11,1.25,13.16,1.98,8.07,4.16-1.46.62-15.21-4.72-13.45.24.45,1.26,6.98-.03,8.56.24,3.83.68,5.54,4.67,8.56,6.6l-.73,1.71c-1.85-2.1-14.28-10.69-13.45-3.18.34,3.1,6.13,3.4,8.07,4.65,2.26,1.45,4.12,6.15,7.82,6.85,1.02-1.57,6.69-12.7,6.6-13.45-.06-.5-5.84-7.11-6.6-7.58Z"/>
      <path class="cls-2" d="M237.09,240.13c-2.38-.03-7.93-2.97-10.02,1.71-.94,2.11-2.21,22.77-1.96,25.92,1.23,15.25,16.28,19.55,28.6,12.47,1.47-.85,7-7.51,7.58-4.16,1.01,5.92-18.96,9.77-19.56,10.76-1.14,1.89-.63,6.65,1.71,8.07,5.61,3.41,17,.06,20.29-5.62,3.28-5.65-.08-19.33,2.44-22.98.64-.92,4.64.82,7.09-.24,4.41-1.92,4.64-9.34,0-11.25-1.86-.76-6.38.11-6.6-.24-.36-.56-.74-7.97-.98-8.31-.27-.39-6.43-.64-8.31-3.91-1.74-3.01-.38-3.64-.24-6.6-6.18,4.61-12.76,4.5-20.05,4.4ZM229.76,246c-2.7-.51-.23-3.05,1.96-3.42,1.27-.22,9.12.52,7.09,3.18-.22.28-5.88-.68-7.09-.73-.11,0-1.34,1.09-1.96.98ZM232.69,250.4c2.41-.31,2.11,5.88.49,6.36-3.15.93-2.52-6.09-.49-6.36ZM251.76,258.22c-2.59.44-1.99-5.91-.49-6.36,3.11-.92,2.58,6,.49,6.36ZM248.58,245.76c.12-.56,3.23-1.68,3.67-1.71,1.63-.11,7.47,1.89,7.09,4.16-.41,2.44-4.06-1.35-6.11-1.71-1.05-.18-5.21,1.86-4.65-.73ZM248.58,266.78c.42,5.41-4.28,10.7-10.02,9.05-4.17-1.2-8.09-9.75-3.42-10.76,1.7-.37,3.43,1,3.91.98,2.5-.09,8.72-1.68,9.53.73ZM241.98,253.82c3.6-.02-1.93,5.48-1.71,6.11.37,1.09,3.78.38,2.93,2.44-.81,1.97-6.24.28-5.87-2.93.06-.52,4.1-5.62,4.65-5.62Z"/>
      <path d="M243.21,262.38c.85-2.07-2.56-1.35-2.93-2.44-.21-.63,5.31-6.14,1.71-6.11-.55,0-4.59,5.11-4.65,5.62-.37,3.21,5.06,4.91,5.87,2.93Z"/>
      <path d="M253.23,246.49c2.06.36,5.7,4.15,6.11,1.71.38-2.27-5.46-4.26-7.09-4.16-.43.03-3.55,1.15-3.67,1.71-.56,2.6,3.59.55,4.65.73Z"/>
      <path d="M238.81,245.76c2.03-2.66-5.82-3.4-7.09-3.18-2.19.38-4.65,2.92-1.96,3.42.62.12,1.85-.98,1.96-.98,1.21.05,6.87,1.02,7.09.73Z"/>
      <path d="M251.27,251.87c-1.5.44-2.11,6.79.49,6.36,2.09-.35,2.62-7.28-.49-6.36Z"/>
      <path d="M232.69,250.4c-2.03.26-2.67,7.29.49,6.36,1.62-.48,1.93-6.67-.49-6.36Z"/>
      <path d="M235.14,265.07c-4.67,1.01-.74,9.56,3.42,10.76,5.74,1.65,10.44-3.64,10.02-9.05-.82-2.41-7.03-.83-9.53-.73-.48.02-2.22-1.34-3.91-.98ZM246.38,267.03c-.14,14.63-15.84,2.27-10.76,0,.61-.27,8.51,2.09,10.76,0Z"/>
      <path class="cls-2" d="M235.63,267.03c-5.08,2.27,10.62,14.63,10.76,0-2.24,2.09-10.14-.27-10.76,0Z"/>
    </g>
  </g>
</svg>