<svg width="1439" height="1941" viewBox="0 0 1439 1941" fill="none" xmlns="http://www.w3.org/2000/svg">
<path d="M815.229 0.492696C841.792 -2.95535 862.254 12.6935 879.079 31.0325C881.087 33.2302 888.325 46.5677 889.272 46.7572C891.47 47.2118 907.612 25.69 930.007 33.7986C949.446 40.8462 949.029 73.6595 952.212 74.531C1004.39 34.2154 1051.61 81.1618 1045.69 138.377C1047.55 143.113 1067.71 136.823 1074.38 137.467C1088.97 138.831 1108.86 150.047 1114.17 164.294C1117.2 172.402 1115.42 190.779 1116.02 192.068C1116.82 193.773 1139.86 200.783 1144.71 204.079C1172.29 222.911 1168.88 259.627 1143.8 279.027C1192.04 306.081 1202.99 364.281 1169.72 408.575C1164.56 415.471 1139.93 432.522 1140.12 434.492C1140.31 436.69 1160.05 445.215 1154.94 473.368C1151.95 489.85 1120.23 516.752 1119.77 519.632C1119.21 523.308 1126.78 529.938 1127.16 532.591C1128.98 545.246 1119.4 563.851 1119.77 565.897C1120 567.185 1134.93 578.931 1138.27 584.387C1172.75 641.034 1106.36 718.634 1050.35 729.66C1043.91 730.948 1022.16 727.955 1018.9 729.66C1016.52 730.872 999.73 768.649 993.932 776.834C980.745 795.438 962.936 810.14 947.665 826.811C1090.82 938.513 1213.83 1085.49 1267.86 1261.72C1290.71 1336.25 1299.35 1396.16 1258.61 1467.16C1261.23 1470.23 1276.05 1464.47 1282.68 1472.73L1438.15 1929.85L1424.28 1940.04L8.41203 1938.18C-2.57693 1932.99 -0.151782 1924.73 1.93233 1915.03L187.002 1472.73C192.951 1455.38 201.931 1469.13 212.92 1461.63C157.597 1399.95 106.934 1312.76 116.672 1226.6C121.636 1182.6 168.51 1110.23 194.391 1072.99C272.45 960.755 376.656 868.34 490.524 793.543C477.262 776.872 460.248 760.503 449.789 741.709C444.067 731.441 433.003 694.118 431.297 691.731C429.251 688.89 403.787 684.646 397.042 681.539C347.175 658.577 308.449 587.684 338.725 536.266C342.211 530.355 356.838 518.988 357.217 517.775C358.126 514.972 352.253 504.893 353.503 497.428C354.185 493.298 362.749 485.265 362.749 484.47C362.749 482.424 342.78 466.623 340.544 451.164C336.035 420.245 358.884 407.893 359.036 404.899C359.149 402.815 342.931 377.808 340.544 367.88C331.601 330.861 338.005 296.911 379.422 288.31C354.337 241.856 380.71 179.223 438.649 184.679C414.397 151.979 431.108 100.334 476.58 120.833C480.179 83.6626 504.431 59.4505 543.195 63.4669C548.538 64.0353 569.607 73.2427 570.971 72.7122C572.335 72.1818 581.505 51.7587 584.84 47.7423C607.765 20.3095 645.203 3.75129 669.038 39.4064C694.161 -6.55496 748.31 -12.6554 770.818 39.4064C777.488 22.5829 796.851 2.9177 815.229 0.530587V0.492696Z" fill="black"/>
<path d="M210.002 1481.03C225.349 1478.61 265.023 1504.79 268.319 1515.28C270.366 1521.76 267.941 1542.07 270.176 1552.3C279.346 1594.36 337.057 1645.89 382.15 1640.21C388.44 1639.41 436.375 1624.67 445.09 1621.72C448.993 1620.39 459.376 1610.24 461.763 1610.62C467.409 1611.49 493.972 1662.41 502.498 1667.98C510.493 1673.21 531.713 1674.69 541.376 1679.09C553.843 1684.77 598.973 1715.99 607.992 1712.39C619.777 1707.69 603.255 1646.35 601.512 1633.73C600.262 1624.64 604.847 1614.41 603.369 1604.14C600.944 1587.28 553.805 1526.35 553.388 1517.14C553.275 1514.79 565.476 1491.37 563.581 1484.74H961.495C963.731 1503.88 937.017 1507.25 924.474 1516.19C890.977 1540.14 890.939 1568.97 872.636 1584.66C860.624 1594.97 812.538 1610.77 808.787 1628.16C800.791 1665.29 849.787 1660.71 851.341 1665.18C845.922 1679.12 838.836 1713.19 859.677 1717.92C889.347 1724.67 896.547 1689.13 902.231 1688.33C903.595 1688.14 915.797 1694.73 928.15 1693.9C930.082 1693.75 935.273 1687.61 937.396 1688.33C939.025 1688.9 944.065 1707.35 957.744 1708.68C963.504 1709.25 975.288 1702.99 976.236 1703.11C977.183 1703.22 985.899 1713.15 991.052 1714.21C1000.49 1716.18 1009.54 1710.46 1011.4 1710.5C1023.91 1710.88 1030.2 1717.62 1044.71 1712.35C1050.13 1710.38 1069.98 1689.35 1073.39 1683.67C1079.34 1673.82 1083.25 1651.24 1086.35 1646.65C1088.7 1643.16 1120.61 1630.28 1128 1625.36C1160.28 1603.8 1188.7 1573.75 1212.2 1542.98C1218.49 1534.76 1246.83 1485.8 1250.13 1484.67C1251.26 1484.29 1267.78 1484.33 1268.62 1484.67L1404.65 1870.55L37.8545 1873.31C86.7364 1742.4 147.176 1613.91 199.809 1483.76C203.03 1483.76 208.145 1481.26 210.002 1480.99V1481.03Z" fill="white"/>
<path d="M34.1789 1888.17H1407.46L1421.33 1924.24L17.506 1925.15C13.7546 1922.76 27.0172 1889.23 34.1789 1888.13V1888.17Z" fill="#F9C377"/>
<path d="M502.422 803.66L549.599 836.057C517.162 1051.2 849.219 1094.51 862.367 873.076L933.606 835.147C1052.48 928.245 1159.45 1042.64 1221.4 1182.15C1284.53 1324.35 1297.49 1406.16 1199.2 1535.63C1194.69 1541.58 1140.65 1603.76 1136.26 1596.71C1150.01 1515.93 1080.4 1444.88 1001.13 1443.1C1014.81 1425.63 1070.7 1330.49 1064.07 1313.55C1053.23 1285.93 1038.23 1358.99 1030.76 1361.68C1021.1 1333.6 999.616 1110.99 987.263 1107.2C982.64 1105.8 979.76 1108.64 977.069 1111.82L1019.62 1385.74L966.876 1468.11L565.249 1469.97C560.55 1468.26 551.19 1424.08 533.797 1412.6C521.937 1404.76 490.675 1402.64 484.764 1398.73C473.965 1391.61 429.137 1292.56 414.435 1276.57C419.361 1234.89 428.417 1188.78 429.251 1147.02C429.478 1135.09 434.025 1096.1 414.435 1113.72L402.423 1257.14L342.286 1150.74C310.456 1111.03 218.339 1149.83 233.079 1202.57L321.9 1354.32C278.664 1366.03 248.464 1397.79 255.284 1445C256.989 1456.89 281.165 1487.81 269.153 1494.03C255.701 1501 176.581 1391.65 168.282 1376.49C101.894 1255.24 131.374 1190.86 203.447 1085.95C281.506 972.311 387.228 878.38 502.346 803.698L502.422 803.66Z" fill="#5A87FE"/>
<path d="M565.363 844.393C598.179 857.124 584.954 868.416 592.191 893.423C622.582 998.153 764.718 1012.93 812.425 911.914C814.699 907.102 816.669 889.975 817.996 887.853C819.663 885.163 846.756 872.28 847.59 884.14C849.75 914.566 814.168 964.506 789.273 981.292C690.562 1047.87 540.278 969.318 565.325 844.355L565.363 844.393Z" fill="#3654A6"/>
<path d="M991.053 1458.83C1022.73 1447.76 1079.8 1480.99 1099.31 1506C1124.06 1537.68 1145.2 1615.05 1090.07 1626.3C1099.05 1549.92 1055.66 1487.85 975.327 1489.37C978.586 1484.18 985.672 1460.72 991.053 1458.83Z" fill="#3654A6"/>
<path d="M974.38 1505.09C1003.78 1498.38 1049.75 1522.48 1064.15 1548.59C1083.97 1584.55 1081.54 1688.14 1029.89 1699.43C1026.94 1697.8 1059.45 1659.87 1037.28 1660.56C1029.97 1660.78 1016.14 1705.68 994.728 1699.43C993.288 1699.02 988.286 1693.29 988.248 1691.1C988.173 1687.46 1031.6 1623.27 1003.97 1630.96C997.381 1632.78 977.979 1697.01 959.563 1693.9C931.712 1689.2 1005.15 1597.73 968.809 1608.76C965.967 1609.63 950.052 1651.65 941.981 1661.5C935.956 1668.89 920.344 1687.42 911.439 1677.23C903.406 1668.06 943.08 1602.55 941.981 1593.04C941.602 1589.66 939.367 1588.72 937.358 1586.56C935.198 1586.97 931.636 1585.95 929.969 1586.56C923.83 1588.75 888.666 1695.95 872.599 1703.15C852.44 1712.16 863.619 1672.72 866.119 1661.5C873.888 1626.8 899.427 1552.19 928.112 1531.05C931.523 1528.55 971.803 1505.74 974.38 1505.13V1505.09Z" fill="white"/>
<path d="M868.885 1601.33C861.079 1622.17 865.058 1654.27 835.577 1647.6C794.766 1638.35 859.298 1609.56 868.885 1601.33Z" fill="white"/>
<path d="M346.948 1401.46C372.98 1452.76 420.422 1495.2 449.675 1543.02C455.549 1552.64 475.746 1581.93 454.298 1586.52C429.516 1591.82 370.441 1520.93 352.518 1503.24H346.948C345.356 1503.77 342.211 1509.79 342.325 1511.57C342.817 1519.72 428.076 1604.9 447.819 1602.24C407.842 1631 368.963 1589.93 335.845 1569.85C308.714 1576.33 382.378 1619.1 388.592 1620.73C346.493 1641.5 288.365 1579.36 283.098 1541.16C281.658 1530.86 282.189 1501.08 284.955 1491.19C287.986 1480.42 300.188 1473.98 303.447 1465.27C306.023 1458.41 303.939 1448.79 305.303 1444.92C312.503 1424.54 332.359 1416.01 346.948 1401.42V1401.46Z" fill="white"/>
<path d="M341.416 1247.85L549.637 1607.81C545.204 1615.73 539.255 1617.82 530.198 1618.01L321.977 1259.9L341.416 1247.89V1247.85Z" fill="#0C2AA2"/>
<path d="M369.191 1238.61C372.79 1238.61 375.14 1237.85 377.527 1241.37C405.757 1294.34 437.853 1345.12 468.205 1396.84C500.565 1451.97 552.706 1530.17 577.412 1585.61C579.383 1590 585.484 1599.21 580.179 1601.33H563.506L357.141 1243.23C357.406 1242.62 368.509 1238.61 369.153 1238.61H369.191Z" fill="#0C2AA2"/>
<path d="M309.964 1268.2L514.473 1620.77C520.725 1630.55 510.608 1641.38 509.85 1653.17C505.644 1645.21 470.289 1598.38 470.062 1594.85C469.91 1592.66 478.815 1580.95 479.308 1576.36C482.453 1548.4 398.369 1456.06 379.346 1428.32C368.926 1413.09 292.95 1290.48 294.201 1282.11C294.352 1280.97 308.449 1268.01 309.926 1268.24L309.964 1268.2Z" fill="#0C2AA2"/>
<path d="M293.291 1149.75C336.944 1144.79 332.169 1171.43 353.427 1198.78C322.355 1206.97 295.944 1220.53 271.048 1240.43C265.25 1226.48 245.205 1202.31 246.076 1187.68C247.213 1168.55 275.86 1151.72 293.253 1149.75H293.291Z" fill="white"/>
<path d="M324.742 1368.15C331.07 1368.46 340.998 1384.11 340.468 1387.59C339.937 1391.08 306.326 1414.76 301.59 1420.9C289.161 1437.12 294.39 1455.38 282.151 1468.07C261.272 1443.29 265.705 1403.24 291.397 1382.93C296.133 1379.18 319.74 1367.89 324.704 1368.12L324.742 1368.15Z" fill="#3654A6"/>
<path d="M563.506 1616.15C588.061 1609.03 591.13 1636.76 592.191 1655.93C593.252 1675.11 589.236 1658.4 578.323 1660.56C570.858 1662.03 568.622 1676.7 565.363 1677.23C563.09 1677.61 526.182 1656.31 525.576 1654.08C525.083 1652.22 528.152 1637.18 529.289 1635.59C535.314 1626.91 543.044 1633.24 548.728 1630.96C552.934 1629.3 559.073 1617.44 563.544 1616.15H563.506Z" fill="white"/>
<path d="M496.891 1416.24C537.398 1417.34 553.995 1463.3 545.015 1497.66L496.891 1416.24Z" fill="white"/>
<path d="M352.518 1214.55C360.21 1214.47 366.008 1215.95 365.478 1225.65C336.527 1232.85 308.373 1246.07 289.578 1270.06C273.246 1256.38 279.461 1251.57 293.292 1240.46C302.689 1232.89 341.491 1214.7 352.518 1214.55Z" fill="white"/>
<path d="M580.179 1675.33L594.958 1695.72L575.519 1679.99L580.179 1675.33Z" fill="#5DB05C"/>
<path d="M1087.3 576.051C1102.04 573.929 1117.05 579.12 1125.23 591.776C1158.05 642.398 1079.8 723.559 1026.22 714.845C1030.69 693.436 1037.28 672.407 1041.94 650.999C1044.75 638.078 1043.23 613.449 1047.51 602.878C1050.51 595.451 1078.96 577.226 1087.3 576.051Z" fill="white"/>
<path d="M382.112 520.542C394.844 518.647 426.56 531.681 429.289 543.693C430.047 546.989 422.127 583.667 421.9 591.814C421.066 618.754 422.582 645.543 424.666 672.331C374.268 669.679 329.517 601.855 346 554.795C350.168 542.897 369.797 522.398 382.074 520.542H382.112Z" fill="white"/>
<path d="M606.059 866.597C668.545 895.469 735.199 902.29 803.179 891.567C778.624 1004.25 601.285 980.193 606.059 866.597Z" fill="white"/>
<path d="M693.063 291.038C706.249 362.916 786.886 397.548 831.864 329.914C848.689 398.003 917.162 402.285 961.421 355.831C962.33 384.552 969.075 436.689 1002.16 446.503C1013.18 449.762 1022.62 446.427 1032.7 449.269C1036.9 566.541 1044.29 717.194 950.318 803.66C774.116 965.832 422.999 857.844 436.717 595.451C437.74 575.9 459.68 457.529 470.025 447.412C473.473 444.04 494.844 443.699 504.28 439.077C533.874 424.602 551.911 372.995 557.936 342.834C605.719 395.73 672.941 342.759 693.063 291V291.038Z" fill="white"/>
<path d="M500.566 668.58C533.988 663.806 584.044 691.315 588.478 726.894C599.884 818.513 444.939 768.915 466.311 697.301C469.949 685.063 488.024 670.399 500.566 668.618V668.58Z" fill="#FDD3CC"/>
<path d="M944.785 703.743C976.956 703.743 1005.64 732.009 982.716 762.056C976.539 770.165 943.459 791.118 933.682 794.453C833.645 828.365 865.248 703.856 944.785 703.781V703.743Z" fill="#FDD3CC"/>
<path d="M900.337 520.541C931.068 514.593 1009.05 541.419 984.535 582.531C983.966 583.44 976.805 590.601 976.198 590.866C963.353 596.285 897.495 579.234 885.52 568.663C866.612 551.991 878.851 524.709 900.337 520.541Z" fill="black"/>
<path d="M580.179 489.054C641.338 484.962 661.649 539.184 598.671 550.134C586.659 552.218 542.362 553.393 532.055 550.134C528.796 549.111 522.354 537.63 521.862 534.409C517.277 504.438 556.913 490.646 580.179 489.054Z" fill="black"/>
<path d="M879.988 611.214C936.297 599.013 928.075 703.932 883.702 707.456C836.791 711.169 842.815 619.284 879.988 611.214Z" fill="black"/>
<path d="M591.282 581.583C644.711 578.742 635.351 693.095 583.893 677.826C548.197 667.254 551.684 583.705 591.282 581.583Z" fill="black"/>
<path d="M667.143 755.577C675.025 753.455 679.079 770.771 682.869 775.015C703.634 798.242 728.681 807.07 759.678 796.309C772.523 791.838 792.228 763.458 800.413 770.392C811.174 779.562 779.079 803.698 770.818 807.411C740.466 821.052 700.678 816.884 677.336 791.687C671.918 785.814 653.615 759.252 667.143 755.615V755.577Z" fill="black"/>
<path d="M737.473 683.395C754.183 678.015 748.765 721.135 737.473 720.415C726.181 719.695 732.357 685.063 737.473 683.395Z" fill="black"/>
</svg>
