<svg width="1064" height="1451" viewBox="0 0 1064 1451" fill="none" xmlns="http://www.w3.org/2000/svg">
<path d="M811.929 1.43149C772.397 3.67883 730.149 19.7456 696.988 40.8101C690.986 44.634 668.991 65.6314 667.079 66.0004C662.318 66.9396 648.672 56.7092 643.474 54.965C556.196 25.7832 423.451 34.2359 345.863 86.4612C333.322 94.9139 287.587 131.676 319.877 139.223C291.142 161.328 264.117 195.373 250.604 229.016C243.294 247.196 216.001 336.049 260.059 310.926C258.483 341.45 261.199 371.135 267.939 400.719C268.777 404.409 277.696 422.689 277.394 424.333C277.227 425.205 267.201 432.517 264.787 436.945C243.462 475.753 282.39 534.083 326.985 532.238C327.924 532.205 334.731 526.838 336.441 527.509C338.318 528.247 351.898 557.261 356.123 562.963C365.545 575.642 379.258 588.623 392.335 597.612C338.888 618.476 287.386 645.913 245.105 685.057C207.585 719.773 108.403 850.924 91.5714 896.944C88.5872 905.128 88.4531 922.905 86.8436 926.863C83.9265 934.109 15.8943 983.885 12.843 994.585C9.15475 1007.53 19.7167 1015.92 19.1467 1019.78C18.8784 1021.52 1.27521 1042.69 0.235785 1049.7C-1.27306 1059.89 10.6301 1078.68 19.9179 1082C25.0144 1083.81 33.4304 1081.76 34.101 1082C37.2864 1083.04 41.8129 1091.46 49.8601 1091.46C59.4497 1091.46 81.0094 1070.59 82.9206 1070.96C84.7648 1071.36 90.1966 1094.31 112.829 1088.3C129.963 1083.74 160.878 1004.41 166.377 1001.66C169.529 1000.09 188.976 998.409 196.285 995.357C248.626 973.454 284.268 924.851 326.214 889.028L310.455 1016.62C311.025 1034.17 322.324 1034.77 323.062 1046.54C326.013 1093.57 302.777 1168.1 304.151 1219.82C304.922 1248.3 321.419 1246.29 323.062 1252.89C323.699 1255.44 315.317 1303.24 312.836 1304.08C309.985 1305.05 293.656 1293.38 279.775 1304.08C265.692 1314.91 277.73 1328.13 277.428 1331.65C277.26 1333.6 250.47 1352.45 246.714 1356.07C205.707 1395.82 188.037 1445.06 264.049 1450.59C288.996 1452.4 388.479 1444.89 407.356 1431.68C430.526 1415.47 419.394 1365.03 422.311 1344.23C422.78 1340.91 447.022 1285.43 449.068 1282.78C454.332 1276.01 463.586 1274.63 472.673 1260.71C482.866 1245.18 523.772 1145.96 529.372 1142.57C530.545 1141.87 555.592 1139.82 556.934 1140.23C563.807 1142.27 606.658 1256.85 617.556 1270.2C622.283 1278.79 634.857 1276.47 639.618 1282.81C641.328 1285.1 658.731 1333.53 658.529 1336.38C658.295 1339.63 650.18 1356.17 649.074 1363.15C640.256 1418.53 658.295 1428.19 708.12 1434.83C751.34 1440.56 912.619 1459.75 856.926 1372.61C846.733 1356.64 803.949 1330.41 803.379 1326.92C802.641 1322.26 819.641 1312.94 809.682 1297C799.992 1281.51 772.33 1288.45 767.938 1305.66C765.322 1305.09 761.567 1255.41 762.439 1252.89C763.445 1249.88 775.784 1243.4 778.198 1238.71C784.87 1225.62 778.03 1161.56 776.622 1142.61C775.214 1123.69 762.875 1047.01 765.59 1035.47C765.959 1033.96 775.214 1027.19 776.622 1019.71L753.017 773.978C783.965 745.936 821.854 724.771 853.003 695.992C926.836 627.767 964.188 540.456 951.413 438.421C1158.29 307.237 1057.97 -12.5221 811.929 1.43149ZM1035.54 165.286C1053.41 204.933 1055.19 251.523 1041.84 292.88C1037.05 286.709 1002.24 249.745 1001.67 246.424C1001 242.299 1008.65 225.46 1009.55 219.658C1013.71 193.159 1006.74 179.608 1035.54 165.319V165.286ZM889.081 25.0788C903.197 23.0663 946.585 49.833 959.159 58.9565C960.265 62.4785 936.325 125.437 933.978 128.255C930.96 131.844 890.758 144.489 885.963 143.215C883.113 142.477 849.181 106.821 844.218 101.455C855.35 82.7716 864.638 28.5672 889.081 25.0453V25.0788ZM778.064 493.732C772.665 502.62 729.479 534.284 727.668 514.226C727.266 509.866 743.461 467.837 745.774 459.888C766.127 469.883 797.142 462.37 778.064 493.765V493.732ZM795.399 489.002C796.84 485.984 796.773 475.418 799.322 474.042C824.436 460.659 795.734 506.344 792.247 511.073C770.218 540.825 732.798 562.091 697.759 572.523C702.655 567.827 719.789 531.232 722.169 530.763C722.773 530.662 731.021 535.626 733.201 535.492C758.549 533.815 784.77 511.073 795.399 489.036V489.002ZM704.868 327.53C696.116 317.668 653.533 276.847 653.701 266.885C653.701 266.382 658.026 259.539 658.429 258.231C660.575 250.919 682.771 196.446 685.99 195.205C697.692 199.935 740.879 187.189 746.613 191.281C749.06 193.025 778.734 238.81 779.673 241.695C781.987 248.705 773.906 280.738 770.218 287.38C764.987 296.805 729.278 314.683 718.246 319.681C713.552 321.794 709.394 325.115 704.868 327.563V327.53ZM716.67 429.129C713.217 429.666 695.01 420.542 700.14 415.746C708.288 415.88 711.976 423.729 716.67 429.129ZM774.945 290.499C774.241 284.528 787.452 246.458 793.051 244.043C796.606 242.5 864.772 228.01 868.628 228.278C873.456 228.613 914.329 266.986 915.067 270.038C916.039 274.063 892.501 345.609 889.886 348.796C885.259 354.464 828.66 361.575 821.384 359.026C817.495 357.651 775.415 294.625 774.945 290.499ZM738.699 35.3092C741.751 28.2318 799.556 15.9553 808.777 15.6199C813.069 15.4522 824.469 14.7813 827.688 15.6199C829.8 16.1901 861.218 41.0114 861.553 43.1916C862.157 47.2838 840.631 97.2618 835.567 100.683C830.974 103.769 772.732 117.32 769.413 116.448C766.865 115.777 734.542 80.4236 733.972 77.8408C733.502 75.7612 737.861 37.2882 738.699 35.3092ZM667.046 86.4948C669.259 85.5556 710.735 78.7129 714.29 78.6123C717.341 78.5452 724.717 77.975 726.897 78.6123C729.512 79.3838 763.512 116.079 763.914 118.796C764.417 122.217 743.997 182.325 741.08 184.17C735.279 187.826 689.846 192.22 682.805 190.476C678.413 189.369 629.895 139.928 630.062 136.137C638.177 125.706 655.78 91.4255 667.079 86.5283L667.046 86.4948ZM640.289 272.386C642.2 272.386 645.05 272.017 646.593 272.386C650.549 273.359 692.529 326.859 700.911 333.031C693.065 351.345 700.844 396.325 696.183 410.211C693.233 418.966 680.693 406.555 676.501 403.134C643.709 376.367 616.718 325.215 608 284.193C608.67 281.812 636.869 272.353 640.289 272.386ZM298.585 510.268C276.925 496.851 256.472 440.265 292.282 433.087C322.928 426.949 314.613 451.804 319.843 473.271C325.309 495.677 345.259 539.215 298.585 510.302V510.268ZM332.417 466.932C329.232 452.475 318.77 391.428 321.386 380.292C327.723 353.156 418.086 289.728 440.283 267.657C442.194 283.422 431.062 323.907 459.194 319.647C476.529 317.031 556.196 242.299 577.286 229.855C582.953 230.123 557.034 295.262 578.862 300.729C585.367 302.373 593.817 297.409 594.621 297.576C596.532 297.979 609.81 331.085 609.576 333.031C609.24 336.184 585.333 345.24 596.968 362.95C604.647 374.657 622.786 370.33 630.834 373.181C633.684 374.187 663.995 410.648 671.774 417.289C689.746 432.618 711.171 443.116 730.82 455.896C712.982 554.645 663.525 609.017 561.527 618.945C439.411 630.819 359.174 588.858 332.417 466.932ZM589.122 630.786C575.409 691.631 480.049 691.128 473.377 628.438L589.122 630.786ZM63.9427 1069.49L48.9883 1074.99L81.2777 1052.14L63.9427 1069.49ZM106.459 1075.79C87.9166 1079.25 100.356 1028.3 104.112 1019.88C90.9008 1008.37 91.3031 1026.35 84.4295 1033.26C72.3922 1045.4 42.2823 1064.79 26.1544 1069.49C29.2057 1059.36 70.3134 1026.55 69.4751 1019.88C66.3568 995.692 20.4879 1057.31 16.7325 1056.91C6.70707 1055.8 36.5152 1018.53 39.5664 1015.15C46.8424 1007.1 76.7511 986.77 74.2029 978.921C65.0492 963.861 32.894 1006.43 29.3398 1006.49C27.0262 1006.49 25.1821 1002.47 25.4168 1000.99C26.0874 996.699 80.7412 951.047 87.6148 943.5C98.3444 973.789 122.754 987.139 149.813 1000.99C151.489 1006.36 113.5 1074.52 106.492 1075.82L106.459 1075.79ZM290.706 1313.67C308.544 1306.26 305.828 1340.91 290.706 1331.01C285.743 1327.76 284.838 1316.12 290.706 1313.67ZM399.343 1419.2C393.609 1422.62 325.409 1431 314.311 1431.81C263.379 1435.5 184.583 1444.72 249.732 1373.51C267.537 1373.85 279.406 1410.17 293.053 1394.78C295.936 1384.21 266.229 1366.94 266.296 1364.86C266.296 1363.48 274.041 1357.71 276.523 1357.78C285.039 1358.02 307.84 1391.56 313.54 1375.89C317.831 1364.09 277.763 1346.18 295.433 1343.59C303.782 1342.35 317.094 1357.08 320.614 1357.78C332.115 1360.03 331.378 1352.11 332.417 1351.48C287.252 1316.56 354.077 1314.78 335.569 1351.48C347.304 1375.93 387.909 1368.58 409.569 1361.71C411.112 1371.63 407.96 1414.03 399.343 1419.2ZM366.282 1354.63C344.689 1351.48 357.296 1339 348.176 1323.9C343.851 1316.76 328.125 1310.89 327.689 1309.72C326.482 1306.19 335.804 1267.38 336.34 1260.11C368.059 1271.78 400.65 1280.16 434.75 1281.37C419.125 1314.75 414.331 1361.64 366.249 1354.63H366.282ZM653.667 1281.37L745.774 1260.11C747.786 1260.51 748.457 1260.78 749.697 1262.45C747.015 1273.05 754.391 1292.94 752.849 1301.83C751.676 1308.68 735.581 1320.38 730.786 1325.45C727.702 1328.73 731.926 1334.47 722.136 1338.83C715.396 1341.82 684.314 1343.69 678.044 1340.41C671.606 1337.05 657.691 1290.83 653.634 1281.34L653.667 1281.37ZM778.064 1312.87C778.332 1311.36 785.474 1302.97 786.714 1302.64C819.205 1293.72 773.135 1339.2 778.064 1312.87ZM768.642 1327.06C770.285 1329.1 748.893 1345.94 745.037 1345.17C746.244 1377.71 777.091 1335.27 783.63 1334.13C815.785 1328.5 755.163 1363.48 774.174 1370.36C785.977 1372.67 798.785 1343.73 811.962 1349.87C827.554 1357.14 794.661 1367.17 797.008 1379.01C808.509 1394.98 818.534 1367.24 830.873 1364.05C842.676 1371.94 865.845 1409 846.632 1417.62C838.887 1421.11 759.89 1419.87 745.841 1419.2C734.709 1418.66 671.17 1414.23 666.308 1408.97C658.026 1399.98 661.681 1363.05 667.079 1351.48C683.442 1358.82 732.329 1358.39 741.885 1342.02C742.555 1340.88 741.214 1336.11 741.885 1334.94C745.975 1327.53 760.561 1324.37 768.642 1327.06ZM767.066 1230.96C747.786 1254.04 655.612 1275.47 632.443 1264.84C621.747 1259.9 582.886 1155.32 571.821 1139.59C573.497 1134.36 607.53 1139.12 601.73 1123.82C598.444 1115.17 563.204 1127.28 555.291 1127.75C544.46 1128.42 491.181 1117.79 488.365 1123.82C480.72 1140.33 515.189 1133.99 516.698 1139.59C504.761 1154.82 462.748 1259.8 452.924 1264.84C430.962 1276.07 336.843 1253.93 318.301 1230.96L336.407 1049.02C454.701 1081.69 606.256 1088.2 725.355 1055.33C729.479 1054.19 745.942 1045.94 747.417 1045.87C748.926 1045.8 752.011 1045.3 752.916 1046.64C757.946 1107.99 766.898 1169.21 767.099 1230.96H767.066ZM835.567 693.007C811.426 714.44 766.16 738.054 747.384 757.609C743.327 761.802 741.013 765.659 738.733 770.992C741.952 845.121 761.265 925.991 762.338 999.415C762.606 1018.33 764.417 1021.49 747.384 1031.72C684.314 1069.52 476.059 1065.56 402.528 1052.21C388.747 1049.7 327.656 1035.64 324.571 1021.49L356.056 771.026C351.931 759.42 343.817 760.896 340.297 772.602C333.524 795.042 337.212 843.611 329.265 863.972C326.683 870.613 237.293 954.737 226.127 962.418C193.603 984.758 165.941 998.745 130.064 975.03C68.6704 934.411 117.959 875.611 146.594 832.475C190.418 766.431 243.194 694.449 311.159 652.119C325.912 642.928 396.694 607.071 410.374 608.01C418.12 608.547 446.016 625.687 457.618 625.352C465.732 700.654 566.691 713.769 598.544 646.618C601.025 641.385 601.428 626.693 605.619 623.775C607.832 622.232 632.611 617.134 638.68 614.316C670.466 599.591 693.803 591.273 725.287 578.091C770.653 559.106 809.884 522.779 826.078 475.686C847.94 474.21 871.109 472.131 892.233 466.227C900.481 463.913 932.435 447.343 934.749 447.309C936.224 447.309 937.934 446.84 938.672 448.081C947.524 548.07 908.462 628.304 835.534 693.04L835.567 693.007ZM956.007 416.517C953.626 426.949 891.395 452.341 879.626 455.125C864.403 458.714 804.686 465.389 793.018 458.278C791.509 457.338 784.3 441.574 784.367 440.165C784.703 431.377 817.864 379.889 820.58 366.137C835.4 363.621 850.589 364.124 865.443 362.212C871.31 361.441 889.148 354.296 892.199 354.33C894.614 354.33 896.391 355.034 898.503 355.906C901.856 357.282 952.956 399.042 954.398 402.363C954.699 403 956.141 415.847 955.973 416.551L956.007 416.517ZM917.448 264.504C914.262 263.699 882.006 228.379 877.279 222.744L888.31 151.869C889.383 149.789 928.345 135.601 931.631 135.332C933.374 135.198 936.392 135.03 937.934 135.332C942.092 136.171 1005.2 180.916 1006.44 184.941C1009.29 194.266 1000.84 238.609 993.058 245.586C988.531 249.644 922.812 265.845 917.481 264.504H917.448Z" fill="black"/>
<path d="M678.077 1340.44C684.348 1343.73 715.43 1341.85 722.169 1338.86C731.96 1334.5 727.735 1328.77 730.82 1325.48C735.581 1320.38 751.676 1308.71 752.883 1301.87C754.425 1292.94 747.049 1273.09 749.731 1262.49C748.457 1260.78 747.82 1260.51 745.808 1260.14L653.701 1281.41C657.758 1290.9 671.673 1337.12 678.111 1340.47L678.077 1340.44Z" fill="white"/>
<path d="M934.749 447.242C932.435 447.276 900.481 463.845 892.233 466.16C871.109 472.063 847.974 474.143 826.079 475.619C809.884 522.712 770.654 559.039 725.287 578.023C693.803 591.206 670.466 599.524 638.68 614.249C632.577 617.067 607.832 622.165 605.619 623.708C601.428 626.626 601.025 641.318 598.544 646.55C566.657 713.702 465.732 700.587 457.618 625.285C446.017 625.62 418.12 608.48 410.374 607.943C396.727 607.004 325.912 642.861 311.159 652.051C243.194 694.382 190.418 766.363 146.594 832.408C117.959 875.544 68.6705 934.343 130.064 974.963C165.907 998.677 193.603 984.69 226.127 962.351C237.293 954.67 326.683 870.546 329.265 863.905C337.212 843.544 333.524 794.975 340.297 772.535C343.817 760.829 351.898 759.353 356.056 770.959L324.571 1021.42C327.656 1035.57 388.714 1049.63 402.528 1052.14C476.093 1065.49 684.347 1069.45 747.384 1031.65C764.45 1021.42 762.64 1018.27 762.338 999.348C761.265 925.924 741.918 845.054 738.733 770.925C741.013 765.592 743.36 761.735 747.384 757.542C766.16 738.02 811.426 714.406 835.567 692.939C908.495 628.203 947.558 547.97 938.706 447.98C937.968 446.705 936.224 447.175 934.783 447.209L934.749 447.242Z" fill="#4CB456"/>
<path d="M747.384 1045.87C745.942 1045.94 729.479 1054.19 725.321 1055.33C606.223 1088.2 454.667 1081.73 336.374 1049.02L318.268 1230.96C336.843 1253.93 430.928 1276.07 452.89 1264.84C462.715 1259.8 504.728 1154.82 516.664 1139.59C515.155 1133.99 480.653 1140.33 488.331 1123.82C491.148 1117.79 544.427 1128.42 555.257 1127.75C563.204 1127.25 598.444 1115.17 601.696 1123.82C607.497 1139.12 573.43 1134.36 571.788 1139.59C582.852 1155.32 621.714 1259.91 632.41 1264.84C655.579 1275.5 747.786 1254.04 767.032 1230.96C766.831 1169.21 757.879 1108.03 752.849 1046.64C751.944 1045.3 748.826 1045.8 747.35 1045.87H747.384Z" fill="#484C47"/>
<path d="M741.851 1342.02C732.295 1358.39 683.408 1358.82 667.045 1351.48C661.647 1363.05 657.992 1399.98 666.274 1408.97C671.136 1414.23 734.675 1418.69 745.807 1419.2C759.856 1419.87 838.853 1421.11 846.598 1417.62C865.844 1409 842.642 1371.94 830.839 1364.05C818.5 1367.24 808.475 1395.01 796.974 1379.01C794.627 1367.17 827.52 1357.14 811.928 1349.87C798.751 1343.73 785.943 1372.67 774.14 1370.36C755.129 1363.48 815.751 1328.5 783.595 1334.13C777.057 1335.27 746.243 1377.67 745.002 1345.17C745.002 1344.93 742.588 1342.25 741.851 1342.02Z" fill="#0F602E"/>
<path d="M335.569 1351.48C334.596 1351.61 332.853 1351.21 332.417 1351.48C331.377 1352.11 332.082 1360.03 320.614 1357.78C317.094 1357.08 303.782 1342.39 295.433 1343.59C277.763 1346.18 317.831 1364.09 313.539 1375.89C307.873 1391.56 285.039 1357.98 276.522 1357.78C274.041 1357.71 266.296 1363.52 266.296 1364.86C266.262 1366.94 295.97 1384.21 293.053 1394.78C279.406 1410.17 267.536 1373.81 249.732 1373.51C184.55 1444.72 263.379 1435.5 314.311 1431.81C325.409 1431 393.609 1422.65 399.343 1419.2C407.96 1414.03 411.112 1371.6 409.569 1361.71C387.875 1368.58 347.271 1375.89 335.569 1351.48Z" fill="#0F602E"/>
<path d="M87.5476 943.467C80.6739 951.014 25.9866 996.665 25.3495 1000.96C25.1148 1002.43 26.959 1006.49 29.2725 1006.46C32.8602 1006.43 65.0154 963.827 74.1356 978.888C76.6839 986.737 46.7416 1007.06 39.4992 1015.11C36.4479 1018.5 6.6398 1055.77 16.6653 1056.87C20.4541 1057.28 66.2896 995.659 69.4079 1019.84C70.2797 1026.52 29.1384 1059.32 26.0872 1069.45C42.2151 1064.76 72.2914 1045.37 84.3622 1033.23C91.2359 1026.32 90.8335 1008.34 104.044 1019.84C100.322 1028.26 87.8829 1079.21 106.391 1075.76C113.399 1074.45 151.355 1006.29 149.712 1000.93C122.653 987.072 98.2436 973.689 87.514 943.434L87.5476 943.467Z" fill="white"/>
<path d="M327.722 1309.72C328.125 1310.89 343.884 1316.76 348.209 1323.9C357.329 1339 344.722 1351.48 366.315 1354.63C414.397 1361.64 419.192 1314.75 434.817 1281.37C400.717 1280.16 368.126 1271.78 336.407 1260.11C335.87 1267.39 326.515 1306.19 327.756 1309.72H327.722Z" fill="white"/>
<path d="M335.569 1351.48C354.077 1314.78 287.252 1316.56 332.417 1351.48C332.853 1351.21 334.596 1351.61 335.569 1351.48Z" fill="white"/>
<path d="M741.852 1334.94C741.181 1336.15 742.522 1340.91 741.852 1342.02C742.589 1342.25 745.004 1344.93 745.004 1345.17C748.893 1345.94 770.285 1329.1 768.609 1327.06C760.528 1324.37 745.909 1327.53 741.852 1334.94Z" fill="#D9D7DF"/>
<path d="M290.706 1330.98C305.828 1340.88 308.544 1306.23 290.706 1313.64C284.838 1316.09 285.744 1327.73 290.706 1330.98Z" fill="white"/>
<path d="M786.749 1302.64C785.508 1302.97 778.366 1311.36 778.098 1312.87C773.169 1339.2 819.273 1293.72 786.749 1302.64Z" fill="white"/>
<path d="M63.9426 1069.49L81.2776 1052.18L48.9883 1075.02L63.9426 1069.49Z" fill="#D9D7DF"/>
<path d="M589.122 630.786L473.377 628.438C480.049 691.162 575.409 691.631 589.122 630.786Z" fill="white"/>
<path d="M292.282 433.087C256.472 440.265 276.925 496.851 298.585 510.268C345.259 539.182 325.309 495.644 319.843 473.237C314.613 451.77 322.928 426.915 292.282 433.054V433.087Z" fill="white"/>
<path d="M745.808 459.854C743.494 467.804 727.299 509.866 727.702 514.193C729.512 534.284 772.699 502.587 778.097 493.698C797.209 462.303 766.194 469.816 745.808 459.821V459.854Z" fill="white"/>
<path d="M821.384 359.026C828.66 361.575 885.259 354.431 889.886 348.796C892.501 345.609 916.039 274.063 915.067 270.038C914.329 266.986 873.456 228.647 868.628 228.278C864.772 228.01 796.572 242.5 793.051 244.043C787.452 246.458 774.241 284.562 774.945 290.499C775.414 294.625 817.495 357.651 821.384 359.026Z" fill="white"/>
<path d="M898.537 355.873C896.424 355.001 894.647 354.33 892.233 354.297C889.148 354.263 871.31 361.407 865.476 362.179C850.622 364.091 835.4 363.621 820.613 366.103C817.897 379.889 784.736 431.343 784.401 440.131C784.334 441.54 791.543 457.338 793.052 458.244C804.72 465.355 864.437 458.68 879.659 455.091C891.428 452.307 953.627 426.916 956.041 416.484C956.208 415.78 954.767 402.966 954.465 402.296C953.023 398.975 901.923 357.215 898.57 355.839L898.537 355.873Z" fill="#D9D7DF"/>
<path d="M1006.4 184.975C1005.16 180.916 942.058 136.205 937.901 135.366C936.358 135.064 933.341 135.232 931.597 135.366C928.345 135.634 889.383 149.823 888.276 151.902L877.245 222.777C881.973 228.412 914.229 263.699 917.414 264.537C922.745 265.913 988.464 249.712 992.991 245.619C1000.77 238.643 1009.22 194.3 1006.37 184.975H1006.4Z" fill="white"/>
<path d="M770.218 287.346C773.906 280.705 781.953 248.672 779.673 241.662C778.734 238.81 749.06 192.992 746.612 191.247C740.879 187.189 697.692 199.901 685.99 195.172C682.771 196.413 660.575 250.886 658.429 258.198L718.28 319.647C729.311 314.65 765.02 296.772 770.251 287.346H770.218Z" fill="white"/>
<path d="M682.806 190.476C689.813 192.22 735.247 187.826 741.081 184.17C743.998 182.325 764.384 122.217 763.915 118.796C763.546 116.079 729.513 79.4172 726.898 78.6122C724.718 77.9749 717.375 78.5451 714.29 78.6122C710.736 78.6793 669.26 85.5219 667.047 86.4947C655.747 91.3918 638.177 125.706 630.03 136.104C629.895 139.894 678.38 189.369 682.772 190.442L682.806 190.476Z" fill="white"/>
<path d="M769.413 116.448C772.699 117.32 830.974 103.803 835.568 100.683C840.631 97.2618 862.157 47.2838 861.553 43.1916C861.218 41.0114 829.8 16.1901 827.688 15.6199C824.469 14.7813 813.069 15.4522 808.777 15.6199C799.556 15.9553 741.751 28.2318 738.7 35.3092C737.861 37.2882 733.502 75.7612 733.972 77.8408C734.542 80.39 766.865 115.777 769.413 116.448Z" fill="white"/>
<path d="M885.964 143.215C890.792 144.489 930.961 131.844 933.978 128.255C936.359 125.437 960.266 62.4449 959.159 58.9565C946.619 49.833 903.198 23.0663 889.082 25.0788C864.638 28.6008 855.351 82.8051 844.219 101.488C849.148 106.855 883.08 142.477 885.964 143.248V143.215Z" fill="white"/>
<path d="M676.502 403.134C680.693 406.555 693.233 418.966 696.184 410.211C700.844 396.325 693.065 351.311 700.911 333.031C692.495 326.859 650.549 273.359 646.593 272.386C645.051 272.017 642.234 272.386 640.289 272.386C636.869 272.386 608.671 281.812 608 284.193C616.718 325.215 643.709 376.367 676.502 403.134Z" fill="#D9D7DF"/>
<path d="M1001.67 246.391C1002.21 249.745 1037.05 286.709 1041.84 292.847C1055.19 251.489 1053.41 204.899 1035.54 165.252C1006.74 179.541 1013.71 193.126 1009.55 219.59C1008.65 225.427 1001 242.265 1001.67 246.357V246.391Z" fill="white"/>
<path d="M658.396 258.198C657.994 259.506 653.668 266.382 653.668 266.852C653.534 276.814 696.117 317.635 704.835 327.496C709.395 325.047 713.553 321.76 718.213 319.614L658.362 258.164L658.396 258.198Z" fill="#D9D7DF"/>
<path d="M716.67 429.129C711.976 423.696 708.288 415.88 700.14 415.746C695.01 420.543 713.217 429.7 716.67 429.129Z" fill="white"/>
<path d="M561.561 618.945C663.559 609.017 713.016 554.678 730.854 455.896C711.205 443.116 689.746 432.618 671.807 417.289C664.028 410.647 633.684 374.187 630.867 373.181C622.854 370.33 604.68 374.623 597.002 362.95C585.367 345.24 609.24 336.15 609.609 333.031C609.811 331.085 596.566 298.012 594.655 297.576C593.884 297.409 585.434 302.373 578.896 300.729C557.068 295.262 582.987 230.089 577.32 229.854C556.23 242.299 476.529 317.031 459.227 319.647C431.096 323.907 442.261 283.422 440.317 267.657C418.12 289.727 327.79 353.156 321.419 380.292C318.804 391.428 329.265 452.475 332.451 466.931C359.241 588.858 439.445 630.819 561.561 618.945ZM656.048 455.125C679.553 453.146 711.339 464.214 700.911 493.732C691.925 519.157 639.283 520.599 628.487 496.885C617.891 473.64 632.812 457.104 656.048 455.125ZM610.381 399.981C635.494 395.117 633.717 445.062 616.684 448.819C591.939 454.286 592.04 403.536 610.381 399.981ZM522.197 433.087C538.157 427.821 528.668 448.215 530.847 455.93C531.149 457.003 546.674 470.52 534.77 474.042C518.408 478.906 510.193 437.012 522.163 433.087H522.197ZM440.283 332.259C473.444 332.158 475.054 368.418 440.283 373.214C383.047 381.13 395.454 332.393 440.283 332.259ZM431.632 495.308C419.83 520.7 365.679 519.693 357.632 492.155C351.228 470.219 369.937 456.701 389.921 455.125C415.639 453.112 445.815 464.852 431.666 495.308H431.632ZM438.741 445.666C427.81 437.85 427.743 400.451 445.044 398.405C474.852 394.916 463.989 463.678 438.741 445.666ZM495.406 546.494C486.789 541.362 446.318 498.662 467.073 496.08C468.918 495.845 483.503 504.599 487.56 505.539C509.489 510.671 537.654 512.381 559.985 508.692C578.728 505.572 623.424 477.598 587.547 525.228C565.316 554.745 528.4 566.082 495.44 546.494H495.406Z" fill="white"/>
<path d="M389.92 455.125C369.936 456.701 351.227 470.185 357.631 492.155C365.678 519.694 419.829 520.7 431.632 495.308C445.781 464.852 415.638 453.112 389.887 455.125H389.92Z" fill="#FCC2B5"/>
<path d="M628.486 496.885C639.316 520.599 691.958 519.157 700.911 493.732C711.339 464.215 679.552 453.146 656.048 455.125C632.812 457.104 617.891 473.64 628.486 496.885Z" fill="#FCC2B5"/>
<path d="M440.283 373.214C475.054 368.384 473.444 332.159 440.283 332.259C395.453 332.393 383.047 381.13 440.283 373.214Z" fill="black"/>
<path d="M445.011 398.405C427.709 400.451 427.776 437.85 438.707 445.666C463.955 463.678 474.819 394.916 445.011 398.405Z" fill="black"/>
<path d="M616.684 448.819C633.717 445.062 635.494 395.117 610.38 399.981C592.006 403.537 591.939 454.286 616.684 448.819Z" fill="black"/>
<path d="M534.77 474.043C546.64 470.521 531.149 457.003 530.847 455.93C528.668 448.215 538.123 427.821 522.197 433.087C510.226 437.012 518.441 478.906 534.804 474.043H534.77Z" fill="black"/>
<path d="M587.546 525.228C623.423 477.564 578.728 505.572 559.985 508.692C537.654 512.381 509.455 510.671 487.56 505.539C483.536 504.6 468.917 495.845 467.073 496.08C446.318 498.629 486.789 541.362 495.406 546.494C528.4 566.083 565.316 554.745 587.513 525.228H587.546ZM485.951 518.151L574.939 520.499C551.703 550.754 505.633 552.599 485.951 518.151Z" fill="black"/>
<path d="M574.94 520.499L485.951 518.151C505.6 552.632 551.703 550.754 574.94 520.499Z" fill="white"/>
</svg>
