<svg width="1163" height="1641" viewBox="0 0 1163 1641" fill="none" xmlns="http://www.w3.org/2000/svg">
<path d="M819.901 1327.46L866.9 1557.7L940.523 1554.56L920.948 1238.96C867.061 1255.65 803.21 1261.93 747.047 1254.62C740.96 1253.82 702.195 1242.52 700.849 1244.44L718.085 1557.67C721.802 1562.19 782.225 1560.23 785.461 1556.1L804.267 1354.05L810.546 1350.14C810.482 1344.47 809.329 1336.3 812.116 1331.34C769.474 1309.17 794.335 1306.9 819.933 1327.43L819.901 1327.46Z" fill="black"/>
<path d="M1162.96 794.943C1163.25 790.459 1158.25 783.092 1158.25 782.419C1158.51 771.144 1171.29 757.755 1146.49 750.324C1107.02 738.472 1125.48 772.041 1102.63 784.79C1098.08 783.957 1112.69 750.42 1090.11 755.033C1078.16 757.467 1071.75 795.36 1064.25 804.361C1062.97 805.898 1036.35 825.533 1032.15 828.64C981.595 865.829 917.392 891.133 858.25 911.665L859.019 862.337C860.333 859.006 868.759 862.69 872.347 861.568C904.929 851.19 937.223 777.166 921.685 744.879C913.195 727.261 900.7 730.048 891.153 723.738C886.155 720.439 882.247 707.082 873.917 700.259C856.04 685.589 821.119 681.04 798.724 683.026C790.875 683.731 774.055 690.81 768.961 690.842C759.414 690.906 729.01 660.861 718.822 653.237C696.876 636.773 651.767 610.54 638.151 589.815C577.088 496.733 589.454 331.355 454.864 303.968C449.161 302.815 440.735 305.025 434.488 301.63C434.488 300.093 452.269 301.15 454.864 300.861C513.909 293.847 533.901 206.337 558.249 162.262C604.255 163.96 625.721 91.2169 573.147 84.7466C561.357 83.2732 549.631 87.181 537.905 85.5153C608.997 50.345 511.923 -18.362 472.901 31.4786C472.997 -20.0597 408.858 0.0880039 392.23 32.2474C389.507 37.5325 388.578 50.7935 387.521 52.6193C386.463 54.4771 375.955 52.2989 368.714 62.0044C357.95 76.4505 348.499 155.44 351.478 173.217C353.464 185.004 370.156 194.422 370.284 196.696C370.541 201.372 330.429 269.118 325.624 278.92C263.599 278.888 202.791 290.387 153.293 329.049C105.621 366.269 -9.29821 511.531 0.601433 572.551C8.29048 619.893 107.415 672.392 144.739 697.857C141.727 720.727 124.331 831.139 133.782 845.072C136.441 849.012 141.407 846.001 143.169 849.781C145.54 854.842 137.306 900.999 136.89 910.865C134.263 975.376 138.203 1046.36 140.029 1111.35C143.361 1228.9 142.464 1376.05 155.696 1490.37C156.112 1493.96 157.971 1511.07 158.836 1512.32C161.335 1515.84 170.401 1515.2 171.362 1517.02C172.131 1518.47 173.124 1548.29 172.932 1549.92C172.195 1556.01 167.774 1555.43 166.653 1560.87C163.513 1576.47 142.144 1634.64 162.744 1639.96H349.171C378.934 1602.8 292.913 1581.02 267.7 1564.78C264.272 1562.57 240.756 1546.81 240.275 1545.21C239.891 1543.93 242.87 1519.81 243.415 1518.59C245.337 1514.24 252.77 1517.34 255.173 1516.26C258.793 1514.59 267.091 1461.64 268.501 1452.83C293.138 1296.91 318.832 1127.88 334.306 972.012C335.587 958.976 337.862 863.811 342.924 861.601C347.025 859.807 349.428 863.33 349.972 867.078C355.771 907.117 332.256 982.326 335.876 1022.14C338.343 1049.4 360.353 1090.91 364.069 1122.37C377.397 1235.08 367.145 1365.8 375.026 1481.02C375.314 1485.12 377.397 1510.97 378.166 1512.35C380.344 1516.26 390.5 1514.43 392.262 1518.63C392.935 1520.23 392.807 1550.14 392.262 1553.09C392.07 1554.05 387.777 1556.81 387.553 1557.8C383.996 1574.14 359.776 1634.03 382.074 1640.02H573.179C605.633 1603.48 515.928 1580.8 491.707 1566.42C481.263 1560.23 472.741 1550.14 461.175 1545.28C465.276 1523.88 457.106 1517.25 481.551 1510.81C499.076 1355.01 517.305 1198.99 516.793 1041.71C550.656 1067.24 603.198 1112.31 646.802 1115.32C661.283 1116.31 671.727 1110.9 685.183 1111.41V1235.15L693 1241.43L708.666 1559.37C711.422 1570.71 720.712 1565.04 724.333 1570.32C736.411 1588.07 708.57 1582.69 698.478 1585.22C684.414 1588.74 628.156 1622.89 656.189 1640.02H789.337C805.324 1620 785.076 1592.81 788.568 1565.62C796.994 1499.6 811.443 1420.29 810.514 1350.27L804.235 1354.18L785.429 1556.23C782.225 1560.33 721.802 1562.32 718.053 1557.8L700.817 1244.57C702.163 1242.64 740.928 1253.95 747.015 1254.75C803.177 1262.06 866.997 1255.78 920.916 1239.09L940.491 1554.69L866.868 1557.83L819.869 1327.59C794.239 1307.09 769.378 1309.33 812.052 1331.5L860.621 1564.08C871.258 1569.2 877.793 1568.24 877.857 1582.88C858.603 1582.43 843.481 1586.82 826.949 1596.21C812.148 1604.6 785.557 1624.36 806.573 1640.06H942.862C959.842 1634.51 935.237 1576.47 940.523 1564.08C940.972 1563.02 947.411 1561.84 948.34 1559.37C949.237 1557.03 948.372 1540.25 948.34 1535.89C947.475 1443.58 924.921 1332.65 929.534 1243C929.983 1234.03 930.367 1237.26 937.351 1232.04L935.781 1037.84C974.323 1003.56 1015.91 971.724 1050.12 932.902C1066.59 914.228 1099.43 859.615 1113.56 849.108C1122.63 842.382 1154.98 833.349 1159.76 823.259C1165.27 811.696 1156.52 809.87 1156.62 806.026C1156.62 805.386 1162.64 798.595 1162.9 795.072L1162.96 794.943ZM788.568 1620.36V1629.74L659.328 1632.08C654.523 1627.15 656.317 1619.84 662.468 1617.99C668.235 1616.26 777.291 1616.29 783.09 1617.99C784.019 1618.24 786.486 1620.16 788.568 1620.32V1620.36ZM784.66 1610.17L674.226 1609.4C699.375 1584.32 729.202 1592.71 761.176 1592.97C763.515 1592.97 779.053 1589.54 779.982 1589.83C782.609 1590.66 787.543 1608.15 784.692 1610.2L784.66 1610.17ZM732.951 1567.89L778.38 1564.75C781.616 1566 783.442 1579.71 781.52 1581.98C779.438 1584.45 716.227 1593.77 732.951 1567.89ZM884.906 1567.89C892.499 1571.28 927.067 1563.66 930.335 1564.75C933.058 1565.68 935.589 1579.65 933.475 1581.98C917.648 1582.72 874.942 1596.3 884.906 1567.89ZM914.669 1592.94C917.039 1592.94 932.578 1589.51 933.475 1589.8C935.173 1590.38 940.139 1608.92 938.184 1610.17L824.611 1609.4C851.17 1584.16 882.022 1592.97 914.701 1592.97L914.669 1592.94ZM940.523 1629.74L809.713 1632.08C804.043 1626.99 805.965 1622.47 811.283 1617.99C834.19 1623.14 922.806 1611.2 938.184 1617.99C941.965 1619.65 940.171 1626.51 940.523 1629.74ZM823.81 755.001C823.393 764.482 819.036 766.5 824.579 776.141C830.634 786.615 850.337 787.448 851.202 788.665C851.971 789.754 853.188 813.49 854.342 815.283C855.079 816.404 869.528 813.618 875.487 816.052C890.352 822.138 889.615 845.937 875.487 852.087C867.637 855.483 854.822 849.909 852.772 852.856C844.698 864.547 855.431 908.366 844.955 926.464C834.382 944.658 797.923 955.388 779.95 944.465C772.453 939.917 770.819 924.67 774.472 918.616C776.394 915.445 840.373 903.113 837.137 884.15C835.279 873.388 817.562 894.753 812.853 897.475C773.382 920.186 725.166 906.38 721.225 857.533C720.424 847.443 724.461 781.266 727.504 774.508C734.2 759.517 751.981 768.934 759.606 769.03C782.93 769.351 804.043 769.703 823.842 754.936L823.81 755.001ZM529.319 676.684C579.939 723.514 649.204 742.412 713.376 763.617C726.159 816.244 688.643 880.755 748.617 911.633C752.75 913.779 775.048 914.132 765.053 924.958C763.387 926.752 728.466 939.757 720.392 944.529C703.508 954.523 654.298 997.701 640.49 1000.9C631.872 1002.89 552.803 988.412 544.922 983.672C537.809 979.379 528.39 957.63 515.928 954.683C521.086 923.549 518.555 889.147 523.745 858.365C524.77 852.215 523.488 844.336 531.562 844.272C541.59 791.676 530.537 729.856 529.223 676.684H529.319ZM379.703 195.062C379.543 191.154 364.934 182.762 362.467 177.829C345.455 143.94 390.788 125.715 407.128 159.828C407.704 143.236 419.078 141.826 426.703 130.84C432.245 122.864 434.584 112.998 440.03 104.99C467.038 132.505 504.907 149.29 541.846 158.226C545.627 160.629 542.166 173.377 541.077 177.797C527.333 233.66 473.061 331.227 405.558 277.254C399.278 272.225 383.804 249.579 382.074 249.067C370.733 245.736 382.362 264.186 384.413 267.068C392.326 278.215 427.856 299.42 428.272 303.104C432.245 338.21 377.172 334.975 356.989 321.105C351.318 317.229 333.313 295.16 332.704 289.01C331.455 276.293 380.12 204.383 379.703 195.03V195.062ZM311.559 286.704C325.848 280.938 328.86 302.303 335.844 310.983C354.746 334.43 383.676 345.865 413.375 336.833C435.801 330.01 433.751 312.713 435.321 311.784C438.557 309.83 448.616 309.99 448.648 317.261C448.841 366.333 323.701 369.28 310.79 301.598C310.342 299.292 308.42 287.985 311.559 286.704ZM143.137 912.402C161.431 905.131 174.246 896.034 186.997 881.076C190.265 877.232 200.517 857.244 201.894 856.796C218.169 851.447 192.956 887.258 190.136 890.461C182.287 899.461 150.986 925.951 143.137 912.402ZM211.281 1556.9C172.74 1565.55 177.834 1548.8 181.518 1516.19H234.765C234.284 1544.22 240.596 1550.34 211.281 1556.9ZM348.37 1629.74L164.314 1632.08C161.463 1629.39 158.067 1620.2 162.744 1617.99H344.462C349.043 1621.16 348.691 1624.46 348.37 1629.74ZM257.512 1567.09C257.063 1571.67 223.584 1581.28 237.937 1589.8C241.172 1585.67 277.695 1563.89 276.318 1578.04C276.158 1579.58 251.457 1588.93 249.694 1593.71L253.603 1599.18C256.198 1599.73 279.329 1583.2 286.506 1583.52C293.426 1583.84 327.642 1604.5 335.844 1609.37L164.314 1608.6L175.271 1563.18C195.551 1576.67 220.989 1557.64 237.937 1556.9C246.491 1556.52 251.809 1561.36 257.512 1567.09ZM142.368 839.595C134.711 832.1 147.815 718.805 153.325 701.765C170.914 709.548 187.381 720.855 205.034 728.383C211.954 731.329 218.458 727.71 220.7 728.383C241.717 734.565 253.347 772.073 292.753 767.525C311.463 765.379 325.848 747.89 333.473 745.583C345.423 741.996 367.881 756.698 374.994 741.676C380.216 719.126 333.569 714.673 322.516 708.011C327.13 709.74 337.862 705.929 338.951 700.964C343.244 681.905 279.489 662.43 264.528 661.021C257.416 644.717 169.76 575.85 168.191 569.411C167.582 566.977 172.227 521.717 172.9 519.283C173.733 516.304 202.567 486.547 207.373 478.571C209.423 475.175 216.952 465.918 211.281 463.676C205.963 461.594 143.65 546.701 134.519 548.239C133.013 548.495 107.575 537.765 111.804 549.008C113.246 552.851 126.221 552.883 129.809 554.485C175.143 574.793 217.016 629.15 254.34 661.758C248.99 672.232 223.648 721.143 212.819 722.072C207.148 722.553 123.498 675.691 112.573 668.836C-6.09445 594.204 -19.4542 569.476 60.1275 450.383C114.303 369.312 179.564 293.398 284.936 288.273C310.726 287.024 297.911 292.565 304.511 309.414C329.244 372.451 439.806 388.723 457.235 313.322C559.595 339.075 564.433 434.304 595.862 516.143C602.429 533.248 626.778 592.058 636.582 603.845C646.962 616.337 691.59 642.122 707.865 654.743C733.976 674.986 758.389 697.504 785.397 716.595C763.515 710.157 742.114 687.799 718.822 697.024C698.382 705.096 686.304 735.718 705.495 751.061C703.22 755.545 618.929 722.649 610.727 718.965C594.644 711.726 531.434 677.261 526.917 661.79C524.866 654.711 524.097 618.451 523.777 608.554C522.431 566.433 529.223 519.955 525.347 478.571C524.77 472.325 523.777 449.743 515.159 452.722L525.347 835.655C523.328 841.004 482.064 847.827 474.439 848.98C368.042 864.932 248.093 856.411 142.336 839.595H142.368ZM367.177 738.569C355.899 742.861 341.579 734.533 330.365 737.8C328.539 738.344 323.349 746.064 320.978 747.185C269.878 771.465 266.194 753.911 226.211 722.905C240.339 706.537 249.47 687.575 259.882 668.868C270.743 667.299 328.667 688.696 329.596 696.287C331.423 711.534 289.838 687.895 290.446 697.857C291.504 715.442 369.804 724.058 367.209 738.569H367.177ZM162.744 531.038L161.975 561.564C159.669 565.408 147.014 553.268 143.169 552.179L162.744 531.038ZM450.987 859.935C457.427 857.821 466.141 881.684 470.562 887.354C473.51 891.101 481.711 899.301 485.46 902.248C490.97 906.572 510.898 910.801 505.836 917.911C500.646 925.183 470.082 898.789 465.885 893.632C463.162 890.269 444.612 862.049 450.987 859.967V859.935ZM430.611 1556.9C389.283 1565.36 400.88 1549.79 400.848 1516.19H454.095C456.754 1545.18 460.118 1550.88 430.611 1556.9ZM573.948 1628.17C571.257 1637.3 403.091 1629.33 383.612 1632.08C380.376 1630.77 377.941 1619.78 380.472 1617.99C388.129 1612.54 545.979 1622.15 568.469 1617.99C572.154 1619.84 575.229 1623.85 573.948 1628.17ZM484.659 1571.8C484.338 1575.06 455.152 1583.91 468.223 1591.37C472.356 1588.71 502.504 1569.65 503.465 1581.18C503.689 1583.84 479.565 1591.59 479.981 1596.85L483.89 1600.75C488.183 1601.87 511.186 1585.22 513.653 1585.09C518.747 1584.8 551.874 1605.56 559.851 1607.8L383.612 1608.57L394.569 1563.15C415.137 1576.31 439.454 1557.99 457.235 1556.87C469.761 1556.1 476.041 1564.46 484.659 1571.77V1571.8ZM494.847 1011.86C488.632 1007.89 470.082 1006.93 468.992 996.965C466.333 972.909 506.156 1000.39 512.083 1007.15L514.422 1001.67C504.779 995.459 499.268 982.711 486.998 980.533C481.968 979.636 461.015 983.8 459.573 979.764C453.903 963.876 497.986 980.981 502.664 978.995C518.971 972.044 477.162 969.674 476.81 965.67C476.073 962.851 489.913 960.353 491.707 960.193C500.71 959.392 512.115 961.602 519.9 966.471C522.335 967.976 540.853 989.149 541.045 990.75C541.333 993.121 523.168 1028.8 519.9 1033.83C508.014 1031.59 502.087 1016.57 494.847 1011.89V1011.86ZM899.803 1054.94C903.359 1070.83 920.307 1044.05 927.996 1043.99L929.566 1225.67C858.955 1253.86 767.295 1257.54 694.57 1231.95L693 1009.55C691.046 1006.29 686.464 1006.38 685.183 1009.55C680.025 1022.21 686.721 1081.69 683.613 1098.82C630.398 1125.25 568.053 1071.47 528.518 1039.31L551.233 993.121C571.321 996.997 622.325 1013.62 640.522 1010.35C653.754 1007.98 707.193 962.179 723.564 952.409C729.779 948.693 757.652 933.575 762.714 935.176C763.675 935.465 770.563 947.765 775.241 950.84C794.239 963.3 826.181 955.772 842.616 941.454C848.479 936.361 854.246 924.029 858.282 921.083C869.079 913.235 919.602 899.045 936.615 891.326C979.321 871.915 1020.91 849.044 1057.24 819.287L1087.77 870.185C1038.43 944.337 968.908 1000.3 899.771 1055.01L899.803 1054.94ZM1153.57 816.885C1134.77 835.879 1106.22 836.616 1091.71 861.536C1082.13 852.119 1065.5 828.833 1067.42 815.347C1067.84 812.497 1088.86 763.265 1091.71 762.88C1104.78 761.054 1076.04 798.115 1105.81 792.637C1124.61 789.178 1123.14 758.428 1127.75 756.602C1129.64 755.833 1141.59 755.961 1142.65 758.94L1130.89 781.651C1137.52 785.911 1147.97 753.335 1153.61 765.218C1163.02 785.046 1114.26 783.028 1129.32 798.883C1153.61 776.077 1168.02 792.509 1137.94 809.069C1139.03 813.169 1153.32 809.422 1153.61 816.885H1153.57Z" fill="black"/>
<path d="M457.234 1556.9C439.454 1557.99 415.137 1576.31 394.569 1563.18L383.612 1608.6L559.851 1607.83C551.874 1605.59 518.747 1584.83 513.653 1585.12C511.186 1585.25 488.183 1601.91 483.89 1600.79L479.981 1596.88C479.597 1591.62 503.721 1583.87 503.465 1581.21C502.472 1569.68 472.356 1588.74 468.223 1591.4C455.152 1583.91 484.338 1575.1 484.659 1571.83C476.041 1564.53 469.761 1556.17 457.234 1556.94V1556.9Z" fill="#AA8D43"/>
<path d="M175.271 1563.18L164.314 1608.6L335.844 1609.37C327.642 1604.5 293.426 1583.84 286.506 1583.52C279.329 1583.2 256.198 1599.73 253.603 1599.18L249.694 1593.71C251.456 1588.93 276.19 1579.58 276.318 1578.04C277.695 1563.89 241.172 1585.67 237.937 1589.8C223.584 1581.28 257.063 1571.67 257.512 1567.09C251.809 1561.36 246.491 1556.55 237.937 1556.9C220.989 1557.64 195.551 1576.63 175.271 1563.18Z" fill="#AA8D43"/>
<path d="M380.472 1617.99C377.941 1619.78 380.376 1630.77 383.612 1632.08C403.091 1629.29 571.256 1637.3 573.948 1628.17C575.229 1623.85 572.153 1619.84 568.469 1617.99C546.011 1622.15 388.161 1612.54 380.472 1617.99Z" fill="white"/>
<path d="M164.314 1632.11L348.37 1629.77C348.691 1624.49 349.043 1621.19 344.462 1618.02H162.744C158.067 1620.26 161.463 1629.45 164.314 1632.11Z" fill="white"/>
<path d="M181.518 1516.19C177.834 1548.83 172.74 1565.55 211.281 1556.9C240.628 1550.3 234.284 1544.22 234.765 1516.19H181.518Z" fill="white"/>
<path d="M430.611 1556.9C460.118 1550.88 456.754 1545.18 454.095 1516.19H400.848C400.848 1549.79 389.283 1565.36 430.611 1556.9Z" fill="white"/>
<path d="M505.804 917.879C510.866 910.768 490.938 906.54 485.428 902.216C481.679 899.269 473.478 891.069 470.53 887.321C466.109 881.652 457.395 857.789 450.955 859.903C444.58 861.985 463.097 890.204 465.853 893.567C470.018 898.692 500.614 925.118 505.804 917.847V917.879Z" fill="white"/>
<path d="M525.379 835.655L515.191 452.721C523.809 449.743 524.802 472.325 525.379 478.571C529.255 519.955 522.463 566.432 523.809 608.553C524.129 618.483 524.866 654.711 526.949 661.789C531.466 677.261 594.676 711.726 610.759 718.965C618.961 722.649 703.252 755.577 705.527 751.061C686.336 735.718 698.414 705.096 718.854 697.024C742.146 687.799 763.547 710.157 785.429 716.595C758.389 697.472 733.976 674.986 707.897 654.743C691.654 642.122 647.026 616.337 636.614 603.845C626.81 592.057 602.461 533.248 595.894 516.143C564.433 434.303 559.595 339.075 457.267 313.321C439.806 388.723 329.276 372.451 304.543 309.414C297.911 292.565 310.758 287.024 284.968 288.273C179.596 293.398 114.335 369.312 60.1595 450.383C-19.4221 569.475 -6.06238 594.203 112.637 668.868C123.594 675.755 207.244 722.617 212.883 722.104C223.712 721.175 249.054 672.296 254.404 661.789C217.08 629.15 175.175 574.793 129.874 554.517C126.253 552.883 113.31 552.883 111.868 549.039C107.639 537.796 133.077 548.527 134.583 548.271C143.714 546.733 206.027 461.594 211.345 463.708C217.016 465.95 209.455 475.207 207.437 478.603C202.663 486.578 173.797 516.335 172.964 519.314C172.291 521.749 167.678 566.977 168.255 569.443C169.824 575.914 257.48 644.749 264.592 661.053C279.554 662.462 343.309 681.937 339.015 700.996C337.894 705.96 327.162 709.772 322.58 708.043C333.633 714.705 380.28 719.189 375.058 741.707C367.946 756.762 345.487 742.028 333.537 745.615C325.88 747.921 311.527 765.378 292.817 767.557C253.411 772.105 241.781 734.564 220.764 728.414C218.522 727.742 212.018 731.361 205.098 728.414C187.445 720.887 170.978 709.58 153.389 701.796C147.879 718.837 134.775 832.132 142.432 839.627C248.189 856.475 368.138 864.996 474.535 849.012C482.16 847.859 523.424 841.036 525.443 835.687L525.379 835.655Z" fill="#F6CE61"/>
<path d="M448.616 317.229C448.616 309.926 438.524 309.798 435.289 311.752C433.751 312.681 435.801 330.01 413.343 336.801C383.612 345.833 354.714 334.398 335.812 310.951C328.827 302.271 325.816 280.906 311.527 286.672C308.387 287.953 310.31 299.26 310.758 301.566C323.669 369.248 448.809 366.301 448.616 317.229Z" fill="#F6CE61"/>
<path d="M329.564 696.287C328.667 688.696 270.711 667.299 259.85 668.869C249.438 687.575 240.307 706.537 226.179 722.905C266.194 753.912 269.878 771.465 320.946 747.185C323.317 746.064 328.539 738.312 330.333 737.8C341.546 734.533 355.867 742.893 367.145 738.569C369.74 724.026 291.439 715.41 290.382 697.857C289.806 687.895 331.39 711.534 329.532 696.287H329.564Z" fill="white"/>
<path d="M356.988 321.169C377.172 335.007 432.245 338.242 428.272 303.167C427.856 299.484 392.326 278.279 384.413 267.132C382.362 264.25 370.733 245.767 382.074 249.131C383.836 249.643 399.278 272.289 405.558 277.318C473.061 331.291 527.301 233.724 541.077 177.861C542.166 173.441 545.626 160.692 541.846 158.29C504.906 149.321 467.038 132.569 440.03 105.054C434.616 113.062 432.245 122.928 426.702 130.903C419.077 141.89 407.672 143.3 407.127 159.892C390.82 125.81 345.455 144.004 362.467 177.893C364.934 182.826 379.511 191.218 379.703 195.126C380.12 204.479 331.454 276.389 332.704 289.106C333.313 295.256 351.318 317.325 356.988 321.201V321.169ZM508.943 153.582C518.138 151.147 541.782 160.212 537.937 173.153C528.006 176.772 523.68 153.453 505.835 162.967L503.497 157.489C503.689 156.753 508.366 153.742 508.975 153.582H508.943ZM512.083 183.339C521.502 182.826 518.33 206.273 507.373 206.817C499.396 201.084 504.33 188.175 512.083 183.339ZM470.562 218.573C487.061 213.352 476.233 205.728 479.18 192.724C488.471 185.132 496.961 240.258 470.562 218.573ZM452.557 136.349C460.214 134.459 486.485 138.911 484.659 149.674C483.089 158.899 471.523 145.157 466.653 144.196C459.765 142.851 447.239 147.72 446.277 147.335C439.069 144.517 448.392 137.406 452.557 136.381V136.349ZM454.095 188.015C445.284 187.567 448.969 168.22 455.664 164.536C468.928 160.853 461.527 188.432 454.095 188.015ZM438.46 227.189C442.305 227.189 444.515 239.714 449.417 242.853C460.983 250.284 470.113 241.764 472.901 242.853C480.077 245.639 470.754 252.878 466.621 253.807C441.952 259.445 427.439 227.253 438.428 227.189H438.46Z" fill="white"/>
<path d="M466.654 253.807C470.787 252.879 480.077 245.64 472.933 242.853C470.146 241.764 460.983 250.284 449.449 242.853C444.548 239.714 442.337 227.157 438.493 227.19C427.504 227.254 442.017 259.445 466.686 253.807H466.654Z" fill="black"/>
<path d="M446.278 147.304C447.239 147.688 459.733 142.819 466.654 144.165C471.523 145.126 483.089 158.867 484.659 149.642C486.485 138.879 460.214 134.427 452.557 136.317C448.424 137.342 439.101 144.453 446.278 147.272V147.304Z" fill="black"/>
<path d="M537.906 173.153C541.75 160.212 518.106 151.147 508.912 153.582C508.303 153.742 503.625 156.785 503.433 157.489L505.772 162.967C523.649 153.453 527.974 176.74 537.874 173.153H537.906Z" fill="black"/>
<path d="M479.18 192.724C476.233 205.729 487.061 213.352 470.562 218.573C496.961 240.29 488.471 185.132 479.18 192.724Z" fill="black"/>
<path d="M455.665 164.536C448.969 168.252 445.284 187.567 454.095 188.015C461.528 188.4 468.896 160.853 455.665 164.536Z" fill="black"/>
<path d="M507.374 206.818C518.299 206.273 521.47 182.826 512.083 183.339C504.33 188.176 499.428 201.084 507.374 206.818Z" fill="black"/>
<path d="M938.184 1617.99C922.806 1611.2 834.19 1623.14 811.283 1617.99C805.997 1622.47 804.043 1626.99 809.713 1632.08L940.523 1629.74C940.171 1626.51 941.933 1619.65 938.184 1617.99Z" fill="white"/>
<path d="M662.468 1617.99C656.317 1619.84 654.523 1627.18 659.328 1632.08L788.568 1629.74V1620.36C786.486 1620.2 783.987 1618.27 783.09 1618.02C777.291 1616.32 668.235 1616.29 662.468 1618.02V1617.99Z" fill="white"/>
<path d="M933.475 1589.8C932.578 1589.48 917.039 1592.94 914.669 1592.94C881.99 1592.94 851.138 1584.13 824.579 1609.37L938.152 1610.14C940.106 1608.89 935.173 1590.34 933.443 1589.77L933.475 1589.8Z" fill="#AA8D43"/>
<path d="M779.95 1589.8C779.053 1589.51 763.483 1592.94 761.144 1592.94C729.171 1592.68 699.375 1584.29 674.194 1609.37L784.628 1610.14C787.479 1608.12 782.577 1590.63 779.918 1589.77L779.95 1589.8Z" fill="#AA8D43"/>
<path d="M933.475 1581.98C935.589 1579.68 933.058 1565.68 930.335 1564.75C927.067 1563.63 892.498 1571.28 884.905 1567.89C874.942 1596.33 917.648 1582.72 933.475 1581.98Z" fill="white"/>
<path d="M781.52 1581.98C783.442 1579.71 781.616 1566 778.38 1564.75L732.951 1567.89C716.227 1593.77 779.438 1584.45 781.52 1581.98Z" fill="white"/>
<path d="M936.615 891.262C919.603 898.981 869.079 913.171 858.282 921.019C854.246 923.965 848.479 936.265 842.616 941.39C826.181 955.708 794.271 963.236 775.241 950.776C770.563 947.701 763.675 935.401 762.714 935.112C757.62 933.511 729.779 948.629 723.564 952.345C707.225 962.115 653.786 1007.92 640.522 1010.29C622.325 1013.56 571.321 996.933 551.233 993.057L528.519 1039.25C568.021 1071.41 630.398 1125.19 683.613 1098.76C686.721 1081.62 680.025 1022.14 685.183 1009.49C686.496 1006.32 691.078 1006.22 693 1009.49L694.57 1231.88C767.295 1257.51 858.923 1253.79 929.566 1225.6L927.996 1043.92C920.307 1043.99 903.359 1070.76 899.803 1054.88C968.941 1000.17 1038.46 944.209 1087.8 870.057L1057.27 819.159C1020.94 848.916 979.353 871.787 936.647 891.197L936.615 891.262ZM848.895 958.623C823.105 978.995 774.344 985.53 757.268 951.576C764.508 941.422 768.577 957.63 775.273 961.762C792.958 972.653 824.419 965.478 841.078 953.947C844.634 951.48 860.012 933.639 861.454 933.575C875.615 933.094 851.202 956.829 848.927 958.623H848.895Z" fill="#F6CE61"/>
<path d="M861.422 933.543C859.98 933.607 844.634 951.416 841.046 953.915C824.386 965.446 792.925 972.621 775.241 961.73C768.545 957.598 764.444 941.39 757.235 951.544C774.343 985.498 823.073 978.963 848.863 958.591C851.138 956.798 875.55 933.03 861.39 933.543H861.422Z" fill="black"/>
<path d="M1129.29 798.851C1114.23 782.996 1162.99 785.014 1153.57 765.186C1147.94 753.335 1137.49 785.91 1130.86 781.618L1142.62 758.908C1141.56 755.929 1129.64 755.801 1127.72 756.57C1123.11 758.396 1124.58 789.146 1105.77 792.605C1076.01 798.082 1104.75 761.022 1091.68 762.848C1088.83 763.232 1067.81 812.464 1067.39 815.315C1065.47 828.8 1082.1 852.087 1091.68 861.504C1106.22 836.616 1134.77 835.847 1153.54 816.853C1153.25 809.357 1138.96 813.137 1137.88 809.037C1167.96 792.477 1153.57 776.045 1129.26 798.851H1129.29Z" fill="white"/>
<path d="M519.9 966.439C512.115 961.57 500.71 959.392 491.707 960.161C489.913 960.321 476.105 962.819 476.81 965.638C477.162 969.642 518.971 971.98 502.664 978.963C497.986 980.949 453.935 963.844 459.573 979.732C461.015 983.768 481.936 979.636 486.997 980.501C499.268 982.679 504.746 995.459 514.422 1001.64L512.083 1007.12C506.156 1000.39 466.333 972.877 468.992 996.933C470.082 1006.86 488.631 1007.82 494.847 1011.83C502.087 1016.47 508.046 1031.53 519.9 1033.77C523.168 1028.74 541.333 993.089 541.045 990.687C540.853 989.085 522.335 967.912 519.9 966.407V966.439Z" fill="white"/>
<path d="M759.574 769.094C751.949 768.998 734.168 759.581 727.473 774.571C724.461 781.33 720.392 847.507 721.193 857.597C725.134 906.444 773.351 920.218 812.821 897.539C817.531 894.817 835.247 873.484 837.106 884.214C840.341 903.177 776.362 915.509 774.44 918.68C770.788 924.734 772.421 939.981 779.918 944.529C797.891 955.452 834.382 944.721 844.923 926.528C855.431 908.43 844.666 864.611 852.74 852.92C854.79 849.973 867.605 855.546 875.455 852.151C889.583 846.001 890.32 822.234 875.455 816.116C869.496 813.682 855.015 816.468 854.31 815.347C853.156 813.554 851.939 789.818 851.17 788.729C850.305 787.48 830.57 786.679 824.547 776.205C818.972 766.564 823.329 764.546 823.778 755.064C803.979 769.831 782.898 769.478 759.542 769.158L759.574 769.094ZM736.091 787.896C727.441 786.263 735.354 778.127 742.37 776.942C746.439 776.237 771.588 778.607 765.085 787.128C764.38 788.025 746.247 784.95 742.37 784.789C742.018 784.789 738.077 788.281 736.091 787.928V787.896ZM745.478 801.99C753.199 800.997 752.238 820.825 747.048 822.362C736.956 825.341 738.974 802.855 745.478 801.99ZM806.574 827.039C798.276 828.448 800.198 808.108 805.004 806.667C814.968 803.72 813.269 825.886 806.574 827.039ZM796.386 787.128C796.77 785.334 806.734 781.746 808.143 781.65C813.366 781.298 832.076 787.704 830.858 794.975C829.545 802.791 817.851 790.651 811.283 789.498C807.919 788.921 794.592 795.456 796.386 787.16V787.128ZM796.386 854.457C797.731 871.786 782.673 888.731 764.284 883.446C750.924 879.602 738.365 852.215 753.327 848.98C758.773 847.795 764.316 852.183 765.854 852.119C773.863 851.831 793.791 846.738 796.386 854.457ZM775.241 812.945C786.774 812.881 769.058 830.498 769.762 832.516C770.948 836.007 781.873 833.733 779.149 840.332C776.554 846.642 759.158 841.229 760.343 830.946C760.535 829.281 773.479 812.945 775.241 812.945Z" fill="white"/>
<path d="M779.181 840.364C781.905 833.733 770.98 836.039 769.794 832.548C769.122 830.53 786.806 812.881 775.273 812.977C773.511 812.977 760.567 829.345 760.375 830.979C759.19 841.261 776.586 846.706 779.181 840.364Z" fill="black"/>
<path d="M811.283 789.466C817.883 790.619 829.544 802.759 830.858 794.944C832.075 787.672 813.365 781.298 808.143 781.619C806.766 781.715 796.77 785.302 796.385 787.096C794.591 795.424 807.887 788.858 811.283 789.434V789.466Z" fill="black"/>
<path d="M765.085 787.128C771.588 778.608 746.439 776.237 742.37 776.942C735.354 778.159 727.472 786.295 736.091 787.897C738.077 788.281 742.018 784.758 742.37 784.758C746.247 784.918 764.38 788.025 765.085 787.096V787.128Z" fill="black"/>
<path d="M805.004 806.699C800.198 808.108 798.244 828.448 806.574 827.071C813.269 825.95 814.967 803.752 805.004 806.699Z" fill="black"/>
<path d="M745.478 801.99C738.974 802.823 736.924 825.341 747.047 822.362C752.238 820.825 753.231 800.997 745.478 801.99Z" fill="black"/>
<path d="M753.327 848.98C738.365 852.215 750.956 879.602 764.284 883.446C782.673 888.731 797.731 871.786 796.385 854.457C793.758 846.738 773.863 851.799 765.854 852.119C764.316 852.183 758.741 847.827 753.327 848.98ZM789.337 855.258C788.889 902.12 738.589 862.529 754.865 855.258C756.819 854.393 782.129 861.953 789.337 855.258Z" fill="black"/>
<path d="M754.897 855.259C738.622 862.53 788.921 902.12 789.369 855.259C782.193 861.953 756.883 854.394 754.897 855.259Z" fill="white"/>
</svg>
