<svg width="107" height="103" viewBox="0 0 107 103" fill="none" xmlns="http://www.w3.org/2000/svg">
<path d="M106.6 102.1C100.8 71.9 79.2004 49.5 53.5004 49.5C27.8004 49.5 6.20039 71.9 0.400391 102.1H106.6Z" fill="#F6CE61"/>
<path d="M87.7004 102.5H19.3004C19.1004 102.5 18.9004 102.3 18.9004 102.1V83.6C18.9004 83.4 19.1004 83.2 19.3004 83.2C19.5004 83.2 19.7004 83.4 19.7004 83.6V101.7H87.2004V83.6C87.2004 83.4 87.4004 83.2 87.6004 83.2C87.8004 83.2 88.0004 83.4 88.0004 83.6V102.1C88.0004 102.3 87.8004 102.5 87.6004 102.5H87.7004Z" fill="black"/>
<path d="M106.6 102.5H0.4C0.2 102.5 0 102.3 0 102.1C0 101.9 0.2 101.7 0.4 101.7H106.6C106.8 101.7 107 101.9 107 102.1C107 102.3 106.8 102.5 106.6 102.5Z" fill="black"/>
<path d="M73.1996 80.8C74.2996 79.4 75.2996 77.9 76.3996 76.5C76.4996 76.4 76.3996 76.1 76.2996 76.1C76.0996 76.1 75.9996 76.1 75.8996 76.2C74.7996 77.6 73.7996 79.1 72.6996 80.5C72.5996 80.6 72.6996 80.9 72.7996 80.9C72.9996 80.9 73.0996 80.9 73.1996 80.8Z" fill="white"/>
<path d="M54.9 68.4C55.7 69.7 56.4 71.1 57 72.5C57 72.7 57.3 72.7 57.4 72.6C57.6 72.6 57.6 72.3 57.5 72.2C56.9 70.8 56.2 69.4 55.4 68.1C55.2 67.8 54.6 68.1 54.8 68.4H54.9Z" fill="white"/>
<path d="M70.2002 60.7C70.8002 59.7 71.3002 58.8 71.8002 57.8C71.8002 57.6 71.8002 57.5 71.7002 57.4C71.6002 57.4 71.3002 57.4 71.3002 57.5C70.8002 58.5 70.3002 59.5 69.7002 60.4C69.5002 60.8 70.0002 61.1 70.3002 60.7H70.2002Z" fill="white"/>
<path d="M60.5002 87.3C61.0002 88.6 61.5002 89.9 61.8002 91.3C61.8002 91.7 62.5002 91.5 62.4002 91.1C62.1002 89.7 61.6002 88.4 61.1002 87.1C61.1002 86.9 60.9002 86.8 60.7002 86.9C60.5002 86.9 60.4002 87.1 60.5002 87.3Z" fill="white"/>
<path d="M79.3992 95.3C80.3992 94.1 81.3992 92.9 82.4992 91.7C82.7992 91.4 82.2992 90.9 81.9992 91.2C80.8992 92.4 79.8992 93.6 78.8992 94.8C78.7992 94.9 78.7992 95.1 78.8992 95.3C78.9992 95.4 79.1992 95.4 79.3992 95.3Z" fill="white"/>
<path d="M88.7 74.7C89.5 75.7 90.4 76.6 91.3 77.5C91.6 77.8 92 77.3 91.8 77C90.9 76.1 90 75.2 89.2 74.2C89.1 74.1 88.9 74.1 88.7 74.2C88.6 74.3 88.6 74.5 88.7 74.7Z" fill="white"/>
<path d="M95.7006 96.3C96.5006 94.9 97.4006 93.5 98.2006 92.1C98.4006 91.7 97.9006 91.4 97.6006 91.8C96.8006 93.2 95.9006 94.6 95.1006 96C94.9006 96.4 95.4006 96.7 95.7006 96.3Z" fill="white"/>
<path d="M40.5991 98C41.2991 96.8 42.0991 95.7 42.7991 94.5C42.9991 94.2 42.4991 93.8 42.1991 94.2C41.4991 95.4 40.6991 96.5 39.9991 97.7C39.7991 98 40.2991 98.4 40.5991 98Z" fill="white"/>
<path d="M32.9991 78C33.9991 79.1 34.9991 80.1 35.9991 81.2C36.2991 81.5 36.6991 81 36.4991 80.7C35.4991 79.6 34.4991 78.6 33.4991 77.5C33.1991 77.2 32.7991 77.7 32.9991 78Z" fill="white"/>
<path d="M25.2996 91.9C26.0996 91 26.9996 90 27.7996 89.1C27.8996 89 27.8996 88.8 27.7996 88.6C27.6996 88.5 27.4996 88.5 27.2996 88.6C26.4996 89.5 25.5996 90.5 24.7996 91.4C24.6996 91.5 24.6996 91.7 24.7996 91.9C24.8996 92.1 25.0996 92 25.2996 91.9Z" fill="white"/>
<path d="M42.1008 62.1C42.6008 63.1 43.0008 64.2 43.3008 65.2C43.4008 65.6 44.0008 65.4 43.9008 65C43.5008 63.9 43.1008 62.8 42.6008 61.7C42.6008 61.5 42.3008 61.5 42.2008 61.6C42.0008 61.6 42.0008 61.9 42.1008 62V62.1Z" fill="white"/>
<path d="M7.9008 93.3C8.7008 92.2 9.6008 91.1 10.4008 89.9C10.5008 89.8 10.4008 89.5 10.3008 89.5C10.1008 89.5 10.0008 89.5 9.9008 89.6C9.1008 90.7 8.2008 91.8 7.4008 93C7.3008 93.1 7.4008 93.4 7.5008 93.4C7.7008 93.4 7.8008 93.4 7.9008 93.3Z" fill="white"/>
<path d="M20.0998 68.4C20.4998 69.5 20.9998 70.4 21.6998 71.3C21.7998 71.4 21.9998 71.4 22.1998 71.3C22.2998 71.2 22.2998 71 22.1998 70.8C21.5998 70 21.0998 69.1 20.6998 68.2C20.6998 68 20.4998 67.9 20.2998 68C20.0998 68 19.9998 68.2 20.0998 68.4Z" fill="white"/>
<path d="M47.6006 81.1C48.1006 80.3 48.5006 79.4 48.9006 78.5C48.9006 78.3 48.9006 78.1 48.7006 78.1C48.5006 78.1 48.4006 78.1 48.3006 78.3C48.0006 79.1 47.6006 80 47.1006 80.7C46.9006 81.1 47.4006 81.4 47.7006 81L47.6006 81.1Z" fill="black"/>
<path d="M52.8998 95.9C53.2998 96.7 53.6998 97.6 54.0998 98.5C54.0998 98.7 54.2998 98.8 54.4998 98.7C54.6998 98.7 54.7998 98.5 54.6998 98.3C54.3998 97.4 53.9998 96.4 53.4998 95.6C53.2998 95.2 52.7998 95.6 52.8998 95.9Z" fill="black"/>
<path d="M33.1001 99.5C32.8001 99 32.6001 98.5 32.3001 98C32.3001 97.9 32.0001 97.8 31.9001 97.9C31.7001 97.9 31.7001 98.2 31.8001 98.3C32.1001 98.8 32.3001 99.3 32.6001 99.8C32.6001 99.9 32.9001 100 33.0001 99.9C33.2001 99.9 33.2001 99.6 33.1001 99.5Z" fill="black"/>
<path d="M64.3992 74.5C65.0992 75.2 65.8992 75.9 66.5992 76.6C66.6992 76.7 66.8992 76.7 67.0992 76.6C67.1992 76.5 67.1992 76.3 67.0992 76.1C66.3992 75.4 65.5992 74.7 64.8992 74C64.7992 73.9 64.5992 73.9 64.3992 74C64.2992 74.1 64.2992 74.3 64.3992 74.5Z" fill="black"/>
<path d="M71.4004 97.2C71.7004 96.6 71.9004 96 72.2004 95.4C72.2004 95.2 72.2004 95 72.1004 95C72.0004 95 71.7004 95 71.7004 95.1C71.4004 95.7 71.2004 96.3 70.9004 96.9C70.9004 97.1 70.9004 97.3 71.0004 97.3C71.1004 97.3 71.4004 97.3 71.4004 97.2Z" fill="black"/>
<path d="M78.7996 66.5C79.9996 66.9 81.0996 67.5 82.1996 68.1C82.5996 68.3 82.8996 67.7 82.4996 67.5C81.3996 66.9 80.1996 66.3 78.9996 65.9C78.7996 65.9 78.5996 65.9 78.5996 66.1C78.5996 66.3 78.5996 66.4 78.7996 66.5Z" fill="black"/>
<path d="M93.6008 85.3C94.7008 85.6 95.7008 85.8 96.8008 86.1C97.2008 86.2 97.4008 85.6 97.0008 85.5C95.9008 85.2 94.9008 85 93.8008 84.7C93.4008 84.6 93.2008 85.2 93.6008 85.3Z" fill="black"/>
<path d="M60.2996 59.6C61.0996 60.2 61.7996 60.8 62.5996 61.5C62.6996 61.6 62.8996 61.6 63.0996 61.5C63.1996 61.4 63.1996 61.2 63.0996 61C62.2996 60.4 61.5996 59.8 60.7996 59.1C60.6996 59 60.4996 59 60.2996 59.1C60.1996 59.2 60.1996 59.4 60.2996 59.6Z" fill="black"/>
<path d="M32.5992 69.7C33.4992 69.2 34.3992 68.7 35.1992 68.2C35.5992 68 35.1992 67.4 34.8992 67.6C33.9992 68.1 33.0992 68.6 32.2992 69.1C31.8992 69.3 32.2992 69.9 32.5992 69.7Z" fill="black"/>
<path d="M33.5996 56.8V60C33.5996 60.4 34.1996 60.4 34.1996 60V56.8C34.1996 56.4 33.5996 56.4 33.5996 56.8Z" fill="black"/>
<path d="M13.3999 80C13.8999 81.4 14.2999 82.9 14.7999 84.3C14.8999 84.7 15.4999 84.5 15.3999 84.1C14.8999 82.7 14.4999 81.2 13.9999 79.8C13.8999 79.4 13.2999 79.6 13.3999 80Z" fill="black"/>
<path d="M14.2 97.5C14.7 96.9 15.2 96.2 15.7 95.6C15.8 95.5 15.8 95.3 15.7 95.1C15.6 95 15.4 95 15.2 95.1C14.7 95.7 14.2 96.4 13.7 97C13.6 97.1 13.6 97.3 13.7 97.5C13.8 97.6 14 97.6 14.2 97.5Z" fill="black"/>
<path d="M53.7996 55.5C58.8996 55.5 62.9996 53.4 62.9996 50.8C62.9996 48.2 58.8996 46.1 53.7996 46.1C48.6996 46.1 44.5996 48.2 44.5996 50.8C44.5996 53.4 48.6996 55.5 53.7996 55.5Z" fill="#F6CE61"/>
<path d="M53.7992 55.9C48.3992 55.9 44.1992 53.7 44.1992 50.8C44.1992 47.9 48.3992 45.7 53.7992 45.7C59.1992 45.7 63.3992 47.9 63.3992 50.8C63.3992 53.7 59.1992 55.9 53.7992 55.9ZM53.7992 46.4C48.9992 46.4 44.9992 48.4 44.9992 50.8C44.9992 53.2 48.9992 55.2 53.7992 55.2C58.5992 55.2 62.5992 53.2 62.5992 50.8C62.5992 48.4 58.5992 46.4 53.7992 46.4Z" fill="black"/>
<path d="M70.5986 31.2C70.5986 31.2 74.0986 17.4 71.3986 10.8C68.9986 4.59999 61.4986 0.199993 53.1986 1.19999C44.8986 0.199993 37.3986 4.69999 34.8986 10.9C32.2986 17.4 35.6986 31.3 35.6986 31.3C35.6986 31.3 29.2986 44.4 30.3986 45.7C31.4986 46.9 35.5986 47.2 40.9986 46.8C46.3986 46.4 50.2986 46.8 50.2986 46.8H55.9986C55.9986 46.8 59.7986 46.4 65.2986 46.8C70.6986 47.2 74.7986 47 75.8986 45.7C76.9986 44.5 70.5986 31.3 70.5986 31.3V31.2Z" fill="white"/>
<path d="M69.6991 47.3C68.3991 47.3 66.9991 47.3 65.2991 47.1C59.9991 46.7 56.0991 47.1 56.0991 47.1H50.2991C50.2991 47.1 46.3991 46.7 40.9991 47.1C34.8991 47.6 31.2991 47.1 30.0991 45.9C28.9991 44.6 33.2991 35.3 35.2991 31.2C34.8991 29.7 31.9991 17 34.4991 10.7C37.2991 3.99998 45.0991 -0.200015 53.1991 0.799985C61.1991 -0.200015 69.0991 3.99998 71.7991 10.7C74.2991 17 71.3991 29.6 70.9991 31.2C72.9991 35.3 77.2991 44.6 76.1991 45.9C75.3991 46.8 73.1991 47.3 69.6991 47.3ZM60.4991 46.2C61.8991 46.2 63.4991 46.2 65.2991 46.4C70.8991 46.8 74.5991 46.4 75.5991 45.4C76.0991 44.6 73.1991 37.5 70.2991 31.5C70.2991 31.5 70.2991 31.3 70.2991 31.2C70.2991 31.1 73.6991 17.4 71.0991 11.1C68.4991 4.59999 60.9991 0.599985 53.1991 1.59999C45.2991 0.699985 37.7991 4.59998 35.1991 11C32.5991 17.4 35.9991 31 35.9991 31.1C35.9991 31.1 35.9991 31.3 35.9991 31.4C32.9991 37.5 30.0991 44.6 30.6991 45.4C31.5991 46.5 35.3991 46.8 40.9991 46.4C46.3991 46 50.2991 46.4 50.3991 46.4H56.0991C56.0991 46.4 57.7991 46.2 60.5991 46.2H60.4991Z" fill="black"/>
<path d="M34.2993 45.3C34.0993 45.3 33.8993 45.1 33.9993 44.9C34.3993 42.4 35.1993 40.1 36.3993 37.9C36.4993 37.7 36.6993 37.6 36.8993 37.8C37.0993 37.9 37.1993 38.1 36.9993 38.3C35.7993 40.4 35.0993 42.7 34.6993 45C34.6993 45.2 34.4993 45.3 34.2993 45.3Z" fill="black"/>
<path d="M37.9994 44.3C37.9994 44.3 37.9994 44.3 37.8994 44.3C37.6994 44.3 37.5994 44 37.6994 43.8C38.0994 42.9 38.2994 41.9 38.3994 41C38.3994 40.8 38.5994 40.6 38.7994 40.7C38.9994 40.7 39.1994 40.9 39.0994 41.1C38.9994 42.1 38.6994 43.1 38.2994 44.1C38.2994 44.2 38.0994 44.3 37.8994 44.3H37.9994Z" fill="black"/>
<path d="M63.5992 45.4C63.3992 45.4 63.2992 45.3 63.1992 45.1C62.9992 44.3 62.8992 43.4 62.6992 42.6C62.6992 42.4 62.6992 42.2 62.9992 42.2C63.1992 42.2 63.3992 42.2 63.3992 42.5C63.5992 43.3 63.6992 44.2 63.8992 45C63.8992 45.2 63.8992 45.4 63.5992 45.4Z" fill="black"/>
<path d="M68 44.8C67.8 44.8 67.6 44.6 67.6 44.4C67.7 41.5 67 38.6 66.5 37.4C66.5 37.2 66.5 37 66.7 36.9C66.9 36.9 67.1 36.9 67.2 37.1C67.9 38.6 68.5 41.6 68.4 44.4C68.4 44.6 68.2 44.8 68 44.8Z" fill="black"/>
<path d="M72.1996 44.8C71.9996 44.8 71.8996 44.7 71.7996 44.5C71.5996 43.2 70.5996 40 70.0996 38.8C70.0996 38.6 70.0996 38.4 70.2996 38.3C70.4996 38.3 70.6996 38.3 70.7996 38.5C71.2996 39.7 72.2996 43.1 72.4996 44.4C72.4996 44.6 72.3996 44.8 72.1996 44.8Z" fill="black"/>
<path d="M55.3988 52.9H52.1988C49.2988 53 46.9988 50.8 46.8988 47.9V42.6C46.6988 39.7 48.9988 37.3 51.8988 37.3H55.0988C57.9988 37.2 60.2988 39.4 60.3988 42.3V47.6C60.5988 50.5 58.2988 52.9 55.3988 52.9Z" fill="white"/>
<path d="M52.0995 53.3C49.0995 53.3 46.5995 50.9 46.4995 47.9V42.6C46.2995 39.5 48.7995 37 51.7995 36.9H54.9995C57.9995 36.7 60.5995 39.2 60.6995 42.3V47.6C60.8995 50.7 58.3995 53.2 55.3995 53.3H52.1995C52.1995 53.3 52.1995 53.3 52.0995 53.3ZM55.1995 37.5C55.1995 37.5 55.1995 37.5 55.0995 37.5H51.8995C49.1995 37.6 47.0995 39.8 47.1995 42.5V47.8C47.3995 50.5 49.5995 52.6 52.1995 52.5H55.3995C58.0995 52.4 60.1995 50.2 60.0995 47.5V42.2C59.8995 39.6 57.7995 37.5 55.1995 37.5Z" fill="black"/>
<path d="M32.7012 31C32.7012 33.3 34.5012 35.1 36.8012 35.2C39.1012 35.2 41.0012 33.4 41.0012 31.1C41.0012 28.8 39.2012 27 36.9012 26.9C34.6012 26.8 32.7012 28.7 32.7012 31Z" fill="white"/>
<path d="M36.9004 35.5C34.4004 35.5 32.4004 33.4 32.4004 31C32.4004 28.5 34.4004 26.5 37.0004 26.5C38.2004 26.5 39.4004 27 40.2004 27.8C41.1004 28.7 41.5004 29.8 41.5004 31C41.5004 33.5 39.4004 35.5 37.0004 35.5H36.9004ZM33.1004 31C33.1004 33.1 34.8004 34.8 36.9004 34.8C39.0004 34.8 40.7004 33.1 40.7004 31.1C40.7004 30.1 40.3004 29.2 39.6004 28.4C38.9004 27.7 37.9004 27.3 36.9004 27.3C34.8004 27.3 33.1004 29 33.1004 31Z" fill="black"/>
<path d="M39.1996 31.3C39.0996 31.3 38.8996 31.2 38.8996 31C38.8996 30.5 38.6996 29.9 38.2996 29.6C37.8996 29.2 37.3996 29 36.8996 29C36.7996 29 36.5996 28.9 36.5996 28.7C36.5996 28.6 36.6996 28.4 36.8996 28.4C37.5996 28.4 38.1996 28.7 38.6996 29.2C39.1996 29.7 39.3996 30.3 39.3996 31C39.3996 31.1 39.2996 31.3 39.0996 31.3H39.1996Z" fill="black"/>
<path d="M73.5991 30C73.6991 32.3 71.9991 34.2 69.6991 34.4C67.3991 34.5 65.3991 32.8 65.2991 30.5C65.1991 28.2 66.8991 26.3 69.1991 26.1C71.4991 26 73.4991 27.7 73.5991 30Z" fill="white"/>
<path d="M69.5 34.8C67.1 34.8 65.1 32.9 65 30.5C65 29.3 65.3 28.1 66.2 27.2C67 26.3 68.1 25.8 69.3 25.7C71.8 25.6 73.9 27.5 74.1 30C74.1 31.2 73.8 32.4 72.9 33.3C72.1 34.2 71 34.7 69.8 34.8H69.6H69.5ZM69.5 26.5C69.5 26.5 69.4 26.5 69.3 26.5C68.3 26.5 67.4 27 66.7 27.7C66 28.4 65.7 29.4 65.7 30.4C65.8 32.5 67.6 34.1 69.7 33.9C70.7 33.9 71.6 33.4 72.3 32.7C73 32 73.3 31 73.3 30C73.2 28 71.5 26.5 69.5 26.5Z" fill="black"/>
<path d="M67.2004 30.6C67.1004 30.6 67.0004 30.5 66.9004 30.4C66.9004 29.7 67.1004 29.1 67.6004 28.6C68.1004 28.1 68.7004 27.8 69.4004 27.8C69.5004 27.8 69.7004 27.8 69.7004 28C69.7004 28.1 69.6004 28.3 69.5004 28.3C69.0004 28.3 68.4004 28.6 68.1004 29C67.7004 29.4 67.5004 29.9 67.6004 30.5C67.6004 30.6 67.5004 30.8 67.4004 30.8L67.2004 30.6Z" fill="black"/>
<path d="M70.6004 33.2C70.6004 33.5 70.3004 33.8 70.0004 33.8C69.7004 33.8 69.4004 33.5 69.4004 33.2C69.4004 32.9 69.7004 32.6 70.0004 32.6C70.3004 32.6 70.6004 32.9 70.6004 33.2Z" fill="black"/>
<path d="M71.3996 32.6C71.5996 32.6 71.6996 32.5 71.6996 32.3C71.6996 32.1 71.5996 32 71.3996 32C71.1996 32 71.0996 32.1 71.0996 32.3C71.0996 32.5 71.1996 32.6 71.3996 32.6Z" fill="black"/>
<path d="M72.2 31.2C72.2 31.2 72.4 31.2 72.4 31C72.4 30.8 72.4 30.8 72.2 30.8C72 30.8 72 30.8 72 31C72 31.2 72 31.2 72.2 31.2Z" fill="black"/>
<path d="M66.3012 31.7C66.3012 37.9 61.4012 43.1 55.1012 43.2H51.4012C45.2012 43.3 40.0012 38.3 39.9012 32.1L39.7012 19.9C39.7012 13.7 44.6012 8.49997 50.9012 8.39997H54.6012C60.8012 8.29997 66.0012 13.3 66.1012 19.5L66.3012 31.7Z" fill="white"/>
<path d="M51.3004 43.6C48.2004 43.6 45.4004 42.4 43.1004 40.3C40.9004 38.1 39.6004 35.2 39.6004 32.1L39.4004 19.9C39.4004 13.4 44.5004 8.1 50.9004 8H54.6004C57.7004 8 60.7004 9.1 62.9004 11.3C65.1004 13.5 66.4004 16.4 66.4004 19.5L66.6004 31.7C66.6004 38.2 61.5004 43.5 55.1004 43.6H51.4004C51.4004 43.6 51.3004 43.6 51.2004 43.6H51.3004ZM54.9004 8.7C54.9004 8.7 54.9004 8.7 54.8004 8.7H51.1004C45.1004 8.8 40.2004 13.8 40.3004 19.8L40.5004 32C40.5004 34.9 41.7004 37.6 43.8004 39.7C45.9004 41.7 48.6004 42.8 51.6004 42.8H55.3004C61.3004 42.7 66.2004 37.7 66.1004 31.7L65.9004 19.5C65.9004 16.6 64.7004 13.9 62.6004 11.8C60.5004 9.8 57.8004 8.7 55.0004 8.7H54.9004Z" fill="black"/>
<path d="M53.7 36.6C51.8 36.6 50.2 35.2 50 33.3C50 33.1 50.1 32.9 50.3 32.9C50.5 32.9 50.7 33 50.7 33.2C50.9 34.7 52.2 35.8 53.7 35.8C55.2 35.8 56.5 34.6 56.6 33.1C56.6 32.9 56.8 32.7 57 32.8C57.2 32.8 57.4 33 57.3 33.2C57.1 35.1 55.5 36.5 53.6 36.6H53.7Z" fill="black"/>
<path d="M46.1 25.6C46.1 26.4 45.4 27.1 44.5 27.1C43.7 27.1 43 26.4 43 25.5C43 24.7 43.7 24 44.6 24C45.4 24 46.1 24.7 46.1 25.6Z" fill="black"/>
<path d="M62.1996 25.3C62.1996 26.1 61.4996 26.8 60.5996 26.8C59.7996 26.8 59.0996 26.1 59.0996 25.2C59.0996 24.4 59.7996 23.7 60.6996 23.7C61.4996 23.7 62.1996 24.4 62.1996 25.3Z" fill="black"/>
<path d="M62.8996 23.1C62.7996 23.1 62.6996 23.1 62.5996 23.1C61.1996 22.1 59.1996 22.5 59.1996 22.6C58.8996 22.6 58.6996 22.5 58.5996 22.2C58.5996 21.9 58.5996 21.7 58.9996 21.6C58.9996 21.6 61.3996 21 63.1996 22.3C63.3996 22.5 63.4996 22.8 63.2996 23C63.2996 23.1 62.9996 23.2 62.8996 23.2V23.1Z" fill="black"/>
<path d="M42.1991 23.5C41.9991 23.5 41.8991 23.5 41.7991 23.3C41.5991 23.1 41.6991 22.8 41.7991 22.6C43.5991 21.3 45.8991 21.7 45.9991 21.7C46.2991 21.7 46.4991 22 46.3991 22.3C46.3991 22.6 46.0991 22.8 45.7991 22.7C45.7991 22.7 43.7991 22.3 42.3991 23.4C42.3991 23.4 42.1991 23.5 42.0991 23.5H42.1991Z" fill="black"/>
<path d="M51.6999 29.5C51.5999 29.5 51.4999 29.5 51.3999 29.4C51.3999 29.4 51.2999 29.2 51.3999 29.1L52.5999 23.1C52.5999 22.9 52.7999 22.8 52.9999 22.8C53.1999 22.8 53.2999 23 53.2999 23.2L52.1999 28.8H54.4999C54.6999 28.8 54.8999 28.9 54.8999 29.1C54.8999 29.3 54.6999 29.5 54.4999 29.5H51.6999Z" fill="black"/>
<path d="M66.3001 29.2C64.7001 26.1 63.8001 18.5 63.8001 18.5C63.8001 18.5 60.4001 19.1 57.8001 18.9C55.3001 18.7 53.2001 18.2 48.6001 18.9C44.0001 19.6 41.5001 18.9 41.5001 18.9C41.5001 18.9 40.9001 25.2 39.9001 29.2C39.9001 29.2 39.5001 26 38.4001 23.9C37.3001 21.8 36.6001 7.60002 45.9001 5.10002C55.2001 2.60002 62.7001 4.00002 65.2001 8.50002C67.7001 13 68.2001 17.5 68.0001 19.8C67.8001 22.1 66.7001 24.1 66.7001 24.1L66.1001 29.3L66.3001 29.2Z" fill="white"/>
<path d="M66.3008 29.5C66.2008 29.5 66.0008 29.5 66.0008 29.3C64.6008 26.6 63.7008 20.5 63.6008 18.9C62.6008 19 60.0008 19.4 58.0008 19.2C57.5008 19.2 57.1008 19.2 56.6008 19.1C54.6008 18.9 52.6008 18.7 48.9008 19.2C45.3008 19.8 43.0008 19.5 42.1008 19.2C41.9008 20.7 41.4008 25.8 40.5008 29.1C40.5008 29.3 40.3008 29.4 40.1008 29.4C39.9008 29.4 39.8008 29.3 39.7008 29.1C39.4008 27.7 38.9008 25.5 38.8008 25.2C38.8008 25 38.8008 24.8 39.0008 24.7C39.2008 24.7 39.4008 24.7 39.5008 24.9C39.5008 25.2 39.9008 26.3 40.1008 27.3C40.9008 23.5 41.3008 18.7 41.3008 18.7C41.3008 18.6 41.3008 18.5 41.5008 18.4C41.5008 18.4 41.7008 18.4 41.8008 18.4C41.8008 18.4 44.3008 19.1 48.7008 18.4C52.5008 17.8 54.6008 18 56.6008 18.3C57.1008 18.3 57.5008 18.4 58.0008 18.4C60.4008 18.6 63.8008 18 63.9008 18C64.0008 18 64.1008 18 64.2008 18C64.2008 18 64.3008 18.2 64.3008 18.3C64.3008 18.3 65.0008 24.3 66.2008 27.7C66.4008 26.5 66.8008 24.6 67.2008 23C67.2008 22.8 67.4008 22.7 67.7008 22.7C67.9008 22.7 68.0008 23 68.0008 23.2C67.4008 25.7 66.8008 29 66.8008 29C66.8008 29.2 66.6008 29.3 66.5008 29.3L66.3008 29.5Z" fill="black"/>
<path d="M44.4008 18.2C44.2008 18.2 44.0008 18 44.1008 17.8C44.4008 15.7 44.9008 13.7 45.7008 11.7C45.7008 11.5 46.0008 11.4 46.2008 11.5C46.4008 11.5 46.5008 11.8 46.4008 12C45.6008 13.9 45.1008 15.9 44.8008 17.9C44.8008 18.1 44.6008 18.2 44.4008 18.2Z" fill="black"/>
<path d="M51.0992 16.6C50.8992 16.6 50.6992 16.4 50.6992 16.2C50.6992 15.3 50.6992 14.5 50.6992 13.6C50.6992 13.4 50.8992 13.2 51.0992 13.2C51.2992 13.2 51.4992 13.4 51.4992 13.6C51.4992 14.4 51.4992 15.3 51.4992 16.1C51.4992 16.3 51.3992 16.5 51.0992 16.5V16.6Z" fill="black"/>
<path d="M57.3996 17.3C57.1996 17.3 56.9996 17.1 56.9996 16.9C56.9996 14.9 56.8996 12.9 56.5996 10.9C56.5996 10.7 56.6996 10.5 56.8996 10.5C57.0996 10.5 57.2996 10.6 57.2996 10.8C57.5996 12.8 57.7996 14.9 57.6996 16.9C57.6996 17.1 57.4996 17.3 57.2996 17.3H57.3996Z" fill="black"/>
<path d="M61.1 17.3C60.9 17.3 60.7 17.1 60.7 16.9C60.7 15.5 60.4 14.2 60 12.8C60 12.6 60 12.4 60.3 12.3C60.5 12.3 60.7 12.3 60.8 12.6C61.2 14 61.4 15.4 61.5 16.8C61.5 17 61.4 17.2 61.1 17.2V17.3Z" fill="black"/>
</svg>
