<svg width="18" height="16" viewBox="0 0 18 16" fill="none" xmlns="http://www.w3.org/2000/svg">
<path d="M17.1886 8C17.1886 3.58172 13.3913 0 8.70711 0C4.02289 0 0.225586 3.58172 0.225586 8C0.225586 10.9913 1.96622 13.5992 4.54424 14.9716C5.93985 15.7146 7.38187 14.483 7.38187 12.9019V11.3893C7.38187 10.7946 6.89979 10.3125 6.30512 10.3125C5.71044 10.3125 5.22836 9.83042 5.22836 9.23575V9.07676C5.22836 8.48208 5.71044 8 6.30512 8C6.89979 8 7.38187 7.51793 7.38187 6.92325V6.23751C7.38187 4.2325 8.6481 3.125 10.5855 3.125C10.9301 3.125 11.2806 3.14655 11.585 3.17364C12.1049 3.2199 12.484 3.66499 12.484 4.1869C12.484 4.77404 12.0017 5.25 11.4145 5.25C10.3609 5.25 10.0324 5.86668 10.0324 6.49934V6.91886C10.0324 7.51596 10.5164 8 11.1135 8C11.7798 8 12.2876 8.59696 12.1806 9.25467L12.1544 9.41596C12.0703 9.93282 11.6239 10.3125 11.1003 10.3125C10.5105 10.3125 10.0323 10.7906 10.0323 11.3805V12.9019C10.0323 14.483 11.4744 15.7146 12.87 14.9716C15.448 13.5992 17.1886 10.9913 17.1886 8Z" fill="#1877F2"/>
</svg>
