<svg width="106" height="105" viewBox="0 0 106 105" fill="none" xmlns="http://www.w3.org/2000/svg">
<path d="M104.7 104.6C99.0004 74.8 77.8004 52.6 52.6004 52.6C27.4004 52.6 6.10039 74.8 0.400391 104.6H104.7Z" fill="#5A87FE"/>
<path d="M86.1016 105H19.0016C18.8016 105 18.6016 104.8 18.6016 104.6V86.3C18.6016 86.1 18.8016 85.9 19.0016 85.9C19.2016 85.9 19.4016 86.1 19.4016 86.3V104.2H85.7016V86.3C85.7016 86.1 85.9016 85.9 86.1016 85.9C86.3016 85.9 86.5016 86.1 86.5016 86.3V104.6C86.5016 104.8 86.3016 105 86.1016 105Z" fill="black"/>
<path d="M104.7 105H0.4C0.2 105 0 104.8 0 104.6C0 104.4 0.2 104.2 0.4 104.2H104.7C104.9 104.2 105.1 104.4 105.1 104.6C105.1 104.8 104.9 105 104.7 105Z" fill="black"/>
<path d="M25.4012 70.9C27.0012 72.6 28.5012 74.5 29.9012 76.3C30.1012 76.6 30.7012 76.3 30.4012 76C28.9012 74.1 27.4012 72.2 25.8012 70.5C25.5012 70.2 25.1012 70.6 25.4012 70.9Z" fill="white"/>
<path d="M37.0014 63.6C38.1014 62.4 39.3014 61.3 40.4014 60.1C40.7014 59.8 40.2014 59.4 40.0014 59.7C38.9014 60.9 37.7014 62 36.6014 63.2C36.3014 63.5 36.8014 63.9 37.0014 63.6Z" fill="white"/>
<path d="M44.5004 71.5C45.7004 73 46.7004 74.6 47.7004 76.2C47.9004 76.5 48.5004 76.2 48.2004 75.9C47.2004 74.3 46.1004 72.7 45.0004 71.2C44.9004 71.1 44.7004 71 44.6004 71.1C44.5004 71.1 44.4004 71.4 44.5004 71.5Z" fill="white"/>
<path d="M55.0014 65.6C55.8014 64.2 56.6014 62.8 57.5014 61.3C57.7014 60.9 57.2014 60.6 57.0014 61C56.2014 62.4 55.4014 63.8 54.5014 65.3C54.3014 65.7 54.8014 66 55.0014 65.6Z" fill="white"/>
<path d="M67.7 59.5C68.9 60.6 70 61.7 71 63C71.1 63.1 71.3 63.1 71.4 63C71.5 62.9 71.5 62.7 71.4 62.6C70.4 61.4 69.3 60.2 68.1 59.1C67.8 58.8 67.4 59.3 67.7 59.5Z" fill="white"/>
<path d="M64.6008 68.3C64.5008 70 64.4008 71.7 64.3008 73.4C64.3008 73.8 64.9008 73.8 64.9008 73.4C65.0008 71.7 65.1008 70 65.2008 68.3C65.2008 67.9 64.6008 67.9 64.6008 68.3Z" fill="white"/>
<path d="M56.3999 80.4C57.1999 82.3 57.9999 84.1 58.6999 86C58.7999 86.4 59.4999 86.2 59.2999 85.8C58.4999 83.9 57.7999 81.9 56.8999 80C56.6999 79.6 56.1999 80 56.3999 80.3V80.4Z" fill="white"/>
<path d="M37.0015 88.2999C37.8015 86.5999 38.6015 84.8999 39.4015 83.1999C39.6015 82.7999 39.0015 82.4999 38.9015 82.8999C38.1015 84.5999 37.3015 86.2999 36.5015 87.9999C36.3015 88.3999 36.9015 88.6999 37.0015 88.2999Z" fill="white"/>
<path d="M23.0008 93C24.3008 94.2 25.6008 95.4 26.8008 96.6C27.1008 96.9 27.5008 96.4 27.2008 96.2C25.9008 95 24.6008 93.8 23.4008 92.6C23.1008 92.3 22.7008 92.8 23.0008 93Z" fill="white"/>
<path d="M48.8002 94C49.4002 95.2 50.0002 96.5 50.7002 97.7C50.9002 98.1 51.4002 97.7 51.2002 97.4C50.6002 96.2 50.0002 94.9 49.3002 93.7C49.1002 93.3 48.6002 93.7 48.8002 94Z" fill="white"/>
<path d="M71.8002 91.3C73.2002 89.1 74.6002 87 76.0002 84.8C76.2002 84.5 75.7002 84.1 75.5002 84.5C74.1002 86.7 72.7002 88.8 71.3002 91C71.1002 91.3 71.6002 91.7 71.8002 91.3Z" fill="white"/>
<path d="M65.3016 98.2L67.6016 100.9C67.7016 101 67.9016 101 68.0016 100.9C68.1016 100.8 68.1016 100.6 68.0016 100.5L65.7016 97.8C65.6016 97.7 65.4016 97.7 65.3016 97.8C65.2016 97.9 65.2016 98.1 65.3016 98.2Z" fill="white"/>
<path d="M75.6998 73.5C77.5998 74.1 79.3998 74.8 81.2998 75.4C81.6998 75.5 81.7998 74.9 81.4998 74.8C79.5998 74.2 77.7998 73.5 75.8998 72.9C75.4998 72.8 75.3998 73.4 75.6998 73.5Z" fill="white"/>
<path d="M79.2016 96.5C80.3016 97.3 81.5016 98.1 82.6016 99C82.7016 99.1 83.0016 99 83.0016 98.9C83.0016 98.7 83.0016 98.6 82.9016 98.5C81.8016 97.7 80.6016 96.9 79.5016 96C79.4016 95.9 79.1016 96 79.1016 96.1C79.1016 96.3 79.1016 96.4 79.2016 96.5Z" fill="white"/>
<path d="M35.1 101.4C36.1 100.1 36.9 98.7999 37.8 97.3999C38 97.0999 37.5 96.6999 37.3 97.0999C36.4 98.4999 35.5 99.7999 34.6 101.1C34.5 101.2 34.6 101.5 34.7 101.5C34.9 101.5 35 101.5 35.1 101.4Z" fill="white"/>
<path d="M6.90078 98.9C8.00078 97.5 9.20078 96.1 10.3008 94.6C10.4008 94.5 10.4008 94.3 10.3008 94.2C10.2008 94.1 10.0008 94.1 9.90078 94.2C8.80078 95.6 7.60078 97 6.50078 98.5C6.40078 98.6 6.40078 98.8 6.50078 98.9C6.60078 99 6.80078 99 6.90078 98.9Z" fill="white"/>
<path d="M13.2007 79.7C13.8007 81.4 14.3007 83.2 14.9007 84.9C15.0007 85.3 15.6007 85.1 15.5007 84.7C14.9007 83 14.4007 81.2 13.8007 79.5C13.7007 79.1 13.1007 79.3 13.2007 79.7Z" fill="white"/>
<path d="M93.3002 99.9C94.5002 98.2 95.7002 96.5 96.9002 94.8C97.1002 94.5 96.6002 94.1 96.4002 94.5C95.2002 96.2 94.0002 97.9 92.8002 99.6C92.6002 99.9 93.1002 100.3 93.3002 99.9Z" fill="white"/>
<path d="M90.9004 81.5V87C90.9004 87.4 91.5004 87.4 91.5004 87V81.5C91.5004 81.1 90.9004 81.1 90.9004 81.5Z" fill="white"/>
<path d="M68.5008 19.7C68.5008 18.6 68.1008 17.6 67.4008 16.9C67.8008 16.2 68.0008 15.4 68.0008 14.6C68.0008 13.1 67.3008 11.7 66.1008 10.9C66.2008 10.5 66.3008 10 66.3008 9.5C66.3008 6.9 64.2008 4.8 61.7008 4.8C59.2008 4.8 60.6008 4.9 60.1008 5.1C59.6008 3.1 57.8008 1.6 55.6008 1.6C53.4008 1.6 53.6008 2 52.8008 2.5C52.0008 1 50.5008 0 48.7008 0C46.9008 0 45.8008 0.8 45.0008 1.9C43.6008 0.9 41.5008 0.8 39.8008 1.9C38.2008 2.9 37.3008 4.7 37.5008 6.4C35.9008 6.4 34.4008 7.5 33.6008 9.1C32.9008 10.7 33.1008 12.5 34.1008 13.8C32.7008 14.6 31.8008 16.1 31.8008 17.8C31.8008 19.5 32.5008 20.6 33.6008 21.4C32.7008 22 32.2008 23.1 32.2008 24.2C32.2008 26.1 33.8008 27.7 35.7008 27.7C37.6008 27.7 39.2008 26.1 39.2008 24.2C39.2008 22.3 38.9008 22.6 38.4008 22C40.0008 21.3 41.2008 19.6 41.2008 17.7C41.2008 15.8 40.7008 15.2 39.8008 14.4C40.4008 13.9 41.0008 13.3 41.3008 12.5C41.7008 11.6 41.8008 10.6 41.7008 9.8C42.6008 9.8 43.5008 9.5 44.3008 9C44.8008 8.7 45.2008 8.3 45.5008 8C46.3008 8.9 47.5008 9.4 48.8008 9.4C50.1008 9.4 50.8008 9 51.6008 8.5C52.4008 10 53.9008 11 55.7008 11C57.5008 11 56.8008 10.9 57.3008 10.7C57.6008 11.7 58.2008 12.6 59.0008 13.2C58.9008 13.6 58.8008 14.1 58.8008 14.6C58.8008 16 59.4008 17.2 60.4008 18.1C60.2008 18.6 60.1008 19.1 60.1008 19.7C60.1008 20.5 60.3008 21.2 60.7008 21.9C59.9008 22.7 59.4008 23.7 59.4008 24.9C59.4008 27.2 61.2008 29 63.5008 29C65.8008 29 67.6008 27.1 67.6008 24.9C67.6008 22.7 67.4008 23.5 67.1008 22.9C68.0008 22.1 68.5008 21 68.5008 19.7Z" fill="black"/>
<path d="M31.2007 20C31.0007 20 30.9007 19.9 30.8007 19.7C30.0007 14.5 34.1007 13.5 34.2007 13.5C34.4007 13.5 34.6007 13.5 34.6007 13.8C34.6007 14 34.6007 14.2 34.3007 14.2C34.2007 14.2 30.8007 15 31.5007 19.5C31.5007 19.7 31.4007 19.9 31.2007 19.9V20Z" fill="black"/>
<path d="M52.7013 52.4H49.6013C46.8013 52.5 44.4013 50.3 44.4013 47.5V42.3C44.2013 39.5 46.4013 37.1 49.3013 37.1H52.4013C55.2013 37 57.6013 39.2 57.6013 42V47.2C57.8013 50 55.6013 52.4 52.7013 52.4Z" fill="white"/>
<path d="M49.4003 52.8C48.0003 52.8 46.6003 52.3 45.6003 51.3C44.5003 50.3 43.9003 48.9 43.9003 47.4V42.2C43.7003 39.2 46.1003 36.6 49.1003 36.6H52.2003C53.6003 36.5 55.1003 37 56.1003 38C57.2003 39 57.8003 40.4 57.8003 41.9V47.1C58.0003 50.1 55.6003 52.7 52.6003 52.7H49.5003C49.5003 52.7 49.5003 52.7 49.4003 52.7V52.8ZM52.5003 37.3C52.5003 37.3 52.5003 37.3 52.4003 37.3H49.3003C46.7003 37.4 44.6003 39.6 44.7003 42.2V47.4C44.8003 48.7 45.4003 49.8 46.3003 50.7C47.2003 51.6 48.4003 52 49.7003 52H52.8003C55.4003 51.9 57.5003 49.7 57.4003 47.1V41.9C57.3003 40.6 56.7003 39.5 55.8003 38.6C54.9003 37.7 53.8003 37.3 52.5003 37.3Z" fill="black"/>
<path d="M30.4004 30.8C30.4004 33.1 32.2004 34.9 34.5004 34.9C36.8004 34.9 38.6004 33.1 38.6004 30.9C38.6004 28.6 36.8004 26.8 34.5004 26.8C32.2004 26.8 30.4004 28.6 30.4004 30.8Z" fill="white"/>
<path d="M34.5013 35.3C32.0013 35.3 30.0012 33.3 30.1012 30.8C30.1012 28.4 32.1012 26.4 34.6012 26.4C37.1012 26.4 39.1013 28.4 39.0013 30.9C39.0013 32.1 38.5013 33.2 37.7013 34C36.9013 34.8 35.7012 35.3 34.6012 35.3H34.5013ZM30.7012 30.8C30.7012 32.8 32.3012 34.5 34.4012 34.5C35.4012 34.5 36.3013 34.1 37.0013 33.4C37.7013 32.7 38.1012 31.8 38.1012 30.8C38.1012 28.8 36.5012 27.1 34.4012 27.1C32.4012 27.1 30.7012 28.7 30.7012 30.8Z" fill="black"/>
<path d="M36.7016 31.1C36.6016 31.1 36.4016 31 36.4016 30.8C36.4016 30.3 36.2016 29.8 35.8016 29.4C35.4016 29 34.9016 28.8 34.4016 28.8C34.3016 28.8 34.1016 28.7 34.1016 28.5C34.1016 28.4 34.2016 28.2 34.4016 28.2C35.1016 28.2 35.7016 28.5 36.2016 28.9C36.7016 29.4 36.9016 30 36.9016 30.7C36.9016 30.8 36.8016 31 36.6016 31L36.7016 31.1Z" fill="black"/>
<path d="M70.6007 29.9C70.7007 32.2 69.0007 34.1 66.7007 34.2C64.4007 34.3 62.5007 32.6 62.4007 30.3C62.3007 28 64.0007 26.1 66.3007 26C68.6007 25.9 70.5007 27.6 70.6007 29.9Z" fill="white"/>
<path d="M66.4999 34.5C65.3999 34.5 64.2999 34.1 63.4999 33.4C62.5999 32.6 62.0999 31.5 61.9999 30.3C61.8999 27.8 63.7999 25.7 66.1999 25.6C68.5999 25.5 70.7999 27.4 70.8999 29.8C70.9999 32.3 69.0999 34.4 66.6999 34.5H66.4999ZM66.4999 26.4C66.4999 26.4 66.3999 26.4 66.2999 26.4C64.2999 26.5 62.6999 28.3 62.7999 30.3C62.7999 31.3 63.2999 32.2 63.9999 32.9C64.6999 33.6 65.6999 33.9 66.6999 33.8C68.6999 33.7 70.2999 31.9 70.1999 29.9C70.0999 27.9 68.4999 26.4 66.4999 26.4Z" fill="black"/>
<path d="M64.2004 30.5C64.1004 30.5 64.0004 30.4 63.9004 30.3C63.9004 29.6 64.1004 29 64.5004 28.5C64.9004 28 65.6004 27.7 66.2004 27.7C66.3004 27.7 66.5004 27.7 66.5004 27.9C66.5004 28 66.5004 28.2 66.3004 28.2C65.8004 28.2 65.3004 28.5 64.9004 28.9C64.5004 29.3 64.4004 29.8 64.4004 30.3C64.4004 30.4 64.4004 30.6 64.2004 30.6V30.5Z" fill="black"/>
<path d="M63.4008 31.6C63.4008 37.7 58.5008 42.8 52.4008 42.9H48.8008C42.7008 43 37.6008 38.1 37.5008 31.9L37.3008 19.8C37.3008 13.7 42.2008 8.59998 48.3008 8.49998H51.9008C58.0008 8.39998 63.1008 13.3 63.2008 19.5L63.4008 31.6Z" fill="white"/>
<path d="M48.7 43.3C45.7 43.3 42.9 42.1 40.7 40C38.5 37.8 37.3 35 37.2 31.9L37 19.8C37 13.4 42 8.19998 48.3 8.09998H51.9C55 8.09998 57.9 9.19998 60.1 11.3C62.3 13.5 63.5 16.3 63.6 19.4L63.8 31.5C63.8 37.9 58.8 43.1 52.5 43.2H48.9C48.9 43.2 48.8 43.2 48.7 43.2V43.3ZM52.1 8.79998C52.1 8.79998 52.1 8.79998 52 8.79998H48.4C42.5 8.89998 37.7 13.8 37.8 19.8L38 31.9C38 34.8 39.2 37.5 41.3 39.5C43.4 41.5 46 42.6 48.9 42.6H52.5C58.4 42.5 63.2 37.6 63.1 31.6L62.9 19.5C62.9 16.6 61.7 13.9 59.6 11.9C57.6 9.89998 54.9 8.79998 52.1 8.79998Z" fill="black"/>
<path d="M61.1 31.9C59.9 34.1 55.2 31.4 51 31C50.7 31 50.4 31 50 31C45.8 31.4 41 34.1 39.9 31.9C38.6 29.6 38.8 22.5 38.8 22.5H37.5V31.9C37.7 38 42.8 43 48.9 42.9H52.5C58.6 42.8 63.6 37.7 63.5 31.5V22.4C63.4 22.4 62.5 21 62.5 21C62.5 21 62.5 29.5 61.2 31.8L61.1 31.9Z" fill="black"/>
<path d="M48.7009 43.3C45.7009 43.3 42.9009 42.1 40.7009 40C38.5009 37.8 37.3009 35 37.2009 31.9V22.1C37.1009 22.1 39.1009 22.1 39.1009 22.1V22.5C39.1009 22.5 38.9009 29.5 40.1009 31.7C40.7009 32.8 42.8009 32.2 45.2009 31.6C46.7009 31.2 48.3009 30.7 49.9009 30.6C50.3009 30.6 50.6009 30.6 50.9009 30.6C52.4009 30.8 53.9009 31.2 55.3009 31.6C57.8009 32.3 60.0009 32.9 60.6009 31.7C61.7009 29.2 61.8009 21.1 61.8009 21.1V19.8L63.4009 22.4V31.6C63.6009 38 58.5009 43.2 52.2009 43.3H48.6009C48.6009 43.3 48.5009 43.3 48.4009 43.3H48.7009ZM37.8009 22.9V31.9C38.0009 34.8 39.1009 37.5 41.2009 39.5C43.3009 41.5 46.0009 42.6 48.8009 42.6H52.4009C58.3009 42.5 63.1009 37.6 63.0009 31.6V22.7C62.9009 22.7 62.7009 22.5 62.7009 22.5C62.7009 25 62.4009 30.4 61.4009 32.2C60.4009 33.9 58.0009 33.2 55.3009 32.4C53.9009 32 52.4009 31.6 51.0009 31.4C50.7009 31.4 50.5009 31.4 50.1009 31.4C48.6009 31.5 47.0009 32 45.5009 32.4C42.8009 33.2 40.5009 33.8 39.6009 32.2C38.5009 30.1 38.4009 24.5 38.5009 23H38.0009L37.8009 22.9Z" fill="black"/>
<path d="M54.3012 33C54.1012 34.6 52.7012 36 51.0012 36C49.3012 36 47.9012 34.8 47.7012 33.1H54.3012V33Z" fill="white"/>
<path d="M51.0008 36.4C49.2008 36.4 47.6008 35 47.3008 33.2C47.3008 33.1 47.3008 33 47.3008 32.9C47.3008 32.9 47.5008 32.8 47.6008 32.8H54.2008C54.3008 32.7 54.4008 32.8 54.5008 32.8C54.5008 32.8 54.6008 33 54.5008 33.1C54.3008 35 52.7008 36.4 50.9008 36.4H51.0008ZM48.1008 33.5C48.5008 34.8 49.6008 35.6 50.9008 35.6C52.2008 35.6 53.4008 34.7 53.7008 33.4H48.0008L48.1008 33.5Z" fill="black"/>
<path d="M43.5 25.5C43.5 26.3 42.8 27 42 27C41.2 27 40.5 26.3 40.5 25.5C40.5 24.7 41.2 24 42 24C42.8 24 43.5 24.7 43.5 25.5Z" fill="black"/>
<path d="M59.4004 25.2C59.4004 26 58.7004 26.7 57.9004 26.7C57.1004 26.7 56.4004 26 56.4004 25.2C56.4004 24.4 57.1004 23.7 57.9004 23.7C58.7004 23.7 59.4004 24.4 59.4004 25.2Z" fill="black"/>
<path d="M60.0004 22.9H59.8004C58.3004 21.9 56.4004 22.3 56.4004 22.3C56.2004 22.3 56.0004 22.3 55.9004 22C55.9004 21.8 55.9004 21.6 56.2004 21.5C56.2004 21.5 58.5004 20.9 60.2004 22.2C60.4004 22.3 60.4004 22.6 60.2004 22.7C60.2004 22.8 60.0004 22.9 59.9004 22.9H60.0004Z" fill="black"/>
<path d="M39.6999 23.4C39.5999 23.4 39.4999 23.4 39.3999 23.3C39.2999 23.1 39.3999 22.9 39.3999 22.8C41.0999 21.5 43.2999 21.9 43.3999 21.9C43.5999 21.9 43.6999 22.1 43.6999 22.3C43.6999 22.5 43.4999 22.6 43.2999 22.6C43.2999 22.6 41.2999 22.2 39.8999 23.3C39.8999 23.3 39.7999 23.3 39.6999 23.3V23.4Z" fill="black"/>
<path d="M49.1003 29.4C49.0003 29.4 48.9003 29.4 48.8003 29.3C48.8003 29.3 48.7003 29.1 48.8003 29L50.0003 23C50.0003 22.8 50.2003 22.7 50.4003 22.7C50.6003 22.7 50.7003 22.9 50.7003 23.1L49.6003 28.6H51.8003C52.0003 28.6 52.2003 28.7 52.2003 28.9C52.2003 29.0999 52.0003 29.3 51.8003 29.3H49.1003V29.4Z" fill="black"/>
<path d="M36.6999 23.6C36.6999 23.6 41.1999 22.3 41.4999 18.5C41.4999 18.5 48.7999 19.6 51.6999 14.2C51.6999 14.2 53.4999 17.9 56.2999 17C56.2999 17 57.2999 19.6 60.2999 19.6C60.2999 19.6 61.0999 23 64.1999 22.6C67.2999 22.3 63.5999 9.6 59.7999 7.7C55.9999 5.8 46.8999 4 41.9999 7.7C37.0999 11.4 35.1999 17.7 36.6999 23.6Z" fill="black"/>
<path d="M60.9 56.3H42.3C40.2 56.3 38.5 54.6 38.5 52.4V49.1C38.5 47 40.2 45.2 42.3 45.2H60.9C63 45.2 64.7 46.9 64.7 49.1V52.4C64.7 54.5 63 56.3 60.9 56.3Z" fill="#5A87FE"/>
<path d="M47.2012 45.3H46.7012V56.3H47.2012V45.3Z" fill="white"/>
<path d="M51.6016 45.3H51.1016V56.3H51.6016V45.3Z" fill="white"/>
<path d="M41.2012 56.1C41.4012 56.1 41.5012 56.1 41.7012 56.2V45.3C41.5012 45.3 41.4012 45.3 41.2012 45.4V56.1Z" fill="white"/>
<path d="M56.5004 45.3H56.0004V56.3C55.9004 56.3 56.3004 56.3 56.3004 56.3V45.3H56.5004Z" fill="white"/>
<path d="M61.6016 45.3C61.4016 45.3 61.3016 45.3 61.1016 45.3V56.3C61.3016 56.3 61.4016 56.3 61.6016 56.3V45.4V45.3Z" fill="white"/>
<path d="M60.9016 56.7H42.3016C40.0016 56.7 38.1016 54.8 38.1016 52.5V49.2C38.1016 46.9 40.0016 45 42.3016 45H60.9016C63.2016 45 65.1016 46.9 65.1016 49.2V52.5C65.1016 54.8 63.2016 56.7 60.9016 56.7ZM42.4016 45.6C40.5016 45.6 38.9016 47.2 38.9016 49.1V52.4C38.9016 54.3 40.5016 55.9 42.4016 55.9H61.0016C62.9016 55.9 64.5016 54.3 64.5016 52.4V49.1C64.5016 47.2 62.9016 45.6 61.0016 45.6H42.4016Z" fill="black"/>
</svg>
