<svg width="106" height="103" viewBox="0 0 106 103" fill="none" xmlns="http://www.w3.org/2000/svg">
<path d="M85.7996 72.2C87.3996 72.2 87.3996 69.7 85.7996 69.7C84.1996 69.7 84.1996 72.2 85.7996 72.2Z" fill="white"/>
<path d="M66 55.8C71.3 55.8 75.5 51.5 75.5 46.3C75.5 41.1 71.2 36.8 66 36.8C60.8 36.8 56.5 41.1 56.5 46.3C56.5 51.5 60.8 55.8 66 55.8Z" fill="white"/>
<path d="M65.9996 56.2C60.4996 56.2 56.0996 51.8 56.0996 46.3C56.0996 40.8 60.4996 36.4 65.9996 36.4C71.4996 36.4 75.8996 40.8 75.8996 46.3C75.8996 51.8 71.4996 56.2 65.9996 56.2ZM65.9996 37.1C60.9996 37.1 56.8996 41.2 56.8996 46.2C56.8996 51.2 60.9996 55.3 65.9996 55.3C70.9996 55.3 75.0996 51.2 75.0996 46.2C75.0996 41.2 70.9996 37.1 65.9996 37.1Z" fill="black"/>
<path d="M68.7008 53.5C68.5008 53.5 68.4008 53.5 68.3008 53.3C68.3008 53.1 68.3008 52.9 68.5008 52.8C71.2008 51.7 72.9008 49.2 72.9008 46.3C72.9008 43.4 72.5008 43.4 71.6008 42.2C71.5008 42 71.6008 41.8 71.6008 41.7C71.8008 41.6 72.0008 41.7 72.1008 41.7C73.0008 43 73.5008 44.6 73.5008 46.2C73.5008 49.4 71.6008 52.3 68.6008 53.4C68.6008 53.4 68.6008 53.4 68.5008 53.4L68.7008 53.5Z" fill="black"/>
<path d="M70.0002 49.8H69.8002C69.6002 49.7 69.6002 49.4 69.8002 49.3C70.5002 48.5 70.8002 47.5 70.8002 46.4C70.8002 44.6 69.8002 43 68.2002 42.2C68.0002 42.2 67.9002 41.9 68.0002 41.7C68.0002 41.5 68.3002 41.4 68.5002 41.5C70.3002 42.4 71.5002 44.3 71.5002 46.4C71.5002 48.5 71.1002 48.8 70.3002 49.8C70.3002 49.8 70.1002 49.9 70.0002 49.9V49.8Z" fill="black"/>
<path d="M105.5 102.4C99.8004 72.5 78.4004 50.3 52.9004 50.3C27.4004 50.3 6.10039 72.5 0.400391 102.4H105.5Z" fill="#60D46B"/>
<path d="M86.7992 102.8H19.0992C18.8992 102.8 18.6992 102.6 18.6992 102.4V84.1C18.6992 83.9 18.8992 83.7 19.0992 83.7C19.2992 83.7 19.4992 83.9 19.4992 84.1V102H86.3992V84.1C86.3992 83.9 86.5992 83.7 86.7992 83.7C86.9992 83.7 87.1992 83.9 87.1992 84.1V102.4C87.1992 102.6 86.9992 102.8 86.7992 102.8Z" fill="black"/>
<path d="M105.5 102.8H0.4C0.2 102.8 0 102.6 0 102.4C0 102.2 0.2 102 0.4 102H105.5C105.7 102 105.9 102.2 105.9 102.4C105.9 102.6 105.7 102.8 105.5 102.8Z" fill="black"/>
<path d="M48.2996 63.3C49.8996 63.3 49.8996 60.8 48.2996 60.8C46.6996 60.8 46.6996 63.3 48.2996 63.3Z" fill="white"/>
<path d="M75.3992 63.4C76.9992 63.4 76.9992 60.9 75.3992 60.9C73.7992 60.9 73.7992 63.4 75.3992 63.4Z" fill="white"/>
<path d="M35.0008 73C36.6008 73 36.6008 70.5 35.0008 70.5C33.4008 70.5 33.4008 73 35.0008 73Z" fill="white"/>
<path d="M63.2996 73.6C64.8996 73.6 64.8996 71.1 63.2996 71.1C61.6996 71.1 61.6996 73.6 63.2996 73.6Z" fill="white"/>
<path d="M23.1996 63.2C24.4996 63.2 24.7996 61.6 23.9996 60.9C23.3996 61.4 22.6996 61.9 22.0996 62.5C22.2996 62.9 22.5996 63.2 23.1996 63.2Z" fill="white"/>
<path d="M17.5 67C17.6 67 17.8 67.2 17.9 67.3C20.5 68.9 23.5 68.8 26.3 67.7C29.3 66.6 31.9 65 35.2 65C36.8 65 38.3 65.3 39.7 65.9C41.1 66.5 42.3 67.4 43.6 68.3C45 69.2 46.6 69.7 48.3 69.7C50 69.7 51.6 69.1 53.1 68.5C56 67.2 58.6 65.1 62 65C63.6 65 65.2 65.2 66.7 65.9C68 66.5 69.2 67.3 70.4 68.1C73 69.7 75.9 70.5 78.8 69.3C80.4 68.6 81.9 67.6 83.3 66.7C84.3 66.1 85.3 65.5 86.4 65C85.8 64.4 85.1 63.8 84.4 63.2C83.5 63.7 82.6 64.2 81.7 64.8C79.4 66.3 76.9 68.1 74 67.2C72.7 66.8 71.5 66 70.3 65.2C69 64.4 67.7 63.7 66.3 63.2C63.1 62.2 59.8 62.5 56.8 63.9C54 65.1 51.3 67.3 48.2 67.4C46.6 67.4 45.3 66.6 44 65.8C42.7 64.9 41.4 64.2 40 63.6C37.1 62.5 33.8 62.5 30.8 63.4C27.8 64.3 24.7 66.8 21.5 66.3C20.7 66.2 20 65.9 19.3 65.5C18.7 66.1 18.1 66.7 17.5 67.4V67Z" fill="white"/>
<path d="M49.3011 43.5C49.3011 43.5 40.8011 42.4 37.0011 35.5C33.2011 28.7 30.3011 23.4 30.9011 13.8C31.4011 6.1 43.4011 -2.2 55.9011 2.9C55.9011 2.9 62.9011 0.499998 68.1011 3.9C76.5011 9.4 73.7011 27.3 66.8011 36.4C59.9011 45.5 49.2011 43.5 49.2011 43.5H49.3011Z" fill="white"/>
<path d="M51.8004 44C50.3004 44 49.3004 43.8 49.2004 43.8C48.5004 43.8 40.4004 42.4 36.6004 35.7C32.8004 28.9 29.8004 23.5 30.5004 13.8C30.7004 10.3 33.3004 6.5 37.3004 4C42.8004 0.5 49.6004 0 55.9004 2.5C56.9004 2.2 63.3004 0.3 68.3004 3.6C70.9004 5.3 72.7004 8.3 73.4004 12.3C74.7004 19.9 72.1004 30.1 67.2004 36.6C62.3004 43.1 55.5004 44 51.8004 44ZM49.4004 43.1C50.0004 43.2 60.1004 44.7 66.6004 36.1C71.3004 29.9 73.9004 19.7 72.7004 12.4C72.1004 8.6 70.4004 5.8 68.0004 4.2C63.0004 0.9 56.2004 3.2 56.1004 3.2C56.1004 3.2 55.9004 3.2 55.8004 3.2C49.7004 0.7 43.1004 1.3 37.8004 4.6C34.0004 7 31.5004 10.5 31.3004 13.8C30.7004 23.2 33.6004 28.5 37.3004 35.2C41.0004 41.8 49.3004 43 49.4004 43V43.1Z" fill="black"/>
<path d="M54.3988 51.9H51.1988C48.3988 52 45.9988 49.8 45.8988 47V41.7C45.6988 38.9 47.9988 36.5 50.7988 36.4H53.9988C56.7988 36.3 59.1988 38.5 59.2988 41.3V46.6C59.4988 49.4 57.1988 51.8 54.3988 51.9Z" fill="white"/>
<path d="M51.0995 52.4C49.6995 52.4 48.2995 51.9 47.2995 50.9C46.1995 49.9 45.5995 48.5 45.5995 47V41.7C45.3995 38.7 47.7995 36.1 50.8995 36H54.0995C55.5995 35.9 56.9995 36.4 57.9995 37.5C59.0995 38.5 59.6995 39.9 59.6995 41.4V46.7C59.8995 49.7 57.4995 52.3 54.3995 52.4H51.1995C51.1995 52.4 51.1995 52.4 51.0995 52.4ZM54.0995 36.8C54.0995 36.8 54.0995 36.8 53.9995 36.8H50.7995C48.1995 36.9 46.0995 39.1 46.0995 41.8V47.1C46.1995 48.4 46.7995 49.6 47.6995 50.4C48.5995 51.3 49.7995 51.8 51.0995 51.7H54.2995C56.8995 51.6 58.9995 49.4 58.9995 46.7V41.4C58.8995 40.1 58.2995 38.9 57.3995 38.1C56.4995 37.2 55.2995 36.8 54.0995 36.8Z" fill="black"/>
<path d="M31.9004 30.3C31.9004 32.6 33.7004 34.4 36.0004 34.4C38.3004 34.4 40.1004 32.6 40.2004 30.3C40.2004 28 38.4004 26.2 36.1004 26.2C33.8004 26.2 32.0004 28 31.9004 30.3Z" fill="white"/>
<path d="M36 34.8C34.8 34.8 33.7 34.3 32.8 33.5C32 32.6 31.5 31.5 31.5 30.3C31.5 27.8 33.5 25.9 36 25.9C38.5 25.9 40.5 27.9 40.5 30.4C40.5 31.6 40 32.7 39.2 33.6C38.4 34.4 37.2 34.9 36 34.9V34.8ZM32.2 30.3C32.2 31.3 32.6 32.2 33.3 32.9C34 33.6 34.9 34 35.9 34C36.9 34 37.8 33.6 38.6 32.9C39.3 32.2 39.7 31.3 39.7 30.3C39.7 28.3 38 26.6 36 26.6C34 26.6 32.2 28.2 32.2 30.3Z" fill="black"/>
<path d="M38.2992 30.6C38.1992 30.6 37.9992 30.5 37.9992 30.3C37.9992 29.2 37.0992 28.3 35.9992 28.3C35.8992 28.3 35.6992 28.2 35.6992 28C35.6992 27.9 35.7992 27.7 35.9992 27.7C37.3992 27.7 38.4992 28.8 38.4992 30.2C38.4992 30.3 38.3992 30.5 38.1992 30.5L38.2992 30.6Z" fill="black"/>
<path d="M72.4015 29.3C72.5015 31.6 70.8015 33.5 68.5015 33.6C66.2015 33.7 64.3015 32 64.2015 29.7C64.1015 27.4 65.8015 25.5 68.1015 25.4C70.4015 25.3 72.3015 27 72.4015 29.3Z" fill="white"/>
<path d="M68.3008 34C65.9008 34 63.9008 32.1 63.8008 29.8C63.8008 28.6 64.1008 27.5 64.9008 26.6C65.7008 25.7 66.8008 25.2 68.0008 25.1C70.5008 25 72.6008 26.9 72.7008 29.3C72.7008 30.5 72.4008 31.6 71.6008 32.5C70.8008 33.4 69.7008 33.9 68.5008 34H68.3008ZM68.3008 25.8C68.3008 25.8 68.2008 25.8 68.1008 25.8C67.1008 25.8 66.2008 26.3 65.5008 27C64.8008 27.7 64.5008 28.7 64.5008 29.7C64.6008 31.7 66.3008 33.3 68.4008 33.2C69.4008 33.2 70.3008 32.7 71.0008 32C71.7008 31.3 72.0008 30.3 72.0008 29.3C71.9008 27.3 70.2008 25.8 68.3008 25.8Z" fill="black"/>
<path d="M65.9992 29.9C65.8992 29.9 65.7992 29.8 65.6992 29.7C65.6992 29 65.8992 28.4 66.2992 27.9C66.7992 27.4 67.3992 27.1 68.0992 27.1C68.1992 27.1 68.3992 27.1 68.3992 27.3C68.3992 27.4 68.2992 27.6 68.1992 27.6C67.6992 27.6 67.1992 27.9 66.7992 28.3C66.3992 28.7 66.2992 29.2 66.2992 29.8C66.2992 29.9 66.2992 30.1 66.0992 30.1L65.9992 29.9Z" fill="black"/>
<path d="M65.2004 31C65.2004 37.2 60.3004 42.3 54.1004 42.4H50.5004C44.3004 42.5 39.2004 37.6 39.1004 31.4L38.9004 19.3C38.9004 13.1 43.8004 8 50.0004 7.9H53.6004C59.8004 7.8 64.9004 12.7 65.0004 18.9L65.2004 31Z" fill="white"/>
<path d="M50.3 42.8C47.3 42.8 44.4 41.6 42.2 39.5C40 37.3 38.7 34.4 38.7 31.4L38.5 19.3C38.5 12.9 43.5 7.59998 49.9 7.49998H53.5C59.9 7.39998 65.2 12.5 65.2 18.9L65.4 31C65.4 37.4 60.4 42.7 54 42.8H50.4C50.4 42.8 50.3 42.8 50.2 42.8H50.3ZM53.8 8.19998C53.8 8.19998 53.8 8.19998 53.7 8.19998H50.1C44.1 8.29998 39.3 13.3 39.4 19.2L39.6 31.3C39.6 34.2 40.8 36.9 42.9 38.9C45 40.9 47.7 42 50.6 42H54.2C60.2 41.9 65 36.9 64.9 31L64.7 18.9C64.7 13 59.8 8.19998 53.9 8.19998H53.8Z" fill="black"/>
<path d="M52.6004 35.9C50.7004 35.9 49.2004 34.5 48.9004 32.7C48.9004 32.5 49.0004 32.3 49.2004 32.3C49.4004 32.3 49.6004 32.4 49.6004 32.6C49.8004 34.1 51.1004 35.2 52.5004 35.2C54.0004 35.2 55.2004 34 55.4004 32.5C55.4004 32.3 55.6004 32.1 55.8004 32.2C56.0004 32.2 56.2004 32.4 56.1004 32.6C55.9004 34.5 54.3004 35.9 52.4004 35.9H52.6004Z" fill="black"/>
<path d="M45.0996 25C45.0996 25.8 44.3996 26.5 43.5996 26.5C42.7996 26.5 42.0996 25.8 42.0996 25C42.0996 24.2 42.7996 23.5 43.5996 23.5C44.3996 23.5 45.0996 24.2 45.0996 25Z" fill="black"/>
<path d="M61.0996 24.6C61.0996 25.4 60.3996 26.1 59.5996 26.1C58.7996 26.1 58.0996 25.4 58.0996 24.6C58.0996 23.8 58.7996 23.1 59.5996 23.1C60.3996 23.1 61.0996 23.8 61.0996 24.6Z" fill="black"/>
<path d="M61.7988 22.6C61.6988 22.6 61.4988 22.6 61.3988 22.5C59.9988 21.5 58.1988 22 58.0988 22C57.7988 22 57.3988 21.9 57.2988 21.5C57.2988 21.2 57.3988 20.8 57.7988 20.7C57.8988 20.7 60.1988 20.1 62.0988 21.4C62.3988 21.6 62.4988 22 62.2988 22.3C62.1988 22.5 61.9988 22.6 61.7988 22.6Z" fill="white"/>
<path d="M61.7992 22.9C61.5992 22.9 61.3992 22.9 61.1992 22.7C59.9992 21.9 58.2992 22.2 58.2992 22.2C57.6992 22.3 57.1992 22 57.0992 21.5C56.9992 21 57.2992 20.4 57.7992 20.3C57.8992 20.3 60.3992 19.7 62.3992 21.1C62.8992 21.4 62.9992 22.1 62.6992 22.5C62.6992 22.5 62.5992 22.6 62.4992 22.7L62.6992 22.9H61.7992ZM61.6992 22.2C61.6992 22.2 61.8992 22.2 61.8992 22.1C61.8992 22 61.8992 21.8 61.8992 21.7C60.1992 20.5 57.9992 21 57.8992 21C57.7992 21 57.6992 21.2 57.6992 21.3C57.6992 21.4 57.8992 21.5 57.9992 21.5C57.9992 21.5 59.9992 21 61.5992 22.1L61.6992 22.2Z" fill="black"/>
<path d="M41.2995 23C41.0995 23 40.8995 23 40.7995 22.8C40.5995 22.5 40.5995 22.1 40.8995 21.9C42.6995 20.5 44.9995 21 45.0995 21C45.3995 21 45.6995 21.4 45.5995 21.7C45.5995 22 45.1995 22.3 44.8995 22.2C44.8995 22.2 42.9995 21.9 41.6995 22.9C41.5995 22.9 41.4995 23 41.2995 23Z" fill="white"/>
<path d="M41.2992 23.4H40.9992C40.7992 23.3 40.5992 23.2 40.3992 23C40.1992 22.8 40.1992 22.5 40.1992 22.3C40.1992 22 40.3992 21.8 40.5992 21.6C42.4992 20.1 44.9992 20.6 45.0992 20.6C45.6992 20.7 45.9992 21.2 45.8992 21.8C45.7992 22.3 45.2992 22.7 44.6992 22.6C44.6992 22.6 42.8992 22.3 41.7992 23.2C41.5992 23.3 41.3992 23.4 41.1992 23.4H41.2992ZM44.0992 21.3C43.2992 21.3 42.0992 21.5 41.0992 22.2C41.0992 22.2 41.0992 22.3 40.9992 22.4C40.9992 22.4 40.9992 22.5 40.9992 22.6C40.9992 22.6 41.0992 22.6 41.1992 22.6C42.6992 21.5 44.5992 21.8 44.6992 21.9C44.7992 21.9 44.9992 21.9 44.9992 21.7C44.9992 21.6 44.9992 21.4 44.7992 21.4C44.7992 21.4 44.3992 21.4 43.7992 21.4L44.0992 21.3Z" fill="black"/>
<path d="M50.6999 28.8C50.5999 28.8 50.4999 28.8 50.3999 28.7C50.3999 28.7 50.2999 28.5 50.3999 28.4L51.5999 22.4C51.5999 22.2 51.7999 22.1 51.9999 22.1C52.1999 22.1 52.2999 22.3 52.2999 22.5L51.1999 28H53.4999C53.6999 28 53.8999 28.1 53.8999 28.3C53.8999 28.5 53.6999 28.7 53.4999 28.7H50.7999L50.6999 28.8Z" fill="black"/>
<path d="M35.7992 20.5C35.7992 20.5 50.9992 22.1 54.0992 11.1C54.0992 11.1 54.6992 15.9 66.4992 21.5C66.4992 21.5 67.7992 15.8 65.1992 11.1C62.5992 6.40002 59.7992 5.00002 52.4992 5.30002C45.1992 5.60002 32.7992 7.20002 35.7992 20.5Z" fill="white"/>
<path d="M66.5996 21.9C66.5996 21.9 66.4996 21.9 66.3996 21.9C57.7996 17.8 54.9996 14.1 54.0996 12.3C50.2996 22.3 35.8996 20.9 35.6996 20.9C35.4996 20.9 35.2996 20.7 35.3996 20.5C35.3996 20.3 35.5996 20.1 35.7996 20.2C35.8996 20.2 50.7996 21.6 53.6996 11.1C53.6996 10.9 53.8996 10.8 54.0996 10.8C54.2996 10.8 54.3996 11 54.4996 11.1C54.4996 11.1 55.2996 15.8 66.6996 21.2C66.8996 21.2 66.9996 21.5 66.8996 21.7C66.8996 21.8 66.6996 21.9 66.5996 21.9Z" fill="black"/>
<path d="M38.3004 19C38.1004 19 37.9004 18.8 37.9004 18.6C37.9004 18.4 38.1004 18.2 38.3004 18.2C38.3004 18.2 46.6004 17.8 49.5004 13.2C49.6004 13 49.8004 13 50.0004 13.1C50.2004 13.2 50.2004 13.4 50.1004 13.6C47.0004 18.6 38.6004 18.9 38.3004 18.9V19Z" fill="black"/>
<path d="M37.0008 32.4C37.0008 33 36.5008 33.5 35.9008 33.5C35.3008 33.5 34.8008 33 34.8008 32.4C34.8008 31.8 35.3008 31.3 35.9008 31.3C36.5008 31.3 37.0008 31.8 37.0008 32.4Z" fill="#60D46B"/>
<path d="M35.9004 33.9C35.1004 33.9 34.4004 33.2 34.4004 32.4C34.4004 31.6 35.1004 30.9 35.9004 30.9C36.7004 30.9 37.4004 31.6 37.4004 32.4C37.4004 33.2 36.7004 33.9 35.9004 33.9ZM35.9004 31.6C35.5004 31.6 35.2004 31.9 35.2004 32.3C35.2004 32.7 35.5004 33 35.9004 33C36.3004 33 36.6004 32.7 36.6004 32.3C36.6004 31.9 36.3004 31.6 35.9004 31.6Z" fill="black"/>
<path d="M68.7 31.7C68.7 32.3 68.2 32.8 67.6 32.8C67 32.8 66.5 32.3 66.5 31.7C66.5 31.1 67 30.6 67.6 30.6C68.2 30.6 68.7 31.1 68.7 31.7Z" fill="#60D46B"/>
<path d="M67.5996 33.2C66.7996 33.2 66.0996 32.5 66.0996 31.7C66.0996 30.9 66.7996 30.2 67.5996 30.2C68.3996 30.2 69.0996 30.9 69.0996 31.7C69.0996 32.5 68.3996 33.2 67.5996 33.2ZM67.5996 31C67.1996 31 66.8996 31.3 66.8996 31.7C66.8996 32.1 67.1996 32.4 67.5996 32.4C67.9996 32.4 68.2996 32.1 68.2996 31.7C68.2996 31.3 67.9996 31 67.5996 31Z" fill="black"/>
<path d="M62.0004 55.4H43.3004C41.2004 55.4 39.4004 53.7 39.4004 51.5V48.2C39.4004 46.1 41.1004 44.3 43.3004 44.3H62.0004C64.1004 44.3 65.9004 46 65.9004 48.2V51.5C65.9004 53.6 64.2004 55.4 62.0004 55.4Z" fill="#60D46B"/>
<path d="M48.0996 44.3H47.5996V55.4H48.0996V44.3Z" fill="white"/>
<path d="M52.5996 44.3H52.0996V55.4H52.5996V44.3Z" fill="white"/>
<path d="M42.0996 55.2C42.2996 55.2 42.3996 55.2 42.5996 55.3V44.4C42.3996 44.4 42.2996 44.4 42.0996 44.5V55.2Z" fill="white"/>
<path d="M57.5008 44.3H57.0008L56.8008 55.4H57.3008L57.5008 44.3Z" fill="white"/>
<path d="M62.5996 44.4C62.3996 44.4 62.2996 44.4 62.0996 44.4V55.4C62.2996 55.4 62.3996 55.4 62.5996 55.4V44.5V44.4Z" fill="white"/>
<path d="M62 55.8H43.3C41 55.8 39 53.9 39 51.5V48.2C39 45.9 40.9 43.9 43.3 43.9H62C64.3 43.9 66.3 45.8 66.3 48.2V51.5C66.3 53.8 64.4 55.8 62 55.8ZM43.3 44.7C41.4 44.7 39.8 46.3 39.8 48.2V51.5C39.8 53.4 41.4 55 43.3 55H62C63.9 55 65.5 53.4 65.5 51.5V48.2C65.5 46.3 63.9 44.7 62 44.7H43.3Z" fill="black"/>
</svg>
