<svg width="110" height="104" viewBox="0 0 110 104" fill="none" xmlns="http://www.w3.org/2000/svg">
<path d="M58.8003 1.11537C58.8003 1.11537 45.1003 -2.38463 38.3003 3.01537C31.4003 8.41537 32.9003 20.2154 36.0003 25.9154C36.0003 25.9154 28.3003 50.7154 28.6003 61.0154C28.9003 71.3154 58.8003 69.2154 58.8003 69.2154C58.8003 69.2154 76.9003 68.8154 79.4003 67.8154C81.8003 66.7154 75.6003 31.9154 72.0003 26.0154C72.0003 26.0154 75.7003 17.9154 74.6003 10.1154C73.5003 2.31537 64.5003 -1.58463 58.8003 1.21537V1.11537Z" fill="black"/>
<path d="M81.1 62.9154H80.3C81.7 43.6154 72.1 28.5154 72 28.4154L72.6 28.0154C72.6 28.2154 82.5 43.4154 81 62.9154H81.1Z" fill="black"/>
<path d="M108.7 103.515C102.8 72.9154 80.8004 50.1154 54.6004 50.1154C28.4004 50.1154 6.30039 72.9154 0.400391 103.515H108.7Z" fill="#FFEAEA"/>
<path d="M47.5012 47.4153H61.5012C61.3012 47.4153 61.2012 47.4153 61.0012 47.4153C61.1012 46.9153 61.2012 46.4153 61.2012 45.8153V40.4153C61.0012 37.5153 58.6012 35.2153 55.7012 35.3153H52.4012C49.5012 35.4153 47.2012 37.9153 47.2012 40.8153V46.2153C47.3012 46.7153 47.4012 47.1153 47.5012 47.5153V47.4153Z" fill="white"/>
<path d="M61.5016 47.8154H47.5016C47.3016 47.8154 47.2016 47.7154 47.1016 47.5154C47.0016 47.0154 46.9016 46.6154 46.9016 46.1154V40.7154C46.7016 39.2154 47.3016 37.8154 48.3016 36.7154C49.3016 35.6154 50.8016 35.0154 52.3016 34.9154H55.6016C58.7016 34.8154 61.3016 37.2154 61.4016 40.3154V45.7154C61.5016 46.1154 61.4016 46.6154 61.4016 47.0154H61.5016C61.7016 47.0154 61.8016 47.2154 61.8016 47.4154C61.8016 47.6154 61.6016 47.7154 61.4016 47.7154L61.5016 47.8154ZM47.8016 47.0154H60.7016C60.8016 46.6154 60.8016 46.2154 60.8016 45.7154V40.3154C60.6016 37.6154 58.4016 35.5154 55.8016 35.5154C53.2016 35.5154 55.8016 35.5154 55.7016 35.5154H52.4016C51.1016 35.6154 49.9016 36.1154 48.9016 37.1154C48.0016 38.0154 47.5016 39.3154 47.6016 40.6154V46.0154C47.7016 46.3154 47.8016 46.7154 47.8016 47.0154Z" fill="black"/>
<path d="M32.8008 29.0154C32.8008 31.3154 34.7008 33.2154 37.0008 33.2154C39.3008 33.2154 41.3008 31.4154 41.3008 29.0154C41.3008 26.7154 39.4008 24.8154 37.1008 24.8154C34.8008 24.8154 32.8008 26.6154 32.8008 29.0154Z" fill="white"/>
<path d="M37.1 33.6154C35.9 33.6154 34.7 33.1154 33.8 32.2154C32.9 31.3154 32.5 30.2154 32.5 29.0154C32.5 26.5154 34.6 24.5154 37.1 24.5154C38.3 24.5154 39.5 25.0154 40.4 25.9154C41.3 26.8154 41.7 27.9154 41.7 29.1154C41.7 31.6154 39.6 33.6154 37.1 33.6154ZM33.2 29.0154C33.2 30.0154 33.6 31.0154 34.3 31.7154C35 32.4154 36 32.8154 37 32.8154C39.1 32.8154 40.8 31.1154 40.9 29.0154C40.9 28.0154 40.5 27.0154 39.8 26.3154C39.1 25.6154 38.1 25.2154 37.1 25.2154C35 25.2154 33.2 26.9154 33.2 29.0154Z" fill="black"/>
<path d="M39.4012 29.3154C39.3012 29.3154 39.1012 29.2154 39.1012 29.0154C39.1012 28.4154 38.9012 27.9154 38.5012 27.5154C38.1012 27.1154 37.6012 26.9154 37.0012 26.9154C36.9012 26.9154 36.7012 26.8154 36.7012 26.6154C36.7012 26.5154 36.8012 26.3154 37.0012 26.3154C37.7012 26.3154 38.3012 26.6154 38.8012 27.1154C39.3012 27.6154 39.6012 28.2154 39.5012 28.9154C39.5012 29.0154 39.4012 29.2154 39.2012 29.2154L39.4012 29.3154Z" fill="black"/>
<path d="M74.6016 28.0154C74.7016 30.3154 72.9016 32.3154 70.6016 32.4154C68.3016 32.5154 66.3016 30.8154 66.1016 28.4154C66.0016 26.1154 67.8016 24.1154 70.1016 24.0154C72.4016 23.9154 74.4016 25.6154 74.6016 28.0154Z" fill="white"/>
<path d="M70.3012 32.8154C67.9012 32.8154 65.8012 30.9154 65.7012 28.5154C65.7012 27.3154 66.1012 26.1154 66.9012 25.2154C67.7012 24.3154 68.9012 23.8154 70.1012 23.7154C72.6012 23.6154 74.8012 25.5154 75.0012 28.0154C75.0012 29.2154 74.7012 30.4154 73.8012 31.3154C73.0012 32.2154 71.8012 32.8154 70.6012 32.8154H70.4012H70.3012ZM70.3012 24.4154C70.3012 24.4154 70.2012 24.4154 70.1012 24.4154C69.1012 24.4154 68.1012 24.9154 67.4012 25.7154C66.7012 26.5154 66.4012 27.4154 66.4012 28.5154C66.5012 30.6154 68.3012 32.2154 70.5012 32.1154C71.5012 32.1154 72.5012 31.6154 73.2012 30.8154C73.9012 30.0154 74.2012 29.1154 74.2012 28.1154C74.1012 26.1154 72.4012 24.5154 70.3012 24.5154V24.4154Z" fill="black"/>
<path d="M68.0012 28.6154C67.9012 28.6154 67.8012 28.5154 67.7012 28.4154C67.7012 27.7154 67.9012 27.1154 68.4012 26.5154C68.9012 26.0154 69.5012 25.7154 70.2012 25.7154C70.3012 25.7154 70.5012 25.7154 70.5012 25.9154C70.5012 26.0154 70.5012 26.2154 70.3012 26.2154C69.7012 26.2154 69.2012 26.5154 68.9012 26.9154C68.5012 27.3154 68.3012 27.8154 68.4012 28.4154C68.4012 28.5154 68.4012 28.7154 68.2012 28.7154L68.0012 28.6154Z" fill="black"/>
<path d="M67.102 29.7154C67.102 36.0154 62.102 41.3154 55.702 41.3154H51.902C45.502 41.4154 40.302 36.3154 40.202 30.0154L40.002 17.6154C40.002 11.3154 45.002 6.01542 51.402 6.01542H55.202C61.602 5.91542 66.802 11.0154 66.902 17.3154L67.102 29.7154Z" fill="white"/>
<path d="M51.8012 41.8154C45.3012 41.8154 40.0012 36.6154 39.9012 30.1154L39.7012 17.7154C39.7012 14.5154 40.9012 11.6154 43.1012 9.31541C45.3012 7.01541 48.3012 5.71541 51.5012 5.71541H55.3012C61.8012 5.61541 67.3012 10.8154 67.4012 17.4154L67.6012 29.8154C67.6012 33.0154 66.4012 35.9154 64.2012 38.2154C62.0012 40.5154 59.0012 41.8154 55.8012 41.8154H52.0012C52.0012 41.8154 51.9012 41.8154 51.8012 41.8154ZM55.4012 6.41541C55.4012 6.41541 55.3012 6.41541 55.2012 6.41541H51.4012C48.4012 6.41541 45.6012 7.71541 43.6012 9.81541C41.5012 11.9154 40.4012 14.7154 40.4012 17.7154L40.6012 30.1154C40.6012 36.2154 45.8012 41.1154 51.9012 41.1154H55.7012C58.7012 41.1154 61.5012 39.8154 63.5012 37.7154C65.6012 35.6154 66.7012 32.8154 66.7012 29.8154L66.5012 17.4154C66.5012 11.3154 61.4012 6.41541 55.3012 6.41541H55.4012Z" fill="black"/>
<path d="M54.2 34.6154C52.4 34.6154 50.8 33.2154 50.5 31.4154C50.5 31.4154 50.5 31.3154 50.5 31.2154C50.5 31.2154 50.6 31.2154 50.7 31.2154H57.5C57.5 31.2154 57.6 31.2154 57.7 31.2154C57.7 31.2154 57.7 31.3154 57.7 31.4154C57.5 33.2154 55.9 34.7154 54.1 34.7154L54.2 34.6154ZM51.1 31.6154C51.4 33.0154 52.8 34.1154 54.3 34.1154C55.8 34.1154 57.1 33.0154 57.4 31.5154H51.2L51.1 31.6154Z" fill="black"/>
<path d="M46.5004 23.5154C46.5004 24.4154 45.8004 25.0154 44.9004 25.0154C44.0004 25.0154 43.4004 24.3154 43.4004 23.4154C43.4004 22.5154 44.1004 21.9154 45.0004 21.9154C45.9004 21.9154 46.5004 22.6154 46.5004 23.5154Z" fill="black"/>
<path d="M62.9008 23.2154C62.9008 24.1154 62.2008 24.7154 61.3008 24.7154C60.4008 24.7154 59.8008 24.0154 59.8008 23.1154C59.8008 22.2154 60.5008 21.6154 61.4008 21.6154C62.3008 21.6154 62.9008 22.3154 62.9008 23.2154Z" fill="black"/>
<path d="M63.6012 20.8154C63.6012 20.8154 63.5012 20.8154 63.4012 20.8154C61.9012 19.7154 59.8012 20.2154 59.8012 20.2154C59.6012 20.2154 59.4012 20.2154 59.3012 19.9154C59.2012 19.6154 59.3012 19.5154 59.6012 19.4154C59.6012 19.4154 62.0012 18.8154 63.8012 20.1154C64.0012 20.2154 64.0012 20.5154 63.8012 20.6154C63.8012 20.7154 63.6012 20.8154 63.5012 20.8154H63.6012Z" fill="black"/>
<path d="M42.5007 21.3154C42.4007 21.3154 42.3007 21.3154 42.2007 21.2154C42.1007 21.0154 42.2007 20.8154 42.2007 20.7154C43.9007 19.4154 46.3007 19.8154 46.4007 19.8154C46.6007 19.8154 46.7007 20.0154 46.7007 20.2154C46.7007 20.4154 46.5007 20.5154 46.3007 20.5154C46.3007 20.5154 44.2007 20.1154 42.8007 21.2154C42.8007 21.2154 42.7007 21.2154 42.6007 21.2154L42.5007 21.3154Z" fill="black"/>
<path d="M52.1999 27.5154C52.0999 27.5154 51.9999 27.5154 51.8999 27.4154C51.8999 27.4154 51.7999 27.2154 51.8999 27.1154L53.0999 21.0154C53.0999 20.8154 53.2999 20.7154 53.4999 20.7154C53.6999 20.7154 53.7999 20.9154 53.7999 21.1154L52.6999 26.8154H55.0999C55.2999 26.8154 55.4999 26.9154 55.4999 27.1154C55.4999 27.3154 55.2999 27.5154 55.0999 27.5154H52.2999H52.1999Z" fill="black"/>
<path d="M36.4015 22.2154C36.4015 22.2154 55.5015 21.9154 58.7015 10.7154C58.7015 10.7154 61.6015 18.2154 68.1015 21.5154C68.1015 21.5154 69.9015 14.7154 67.2015 9.9154C64.5015 5.1154 61.6015 3.6154 54.1015 3.9154C46.5015 4.2154 33.4015 8.7154 36.4015 22.2154Z" fill="black"/>
<path d="M47.2008 22.0154C47.0008 22.0154 46.8008 21.9154 46.8008 21.7154C46.8008 21.5154 46.9008 21.3154 47.1008 21.3154C47.5008 21.3154 56.9008 20.1154 58.3008 10.7154C58.3008 10.5154 58.5008 10.3154 58.7008 10.4154C58.9008 10.4154 59.0008 10.6154 59.0008 10.8154C57.6008 20.8154 47.3008 22.0154 47.2008 22.1154V22.0154Z" fill="black"/>
<path d="M20.7016 90.4154C15.8016 88.3154 10.3016 88.0154 5.00156 88.2154C4.90156 88.5154 4.70156 88.9154 4.60156 89.2154C9.40156 88.9154 14.4016 89.2154 19.0016 90.8154C23.9016 92.5154 27.7016 96.1154 30.9016 100.015C31.9016 101.215 32.8016 102.415 33.7016 103.615H34.9016C34.1016 102.515 33.3016 101.415 32.4016 100.315C29.3016 96.3154 25.5016 92.6154 20.7016 90.5154V90.4154Z" fill="white"/>
<path d="M53.7016 51.2154C53.9016 54.5154 54.5016 57.9154 56.1016 60.8154C57.4016 63.2154 59.5016 65.4154 62.1016 66.5154C65.0016 67.7154 68.1016 67.5154 70.9016 66.3154C74.9016 64.7154 78.3016 61.7154 81.3016 58.6154C81.0016 58.4154 80.7016 58.2154 80.5016 58.0154C78.9016 59.6154 77.2016 61.2154 75.3016 62.6154C72.7016 64.5154 69.6016 66.2154 66.2016 66.3154C63.2016 66.3154 60.4016 64.8154 58.5016 62.6154C55.6016 59.2154 54.7016 54.6154 54.5016 50.0154C54.2016 50.0154 53.9016 50.0154 53.6016 50.0154C53.6016 50.4154 53.6016 50.7154 53.6016 51.1154L53.7016 51.2154Z" fill="white"/>
<path d="M74.7004 94.0154C78.1004 92.4154 82.2004 91.6154 85.7004 93.3154C86.1004 93.5154 86.5004 93.7154 86.9004 94.0154C86.7004 94.2154 86.6004 94.4154 86.4004 94.6154C85.4004 95.9154 84.7004 97.7154 85.6004 99.3154C86.3004 100.615 88.0004 101.415 89.3004 100.315C90.4004 99.4154 90.5004 97.8154 90.1004 96.5154C89.8004 95.5154 89.1004 94.6154 88.4004 93.8154C89.3004 92.8154 90.4004 92.0154 91.4004 91.1154C94.2004 88.9154 97.2004 87.2154 100.5 85.9154C101.3 85.6154 102.1 85.3154 102.9 85.0154C102.8 84.7154 102.6 84.4154 102.5 84.1154C101.9 84.3154 101.3 84.5154 100.7 84.7154C97.1004 86.1154 93.7004 88.0154 90.7004 90.4154C89.6004 91.2154 88.5004 92.2154 87.6004 93.1154C85.9004 91.9154 83.7004 91.2154 81.8004 91.2154C77.5004 91.0154 73.3004 93.2154 69.7004 95.4154C66.4004 97.4154 63.4004 99.9154 60.6004 102.615C60.4004 102.815 60.1004 103.115 59.9004 103.315H61.2004C65.1004 99.3154 69.7004 96.1154 74.7004 93.8154V94.0154ZM87.6004 94.7154C88.3004 95.3154 88.8004 96.0154 89.1004 96.9154C89.5004 98.1154 89.1004 100.715 87.3004 99.8154C85.2004 98.8154 86.4004 96.2154 87.5004 94.9154C87.5004 94.9154 87.6004 94.8154 87.7004 94.7154H87.6004Z" fill="white"/>
<path d="M13.7016 72.5154C16.3016 74.2154 19.0016 75.5154 22.0016 76.3154C26.9016 77.6154 32.0016 77.2154 36.5016 74.9154C36.9016 74.7154 37.2016 74.5154 37.6016 74.3154C39.8016 82.8154 49.0016 88.8154 57.8016 88.2154C63.4016 87.9154 68.4016 85.1154 72.8016 81.8154C77.6016 78.2154 81.9016 74.1154 86.7016 70.6154C88.2016 69.5154 89.7016 68.5154 91.2016 67.5154C91.0016 67.3154 90.7016 67.0154 90.5016 66.8154C86.9016 69.1154 83.5016 71.8154 80.2016 74.5154C76.1016 77.9154 72.1016 81.6154 67.3016 84.2154C62.8016 86.7154 57.7016 88.0154 52.6016 86.8154C47.9016 85.8154 43.6016 83.1154 40.9016 79.2154C39.8016 77.6154 38.9016 75.7154 38.4016 73.7154C39.6016 72.8154 40.8016 71.8154 41.7016 70.6154C43.0016 68.9154 44.7016 66.0154 43.9016 63.8154C43.5016 62.8154 42.6016 62.0154 41.5016 62.0154C40.3016 62.0154 39.5016 63.1154 38.9016 63.9154C37.5016 65.9154 37.0016 68.4154 37.0016 70.9154C37.0016 71.7154 37.1016 72.5154 37.3016 73.3154C34.0016 75.5154 29.8016 76.4154 25.9016 76.1154C21.7016 75.7154 17.8016 74.1154 14.2016 71.8154C14.0016 72.1154 13.8016 72.3154 13.6016 72.6154L13.7016 72.5154ZM39.1016 65.5154C39.6016 64.6154 40.6016 62.5154 41.9016 63.0154C43.6016 63.6154 43.1016 65.7154 42.6016 66.9154C41.8016 69.0154 40.4016 70.8154 38.6016 72.3154C38.4016 72.4154 38.3016 72.6154 38.1016 72.7154C37.7016 70.3154 37.9016 67.8154 39.0016 65.6154L39.1016 65.5154Z" fill="white"/>
<path d="M63.4004 55.0154H45.6004C44.1004 55.0154 42.9004 53.8154 42.9004 52.3154V47.9154C42.9004 46.4154 44.1004 45.2154 45.6004 45.2154H63.4004C64.9004 45.2154 66.1004 46.4154 66.1004 47.9154V52.3154C66.1004 53.8154 64.9004 55.0154 63.4004 55.0154Z" fill="white"/>
<path d="M63.4 55.3154H45.6C43.9 55.3154 42.5 53.9154 42.5 52.2154V47.8154C42.5 46.1154 43.9 44.7154 45.6 44.7154H63.4C65.1 44.7154 66.5 46.1154 66.5 47.8154V52.2154C66.5 53.9154 65.1 55.3154 63.4 55.3154ZM45.6 45.5154C44.3 45.5154 43.3 46.5154 43.3 47.8154V52.2154C43.3 53.5154 44.3 54.5154 45.6 54.5154H63.4C64.7 54.5154 65.7 53.5154 65.7 52.2154V47.8154C65.7 46.5154 64.7 45.5154 63.4 45.5154H45.6Z" fill="black"/>
<path d="M108.7 103.915H0.4C0.2 103.915 0 103.715 0 103.515C0 103.315 0.2 103.115 0.4 103.115H108.7C108.9 103.115 109.1 103.315 109.1 103.515C109.1 103.715 108.9 103.915 108.7 103.915Z" fill="black"/>
<path d="M89.4008 103.915H19.7008C19.5008 103.915 19.3008 103.715 19.3008 103.515V84.7154C19.3008 84.5154 19.5008 84.3154 19.7008 84.3154C19.9008 84.3154 20.1008 84.5154 20.1008 84.7154V103.115H89.0008V84.7154C89.0008 84.5154 89.2008 84.3154 89.4008 84.3154C89.6008 84.3154 89.8008 84.5154 89.8008 84.7154V103.515C89.8008 103.715 89.6008 103.915 89.4008 103.915Z" fill="black"/>
</svg>
