<svg width="23" height="23" viewBox="0 0 23 23" fill="none" xmlns="http://www.w3.org/2000/svg">
<path d="M22.1 13.6C22.1 14.5 21.8 15.2 21.2 15.8C20.6 16.4 19.9 16.7 19 16.7H17.8V21.9H12.6V20.8C12.6 19.9 12.3 19.2 11.7 18.6C11.1 18 10.4 17.7 9.5 17.7C7.8 17.7 6.4 19.1 6.4 20.8V21.9H1V16.7H2.1C3 16.7 3.7 16.4 4.3 15.8C4.9 15.2 5.2 14.4 5.2 13.6C5.2 11.9 3.8 10.5 2.1 10.5H1V5H6.4V4.1C6.4 3.82 6.44 2.94 7.09 2.15C7.99 1.03 9.33 1 9.5 1C9.73 1 10.88 1.02 11.77 1.97C12.58 2.84 12.6 3.88 12.6 4.1V5H17.8V10.5H19C20.7 10.5 22.1 11.9 22.1 13.6Z" stroke="#C1C1C1" stroke-width="1.25" stroke-linejoin="round"/>
</svg>
