<svg width="112" height="22" viewBox="0 0 112 22" fill="none" xmlns="http://www.w3.org/2000/svg">
<path d="M0.638 17.208L1.496 17.032C1.64267 17.0027 1.76733 16.966 1.87 16.922C1.98733 16.878 2.07533 16.812 2.134 16.724C2.19267 16.6213 2.23667 16.482 2.266 16.306C2.29533 16.13 2.31 15.888 2.31 15.58V5.174C2.31 4.866 2.29533 4.624 2.266 4.448C2.23667 4.272 2.19267 4.13267 2.134 4.03C2.07533 3.92733 1.98733 3.854 1.87 3.81C1.76733 3.766 1.64267 3.72933 1.496 3.7L0.638 3.524V2.754H7.282C9.13 2.754 10.5453 3.04 11.528 3.612C12.5253 4.16933 13.024 5.086 13.024 6.362C13.024 7.374 12.6867 8.15867 12.012 8.716C11.3373 9.25867 10.3547 9.63267 9.064 9.838V9.948C10.6187 10.1093 11.792 10.4833 12.584 11.07C13.3907 11.6567 13.794 12.5367 13.794 13.71C13.794 15.118 13.2733 16.1887 12.232 16.922C11.2053 17.6407 9.75333 18 7.876 18H0.638V17.208ZM7.084 9.508C8.03733 9.508 8.734 9.288 9.174 8.848C9.614 8.408 9.834 7.71133 9.834 6.758C9.834 6.15667 9.77533 5.66533 9.658 5.284C9.55533 4.90267 9.38667 4.60933 9.152 4.404C8.932 4.184 8.646 4.03733 8.294 3.964C7.942 3.876 7.53133 3.832 7.062 3.832C6.754 3.832 6.46067 3.84667 6.182 3.876C5.90333 3.90533 5.68333 3.93467 5.522 3.964V9.508H7.084ZM7.524 16.922C7.97867 16.922 8.382 16.878 8.734 16.79C9.086 16.6873 9.37933 16.5187 9.614 16.284C9.86333 16.0493 10.054 15.7413 10.186 15.36C10.318 14.964 10.384 14.4653 10.384 13.864C10.384 13.2627 10.3253 12.7567 10.208 12.346C10.1053 11.9207 9.92933 11.5833 9.68 11.334C9.43067 11.07 9.108 10.8867 8.712 10.784C8.33067 10.6667 7.86133 10.608 7.304 10.608H5.522V15.36C5.522 15.6973 5.544 15.9687 5.588 16.174C5.632 16.3793 5.72 16.5407 5.852 16.658C5.99867 16.7607 6.204 16.834 6.468 16.878C6.732 16.9073 7.084 16.922 7.524 16.922ZM21.2943 18.264C20.4876 18.264 19.7249 18.1467 19.0063 17.912C18.3023 17.6627 17.6789 17.2887 17.1363 16.79C16.6083 16.2913 16.1903 15.6753 15.8823 14.942C15.5743 14.2087 15.4203 13.3433 15.4203 12.346C15.4203 11.334 15.5816 10.454 15.9043 9.706C16.2416 8.958 16.6816 8.342 17.2243 7.858C17.7816 7.35933 18.4123 6.98533 19.1163 6.736C19.8203 6.48667 20.5463 6.362 21.2943 6.362C22.0863 6.362 22.8343 6.48667 23.5383 6.736C24.2569 6.97067 24.8803 7.33 25.4083 7.814C25.9363 8.298 26.3543 8.914 26.6623 9.662C26.9703 10.3953 27.1243 11.2533 27.1243 12.236C27.1243 13.248 26.9556 14.128 26.6183 14.876C26.2956 15.624 25.8629 16.2547 25.3203 16.768C24.7923 17.2667 24.1763 17.6407 23.4723 17.89C22.7683 18.1393 22.0423 18.264 21.2943 18.264ZM21.3603 17.23C21.7709 17.23 22.1376 17.1567 22.4603 17.01C22.7976 16.8487 23.0836 16.5847 23.3183 16.218C23.5529 15.8367 23.7289 15.338 23.8463 14.722C23.9636 14.106 24.0223 13.336 24.0223 12.412C24.0223 11.4293 23.9636 10.6153 23.8463 9.97C23.7289 9.32467 23.5456 8.81133 23.2963 8.43C23.0616 8.04867 22.7683 7.78467 22.4163 7.638C22.0643 7.47667 21.6536 7.396 21.1843 7.396C20.7589 7.396 20.3776 7.47667 20.0403 7.638C19.7176 7.78467 19.4463 8.04133 19.2263 8.408C19.0063 8.77467 18.8376 9.25867 18.7203 9.86C18.6029 10.4613 18.5443 11.202 18.5443 12.082C18.5443 13.0793 18.6029 13.908 18.7203 14.568C18.8376 15.228 19.0063 15.756 19.2263 16.152C19.4609 16.548 19.7543 16.8267 20.1063 16.988C20.4583 17.1493 20.8763 17.23 21.3603 17.23ZM28.2848 17.23L29.0548 17.032C29.2014 16.988 29.3188 16.944 29.4068 16.9C29.5094 16.856 29.5828 16.7973 29.6268 16.724C29.6854 16.636 29.7221 16.526 29.7368 16.394C29.7514 16.2473 29.7588 16.0567 29.7588 15.822V9.288C29.7588 9.05333 29.7514 8.87 29.7368 8.738C29.7221 8.606 29.6854 8.496 29.6268 8.408C29.5828 8.32 29.5094 8.24667 29.4068 8.188C29.3188 8.12933 29.2014 8.056 29.0548 7.968L28.2628 7.506V6.868L32.3768 6.384L32.6408 6.56L32.5088 7.836H32.5968C33.1834 7.45467 33.8508 7.11733 34.5988 6.824C35.3468 6.53067 36.1094 6.384 36.8868 6.384C37.9281 6.384 38.6834 6.626 39.1528 7.11C39.6368 7.57933 39.8788 8.31267 39.8788 9.31V15.822C39.8788 16.0567 39.8861 16.2473 39.9008 16.394C39.9301 16.526 39.9668 16.636 40.0108 16.724C40.0694 16.812 40.1428 16.878 40.2308 16.922C40.3188 16.966 40.4361 17.0027 40.5828 17.032L41.3088 17.23V18H35.5888V17.23L36.3148 17.054C36.4468 17.01 36.5568 16.9733 36.6448 16.944C36.7328 16.9 36.7988 16.8413 36.8428 16.768C36.8868 16.68 36.9161 16.5627 36.9308 16.416C36.9454 16.2693 36.9528 16.0713 36.9528 15.822V10.124C36.9528 9.39067 36.8208 8.88467 36.5568 8.606C36.2928 8.31267 35.8454 8.166 35.2148 8.166C34.7454 8.166 34.2688 8.232 33.7848 8.364C33.3154 8.496 32.9414 8.606 32.6628 8.694V15.822C32.6628 16.0713 32.6701 16.2693 32.6848 16.416C32.6994 16.5627 32.7288 16.68 32.7728 16.768C32.8168 16.8413 32.8828 16.9 32.9708 16.944C33.0588 16.9733 33.1688 17.01 33.3008 17.054L34.0488 17.23V18H28.2848V17.23ZM46.9581 18.264C46.4155 18.264 45.8728 18.1687 45.3301 17.978C44.8021 17.7727 44.3255 17.45 43.9001 17.01C43.4895 16.57 43.1521 15.998 42.8881 15.294C42.6388 14.59 42.5141 13.7247 42.5141 12.698C42.5141 11.598 42.6901 10.652 43.0421 9.86C43.3941 9.05333 43.8635 8.39333 44.4501 7.88C45.0368 7.36667 45.7188 6.99267 46.4961 6.758C47.2735 6.50867 48.0801 6.384 48.9161 6.384C49.2975 6.384 49.6568 6.406 49.9941 6.45C50.3461 6.47933 50.6321 6.53067 50.8521 6.604C50.8375 6.44267 50.8228 6.274 50.8081 6.098C50.7935 5.93667 50.7788 5.768 50.7641 5.592C50.7641 5.40133 50.7641 5.20333 50.7641 4.998V4.008C50.7641 3.77333 50.7495 3.59 50.7201 3.458C50.7055 3.31133 50.6688 3.194 50.6101 3.106C50.5661 3.018 50.5001 2.952 50.4121 2.908C50.3241 2.84933 50.2141 2.78333 50.0821 2.71L49.1581 2.248V1.544L53.5581 1.148L53.8221 1.368C53.7928 1.544 53.7635 1.764 53.7341 2.028C53.6901 2.468 53.6681 3.09133 53.6681 3.898V15.272C53.6681 15.536 53.6755 15.7487 53.6901 15.91C53.7048 16.0567 53.7341 16.1813 53.7781 16.284C53.8368 16.372 53.9101 16.4453 53.9981 16.504C54.1008 16.5627 54.2255 16.6213 54.3721 16.68L55.0981 17.01V17.714L51.0061 18.264L50.8081 18.11L50.9181 16.9H50.8301C50.3461 17.2813 49.7668 17.604 49.0921 17.868C48.4321 18.132 47.7208 18.264 46.9581 18.264ZM48.5201 16.504C49.0775 16.504 49.5395 16.4307 49.9061 16.284C50.2728 16.1373 50.5588 16.0053 50.7641 15.888V8.342C50.5588 8.122 50.2948 7.91667 49.9721 7.726C49.6495 7.53533 49.2535 7.44 48.7841 7.44C48.2855 7.44 47.8381 7.52067 47.4421 7.682C47.0461 7.84333 46.7015 8.10733 46.4081 8.474C46.1295 8.826 45.9095 9.30267 45.7481 9.904C45.6015 10.5053 45.5281 11.246 45.5281 12.126C45.5281 12.9327 45.5941 13.6147 45.7261 14.172C45.8581 14.7293 46.0488 15.184 46.2981 15.536C46.5475 15.8733 46.8555 16.1227 47.2221 16.284C47.6035 16.4307 48.0361 16.504 48.5201 16.504ZM59.2116 17.208L60.1576 17.032C60.3336 16.988 60.473 16.9513 60.5756 16.922C60.693 16.878 60.781 16.8047 60.8396 16.702C60.913 16.5993 60.957 16.4673 60.9716 16.306C61.001 16.13 61.0156 15.888 61.0156 15.58V3.81H60.9496C60.495 3.81 60.121 3.81733 59.8276 3.832C59.549 3.84667 59.307 3.89067 59.1016 3.964C58.911 4.02267 58.7423 4.12533 58.5956 4.272C58.4636 4.41867 58.317 4.61667 58.1556 4.866C57.9063 5.24733 57.6936 5.65067 57.5176 6.076C57.3563 6.48667 57.1436 7.03667 56.8796 7.726H55.9776L56.1976 2.754H69.0456L69.2656 7.726H68.3636C68.2316 7.38867 68.1143 7.088 68.0116 6.824C67.9236 6.54533 67.8283 6.296 67.7256 6.076C67.6376 5.84133 67.5423 5.62867 67.4396 5.438C67.337 5.24733 67.227 5.05667 67.1096 4.866C66.9483 4.602 66.7943 4.404 66.6476 4.272C66.5156 4.12533 66.347 4.02267 66.1416 3.964C65.951 3.89067 65.709 3.84667 65.4156 3.832C65.1223 3.81733 64.7483 3.81 64.2936 3.81H64.2496V15.58C64.2496 15.888 64.257 16.13 64.2716 16.306C64.2863 16.4673 64.323 16.5993 64.3816 16.702C64.4403 16.8047 64.521 16.878 64.6236 16.922C64.741 16.9513 64.895 16.988 65.0856 17.032L66.0316 17.208V18H59.2116V17.208ZM73.0603 4.734C72.5469 4.734 72.1143 4.57267 71.7623 4.25C71.4103 3.91267 71.2343 3.50933 71.2343 3.04C71.2343 2.556 71.4103 2.15267 71.7623 1.83C72.1143 1.50733 72.5469 1.346 73.0603 1.346C73.5589 1.346 73.9769 1.50733 74.3143 1.83C74.6663 2.15267 74.8423 2.556 74.8423 3.04C74.8423 3.50933 74.6663 3.91267 74.3143 4.25C73.9769 4.57267 73.5589 4.734 73.0603 4.734ZM70.2223 17.23L70.9923 17.032C71.1389 16.988 71.2563 16.944 71.3443 16.9C71.4469 16.856 71.5203 16.7973 71.5643 16.724C71.6229 16.636 71.6596 16.526 71.6743 16.394C71.6889 16.2473 71.6963 16.0567 71.6963 15.822V9.288C71.6963 9.05333 71.6889 8.87 71.6743 8.738C71.6596 8.606 71.6229 8.496 71.5643 8.408C71.5203 8.32 71.4469 8.24667 71.3443 8.188C71.2563 8.12933 71.1389 8.056 70.9923 7.968L70.2003 7.506V6.868L74.4903 6.384L74.7763 6.56C74.7616 6.736 74.7249 7.044 74.6663 7.484C74.6223 7.924 74.6003 8.562 74.6003 9.398V15.822C74.6003 16.0713 74.6076 16.2693 74.6223 16.416C74.6369 16.548 74.6663 16.658 74.7103 16.746C74.7689 16.8193 74.8423 16.878 74.9303 16.922C75.0329 16.966 75.1576 17.0027 75.3043 17.032L76.0523 17.23V18H70.2223V17.23ZM76.9254 17.23L77.6954 17.032C77.8421 16.988 77.9594 16.944 78.0474 16.9C78.1501 16.856 78.2234 16.7973 78.2674 16.724C78.3261 16.636 78.3627 16.526 78.3774 16.394C78.3921 16.2473 78.3994 16.0567 78.3994 15.822V9.288C78.3994 9.05333 78.3921 8.87 78.3774 8.738C78.3627 8.606 78.3261 8.496 78.2674 8.408C78.2234 8.32 78.1501 8.24667 78.0474 8.188C77.9594 8.12933 77.8421 8.056 77.6954 7.968L76.9034 7.506V6.868L81.0174 6.384L81.2814 6.582L81.1494 7.836H81.2374C81.8241 7.45467 82.4694 7.11733 83.1734 6.824C83.8774 6.53067 84.5961 6.384 85.3294 6.384C86.1067 6.384 86.6934 6.516 87.0894 6.78C87.5001 7.02933 87.8154 7.396 88.0354 7.88H88.1234C88.7394 7.49867 89.3847 7.154 90.0594 6.846C90.7487 6.538 91.5114 6.384 92.3474 6.384C94.1807 6.384 95.0974 7.36667 95.0974 9.332V15.822C95.0974 16.0567 95.1047 16.2473 95.1194 16.394C95.1487 16.526 95.1854 16.636 95.2294 16.724C95.2881 16.812 95.3614 16.878 95.4494 16.922C95.5374 16.966 95.6547 17.0027 95.8014 17.032L96.5494 17.23V18H90.8294V17.23L91.5334 17.054C91.6801 17.01 91.7974 16.9733 91.8854 16.944C91.9734 16.9 92.0394 16.8413 92.0834 16.768C92.1274 16.68 92.1567 16.5627 92.1714 16.416C92.1861 16.2693 92.1934 16.0713 92.1934 15.822V10.124C92.1934 9.42 92.0834 8.92133 91.8634 8.628C91.6434 8.32 91.2327 8.166 90.6314 8.166C90.1621 8.166 89.7147 8.232 89.2894 8.364C88.8641 8.496 88.5047 8.62067 88.2114 8.738V15.822C88.2114 16.2913 88.2481 16.5993 88.3214 16.746C88.4094 16.878 88.5781 16.9807 88.8274 17.054L89.5534 17.23V18H83.9214V17.23L84.6474 17.054C84.7794 17.01 84.8894 16.9733 84.9774 16.944C85.0654 16.9 85.1314 16.8413 85.1754 16.768C85.2341 16.68 85.2707 16.5627 85.2854 16.416C85.3001 16.2693 85.3074 16.0713 85.3074 15.822V10.124C85.3074 9.43467 85.1901 8.936 84.9554 8.628C84.7354 8.32 84.3247 8.166 83.7234 8.166C83.2541 8.166 82.7994 8.232 82.3594 8.364C81.9341 8.48133 81.5821 8.59133 81.3034 8.694V15.822C81.3034 16.0713 81.3107 16.2693 81.3254 16.416C81.3401 16.5627 81.3694 16.68 81.4134 16.768C81.4574 16.8413 81.5161 16.9 81.5894 16.944C81.6774 16.9733 81.7874 17.01 81.9194 17.054L82.6454 17.23V18H76.9254V17.23ZM103.21 18.264C102.256 18.264 101.42 18.1247 100.702 17.846C99.9976 17.5527 99.4109 17.1493 98.9416 16.636C98.4722 16.108 98.1202 15.4773 97.8856 14.744C97.6509 13.996 97.5336 13.1673 97.5336 12.258C97.5336 11.334 97.6876 10.5127 97.9956 9.794C98.3182 9.06067 98.7436 8.44467 99.2716 7.946C99.7996 7.43267 100.401 7.044 101.076 6.78C101.765 6.50133 102.476 6.362 103.21 6.362C103.958 6.362 104.625 6.46467 105.212 6.67C105.798 6.87533 106.297 7.20533 106.708 7.66C107.133 8.1 107.456 8.68667 107.676 9.42C107.896 10.1387 108.013 11.0113 108.028 12.038H100.482C100.511 12.8593 100.621 13.556 100.812 14.128C101.002 14.7 101.259 15.1693 101.582 15.536C101.919 15.888 102.315 16.1447 102.77 16.306C103.239 16.4673 103.752 16.548 104.31 16.548C105.102 16.548 105.762 16.4527 106.29 16.262C106.832 16.0713 107.316 15.8733 107.742 15.668V16.614C107.566 16.7753 107.331 16.9587 107.038 17.164C106.759 17.3547 106.429 17.5307 106.048 17.692C105.666 17.8533 105.234 17.9853 104.75 18.088C104.266 18.2053 103.752 18.264 103.21 18.264ZM103.078 7.374C102.388 7.374 101.802 7.65267 101.318 8.21C100.848 8.76733 100.577 9.69867 100.504 11.004L104.992 10.784C104.992 10.1387 104.962 9.60333 104.904 9.178C104.845 8.738 104.742 8.386 104.596 8.122C104.464 7.858 104.273 7.66733 104.024 7.55C103.774 7.43267 103.459 7.374 103.078 7.374Z" fill="#21211E"/>
</svg>
