<svg width="197" height="262" viewBox="0 0 197 262" fill="none" xmlns="http://www.w3.org/2000/svg">
<path d="M23.9464 144.139C12.4834 176.6 3.6436 221.078 0.244141 239.462C1.22347 240.501 3.33597 242.829 6.16005 245.947C8.57431 248.612 11.6755 252.039 13.1821 253.687L33.5295 261.159L72.0273 183.675L76.6809 102.634C76.6832 102.634 37.812 104.877 23.9464 144.139Z" fill="#5A87FE"/>
<path d="M12.5801 253.217L33.5311 261.159" stroke="black" stroke-width="1.48991" stroke-miterlimit="10" stroke-linecap="round" stroke-linejoin="round"/>
<path d="M8.64697 246.363L33.5305 255.376" stroke="black" stroke-width="1.48991" stroke-miterlimit="10" stroke-linecap="round" stroke-linejoin="round"/>
<path d="M108.941 50.5246C108.941 50.5246 116.772 50.3632 123.269 55.6921C129.766 61.0211 132.896 66.3545 132.896 66.3545L129.101 82.4321C129.101 82.4321 116.553 81.5632 108.981 76.815C101.409 72.0657 108.941 50.5246 108.941 50.5246Z" fill="white" stroke="black" stroke-width="1.48991" stroke-miterlimit="10" stroke-linecap="round" stroke-linejoin="round"/>
<path d="M193.412 86.7632C181.168 67.3221 132.997 60.5547 132.997 60.5547L122.495 86.3742L134.164 93.0317L134.192 93.0306C111.372 94.9287 96.6794 98.123 96.6794 98.123C96.6794 98.123 83.94 187.469 137.337 160.163C184.295 136.15 205.656 106.204 193.412 86.7632Z" fill="#5A87FE"/>
<path d="M132.998 60.555L122.497 86.3745L134.164 93.032" stroke="black" stroke-width="1.48991" stroke-miterlimit="10" stroke-linecap="round" stroke-linejoin="round"/>
<path d="M158.856 91.7425C122.496 92.506 96.6794 98.1231 96.6794 98.1231C96.6794 98.1231 85.3948 189.918 137.337 160.163C143.269 156.765 149.271 153.896 154.4 150.492" stroke="black" stroke-width="1.48991" stroke-miterlimit="10" stroke-linecap="round" stroke-linejoin="round"/>
<path d="M126.855 88.7649L137.244 62.7582" stroke="black" stroke-width="1.48991" stroke-miterlimit="10" stroke-linecap="round" stroke-linejoin="round"/>
<path d="M136.251 255.104H39.478V154.347C39.478 128.833 61.1418 108.148 87.8642 108.148C114.587 108.148 136.251 128.833 136.251 154.347V255.104Z" fill="#5A87FE"/>
<path d="M40.2883 148.572C39.7563 151.511 39.478 154.54 39.478 157.637V190.45V255.104H136.251" stroke="black" stroke-width="1.48991" stroke-miterlimit="10" stroke-linecap="round" stroke-linejoin="round"/>
<path d="M135.268 147.663C135.912 150.884 136.25 154.22 136.25 157.637V191.161" stroke="black" stroke-width="1.48991" stroke-miterlimit="10" stroke-linecap="round" stroke-linejoin="round"/>
<path d="M44.9839 244.952H131.402" stroke="black" stroke-width="1.48991" stroke-miterlimit="10" stroke-linecap="round" stroke-linejoin="round"/>
<path d="M59.4702 72.1464C59.4702 72.1464 54.1837 73.4436 50.9826 64.8083C47.7828 56.1742 57.104 42.2526 67.9565 36.7252C78.8089 31.1978 92.9152 31.4052 99.7752 35.2867C106.635 39.1694 116.248 47.9683 119.372 55.6573C122.497 63.3463 120.613 73.6241 107.642 78.8465C94.6707 84.0712 59.4702 72.1464 59.4702 72.1464Z" fill="white" stroke="black" stroke-width="1.48991" stroke-miterlimit="10" stroke-linecap="round" stroke-linejoin="round"/>
<path d="M72.5605 45.0746C72.5605 45.0746 74.356 48.8676 75.6089 53.1179C76.8607 57.3694 96.5211 58.5455 96.5211 58.5455C96.5211 58.5455 102.044 51.7737 105.244 49.39" stroke="black" stroke-width="1.48991" stroke-miterlimit="10" stroke-linecap="round" stroke-linejoin="round"/>
<path d="M59.7156 54.4141C59.1813 54.4141 58.748 54.0003 58.748 53.4902V50.3139C58.748 49.8038 59.1813 49.3901 59.7156 49.3901C60.2499 49.3901 60.6832 49.8038 60.6832 50.3139V53.4902C60.6832 54.0015 60.2499 54.4141 59.7156 54.4141Z" fill="#59CC57"/>
<path d="M51.6826 62.2579C51.3209 61.8834 51.3444 61.2993 51.7378 60.9529L54.1826 58.7991C54.5748 58.4538 55.1866 58.4773 55.5494 58.8518C55.9111 59.2262 55.8876 59.8104 55.4942 60.1568L53.0494 62.3106C52.6572 62.6559 52.0454 62.6324 51.6826 62.2579Z" fill="#59CC57"/>
<path d="M64.3957 41.4959C64.6623 41.0542 65.2541 40.9029 65.7168 41.1585L68.5984 42.7472C69.061 43.0017 69.2195 43.5668 68.953 44.0085C68.6864 44.4502 68.0946 44.6016 67.6319 44.3471L64.7515 42.7584C64.2865 42.5016 64.128 41.9377 64.3957 41.4959Z" fill="#59CC57"/>
<path d="M75.3815 40.2536C75.169 39.7861 75.3932 39.2423 75.8829 39.0383L78.9348 37.7725C79.4244 37.5695 79.9939 37.7837 80.2077 38.2512C80.4202 38.7187 80.1959 39.2625 79.7062 39.4666L76.6544 40.7324C76.1635 40.9353 75.594 40.7212 75.3815 40.2536Z" fill="#59CC57"/>
<path d="M77.8872 45.4203C78.1056 44.955 78.6786 44.7464 79.1659 44.9561L82.2013 46.2567C82.6887 46.4652 82.9071 47.0123 82.6875 47.4776C82.4691 47.9429 81.8961 48.1514 81.4087 47.9418L78.3733 46.6412C77.886 46.4316 77.6676 45.8855 77.8872 45.4203Z" fill="#59CC57"/>
<path d="M91.6858 53.0385C91.4439 52.5833 91.6353 52.0283 92.1109 51.7973L95.0782 50.3611C95.555 50.1302 96.1362 50.3118 96.3781 50.767C96.62 51.2222 96.4298 51.7772 95.953 52.0081L92.9857 53.4443C92.5102 53.6753 91.9277 53.4937 91.6858 53.0385Z" fill="#59CC57"/>
<path d="M104.047 44.4701C104.375 44.0665 104.982 43.9936 105.405 44.3053L108.035 46.2506C108.458 46.5634 108.534 47.143 108.207 47.5466C107.88 47.9503 107.273 48.0231 106.85 47.7114L104.22 45.7662C103.797 45.4534 103.721 44.8738 104.047 44.4701Z" fill="#59CC57"/>
<path d="M102.665 60.1545C102.56 59.6544 102.9 59.1678 103.423 59.068L106.686 58.4458C107.209 58.346 107.719 58.67 107.823 59.1701C107.928 59.6701 107.589 60.1567 107.065 60.2565L103.803 60.8787C103.279 60.9785 102.769 60.6545 102.665 60.1545Z" fill="#59CC57"/>
<path d="M110.099 53.7885C110.232 53.2952 110.759 52.997 111.277 53.1248L114.499 53.9164C115.016 54.043 115.328 54.5465 115.196 55.0409C115.063 55.5353 114.536 55.8324 114.018 55.7057L110.796 54.9142C110.278 54.7864 109.967 54.283 110.099 53.7885Z" fill="#59CC57"/>
<path d="M113.399 61.0513C113.876 60.8203 114.457 61.0031 114.699 61.4571L116.203 64.2903C116.445 64.7455 116.255 65.3005 115.778 65.5315C115.302 65.7625 114.72 65.5808 114.478 65.1256L112.974 62.2924C112.732 61.8383 112.922 61.2822 113.399 61.0513Z" fill="#59CC57"/>
<path d="M109.507 69.1575C109.403 68.6575 109.742 68.1709 110.266 68.0711L113.528 67.4488C114.052 67.349 114.561 67.6731 114.666 68.1731C114.77 68.6732 114.431 69.1597 113.907 69.2595L110.645 69.8818C110.121 69.9816 109.612 69.6575 109.507 69.1575Z" fill="#59CC57"/>
<path d="M67.5582 48.8048C68.0479 48.6019 68.6174 48.816 68.8311 49.2835L70.1568 52.1975C70.3694 52.665 70.1451 53.2088 69.6554 53.4128C69.1658 53.6158 68.5963 53.4016 68.3826 52.9341L67.0568 50.0202C66.8431 49.5515 67.0685 49.0077 67.5582 48.8048Z" fill="#59CC57"/>
<path d="M106.126 76.4227C106.126 76.4227 117.209 80.8188 116.236 91.8243C115.354 101.788 107.641 108.739 107.641 108.739L94.4614 109.445C93.2648 103.16 87.289 102.581 87.289 102.581L75.934 101.872C70.9247 103.224 68.3284 112.234 68.4212 112.588L55.8531 113.731L53.4882 107.247C53.4882 107.247 47.3974 99.2095 49.6237 87.658C51.8501 76.1066 64.4064 77.6235 64.4064 77.6235L106.126 76.4227Z" fill="#59CC57"/>
<path d="M69.8505 102.403C69.8505 102.403 69.4759 100.677 70.7065 98.4308" stroke="black" stroke-width="1.48991" stroke-miterlimit="10" stroke-linecap="round" stroke-linejoin="round"/>
<path d="M80.8262 97.6894C80.8262 97.6894 72.5817 97.3048 68.4178 94.0938C64.2539 90.8839 59.0485 79.1766 61.842 69.8585C64.6356 60.5416 79.8973 59.8229 86.7361 60.37C93.5738 60.9172 104.33 66.5746 104.33 66.5746C104.33 66.5746 104.963 93.7238 92.5499 96.788C80.1357 99.8544 80.8262 97.6894 80.8262 97.6894Z" fill="black"/>
<path d="M93.4447 107.485C93.3672 110.834 88.2945 113.442 82.1144 113.311C75.9343 113.179 70.9883 110.36 71.0658 107.011C71.1433 103.662 76.2161 101.054 82.3962 101.185C88.5763 101.315 93.5234 104.136 93.4447 107.485Z" fill="#5A87FE" stroke="black" stroke-width="1.48991" stroke-miterlimit="10"/>
<path d="M84.2809 110.34L80.3846 110.257C76.8959 110.183 74.1306 107.422 74.2081 104.091L74.3513 97.9338C74.4288 94.6028 77.3199 91.9624 80.8086 92.0364L84.7059 92.1194C88.1946 92.1934 90.96 94.9537 90.8825 98.2847L90.7393 104.442C90.6618 107.773 87.7707 110.414 84.2809 110.34Z" fill="white" stroke="black" stroke-width="1.48991" stroke-miterlimit="10"/>
<path d="M57.8732 83.7867C57.7276 86.4327 59.8741 88.6907 62.6665 88.8309C65.46 88.971 67.8426 86.9406 67.9894 84.2946C68.135 81.6487 65.9896 79.3906 63.196 79.2493C60.4025 79.1103 58.02 81.1408 57.8732 83.7867Z" fill="white" stroke="black" stroke-width="1.48991" stroke-miterlimit="10"/>
<path d="M65.7291 84.1826C65.8101 82.7195 64.623 81.4705 63.0776 81.392" stroke="black" stroke-width="0.993275" stroke-miterlimit="10" stroke-linecap="round" stroke-linejoin="round"/>
<path d="M107.642 84.8408C107.665 87.4901 105.415 89.6551 102.618 89.6775C99.8211 89.7 97.5349 87.5697 97.5114 84.9204C97.4891 82.2711 99.7378 80.1061 102.535 80.0837C105.333 80.0624 107.619 82.1915 107.642 84.8408Z" fill="white" stroke="black" stroke-width="1.48991" stroke-miterlimit="10"/>
<path d="M99.7755 84.9034C99.7626 83.438 101.007 82.2406 102.554 82.2283" stroke="black" stroke-width="0.993275" stroke-miterlimit="10" stroke-linecap="round" stroke-linejoin="round"/>
<path d="M98.6712 86.4295C98.4269 93.6554 92.0343 99.3768 84.4663 99.1436L79.9971 99.0057C72.429 98.7725 66.4368 92.6688 66.681 85.4428L67.1602 71.2679C67.4044 64.0419 73.797 58.3194 81.3651 58.5538L85.8343 58.6917C93.4024 58.9249 99.3957 65.0285 99.1503 72.2545L98.6712 86.4295Z" fill="white" stroke="black" stroke-width="1.48991" stroke-miterlimit="10"/>
<path d="M87.2898 88.5011C86.968 90.4329 85.202 91.8871 83.1 91.8221C80.9993 91.757 79.3343 90.1986 79.144 88.25L87.2898 88.5011Z" stroke="black" stroke-width="1.48991" stroke-miterlimit="10" stroke-linecap="round" stroke-linejoin="round"/>
<path d="M74.4115 79.0924C74.3457 80.0678 73.4639 80.8078 72.4423 80.745C71.4207 80.6822 70.6457 79.8402 70.7114 78.8648C70.7772 77.8893 71.659 77.1494 72.6806 77.2122C73.7022 77.2738 74.4772 78.1158 74.4115 79.0924Z" fill="black"/>
<path d="M94.0287 79.5071C93.9629 80.4826 93.081 81.2225 92.0594 81.1598C91.0378 81.097 90.2628 80.255 90.3286 79.2796C90.3944 78.3041 91.2762 77.5642 92.2978 77.6269C93.3194 77.6897 94.0944 78.5317 94.0287 79.5071Z" fill="black"/>
<path d="M90.4141 75.5011C90.4141 75.5011 93.0526 74.9988 95.0031 76.4216" stroke="black" stroke-width="3.9731" stroke-miterlimit="10" stroke-linecap="round" stroke-linejoin="round"/>
<path d="M74.4783 75.1637C74.4783 75.1637 71.8656 74.5493 69.8506 75.8891" stroke="black" stroke-width="3.9731" stroke-miterlimit="10" stroke-linecap="round" stroke-linejoin="round"/>
<path d="M84.4568 83.5587L81.0938 83.4847L82.8645 76.5367" stroke="black" stroke-width="1.48991" stroke-miterlimit="10" stroke-linecap="round" stroke-linejoin="round"/>
<path d="M91.4473 50.9074C88.9133 50.0362 86.6423 49.5844 85.2355 49.4823C80.4845 49.1359 64.6403 49.2861 60.4987 59.3475C56.3571 69.409 60.8698 78.329 60.8698 78.329L61.026 75.7963C62.374 77.4119 67.0569 80.5557 67.0569 80.5557L67.9411 75.6303C67.9411 75.6303 87.3762 76.5508 88.8804 66.7305C88.9309 66.3986 87.6697 74.4935 94.3688 76.9466C94.3688 76.9466 92.9045 73.0315 93.9085 70.0839C93.9085 70.0839 93.6842 76.0183 98.0196 77.7325L98.4353 82.4471C98.4353 82.4471 100.648 80.5142 101.702 76.3087C101.79 80.3942 101.79 80.3942 101.79 80.3942C101.79 80.3942 107.209 75.6629 105.932 65.1866C104.985 57.4191 97.4712 52.9782 91.4473 50.9074Z" fill="black"/>
<path d="M69.1099 10.8372C69.1099 10.8372 59.9637 23.9796 73.8821 33.9166C87.8005 43.8547 105.211 34.7048 106.844 33.9166C108.478 33.1284 112.753 22.6869 109.274 14.9037C105.795 7.11943 69.1099 10.8372 69.1099 10.8372Z" fill="black"/>
<path d="M111.348 34.2361C111.02 36.5928 108.736 38.2454 106.249 37.9292C103.76 37.6131 102.011 35.4458 102.34 33.0902C102.668 30.7335 104.952 29.0809 107.439 29.3971C109.928 29.7133 111.677 31.8805 111.348 34.2361Z" fill="#FDF9F8" stroke="black" stroke-width="1.48991" stroke-miterlimit="10"/>
<path d="M104.329 33.9166C104.329 33.9166 104.534 30.9937 107.606 31.7124" stroke="black" stroke-width="1.48991" stroke-miterlimit="10" stroke-linecap="round" stroke-linejoin="round"/>
<path d="M66.4015 31.164C66.0727 33.5196 67.8223 35.6868 70.3106 36.003C72.7988 36.3191 75.0816 34.6665 75.4115 32.3098C75.7403 29.9531 73.9895 27.787 71.5025 27.4708C69.0142 27.1547 66.7303 28.8073 66.4015 31.164Z" fill="#FDF9F8" stroke="black" stroke-width="1.48991" stroke-miterlimit="10"/>
<path d="M73.2638 32.6103C73.2638 32.6103 73.8662 29.7378 70.7051 29.6627" stroke="black" stroke-width="1.48991" stroke-miterlimit="10" stroke-linecap="round" stroke-linejoin="round"/>
<path d="M90.5821 45.6799L86.0847 45.4389C78.4732 45.0308 72.6489 38.8094 73.0763 31.5408L73.6611 21.6016C74.0886 14.3342 80.6057 8.77315 88.2171 9.18126L92.7133 9.42231C100.325 9.83042 106.149 16.0529 105.722 23.3204L105.138 33.2596C104.711 40.527 98.1936 46.088 90.5821 45.6799Z" fill="white"/>
<path d="M90.5821 45.6799L86.0847 45.4389C78.4732 45.0308 72.6489 38.8094 73.0763 31.5408L73.6611 21.6016C74.0886 14.3342 80.6057 8.77315 88.2171 9.18126L92.7133 9.42231C100.325 9.83042 106.149 16.0529 105.722 23.3204L105.138 33.2596C104.711 40.527 98.1936 46.088 90.5821 45.6799Z" stroke="black" stroke-width="1.48991" stroke-miterlimit="10"/>
<path d="M81.4015 25.937C82.247 27.5941 80.2754 29.0729 78.6667 27.9147C78.5634 27.8407 78.4741 27.742 78.4131 27.6355C77.4584 25.9728 79.383 24.4413 81.0035 25.4997C81.1749 25.6118 81.3111 25.7621 81.4015 25.937Z" fill="black"/>
<path d="M99.62 27.812C99.5367 28.6854 98.7006 29.3312 97.7529 29.2539C96.8053 29.1765 96.1055 28.4051 96.1889 27.5317C96.2722 26.6583 97.1083 26.0125 98.0559 26.0899C99.0035 26.1673 99.7034 26.9386 99.62 27.812Z" fill="black"/>
<path d="M86.4165 36.188C86.5187 37.5391 87.6824 38.6434 89.1866 38.7208C90.6908 38.7981 91.9813 37.8216 92.2467 36.4897" stroke="black" stroke-width="1.48991" stroke-miterlimit="10"/>
<path d="M89.571 27.1086L87.6006 31.0204L89.7882 31.2771" stroke="black" stroke-width="1.48991" stroke-miterlimit="10" stroke-linecap="round" stroke-linejoin="round"/>
<path d="M78.2461 23.6274C79.0998 23.2899 80.0744 23.2226 80.9727 23.439" stroke="black" stroke-width="1.48991" stroke-miterlimit="10" stroke-linecap="round" stroke-linejoin="round"/>
<path d="M97.2104 24.3639C98.1346 24.2854 99.0845 24.4985 99.8666 24.9604" stroke="black" stroke-width="1.48991" stroke-miterlimit="10" stroke-linecap="round" stroke-linejoin="round"/>
<path d="M105.968 5.41078C105.028 4.79638 104.095 4.2683 103.172 3.81087C99.2986 1.43846 93.8054 0.359895 86.2092 2.64933L86.0096 0L83.7233 2.82199L80.9709 0L81.8527 3.3467C77.8403 3.29513 68.6576 4.432 66.416 15.5787C64.4468 25.3699 68.9243 24.3104 68.9243 24.3104C68.9243 24.3104 81.0566 20.828 84.0228 11.5178C84.6709 15.0013 86.7306 21.1644 93.2676 23.6265C93.2676 23.6265 91.154 20.4468 89.8447 17.7078C89.9551 17.7997 90.0702 17.8917 90.1841 17.9825C91.8562 20.2439 95.6596 23.2352 104.329 24.6535L103.374 21.6207C105.937 22.5681 108.957 23.2329 112.455 23.3137C112.455 23.3137 114.394 10.9169 105.968 5.41078Z" fill="black"/>
<path d="M84.2272 10.8375C84.2272 10.8375 83.3546 19.4549 71.3608 24.9609" stroke="black" stroke-width="1.48991" stroke-miterlimit="10" stroke-linecap="round" stroke-linejoin="round"/>
<path d="M65.7887 59.9279C64.5088 59.1924 58.5718 59.7115 55.9767 64.9474C53.1339 70.6833 56.8844 74.3215 56.8844 74.3215C56.8844 74.3215 59.1131 76.4562 61.2609 76.5347C63.4074 76.6132 63.2418 74.2486 63.2418 74.2486C64.7284 73.854 64.4865 73.0691 64.1601 72.2854L63.6375 72.3875L63.7032 72.0791C64.9433 72.3325 65.3449 71.7876 65.6713 71.0959C65.9484 70.5084 65.6948 69.9713 65.2063 69.5004L65.5187 69.3558C65.5187 69.3558 66.8737 68.8087 66.9571 66.9957C66.9958 66.1436 66.1763 65.2759 65.2979 64.5931C65.2979 64.5931 67.4257 66.054 67.866 64.5931C68.3064 63.1344 67.0687 60.6645 65.7887 59.9279Z" fill="white"/>
<path d="M63.2432 63.2913C63.2432 63.2913 67.0407 65.1827 66.9585 66.9967C66.8763 68.8097 65.52 69.3568 65.52 69.3568" stroke="black" stroke-width="1.48991" stroke-miterlimit="10" stroke-linecap="round" stroke-linejoin="round"/>
<path d="M61.4269 67.6281C61.4269 67.6281 66.6229 69.0868 65.6729 71.097C65.1621 72.1778 64.4811 72.91 60.6836 70.782" stroke="black" stroke-width="1.48991" stroke-miterlimit="10" stroke-linecap="round" stroke-linejoin="round"/>
<path d="M58.9492 73.3036C58.9492 73.3036 61.7569 74.6434 63.2423 74.2499C64.7289 73.8552 64.487 73.0704 64.1606 72.2867" stroke="black" stroke-width="1.48991" stroke-miterlimit="10" stroke-linecap="round" stroke-linejoin="round"/>
<path d="M65.2999 64.5963C65.2999 64.5963 67.4276 66.0572 67.868 64.5963C68.3083 63.1354 67.0707 60.6654 65.7907 59.9299C64.5108 59.1944 58.5738 59.7135 55.9787 64.9494C53.1358 70.6853 56.8864 74.3236 56.8864 74.3236C56.8864 74.3236 59.1151 76.4583 61.2628 76.5367C63.4093 76.6152 63.2438 74.2507 63.2438 74.2507" stroke="black" stroke-width="1.48991" stroke-miterlimit="10" stroke-linecap="round" stroke-linejoin="round"/>
<path d="M104.085 64.4989C104.085 64.4989 101.163 61.798 99.5861 63.1244C98.5222 64.0202 99.6976 66.2771 100.811 67.71C101.924 69.1428 102.833 69.5464 101.441 70.875C100.05 72.2036 95.5513 73.5322 96.7103 75.7589C97.4372 77.1559 102.09 75.1254 102.09 75.1254C100.605 76.454 97.2434 83.4008 99.835 83.3896C100.197 83.3885 100.55 83.3055 100.892 83.1653L100.884 83.273C100.884 83.273 100.42 85.0444 101.811 85.133C102.43 85.1722 103.341 84.6946 104.237 83.8795L104.215 84.0118C104.376 84.8897 104.997 85.3191 106.01 85.1352C107.958 84.7809 107.98 83.033 109.649 79.5787C111.319 76.1244 110.948 70.5533 110.948 70.5533L104.085 64.4989Z" fill="white"/>
<path d="M100.885 83.2742C100.885 83.2742 100.421 85.0457 101.813 85.1342C103.204 85.2228 106.08 82.7047 106.914 79.58" stroke="black" stroke-width="1.48991" stroke-miterlimit="10" stroke-linecap="round" stroke-linejoin="round"/>
<path d="M105.246 78.0085C105.246 78.0085 102.831 83.3778 99.8369 83.3913C97.2453 83.4025 100.608 76.4557 102.092 75.1271C102.092 75.1271 97.4391 77.1576 96.7123 75.7606C95.5533 73.5339 100.052 72.2053 101.443 70.8767C102.835 69.5482 101.926 69.1445 100.813 67.7117C99.6995 66.2788 98.5241 64.0208 99.588 63.1261C101.165 61.7997 104.087 64.5006 104.087 64.5006C104.087 64.5006 109.475 68.4584 110.638 70.5897C111.617 72.3847 111.461 73.9902 109.652 79.5815C108.477 83.2164 107.642 85.0551 105.664 85.1796C105.038 85.2188 104.379 84.8914 104.218 84.0147" stroke="black" stroke-width="1.48991" stroke-miterlimit="10" stroke-linecap="round" stroke-linejoin="round"/>
<path d="M67.109 117.04L71.1578 116.215C71.1578 116.215 74.4457 112.243 69.6113 105.623C65.1926 99.5736 55.7399 101.065 52.9851 102.055C50.2303 103.045 67.109 117.04 67.109 117.04Z" fill="white" stroke="black" stroke-width="1.48991" stroke-miterlimit="10" stroke-linecap="round" stroke-linejoin="round"/>
<path d="M65.3049 104.48C70.818 108.353 73.008 114.45 70.1968 118.096C67.3857 121.742 60.6385 121.559 55.1265 117.684C49.6134 113.81 47.4234 107.713 50.2346 104.067C53.0445 100.421 59.7918 100.606 65.3049 104.48Z" fill="white" stroke="black" stroke-width="1.48991" stroke-miterlimit="10" stroke-linecap="round" stroke-linejoin="round"/>
<path d="M97.6532 116.089L93.6231 115.188C93.6231 115.188 90.6452 110.742 95.7978 104.346C99.8149 99.3591 107.681 99.8435 110.415 100.885C113.147 101.927 97.6532 116.089 97.6532 116.089Z" fill="white" stroke="black" stroke-width="1.48991" stroke-miterlimit="10" stroke-linecap="round" stroke-linejoin="round"/>
<path d="M109.597 116.949C115.189 113.181 117.506 107.128 114.771 103.429C112.037 99.7295 105.287 99.7855 99.6955 103.554C94.1035 107.322 91.7868 113.375 94.5211 117.074C97.2553 120.773 104.005 120.717 109.597 116.949Z" fill="white" stroke="black" stroke-width="1.48991" stroke-miterlimit="10" stroke-linecap="round" stroke-linejoin="round"/>
</svg>
