<svg width="24" height="24" viewBox="0 0 24 24" fill="none" xmlns="http://www.w3.org/2000/svg">
<path d="M4 9.20426C4 7.1311 4 6.09453 4.35762 5.25266C4.65634 4.54944 5.1278 3.94584 5.7219 3.50602C6.43314 2.97948 7.38764 2.79406 9.29665 2.4232C11.2817 2.03756 12.2743 1.84474 13.0467 2.15201C13.6884 2.40727 14.229 2.88938 14.5789 3.51827C15 4.27532 15 5.35321 15 7.509V16.4909C15 18.6467 15 19.7246 14.5789 20.4816C14.229 21.1105 13.6884 21.5926 13.0467 21.8479C12.2743 22.1552 11.2817 21.9623 9.29665 21.5767C7.38764 21.2058 6.43314 21.0204 5.7219 20.4939C5.1278 20.0541 4.65634 19.4505 4.35762 18.7472C4 17.9054 4 16.8688 4 14.7956V9.20426Z" stroke="#5A87FE" stroke-width="1.5"/>
<path d="M15 19.7982C16.4473 19.9487 18.3999 20.4116 19.4375 19.0884C20 18.3712 20 17.2786 20 15.0933V8.90658C20 6.72133 20 5.6287 19.4375 4.91147C18.3999 3.58835 16.4473 4.05123 15 4.20171" stroke="#5A87FE" stroke-width="1.5"/>
<path d="M12 13V11" stroke="#5A87FE" stroke-width="1.5" stroke-linecap="round" stroke-linejoin="round"/>
<path d="M19 19.7266H22" stroke="#5A87FE" stroke-width="1.5" stroke-linecap="round" stroke-linejoin="round"/>
<path d="M2 20H5" stroke="#5A87FE" stroke-width="1.5" stroke-linecap="round" stroke-linejoin="round"/>
</svg>
