<svg width="19" height="20" viewBox="0 0 19 20" fill="none" xmlns="http://www.w3.org/2000/svg">
<path d="M12.1684 15.0817C14.0629 14.857 15.8898 14.4116 17.6227 13.7719C16.1859 12.177 15.3113 10.0656 15.3113 7.75V7.04919C15.3115 7.03281 15.3115 7.01641 15.3115 7C15.3115 3.68629 12.6252 1 9.31152 1C5.99781 1 3.31152 3.68629 3.31152 7L3.31133 7.75C3.31133 10.0656 2.4368 12.177 1 13.7719C2.73293 14.4116 4.55996 14.857 6.45466 15.0818M12.1684 15.0817C11.2315 15.1928 10.2781 15.25 9.31133 15.25C8.34469 15.25 7.3914 15.1929 6.45466 15.0818M12.1684 15.0817C12.2613 15.3711 12.3115 15.6797 12.3115 16C12.3115 17.6569 10.9684 19 9.31152 19C7.65467 19 6.31152 17.6569 6.31152 16C6.31152 15.6797 6.36171 15.3712 6.45466 15.0818" stroke="#111111" stroke-width="1.5" stroke-linecap="round" stroke-linejoin="round"/>
</svg>
