<svg width="138" height="137" viewBox="0 0 138 137" fill="none" xmlns="http://www.w3.org/2000/svg">
<g filter="url(#filter0_d_1336_2363)">
<rect x="20" y="19" width="98" height="98" rx="49" fill="#111111"/>
<path d="M68.5 87.9845C66.0694 87.9845 63.7931 87.523 61.6711 86.6001C59.5491 85.6771 57.7019 84.4294 56.1294 82.857C54.557 81.2846 53.3094 79.4374 52.3864 77.3153C51.4634 75.1933 51.0013 72.9164 51 70.4845C51 69.9336 51.1867 69.4721 51.56 69.1001C51.9333 68.728 52.3948 68.5414 52.9444 68.5401C53.4941 68.5388 53.9562 68.7254 54.3308 69.1001C54.7055 69.4747 54.8915 69.9362 54.8889 70.4845C54.8889 74.2762 56.2098 77.4929 58.8517 80.1348C61.4935 82.7766 64.7096 84.0969 68.5 84.0956C72.2904 84.0943 75.5071 82.774 78.1503 80.1348C80.7934 77.4955 82.1137 74.2788 82.1111 70.4845C82.1085 66.6902 80.7882 63.4741 78.1503 60.8362C75.5123 58.1982 72.2956 56.8773 68.5 56.8734H68.2083L69.8611 58.5262C70.25 58.9151 70.4367 59.3688 70.4211 59.8873C70.4056 60.4058 70.2189 60.8595 69.8611 61.2484C69.4722 61.6373 69.0107 61.8402 68.4767 61.857C67.9426 61.8739 67.4805 61.6872 67.0903 61.297L62.0833 56.2901C61.6944 55.9012 61.5 55.4475 61.5 54.929C61.5 54.4104 61.6944 53.9567 62.0833 53.5678L67.0903 48.5609C67.4792 48.172 67.9413 47.9853 68.4767 48.0009C69.012 48.0165 69.4735 48.2193 69.8611 48.6095C70.2176 48.9984 70.4043 49.4521 70.4211 49.9706C70.438 50.4891 70.2513 50.9428 69.8611 51.3317L68.2083 52.9845H68.5C70.9306 52.9845 73.2075 53.4466 75.3308 54.3709C77.4542 55.2952 79.3014 56.5428 80.8725 58.114C82.4436 59.6851 83.6913 61.5323 84.6156 63.6556C85.5398 65.779 86.0013 68.0552 86 70.4845C85.9987 72.9138 85.5372 75.1907 84.6156 77.3153C83.6939 79.44 82.4462 81.2872 80.8725 82.857C79.2988 84.4268 77.4516 85.6745 75.3308 86.6001C73.2101 87.5256 70.9331 87.9871 68.5 87.9845Z" fill="#F5F5F5"/>
</g>
<defs>
<filter id="filter0_d_1336_2363" x="-3" y="0" width="144" height="144" filterUnits="userSpaceOnUse" color-interpolation-filters="sRGB">
<feFlood flood-opacity="0" result="BackgroundImageFix"/>
<feColorMatrix in="SourceAlpha" type="matrix" values="0 0 0 0 0 0 0 0 0 0 0 0 0 0 0 0 0 0 127 0" result="hardAlpha"/>
<feMorphology radius="2" operator="dilate" in="SourceAlpha" result="effect1_dropShadow_1336_2363"/>
<feOffset dy="4"/>
<feGaussianBlur stdDeviation="10.5"/>
<feComposite in2="hardAlpha" operator="out"/>
<feColorMatrix type="matrix" values="0 0 0 0 0 0 0 0 0 0 0 0 0 0 0 0 0 0 0.16 0"/>
<feBlend mode="normal" in2="BackgroundImageFix" result="effect1_dropShadow_1336_2363"/>
<feBlend mode="normal" in="SourceGraphic" in2="effect1_dropShadow_1336_2363" result="shape"/>
</filter>
</defs>
</svg>
