<svg width="50" height="69" viewBox="0 0 50 69" fill="none" xmlns="http://www.w3.org/2000/svg">
<path d="M17.0161 6.36519C20.9981 4.12173 22.9893 3 25.1667 3C27.3441 3 29.3353 4.12173 33.3173 6.36519L38.859 9.48727C42.9925 11.816 45.0593 12.9804 46.1962 14.9277C47.3333 16.875 47.3333 19.25 47.3333 24V29.4999C47.3333 34.2499 47.3333 36.6249 46.1962 38.5724C45.0593 40.5196 42.9925 41.684 38.859 44.0128L33.3173 47.1348C29.3353 49.3784 27.3441 50.5 25.1667 50.5C22.9893 50.5 20.9981 49.3784 17.0161 47.1348L11.4744 44.0128C7.3409 41.684 5.27414 40.5196 4.13709 38.5724C3 36.6249 3 34.2499 3 29.4999V24C3 19.25 3 16.875 4.13709 14.9277C5.27414 12.9804 7.3409 11.816 11.4744 9.48727L17.0161 6.36519Z" stroke="#FDA811" stroke-width="4.75" stroke-linejoin="round"/>
<path d="M15.6667 28.8613C15.6667 28.8613 18.0417 28.8613 20.4167 33.0834C20.4167 33.0834 27.961 22.5279 34.6667 20.4167" stroke="#FDA811" stroke-width="4.75" stroke-linecap="round" stroke-linejoin="round"/>
<path d="M40.6279 44.1667L42.7502 54.3314C44.1138 60.8624 44.7956 64.1278 43.395 65.6757C41.9947 67.2232 39.5624 65.892 34.698 63.2294L27.4986 59.2885C26.3491 58.6593 25.7744 58.3449 25.1667 58.3449C24.559 58.3449 23.9843 58.6593 22.8348 59.2885L15.6353 63.2294C10.7709 65.892 8.33877 67.2232 6.93825 65.6757C5.53776 64.1278 6.21954 60.8624 7.58317 54.3314L9.7055 44.1667" stroke="#FDA811" stroke-width="4.75" stroke-linecap="round" stroke-linejoin="round"/>
</svg>
