<svg width="39" height="39" viewBox="0 0 39 39" fill="none" xmlns="http://www.w3.org/2000/svg">
<circle cx="19.5" cy="19.5" r="18.5" stroke="black" stroke-width="0.75"/>
<path d="M21.345 27.6319C24.9006 27.3956 27.7328 24.5232 27.9658 20.9173C28.0114 20.2116 28.0114 19.4808 27.9658 18.7751C27.7328 15.1691 24.9006 12.2968 21.345 12.0604C20.132 11.9798 18.8656 11.9799 17.655 12.0604C14.0994 12.2968 11.2672 15.1691 11.0342 18.7751C10.9886 19.4808 10.9886 20.2116 11.0342 20.9173C11.1191 22.2306 11.6999 23.4466 12.3837 24.4734C12.7808 25.1923 12.5187 26.0894 12.1052 26.8731C11.807 27.4382 11.6579 27.7208 11.7776 27.9248C11.8973 28.1289 12.1647 28.1355 12.6995 28.1485C13.7571 28.1742 14.4703 27.8743 15.0364 27.4569C15.3574 27.2202 15.518 27.1018 15.6286 27.0882C15.7393 27.0746 15.957 27.1643 16.3924 27.3436C16.7837 27.5048 17.2381 27.6042 17.655 27.6319C18.8656 27.7124 20.132 27.7126 21.345 27.6319Z" stroke="black" stroke-linejoin="round"/>
<path d="M19.496 20.075H19.5037M22.8922 20.075H22.8998M16.0999 20.075H16.1075" stroke="black" stroke-width="1.7" stroke-linecap="round" stroke-linejoin="round"/>
</svg>
