<svg width="39" height="39" viewBox="0 0 39 39" fill="none" xmlns="http://www.w3.org/2000/svg">
<circle cx="19.5" cy="19.5" r="18.5" stroke="black" stroke-width="0.75"/>
<path d="M16.7898 15.1095L16.4766 14.4049C16.2718 13.9441 16.1694 13.7138 16.0163 13.5375C15.8244 13.3165 15.5743 13.154 15.2944 13.0683C15.0711 13 14.819 13 14.3148 13C13.5773 13 13.2085 13 12.8989 13.1418C12.5342 13.3088 12.2049 13.6714 12.0737 14.0505C11.9623 14.3722 11.9942 14.7029 12.058 15.3642C12.7373 22.4035 16.5965 26.2628 23.6358 26.942C24.2971 27.0059 24.6278 27.0378 24.9495 26.9264C25.3286 26.7952 25.6912 26.4658 25.8583 26.1012C26 25.7915 26 25.4228 26 24.6852C26 24.181 26 23.9289 25.9317 23.7056C25.8461 23.4257 25.6835 23.1756 25.4626 22.9837C25.2863 22.8306 25.0559 22.7282 24.5952 22.5234L23.8905 22.2102C23.3916 21.9885 23.142 21.8777 22.8886 21.8535C22.6459 21.8304 22.4013 21.8645 22.1742 21.9529C21.9369 22.0453 21.7272 22.2201 21.3077 22.5696C20.8901 22.9176 20.6814 23.0916 20.4263 23.1848C20.2001 23.2674 19.9011 23.298 19.663 23.2629C19.3942 23.2233 19.1885 23.1134 18.777 22.8934C17.4968 22.2093 16.7908 21.5033 16.1066 20.223C15.8867 19.8116 15.7767 19.6058 15.7371 19.3371C15.702 19.0989 15.7326 18.7999 15.8152 18.5738C15.9084 18.3187 16.0824 18.1099 16.4304 17.6923C16.7799 17.2729 16.9547 17.0631 17.0471 16.8258C17.1356 16.5987 17.1696 16.3541 17.1465 16.1115C17.1224 15.858 17.0115 15.6085 16.7898 15.1095Z" stroke="black" stroke-linecap="round"/>
</svg>
