<svg width="145" height="145" viewBox="0 0 145 145" fill="none" xmlns="http://www.w3.org/2000/svg">
<g clip-path="url(#clip0_2329_3630)">
<path d="M30.6883 128.369C30.5296 133.912 30.2811 139.463 29.9291 145H29.0939C29.4321 139.151 29.5908 133.288 29.8669 127.432C29.8877 126.863 30.4813 125.565 30.4813 125.461H30.6883C30.6676 126.405 30.7159 127.383 30.6883 128.369Z" fill="black"/>
<path d="M109.121 145H108.141L107.844 126.703L109.121 145Z" fill="black"/>
<path d="M61.8391 120.674C60.0928 120.368 58.4293 119.966 56.7865 119.439C63.6821 120.251 61.4802 120.563 61.8391 120.674Z" fill="#EF6F6F"/>
<path d="M109.121 145L107.844 126.703L108.141 145H29.9291C30.2811 139.463 30.5296 133.912 30.6883 128.369C30.7159 127.383 30.6676 126.405 30.6883 125.461H30.4813C30.4813 125.565 29.8877 126.863 29.8669 127.432C29.5908 133.288 29.4321 139.151 29.0939 145H0.559099C1.42881 141.128 2.11906 137.222 3.00947 133.35C3.24416 132.317 3.3615 131.283 3.63069 130.235C4.4935 126.807 5.41843 123.345 6.7299 120.063C6.89556 119.64 7.17166 119.224 7.34422 118.814C8.31746 116.545 9.29071 114.436 10.6505 112.375C10.8438 112.084 11.0715 111.827 11.2717 111.543C12.3071 110.106 13.2665 109.003 14.578 107.81C14.9162 107.498 15.1371 107.449 15.1992 107.394C19.7617 103.501 24.8627 101.107 30.4813 99.0882C30.4951 99.0813 30.4053 98.9772 30.6883 98.8801C31.558 98.5748 32.4761 98.325 33.2699 97.8393C33.5736 97.8879 34.5606 100.289 34.8229 100.747C34.9748 101.017 35.0783 101.315 35.2371 101.579C36.2586 103.348 37.2871 105.152 38.5433 106.769C38.7435 107.033 38.9023 107.331 38.9506 107.394C39.8272 108.462 41.4217 109.954 42.4639 110.925C42.6089 111.057 42.7469 111.224 42.8781 111.342C45.9221 114.068 50.457 117.073 54.2395 118.606V119.161C55.0402 119.244 55.8892 119.335 56.7727 119.439H56.7865C58.4293 119.966 60.0928 120.368 61.8391 120.674C61.8529 120.674 61.8668 120.681 61.8806 120.681C62.3775 120.771 62.274 120.889 62.2947 120.889C63.3991 121.062 64.7037 121.229 65.8081 121.305C66.0151 121.319 66.2222 121.298 66.4293 121.305C67.4439 121.354 68.5069 121.326 69.5285 121.305C69.7287 121.298 69.9426 121.305 70.1497 121.305C72.5173 121.229 74.8572 120.958 77.1695 120.473C77.4801 120.41 77.5975 120.313 77.7907 120.264C78.8675 120.022 80.0547 119.786 81.097 119.439C81.1315 119.425 81.4628 119.113 81.7113 119.022C84.3688 118.065 86.757 116.989 89.1522 115.491C89.3731 115.352 89.5111 115.317 89.5663 115.283C92.0788 113.652 94.7639 111.272 96.7932 109.052C97.0003 108.83 97.2695 108.594 97.4144 108.434C98.4153 107.276 100.134 105.125 100.928 103.862C101.024 103.709 101.142 103.355 101.342 103.029C102.294 101.475 103.102 99.4351 103.82 97.7352C104.213 97.3883 104.786 97.9781 105.055 98.0474C105.47 98.1585 105.449 98.2487 105.47 98.2556C108.293 99.2131 110.778 100.677 113.318 102.204C113.559 102.349 113.518 102.405 113.525 102.412C114.781 103.175 115.844 103.827 117.038 104.694C117.059 104.708 117.183 104.694 117.452 104.903C118.702 105.832 119.813 106.762 120.966 107.81C121.048 107.886 121.111 107.956 121.173 108.018C122.45 109.204 123.782 110.391 124.886 111.751C124.935 111.813 125.045 112.105 125.093 112.167C126.584 114.068 127.972 116.004 129.021 118.19C129.469 119.127 129.897 120.32 130.263 121.305C131.409 124.455 132.051 127.584 132.741 130.859C132.865 131.47 133.031 132.108 133.155 132.726C133.928 136.785 134.557 140.879 134.922 145H109.121Z" fill="#EF6F6F"/>
<path d="M143.067 116.011C142.55 117.413 138.222 125.253 136.972 125.253C136.938 125.253 136.455 124.768 136.455 124.733C136.462 124.372 140.148 120.133 140.796 118.919C153.386 95.3279 128.855 78.2038 117.245 61.1906C113.801 56.1394 111.088 50.7413 108.983 44.9963C110.929 68.705 136.475 82.3807 134.391 107.29C134.232 109.226 133.597 111.883 132.948 113.729C132.52 114.943 130.208 118.565 130.263 119.335C130.298 119.855 131.865 122.922 132.12 123.9C132.907 126.933 133.611 130.166 134.184 133.247C134.563 135.245 135.896 142.371 136.048 145H134.922C134.557 140.879 133.928 136.785 133.155 132.726C133.031 132.109 132.865 131.47 132.741 130.86C132.051 127.585 131.409 124.456 130.263 121.306C129.897 120.32 129.469 119.127 129.021 118.19C127.972 116.005 126.584 114.069 125.093 112.168C125.045 112.105 124.935 111.814 124.886 111.751C123.782 110.391 122.45 109.205 121.173 108.018C121.111 107.956 121.048 107.887 120.966 107.81C119.813 106.762 118.702 105.833 117.452 104.903C117.183 104.702 117.059 104.709 117.038 104.695C115.844 103.828 114.781 103.175 113.525 102.412C113.525 102.405 113.559 102.35 113.318 102.204C110.778 100.677 108.293 99.2134 105.47 98.2559C105.449 98.249 105.47 98.1588 105.055 98.0478C104.786 97.9784 104.213 97.3886 103.82 97.7355C103.102 99.4355 102.294 101.475 101.342 103.03C101.142 103.356 101.024 103.71 100.928 103.862C100.134 105.125 98.4153 107.276 97.4144 108.435C97.2695 108.594 97.0003 108.83 96.7932 109.052C94.7639 111.272 92.0788 113.652 89.5663 115.283C89.5111 115.318 89.3731 115.352 89.1522 115.491C86.757 116.99 84.3688 118.065 81.7113 119.023C81.4628 119.113 81.1315 119.425 81.097 119.439C80.0547 119.786 78.8675 120.022 77.7907 120.265C77.5975 120.313 77.4801 120.41 77.1695 120.473C74.8572 120.959 72.5173 121.229 70.1497 121.306C69.9426 121.306 69.7287 121.299 69.5285 121.306C68.5069 121.326 67.4439 121.354 66.4293 121.306C66.2222 121.299 66.0151 121.319 65.8081 121.306C64.7037 121.229 63.3991 121.063 62.2947 120.889C62.274 120.889 62.3775 120.771 61.8806 120.681C61.8668 120.681 61.853 120.674 61.8391 120.674C60.0928 120.369 58.4293 119.966 56.7865 119.439H56.7727C55.9997 119.189 55.2197 118.912 54.4466 118.606C54.3845 118.586 54.3017 118.627 54.2395 118.606C50.457 117.073 45.9221 114.069 42.8781 111.342C42.7469 111.224 42.6089 111.057 42.4639 110.926C41.4217 109.954 39.8272 108.462 38.9506 107.394C38.9023 107.331 38.7435 107.033 38.5433 106.769C37.2871 105.153 36.2586 103.349 35.2371 101.579C35.0783 101.316 34.9748 101.017 34.8229 100.747C34.5606 100.289 33.5736 97.8882 33.2699 97.8396C32.4761 98.3253 31.5581 98.5751 30.6883 98.8804C30.4053 98.9775 30.4951 99.0816 30.4813 99.0885C24.8627 101.108 19.7617 103.501 15.1992 107.394C15.1371 107.449 14.9162 107.498 14.578 107.81C13.2665 109.004 12.3071 110.107 11.2717 111.543C11.0715 111.828 10.8438 112.084 10.6505 112.376C9.29071 114.436 8.31747 116.546 7.34422 118.815C7.17166 119.224 6.89556 119.64 6.7299 120.064C5.41843 123.345 4.4935 126.808 3.63069 130.235C3.3615 131.283 3.24416 132.317 3.00947 133.351C2.11906 137.222 1.42881 141.129 0.559099 145H0C2.00171 132.324 4.74199 114.825 14.8886 106.353C18.5607 103.286 23.068 101.545 27.175 99.1926C21.3148 93.9818 21.3838 85.51 23.2544 78.4258C24.2276 74.7415 26.4502 71.4596 27.5891 68.0458C30.8333 58.3389 28.7004 47.7647 29.8669 37.7248C33.3182 7.91713 60.4241 -9.25557 88.0133 5.225C109.929 16.729 104.289 36.2538 113.939 54.3354C124.479 74.0823 152.565 90.3669 143.067 116.011Z" fill="black"/>
<path d="M91.6302 112.688L86.5707 115.907C86.3015 115.838 84.3136 111.57 84.4033 111.237C84.4654 110.988 87.82 108.788 88.2204 108.226L91.6302 112.688Z" fill="#EF6F6F"/>
<path d="M94.4188 100.538C94.7294 100.476 99.5956 102.571 100.307 102.925L97.518 106.769C96.8967 106.346 92.8864 103.029 92.8726 102.724C92.8726 102.578 94.2876 100.566 94.4188 100.538Z" fill="#EF6F6F"/>
<path d="M100.617 102.204L94.7294 99.6086L96.6897 95.1402L102.992 97.3189C103.157 97.7838 101.059 102.134 100.617 102.204Z" fill="#EF6F6F"/>
<path d="M92.3549 103.654L97.0003 107.498L92.562 111.959C92.21 111.959 88.952 107.983 88.9451 107.706C88.9451 107.387 91.9753 104.264 92.3549 103.654Z" fill="#EF6F6F"/>
<path d="M45.0455 103.654C45.4872 104.139 48.6485 107.234 48.6623 107.498C48.6762 107.796 45.4803 111.571 45.0455 112.167L40.6072 107.907L45.0455 103.647V103.654Z" fill="#EF6F6F"/>
<path d="M58.6847 113.826C59.4095 114.374 64.6139 115.109 64.7796 115.38C64.9453 115.65 64.6001 120.105 64.2619 120.257L57.3387 118.703L58.6847 113.826Z" fill="#EF6F6F"/>
<path d="M78.7226 113.826L80.2687 118.71L73.3455 120.264L72.6277 115.595L78.7226 113.826Z" fill="#EF6F6F"/>
<path d="M40.5036 95.5565C41.8289 95.5149 41.8979 98.6649 42.8781 99.6086C42.1602 100.06 36.9144 102.301 36.5761 102.204C36.3277 102.134 34.4433 98.3805 34.4088 97.7421C34.5261 97.4368 40.1792 95.5704 40.5036 95.5634V95.5565Z" fill="#EF6F6F"/>
<path d="M65.9116 115.491H71.6959L72.2135 120.368L65.2904 120.264L65.9116 115.491Z" fill="#EF6F6F"/>
<path d="M49.18 108.219L53.2042 111.022L50.8297 115.907L45.7702 112.688L49.18 108.219Z" fill="#EF6F6F"/>
<path d="M42.9816 100.538C43.3682 100.573 44.7418 102.578 44.7348 102.717C44.7141 103.043 40.5382 106.568 39.8824 106.977L37.0938 102.925C38.1499 102.807 42.3742 100.483 42.9816 100.538Z" fill="#EF6F6F"/>
<path d="M53.9289 111.751C54.1222 111.668 57.677 113.319 57.7529 113.513C57.8909 113.888 56.5657 117.669 56.4069 118.391L51.7616 116.42C51.9686 115.817 53.6942 111.848 53.9289 111.751Z" fill="#EF6F6F"/>
<path d="M83.2644 111.751L85.8459 116.212L81.2006 118.391C81.0625 117.746 79.5923 113.957 79.6544 113.721C79.7303 113.395 82.8433 112.292 83.2713 111.751H83.2644Z" fill="#EF6F6F"/>
<path d="M95.7648 94.828C87.7579 121.166 50.8435 121.257 41.8427 95.4525C43.5062 93.9329 56.1032 92.5869 56.614 92.0249C56.8211 91.8028 57.2559 89.7837 56.9246 87.5634C56.6968 86.03 57.5389 83.1228 57.4423 81.4368C63.6959 87.8687 72.2412 90.7066 80.9935 87.8757C81.4559 88.2503 80.4896 91.0535 80.9935 91.6086C81.5043 92.1706 94.1082 93.4334 95.7648 94.828Z" fill="white"/>
<path d="M41.2284 60.4617C41.3595 60.4062 41.6702 60.5103 41.8496 60.4617C43.3129 61.5441 44.3828 64.486 42.5744 65.6517C39.5442 67.6084 36.5209 62.4878 41.2284 60.4617Z" fill="#EF6F6F"/>
<path d="M94.5223 60.4618C94.5223 60.4618 95.04 60.5173 95.3506 60.2536C102.488 65.5615 91.2367 68.9059 93.2868 62.2241C93.411 61.8286 94.2048 60.7532 94.5292 60.4618H94.5223Z" fill="#EF6F6F"/>
<path d="M68.1825 18.1025C69.8046 17.929 67.6924 24.465 67.4578 25.0617C64.9729 31.3063 59.7753 35.0809 53.9289 37.8354C53.0799 38.2379 44.6037 41.6932 44.3207 41.263C44.0722 40.8814 44.5623 40.368 44.8384 40.1182C45.4803 39.5423 49.7391 37.8216 51.0368 37.0028C58.2913 32.4165 64.6415 26.0401 68.1825 18.1094V18.1025Z" fill="white"/>
<path d="M95.3506 60.2536C95.04 60.5173 94.5568 60.434 94.5223 60.4617C90.8778 58.9492 91.3057 62.3213 90.3877 64.5138C80.4344 88.3613 56.4966 89.4576 46.3845 65.3464C45.5977 63.4661 45.6874 60.0316 43.1818 59.8442C42.5261 59.7957 42.1257 60.3924 41.8358 60.4687C41.6564 60.5173 41.3457 60.4132 41.2146 60.4687C37.8393 58.1374 35.3061 54.1477 35.0162 49.9847C34.6089 44.1009 39.3302 41.9569 43.1749 46.3489L44.2103 41.7834C55.4061 38.4946 66.8365 33.3601 69.2041 20.6003C72.6139 27.5665 77.9495 34.0054 84.9072 37.6273C86.0599 38.224 91.782 40.1459 92.0374 40.4304C92.6931 41.1659 92.9071 45.4122 93.1763 46.5571C97.1176 41.6377 102.094 44.1633 101.542 50.401C101.128 55.133 98.6431 57.4851 95.3437 60.2675L95.3506 60.2536Z" fill="white"/>
<path d="M81.9184 54.0228C81.8494 54.1339 80.9452 54.7444 80.883 54.8555C76.8175 55.2093 77.5422 45.0722 81.4007 46.9664C83.3679 47.9309 82.8917 52.3992 81.9184 54.0298V54.0228Z" fill="black"/>
<path d="M55.8892 54.8555C54.9022 54.8208 54.9505 54.1477 54.4466 54.0229C53.218 52.6976 53.3008 47.7574 54.9643 46.9595C58.9884 45.0306 59.1748 54.9734 55.8961 54.8485L55.8892 54.8555Z" fill="black"/>
<path d="M79.1298 39.695C81.5526 39.355 86.6328 42.2899 87.0814 44.989C85.701 44.1841 77.6251 42.623 77.3697 41.6655C77.1143 40.708 78.2463 39.8129 79.1229 39.695H79.1298Z" fill="black"/>
<path d="M55.7926 39.9031C57.2352 39.7366 58.5329 39.8129 59.2024 41.2561C58.9125 41.6863 58.9815 42.0471 58.4776 42.401C57.0764 43.3862 51.2094 43.9066 49.2836 44.9959C50.0359 42.7964 53.5493 40.1598 55.7926 39.9101V39.9031Z" fill="black"/>
<path d="M67.9754 46.1339C68.8313 45.9049 68.3482 49.2839 68.286 49.7696C68.003 51.9067 65.7736 56.7358 66.0151 58.2831C66.3879 60.6769 69.2662 59.7541 69.9426 58.075C71.3093 57.4921 69.5078 61.0169 66.947 60.4618C63.4474 59.7055 67.0367 52.4617 67.4647 50.3871C67.6096 49.6933 67.5337 46.2518 67.9823 46.1269L67.9754 46.1339Z" fill="black"/>
<path d="M68.8037 26.8241C72.7312 34.5466 81.5112 39.3897 89.5663 41.6724C89.3455 42.0263 88.7795 41.832 88.4274 41.7765C83.4093 40.9924 73.7114 34.7062 70.557 30.668C69.9495 29.8909 68.2791 27.7469 68.8037 26.8241Z" fill="black"/>
<path d="M65.4491 69.4055C64.3516 69.6067 65.7183 67.3586 65.9668 67.0186C67.651 64.6942 71.0263 63.9241 73.7114 64.6318C74.16 64.7498 76.8382 66.4427 76.9141 66.8105C77.2385 68.4688 74.5949 65.7073 73.9185 65.4575C70.2878 64.1322 66.947 65.9987 65.4491 69.4055Z" fill="black"/>
<path d="M97.1038 48.6248C97.6836 48.4929 98.2841 48.597 98.65 49.1451C98.3463 49.6447 97.7043 49.048 97.304 49.2492C94.8329 50.5259 96.9106 51.6985 96.1651 53.7106L95.4403 51.3238L93.7906 53.3984C93.0797 52.9613 96.1927 48.819 97.0969 48.6248H97.1038Z" fill="black"/>
<path d="M38.4398 48.6247C39.061 48.3888 40.0067 48.9023 40.5036 49.2492C41.6564 50.0541 44.1067 54.7167 41.1249 51.1156L40.9178 53.8147C38.923 51.9552 41.9946 50.7063 39.2681 49.2492C39.1922 49.2076 36.8315 49.2353 38.4398 48.6247Z" fill="black"/>
<path d="M43.8099 56.7219C44.5692 56.0767 44.935 59.3655 44.4311 59.8373C43.7409 60.0177 43.5269 56.9648 43.8099 56.7219Z" fill="black"/>
<path d="M92.3549 56.722C93.3144 56.4583 92.7276 60.2883 91.9408 59.6292C91.7613 59.4765 92.0236 56.8122 92.3549 56.722Z" fill="black"/>
</g>
<defs>
<clipPath id="clip0_2329_3630">
<rect width="145" height="145" fill="white"/>
</clipPath>
</defs>
</svg>
